<svg width="56" height="28" viewBox="0 0 56 28" fill="none"
  xmlns="http://www.w3.org/2000/svg">
  <g clip-path="url(#clip0_2838_828)">
    <path d="M2.27304e-06 1.99998L2.44788e-06 -2.09808e-05L7.75 -2.03033e-05C5.45 1.26998 2.81 1.99998 2.27304e-06 1.99998ZM26 -1.87078e-05C26 0.530414 26.2107 1.03912 26.5858 1.41419C26.9609 1.78927 27.4696 1.99998 28 1.99998C28.5304 1.99998 29.0391 1.78927 29.4142 1.41419C29.7893 1.03912 30 0.530415 30 -1.83582e-05L34.09 -1.80006e-05C36.4395 3.68016 39.6786 6.70884 43.508 8.80622C47.3375 10.9036 51.6338 12.002 56 12L56 14C55.33 14 54.66 13.98 54 13.93L54 14C54 14.5304 54.2107 15.0391 54.5858 15.4142C54.9609 15.7893 55.4696 16 56 16L56 18C55.0084 18 54.0521 17.6317 53.3167 16.9665C52.5813 16.3013 52.1192 15.3866 52.02 14.4C51.1978 15.7637 50.2611 17.055 49.22 18.26C49.9412 19.4063 50.9415 20.3508 52.1274 21.0049C53.3132 21.659 54.6457 22.0014 56 22L56 24C54.3989 24.0012 52.8209 23.6176 51.3991 22.8814C49.9772 22.1453 48.7532 21.0782 47.83 19.77C46.89 20.72 45.87 21.6 44.8 22.4C46.103 24.1399 47.7937 25.552 49.738 26.5241C51.6822 27.4962 53.8263 28.0015 56 28L48.25 28C46.25 26.9 44.52 25.37 43.15 23.55C42.03 24.27 40.85 24.92 39.62 25.48C40.2502 26.3758 40.9525 27.2186 41.72 28L39.02 28C38.57 27.44 38.14 26.86 37.73 26.26C36.43 26.74 35.1 27.13 33.73 27.41C33.84 27.61 33.96 27.81 34.09 28L30 28L30 27.93C28.6683 28.024 27.3317 28.024 26 27.93L26 28L21.91 28L22.28 27.41C20.9 27.13 19.56 26.74 18.27 26.26C17.87 26.86 17.43 27.44 16.97 28L14.28 28C15.0475 27.2186 15.7498 26.3758 16.38 25.48C15.15 24.92 13.97 24.28 12.84 23.55C11.4779 25.3773 9.74286 26.8941 7.75 28L0 28C4.58 28 8.65 25.8 11.2 22.4C10.13 21.6 9.11 20.72 8.17 19.77C7.24683 21.0782 6.02276 22.1453 4.60092 22.8814C3.17907 23.6176 1.60111 24.0012 3.49736e-07 24L5.24581e-07 22C1.3526 21.9997 2.68306 21.6565 3.86701 21.0025C5.05095 20.3484 6.04974 19.4049 6.77 18.26C5.74 17.06 4.8 15.76 3.98 14.4C3.88084 15.3866 3.41872 16.3013 2.68331 16.9665C1.9479 17.6317 0.991624 18 8.74272e-07 18L1.04912e-06 16C0.26864 16.0001 0.534559 15.9462 0.781888 15.8413C1.02922 15.7365 1.25289 15.5829 1.43955 15.3897C1.62621 15.1965 1.77204 14.9676 1.86833 14.7169C1.96462 14.4661 2.0094 14.1985 2 13.93C1.33436 13.9768 0.667283 14.0001 1.22396e-06 14L1.39881e-06 12C9.2 12 17.3 7.21998 21.91 -1.90654e-05L26 -1.87078e-05ZM48.25 -1.67627e-05L56 -1.60852e-05L56 1.99998C53.19 1.99998 50.54 1.26998 48.25 -1.67627e-05ZM1.7485e-06 7.99998L1.92335e-06 5.99998C5.6 5.99998 10.65 3.69998 14.28 -1.97324e-05L16.98 -1.94964e-05C12.94 4.88998 6.83 7.99998 1.7485e-06 7.99998ZM39.03 -1.75687e-05L41.72 -1.73336e-05C45.35 3.69998 50.4 5.99998 56 5.99998L56 7.99998C49.17 7.99998 43.06 4.88998 39.03 -1.75687e-05ZM24.02 0.399981C23.1978 1.76369 22.2611 3.05501 21.22 4.25998C21.94 5.40663 22.9393 6.35177 24.1243 7.00688C25.3092 7.662 26.641 8.00565 27.995 8.00565C29.349 8.00565 30.6808 7.662 31.8657 7.00688C33.0507 6.35177 34.05 5.40663 34.77 4.25998C33.74 3.05998 32.8 1.75998 31.98 0.399981C31.881 1.38672 31.4189 2.30149 30.6835 2.96679C29.948 3.63209 28.9917 4.00048 28 4.00048C27.0083 4.00048 26.052 3.63209 25.3165 2.96679C24.5811 2.30149 24.119 1.38672 24.02 0.399981ZM9.73 12.26C8.43 12.74 7.1 13.13 5.73 13.41C8.04043 17.2534 11.306 20.4336 15.2093 22.6414C19.1125 24.8492 23.5206 26.0095 28.005 26.0095C32.4894 26.0095 36.8975 24.8492 40.8007 22.6414C44.704 20.4336 47.9696 17.2534 50.28 13.41C48.9 13.13 47.56 12.74 46.27 12.26C44.2614 15.2631 41.5435 17.7247 38.3568 19.4271C35.1701 21.1294 31.6129 22.02 28 22.02C24.3871 22.02 20.8299 21.1294 17.6432 19.4271C14.4565 17.7247 11.7386 15.2631 9.73 12.26ZM15.16 9.54998C14.03 10.27 12.86 10.92 11.62 11.48C13.4615 14.1165 15.9122 16.2695 18.7639 17.7561C21.6156 19.2427 24.7841 20.019 28 20.019C31.2159 20.019 34.3844 19.2427 37.2361 17.7561C40.0878 16.2695 42.5385 14.1165 44.38 11.48C43.15 10.92 41.97 10.28 40.84 9.54998C39.3538 11.556 37.4181 13.186 35.1883 14.309C32.9586 15.4321 30.4966 16.0171 28 16.0171C25.5034 16.0171 23.0414 15.4321 20.8117 14.309C18.5819 13.186 16.6463 11.556 15.16 9.54998ZM19.83 5.76998C18.89 6.71998 17.87 7.59998 16.8 8.39998C18.1016 10.1423 19.7917 11.557 21.736 12.5315C23.6803 13.5059 25.8252 14.0134 28 14.0134C30.1748 14.0134 32.3197 13.5059 34.264 12.5315C36.2083 11.557 37.8984 10.1423 39.2 8.39998C38.13 7.59998 37.11 6.71998 36.17 5.76998C35.248 7.08019 34.0245 8.14945 32.6026 8.88755C31.1807 9.62566 29.6021 10.011 28 10.011C26.3979 10.011 24.8193 9.62566 23.3974 8.88755C21.9755 8.14945 20.752 7.08019 19.83 5.76998Z" fill="currentColor" fill-opacity="0.2"/>
  </g>
  <defs>
    <clipPath id="clip0_2838_828">
      <rect width="56" height="28" fill="white" transform="translate(56 28) rotate(-180)"/>
    </clipPath>
  </defs>
</svg>
