<svg width="1377" height="620" viewBox="0 0 1377 620" fill="none" xmlns="http://www.w3.org/2000/svg">
<g opacity="0.45">
<path d="M13.5565 7.66007C14.0731 6.35019 15.9269 6.35019 16.4435 7.66008L18.9954 14.1304C19.1531 14.5303 19.4697 14.8469 19.8696 15.0046L26.3399 17.5565C27.6498 18.0731 27.6498 19.9269 26.3399 20.4435L19.8696 22.9954C19.4697 23.1531 19.1531 23.4697 18.9954 23.8696L16.4435 30.3399C15.9269 31.6498 14.0731 31.6498 13.5565 30.3399L11.0046 23.8696C10.8469 23.4697 10.5303 23.1531 10.1304 22.9954L3.66007 20.4435C2.35019 19.9269 2.35019 18.0731 3.66008 17.5565L10.1304 15.0046C10.5303 14.8469 10.8469 14.5303 11.0046 14.1304L13.5565 7.66007Z" fill="#E7E0D5"/>
<path d="M1036.85 308.928C1037.26 307.88 1038.74 307.88 1039.15 308.928L1041.2 314.104C1041.32 314.424 1041.58 314.678 1041.9 314.804L1047.07 316.845C1048.12 317.258 1048.12 318.742 1047.07 319.155L1041.9 321.196C1041.58 321.322 1041.32 321.576 1041.2 321.896L1039.15 327.072C1038.74 328.12 1037.26 328.12 1036.85 327.072L1034.8 321.896C1034.68 321.576 1034.42 321.322 1034.1 321.196L1028.93 319.155C1027.88 318.742 1027.88 317.258 1028.93 316.845L1034.1 314.804C1034.42 314.678 1034.68 314.424 1034.8 314.104L1036.85 308.928Z" fill="#E7E0D5"/>
<path d="M1317.85 109.928C1318.26 108.88 1319.74 108.88 1320.15 109.928L1322.2 115.104C1322.32 115.424 1322.58 115.678 1322.9 115.804L1328.07 117.845C1329.12 118.258 1329.12 119.742 1328.07 120.155L1322.9 122.196C1322.58 122.322 1322.32 122.576 1322.2 122.896L1320.15 128.072C1319.74 129.12 1318.26 129.12 1317.85 128.072L1315.8 122.896C1315.68 122.576 1315.42 122.322 1315.1 122.196L1309.93 120.155C1308.88 119.742 1308.88 118.258 1309.93 117.845L1315.1 115.804C1315.42 115.678 1315.68 115.424 1315.8 115.104L1317.85 109.928Z" fill="#E7E0D5"/>
<path d="M111.238 466.734C112.048 464.682 114.952 464.682 115.762 466.734L119.759 476.871C120.007 477.498 120.502 477.993 121.129 478.241L131.266 482.238C133.318 483.048 133.318 485.952 131.266 486.762L121.129 490.759C120.502 491.007 120.007 491.502 119.759 492.129L115.762 502.266C114.952 504.318 112.048 504.318 111.238 502.266L107.241 492.129C106.993 491.502 106.498 491.007 105.871 490.759L95.7341 486.762C93.682 485.952 93.682 483.048 95.7341 482.238L105.871 478.241C106.498 477.993 106.993 477.498 107.241 476.871L111.238 466.734Z" fill="#E7E0D5"/>
<path d="M592.238 498.734C593.048 496.682 595.952 496.682 596.762 498.734L600.759 508.871C601.007 509.498 601.502 509.993 602.129 510.241L612.266 514.238C614.318 515.048 614.318 517.952 612.266 518.762L602.129 522.759C601.502 523.007 601.007 523.502 600.759 524.129L596.762 534.266C595.952 536.318 593.048 536.318 592.238 534.266L588.241 524.129C587.993 523.502 587.498 523.007 586.871 522.759L576.734 518.762C574.682 517.952 574.682 515.048 576.734 514.238L586.871 510.241C587.498 509.993 587.993 509.498 588.241 508.871L592.238 498.734Z" fill="#E7E0D5"/>
<path d="M778.46 576.904C779.011 575.507 780.989 575.507 781.54 576.904L784.262 583.806C784.43 584.232 784.768 584.57 785.194 584.738L792.096 587.46C793.493 588.011 793.493 589.989 792.096 590.54L785.194 593.262C784.768 593.43 784.43 593.768 784.262 594.194L781.54 601.096C780.989 602.493 779.011 602.493 778.46 601.096L775.738 594.194C775.57 593.768 775.232 593.43 774.806 593.262L767.904 590.54C766.507 589.989 766.507 588.011 767.904 587.46L774.806 584.738C775.232 584.57 775.57 584.232 775.738 583.806L778.46 576.904Z" fill="#E7E0D5"/>
<path d="M985.46 462.904C986.011 461.507 987.989 461.507 988.54 462.904L991.262 469.806C991.43 470.232 991.768 470.57 992.194 470.738L999.096 473.46C1000.49 474.011 1000.49 475.989 999.096 476.54L992.194 479.262C991.768 479.43 991.43 479.768 991.262 480.194L988.54 487.096C987.989 488.493 986.011 488.493 985.46 487.096L982.738 480.194C982.57 479.768 982.232 479.43 981.806 479.262L974.904 476.54C973.507 475.989 973.507 474.011 974.904 473.46L981.806 470.738C982.232 470.57 982.57 470.232 982.738 469.806L985.46 462.904Z" fill="#E7E0D5"/>
<path d="M1152.2 553.294C1152.67 552.115 1154.33 552.115 1154.8 553.294L1157.1 559.117C1157.24 559.477 1157.52 559.762 1157.88 559.904L1163.71 562.201C1164.88 562.666 1164.88 564.334 1163.71 564.799L1157.88 567.096C1157.52 567.238 1157.24 567.523 1157.1 567.883L1154.8 573.706C1154.33 574.885 1152.67 574.885 1152.2 573.706L1149.9 567.883C1149.76 567.523 1149.48 567.238 1149.12 567.096L1143.29 564.799C1142.12 564.334 1142.12 562.666 1143.29 562.201L1149.12 559.904C1149.48 559.762 1149.76 559.477 1149.9 559.117L1152.2 553.294Z" fill="#E7E0D5"/>
<path d="M323.816 549.27C324.419 547.742 326.581 547.742 327.184 549.27L330.161 556.819C330.345 557.285 330.715 557.655 331.181 557.839L338.73 560.816C340.258 561.419 340.258 563.581 338.73 564.184L331.181 567.161C330.715 567.345 330.345 567.715 330.161 568.181L327.184 575.73C326.581 577.258 324.419 577.258 323.816 575.73L320.839 568.181C320.655 567.715 320.285 567.345 319.819 567.161L312.27 564.184C310.742 563.581 310.742 561.419 312.27 560.816L319.819 557.839C320.285 557.655 320.655 557.285 320.839 556.819L323.816 549.27Z" fill="#E7E0D5"/>
<path d="M289.238 199.734C290.048 197.682 292.952 197.682 293.762 199.734L297.759 209.871C298.007 210.498 298.502 210.993 299.129 211.241L309.266 215.238C311.318 216.048 311.318 218.952 309.266 219.762L299.129 223.759C298.502 224.007 298.007 224.502 297.759 225.129L293.762 235.266C292.952 237.318 290.048 237.318 289.238 235.266L285.241 225.129C284.993 224.502 284.498 224.007 283.871 223.759L273.734 219.762C271.682 218.952 271.682 216.048 273.734 215.238L283.871 211.241C284.498 210.993 284.993 210.498 285.241 209.871L289.238 199.734Z" fill="#E7E0D5"/>
<path d="M899.912 119.026C900.48 117.585 902.52 117.585 903.088 119.026L905.895 126.143C906.068 126.583 906.417 126.932 906.857 127.105L913.974 129.912C915.415 130.48 915.415 132.52 913.974 133.088L906.857 135.895C906.417 136.068 906.068 136.417 905.895 136.857L903.088 143.974C902.52 145.415 900.48 145.415 899.912 143.974L897.105 136.857C896.932 136.417 896.583 136.068 896.143 135.895L889.026 133.088C887.585 132.52 887.585 130.48 889.026 129.912L896.143 127.105C896.583 126.932 896.932 126.583 897.105 126.143L899.912 119.026Z" fill="#E7E0D5"/>
<path d="M1120.24 5.73412C1121.05 3.68197 1123.95 3.68197 1124.76 5.73412L1128.76 15.871C1129.01 16.4975 1129.5 16.9935 1130.13 17.2406L1140.27 21.2385C1142.32 22.0479 1142.32 24.9521 1140.27 25.7615L1130.13 29.7594C1129.5 30.0065 1129.01 30.5025 1128.76 31.129L1124.76 41.2659C1123.95 43.318 1121.05 43.318 1120.24 41.2659L1116.24 31.129C1115.99 30.5025 1115.5 30.0065 1114.87 29.7594L1104.73 25.7615C1102.68 24.9521 1102.68 22.0479 1104.73 21.2385L1114.87 17.2406C1115.5 16.9935 1115.99 16.4975 1116.24 15.871L1120.24 5.73412Z" fill="#E7E0D5"/>
<path d="M1170.24 242.734C1171.05 240.682 1173.95 240.682 1174.76 242.734L1178.76 252.871C1179.01 253.498 1179.5 253.993 1180.13 254.241L1190.27 258.238C1192.32 259.048 1192.32 261.952 1190.27 262.762L1180.13 266.759C1179.5 267.007 1179.01 267.502 1178.76 268.129L1174.76 278.266C1173.95 280.318 1171.05 280.318 1170.24 278.266L1166.24 268.129C1165.99 267.502 1165.5 267.007 1164.87 266.759L1154.73 262.762C1152.68 261.952 1152.68 259.048 1154.73 258.238L1164.87 254.241C1165.5 253.993 1165.99 253.498 1166.24 252.871L1170.24 242.734Z" fill="#E7E0D5"/>
<path d="M90.1046 272.538C90.604 271.272 92.396 271.272 92.8954 272.538L95.3622 278.793C95.5147 279.179 95.8207 279.485 96.2073 279.638L102.462 282.105C103.728 282.604 103.728 284.396 102.462 284.895L96.2073 287.362C95.8207 287.515 95.5147 287.821 95.3622 288.207L92.8954 294.462C92.396 295.728 90.604 295.728 90.1046 294.462L87.6378 288.207C87.4853 287.821 87.1793 287.515 86.7927 287.362L80.5381 284.895C79.2719 284.396 79.2719 282.604 80.5381 282.105L86.7927 279.638C87.1793 279.485 87.4853 279.179 87.6378 278.793L90.1046 272.538Z" fill="#E7E0D5"/>
<path d="M592.238 99.7341C593.048 97.682 595.952 97.682 596.762 99.7341L600.759 109.871C601.007 110.498 601.502 110.993 602.129 111.241L612.266 115.238C614.318 116.048 614.318 118.952 612.266 119.762L602.129 123.759C601.502 124.007 601.007 124.502 600.759 125.129L596.762 135.266C595.952 137.318 593.048 137.318 592.238 135.266L588.241 125.129C587.993 124.502 587.498 124.007 586.871 123.759L576.734 119.762C574.682 118.952 574.682 116.048 576.734 115.238L586.871 111.241C587.498 110.993 587.993 110.498 588.241 109.871L592.238 99.7341Z" fill="#E7E0D5"/>
<path d="M1351.24 400.734C1352.05 398.682 1354.95 398.682 1355.76 400.734L1359.76 410.871C1360.01 411.498 1360.5 411.993 1361.13 412.241L1371.27 416.238C1373.32 417.048 1373.32 419.952 1371.27 420.762L1361.13 424.759C1360.5 425.007 1360.01 425.502 1359.76 426.129L1355.76 436.266C1354.95 438.318 1352.05 438.318 1351.24 436.266L1347.24 426.129C1346.99 425.502 1346.5 425.007 1345.87 424.759L1335.73 420.762C1333.68 419.952 1333.68 417.048 1335.73 416.238L1345.87 412.241C1346.5 411.993 1346.99 411.498 1347.24 410.871L1351.24 400.734Z" fill="#E7E0D5"/>
<path d="M437.297 440.05C437.728 438.958 439.272 438.958 439.703 440.05L441.829 445.442C441.961 445.775 442.225 446.039 442.558 446.171L447.95 448.297C449.042 448.728 449.042 450.272 447.95 450.703L442.558 452.829C442.225 452.961 441.961 453.225 441.829 453.558L439.703 458.95C439.272 460.042 437.728 460.042 437.297 458.95L435.171 453.558C435.039 453.225 434.775 452.961 434.442 452.829L429.05 450.703C427.958 450.272 427.958 448.728 429.05 448.297L434.442 446.171C434.775 446.039 435.039 445.775 435.171 445.442L437.297 440.05Z" fill="#E7E0D5"/>
<path d="M374.297 53.0501C374.728 51.9585 376.272 51.9585 376.703 53.0501L378.829 58.442C378.961 58.7753 379.225 59.0391 379.558 59.1705L384.95 61.2971C386.042 61.7276 386.042 63.2724 384.95 63.7029L379.558 65.8295C379.225 65.9609 378.961 66.2247 378.829 66.558L376.703 71.9499C376.272 73.0415 374.728 73.0415 374.297 71.9499L372.171 66.558C372.039 66.2247 371.775 65.9609 371.442 65.8295L366.05 63.7029C364.958 63.2724 364.958 61.7276 366.05 61.2971L371.442 59.1705C371.775 59.0391 372.039 58.7753 372.171 58.442L374.297 53.0501Z" fill="#E7E0D5"/>
</g>
</svg>
