<svg width="1616" height="940" viewBox="0 0 1616 940" fill="none"
  xmlns="http://www.w3.org/2000/svg">
  <g opacity="0.45">
    <path d="M159.035 310.307C159.035 317.095 159.725 327.892 165.288 337.631C178.987 361.61 210.096 352.395 203.621 338.461C200.71 332.195 192.094 341.142 187.955 330.728C180.76 312.624 223.795 307.405 223.392 341.434C222.867 385.773 130.911 384.283 142.806 295.465C154.508 208.076 209.246 155.926 226.468 144.193C232.313 140.211 186.6 156.308 160.821 199.583C138.473 237.101 141.001 261.368 134.068 266.725C128.326 271.162 102.497 251.467 100.261 222.855C96.431 173.864 134.58 104.364 228.387 100.253C257.842 98.9623 297.913 102.365 303.077 116.125C308.025 129.31 291.213 128.943 296.574 170.936C298.217 183.806 313.343 251.612 267.505 288.319C243.544 307.506 211.243 307.247 184.591 295.422C175.538 291.406 173.013 287.375 166.499 287.593C158.668 287.856 159.035 304.514 159.035 310.307Z" fill="currentColor"/>
    <rect x="574.342" y="159.965" width="100" height="128.57" rx="28.5714" transform="rotate(15 574.342 159.965)" fill="currentColor"/>
    <path d="M967.035 310.307C967.035 317.095 967.725 327.892 973.288 337.631C986.987 361.61 1018.1 352.395 1011.62 338.461C1008.71 332.195 1000.09 341.142 995.955 330.728C988.76 312.624 1031.79 307.405 1031.39 341.434C1030.87 385.773 938.911 384.283 950.806 295.465C962.508 208.076 1017.25 155.926 1034.47 144.193C1040.31 140.211 994.6 156.308 968.821 199.583C946.473 237.101 949.001 261.368 942.068 266.725C936.326 271.162 910.497 251.467 908.261 222.855C904.431 173.864 942.58 104.364 1036.39 100.253C1065.84 98.9623 1105.91 102.365 1111.08 116.125C1116.03 129.31 1099.21 128.943 1104.57 170.936C1106.22 183.806 1121.34 251.612 1075.51 288.319C1051.54 307.506 1019.24 307.247 992.591 295.422C983.538 291.406 981.013 287.375 974.499 287.593C966.668 287.856 967.035 304.514 967.035 310.307Z" fill="currentColor"/>
    <rect x="978.342" y="629.964" width="100" height="128.57" rx="28.5714" transform="rotate(15 978.342 629.964)" fill="currentColor"/>
    <path d="M1371.04 780.307C1371.04 787.095 1371.72 797.892 1377.29 807.631C1390.99 831.61 1422.1 822.395 1415.62 808.461C1412.71 802.195 1404.09 811.142 1399.95 800.728C1392.76 782.624 1435.79 777.405 1435.39 811.434C1434.87 855.773 1342.91 854.283 1354.81 765.465C1366.51 678.076 1421.25 625.926 1438.47 614.193C1444.31 610.211 1398.6 626.308 1372.82 669.583C1350.47 707.101 1353 731.368 1346.07 736.725C1340.33 741.162 1314.5 721.467 1312.26 692.855C1308.43 643.864 1346.58 574.364 1440.39 570.253C1469.84 568.962 1509.91 572.365 1515.08 586.125C1520.03 599.31 1503.21 598.943 1508.57 640.936C1510.22 653.806 1525.34 721.612 1479.51 758.319C1455.54 777.506 1423.24 777.247 1396.59 765.422C1387.54 761.406 1385.01 757.375 1378.5 757.593C1370.67 757.856 1371.04 774.514 1371.04 780.307Z" fill="currentColor"/>
    <rect x="170.342" y="629.964" width="100" height="128.57" rx="28.5714" transform="rotate(15 170.342 629.964)" fill="currentColor"/>
    <path d="M563.035 780.307C563.035 787.095 563.725 797.892 569.288 807.631C582.987 831.61 614.096 822.395 607.621 808.461C604.71 802.195 596.094 811.142 591.955 800.728C584.76 782.624 627.795 777.405 627.392 811.434C626.867 855.773 534.911 854.283 546.806 765.465C558.508 678.076 613.246 625.926 630.468 614.193C636.313 610.211 590.6 626.308 564.821 669.583C542.473 707.101 545.001 731.368 538.068 736.725C532.326 741.162 506.497 721.467 504.261 692.855C500.431 643.864 538.58 574.364 632.387 570.253C661.842 568.962 701.913 572.365 707.077 586.125C712.025 599.31 695.213 598.943 700.574 640.936C702.217 653.806 717.343 721.612 671.505 758.319C647.544 777.506 615.243 777.247 588.591 765.422C579.538 761.406 577.013 757.375 570.499 757.593C562.668 757.856 563.035 774.514 563.035 780.307Z" fill="currentColor"/>
    <rect x="1382.34" y="159.965" width="100" height="128.57" rx="28.5714" transform="rotate(15 1382.34 159.965)" fill="currentColor"/>
  </g>
</svg>
