<svg xmlns="http://www.w3.org/2000/svg" xmlns:xlink="http://www.w3.org/1999/xlink" viewBox="0 0 77 77" preserveAspectRatio="xMidYMid" width="77" height="77" style="shape-rendering:auto;background-position-x:0%;background-position-y:0%;background-size:auto;background-origin:padding-box;background-clip:border-box;background:scroll rgba(0, 0, 0, 0) none  repeat;width:77px;height:77px;;animation:none"><g id="pattern-group" transform="matrix(0.3007812798023224,0,0,0.3007812798023224,0,0)" data-fill="c1" style="fill:rgba(243, 241, 234, 0.2);transform:matrix(0.300781, 0, 0, 0.300781, 0, 0);;animation:none"><g data-idx="0" data-dup="" dx="-128" dy="-128" style="animation-duration:1s;animation-timing-function:linear;animation-delay:0s;animation-iteration-count:infinite;animation-direction:normal;animation-fill-mode:forwards;animation-play-state:paused;animation-name:animate;animation-timeline:auto;animation-range-start:normal;animation-range-end:normal;transform-box:view-box;transform-origin:32px -84.58px;fill:rgba(243, 241, 234, 0.2);transform:matrix(1, 0, 0, 1, 0, 0);;animation:none"><g transform="matrix(1,0,0,1,-128,-128)" style="fill:rgba(243, 241, 234, 0.2);transform:matrix(1, 0, 0, 1, -128, -128);;animation:none"><path d="M32,32L32,32c20.295,30.445,65.032,30.445,85.327,0l0,0l0.002,0.004c20.296,30.444,65.031,30.444,85.326-0.001L202.659,32
	l0.009,0.014c20.296,30.441,65.027,30.441,85.323,0L288,32" stroke-miterlimit="10" stroke-linejoin="round" stroke-linecap="round" stroke-width="8" stroke="#000000" fill="none" data-stroke="c1" style="stroke:rgba(243, 241, 234, 0.2);fill:none;;animation:none"></path></g></g>
<g data-idx="0" data-dup="" dx="128" dy="-128" style="animation-duration:1s;animation-timing-function:linear;animation-delay:0s;animation-iteration-count:infinite;animation-direction:normal;animation-fill-mode:forwards;animation-play-state:paused;animation-name:animate;animation-timeline:auto;animation-range-start:normal;animation-range-end:normal;transform-box:view-box;transform-origin:288px -84.58px;fill:rgba(243, 241, 234, 0.2);transform:matrix(1, 0, 0, 1, 0, 0);;animation:none"><g transform="matrix(1,0,0,1,128,-128)" style="fill:rgba(243, 241, 234, 0.2);transform:matrix(1, 0, 0, 1, 128, -128);;animation:none"><path d="M32,32L32,32c20.295,30.445,65.032,30.445,85.327,0l0,0l0.002,0.004c20.296,30.444,65.031,30.444,85.326-0.001L202.659,32
	l0.009,0.014c20.296,30.441,65.027,30.441,85.323,0L288,32" stroke-miterlimit="10" stroke-linejoin="round" stroke-linecap="round" stroke-width="8" stroke="#000000" fill="none" data-stroke="c1" style="stroke:rgba(243, 241, 234, 0.2);fill:none;;animation:none"></path></g></g>
<g data-idx="1" data-dup="" dx="-128" dy="-128" style="animation-duration:1s;animation-timing-function:linear;animation-delay:-0.25s;animation-iteration-count:infinite;animation-direction:normal;animation-fill-mode:forwards;animation-play-state:paused;animation-name:animate;animation-timeline:auto;animation-range-start:normal;animation-range-end:normal;transform-box:view-box;transform-origin:32px 43.42px;fill:rgba(243, 241, 234, 0.2);transform:matrix(1, 0, 0, 1, 0, 0);;animation:none"><g transform="matrix(1,0,0,1,-128,-128)" style="fill:rgba(243, 241, 234, 0.2);transform:matrix(1, 0, 0, 1, -128, -128);;animation:none"><path d="M32,160L32,160c20.295,30.445,65.032,30.445,85.327,0l0,0l0.002,0.004c20.296,30.444,65.031,30.444,85.326-0.001l0.002-0.003
	l0.009,0.014c20.296,30.441,65.027,30.441,85.323,0L288,160" stroke-miterlimit="10" stroke-linejoin="round" stroke-linecap="round" stroke-width="8" stroke="#000000" fill="none" data-stroke="c1" style="stroke:rgba(243, 241, 234, 0.2);fill:none;;animation:none"></path></g></g>
<g data-idx="1" data-dup="" dx="128" dy="-128" style="animation-duration:1s;animation-timing-function:linear;animation-delay:-0.25s;animation-iteration-count:infinite;animation-direction:normal;animation-fill-mode:forwards;animation-play-state:paused;animation-name:animate;animation-timeline:auto;animation-range-start:normal;animation-range-end:normal;transform-box:view-box;transform-origin:288px 43.42px;fill:rgba(243, 241, 234, 0.2);transform:matrix(1, 0, 0, 1, 0, 0);;animation:none"><g transform="matrix(1,0,0,1,128,-128)" style="fill:rgba(243, 241, 234, 0.2);transform:matrix(1, 0, 0, 1, 128, -128);;animation:none"><path d="M32,160L32,160c20.295,30.445,65.032,30.445,85.327,0l0,0l0.002,0.004c20.296,30.444,65.031,30.444,85.326-0.001l0.002-0.003
	l0.009,0.014c20.296,30.441,65.027,30.441,85.323,0L288,160" stroke-miterlimit="10" stroke-linejoin="round" stroke-linecap="round" stroke-width="8" stroke="#000000" fill="none" data-stroke="c1" style="stroke:rgba(243, 241, 234, 0.2);fill:none;;animation:none"></path></g></g>
<g data-idx="2" data-dup="r" dx="-128" dy="-128" style="animation-duration:1s;animation-timing-function:linear;animation-delay:-0.5s;animation-iteration-count:infinite;animation-direction:normal;animation-fill-mode:forwards;animation-play-state:paused;animation-name:animate;animation-timeline:auto;animation-range-start:normal;animation-range-end:normal;transform-box:view-box;transform-origin:-32px -20.58px;fill:rgba(243, 241, 234, 0.2);transform:matrix(1, 0, 0, 1, 0, 0);;animation:none"><g transform="matrix(1,0,0,1,-128,-128)" style="fill:rgba(243, 241, 234, 0.2);transform:matrix(1, 0, 0, 1, -128, -128);;animation:none"><path d="M-32,96L-32,96c20.295,30.445,65.032,30.445,85.327,0l0,0l0.002,0.004c20.296,30.444,65.031,30.444,85.326-0.001L138.659,96
	l0.009,0.014c20.296,30.441,65.027,30.441,85.323,0L224,96" stroke-miterlimit="10" stroke-linejoin="round" stroke-linecap="round" stroke-width="8" stroke="#777777" fill="none" data-stroke="c2" style="stroke:rgba(243, 241, 234, 0.2);fill:none;;animation:none"></path></g></g>
<g data-idx="2" data-dup="r" dx="128" dy="-128" style="animation-duration:1s;animation-timing-function:linear;animation-delay:-0.5s;animation-iteration-count:infinite;animation-direction:normal;animation-fill-mode:forwards;animation-play-state:paused;animation-name:animate;animation-timeline:auto;animation-range-start:normal;animation-range-end:normal;transform-box:view-box;transform-origin:224px -20.58px;fill:rgba(243, 241, 234, 0.2);transform:matrix(1, 0, 0, 1, 0, 0);;animation:none"><g transform="matrix(1,0,0,1,128,-128)" style="fill:rgba(243, 241, 234, 0.2);transform:matrix(1, 0, 0, 1, 128, -128);;animation:none"><path d="M-32,96L-32,96c20.295,30.445,65.032,30.445,85.327,0l0,0l0.002,0.004c20.296,30.444,65.031,30.444,85.326-0.001L138.659,96
	l0.009,0.014c20.296,30.441,65.027,30.441,85.323,0L224,96" stroke-miterlimit="10" stroke-linejoin="round" stroke-linecap="round" stroke-width="8" stroke="#777777" fill="none" data-stroke="c2" style="stroke:rgba(243, 241, 234, 0.2);fill:none;;animation:none"></path></g></g>
<g data-idx="3" data-dup="r" dx="-128" dy="-128" style="animation-duration:1s;animation-timing-function:linear;animation-delay:-0.75s;animation-iteration-count:infinite;animation-direction:normal;animation-fill-mode:forwards;animation-play-state:paused;animation-name:animate;animation-timeline:auto;animation-range-start:normal;animation-range-end:normal;transform-box:view-box;transform-origin:-32px 107.42px;fill:rgba(243, 241, 234, 0.2);transform:matrix(1, 0, 0, 1, 0, 0);;animation:none"><g transform="matrix(1,0,0,1,-128,-128)" style="fill:rgba(243, 241, 234, 0.2);transform:matrix(1, 0, 0, 1, -128, -128);;animation:none"><path d="M-32,224L-32,224c20.295,30.445,65.032,30.445,85.327,0l0,0l0,0.001c20.297,30.445,65.034,30.445,85.33-0.001l0,0l0.007,0.011
	c20.297,30.442,65.031,30.442,85.327,0L224,224" stroke-miterlimit="10" stroke-linejoin="round" stroke-linecap="round" stroke-width="8" stroke="#777777" fill="none" data-stroke="c2" style="stroke:rgba(243, 241, 234, 0.2);fill:none;;animation:none"></path></g></g>
<g data-idx="3" data-dup="r" dx="128" dy="-128" style="animation-duration:1s;animation-timing-function:linear;animation-delay:-0.75s;animation-iteration-count:infinite;animation-direction:normal;animation-fill-mode:forwards;animation-play-state:paused;animation-name:animate;animation-timeline:auto;animation-range-start:normal;animation-range-end:normal;transform-box:view-box;transform-origin:224px 107.42px;fill:rgba(243, 241, 234, 0.2);transform:matrix(1, 0, 0, 1, 0, 0);;animation:none"><g transform="matrix(1,0,0,1,128,-128)" style="fill:rgba(243, 241, 234, 0.2);transform:matrix(1, 0, 0, 1, 128, -128);;animation:none"><path d="M-32,224L-32,224c20.295,30.445,65.032,30.445,85.327,0l0,0l0,0.001c20.297,30.445,65.034,30.445,85.33-0.001l0,0l0.007,0.011
	c20.297,30.442,65.031,30.442,85.327,0L224,224" stroke-miterlimit="10" stroke-linejoin="round" stroke-linecap="round" stroke-width="8" stroke="#777777" fill="none" data-stroke="c2" style="stroke:rgba(243, 241, 234, 0.2);fill:none;;animation:none"></path></g></g>
<g data-idx="0" data-dup="" dx="-128" dy="128" style="animation-duration:1s;animation-timing-function:linear;animation-delay:0s;animation-iteration-count:infinite;animation-direction:normal;animation-fill-mode:forwards;animation-play-state:paused;animation-name:animate;animation-timeline:auto;animation-range-start:normal;animation-range-end:normal;transform-box:view-box;transform-origin:32px 171.42px;fill:rgba(243, 241, 234, 0.2);transform:matrix(1, 0, 0, 1, 0, 0);;animation:none"><g transform="matrix(1,0,0,1,-128,128)" style="fill:rgba(243, 241, 234, 0.2);transform:matrix(1, 0, 0, 1, -128, 128);;animation:none"><path d="M32,32L32,32c20.295,30.445,65.032,30.445,85.327,0l0,0l0.002,0.004c20.296,30.444,65.031,30.444,85.326-0.001L202.659,32
	l0.009,0.014c20.296,30.441,65.027,30.441,85.323,0L288,32" stroke-miterlimit="10" stroke-linejoin="round" stroke-linecap="round" stroke-width="8" stroke="#000000" fill="none" data-stroke="c1" style="stroke:rgba(243, 241, 234, 0.2);fill:none;;animation:none"></path></g></g>
<g data-idx="0" data-dup="" dx="128" dy="128" style="animation-duration:1s;animation-timing-function:linear;animation-delay:0s;animation-iteration-count:infinite;animation-direction:normal;animation-fill-mode:forwards;animation-play-state:paused;animation-name:animate;animation-timeline:auto;animation-range-start:normal;animation-range-end:normal;transform-box:view-box;transform-origin:288px 171.42px;fill:rgba(243, 241, 234, 0.2);transform:matrix(1, 0, 0, 1, 0, 0);;animation:none"><g transform="matrix(1,0,0,1,128,128)" style="fill:rgba(243, 241, 234, 0.2);transform:matrix(1, 0, 0, 1, 128, 128);;animation:none"><path d="M32,32L32,32c20.295,30.445,65.032,30.445,85.327,0l0,0l0.002,0.004c20.296,30.444,65.031,30.444,85.326-0.001L202.659,32
	l0.009,0.014c20.296,30.441,65.027,30.441,85.323,0L288,32" stroke-miterlimit="10" stroke-linejoin="round" stroke-linecap="round" stroke-width="8" stroke="#000000" fill="none" data-stroke="c1" style="stroke:rgba(243, 241, 234, 0.2);fill:none;;animation:none"></path></g></g>
<g data-idx="1" data-dup="" dx="-128" dy="128" style="animation-duration:1s;animation-timing-function:linear;animation-delay:-0.25s;animation-iteration-count:infinite;animation-direction:normal;animation-fill-mode:forwards;animation-play-state:paused;animation-name:animate;animation-timeline:auto;animation-range-start:normal;animation-range-end:normal;transform-box:view-box;transform-origin:32px 299.42px;fill:rgba(243, 241, 234, 0.2);transform:matrix(1, 0, 0, 1, 0, 0);;animation:none"><g transform="matrix(1,0,0,1,-128,128)" style="fill:rgba(243, 241, 234, 0.2);transform:matrix(1, 0, 0, 1, -128, 128);;animation:none"><path d="M32,160L32,160c20.295,30.445,65.032,30.445,85.327,0l0,0l0.002,0.004c20.296,30.444,65.031,30.444,85.326-0.001l0.002-0.003
	l0.009,0.014c20.296,30.441,65.027,30.441,85.323,0L288,160" stroke-miterlimit="10" stroke-linejoin="round" stroke-linecap="round" stroke-width="8" stroke="#000000" fill="none" data-stroke="c1" style="stroke:rgba(243, 241, 234, 0.2);fill:none;;animation:none"></path></g></g>
<g data-idx="1" data-dup="" dx="128" dy="128" style="animation-duration:1s;animation-timing-function:linear;animation-delay:-0.25s;animation-iteration-count:infinite;animation-direction:normal;animation-fill-mode:forwards;animation-play-state:paused;animation-name:animate;animation-timeline:auto;animation-range-start:normal;animation-range-end:normal;transform-box:view-box;transform-origin:288px 299.42px;fill:rgba(243, 241, 234, 0.2);transform:matrix(1, 0, 0, 1, 0, 0);;animation:none"><g transform="matrix(1,0,0,1,128,128)" style="fill:rgba(243, 241, 234, 0.2);transform:matrix(1, 0, 0, 1, 128, 128);;animation:none"><path d="M32,160L32,160c20.295,30.445,65.032,30.445,85.327,0l0,0l0.002,0.004c20.296,30.444,65.031,30.444,85.326-0.001l0.002-0.003
	l0.009,0.014c20.296,30.441,65.027,30.441,85.323,0L288,160" stroke-miterlimit="10" stroke-linejoin="round" stroke-linecap="round" stroke-width="8" stroke="#000000" fill="none" data-stroke="c1" style="stroke:rgba(243, 241, 234, 0.2);fill:none;;animation:none"></path></g></g>
<g data-idx="2" data-dup="r" dx="-128" dy="128" style="animation-duration:1s;animation-timing-function:linear;animation-delay:-0.5s;animation-iteration-count:infinite;animation-direction:normal;animation-fill-mode:forwards;animation-play-state:paused;animation-name:animate;animation-timeline:auto;animation-range-start:normal;animation-range-end:normal;transform-box:view-box;transform-origin:-32px 235.42px;fill:rgba(243, 241, 234, 0.2);transform:matrix(1, 0, 0, 1, 0, 0);;animation:none"><g transform="matrix(1,0,0,1,-128,128)" style="fill:rgba(243, 241, 234, 0.2);transform:matrix(1, 0, 0, 1, -128, 128);;animation:none"><path d="M-32,96L-32,96c20.295,30.445,65.032,30.445,85.327,0l0,0l0.002,0.004c20.296,30.444,65.031,30.444,85.326-0.001L138.659,96
	l0.009,0.014c20.296,30.441,65.027,30.441,85.323,0L224,96" stroke-miterlimit="10" stroke-linejoin="round" stroke-linecap="round" stroke-width="8" stroke="#777777" fill="none" data-stroke="c2" style="stroke:rgba(243, 241, 234, 0.2);fill:none;;animation:none"></path></g></g>
<g data-idx="2" data-dup="r" dx="128" dy="128" style="animation-duration:1s;animation-timing-function:linear;animation-delay:-0.5s;animation-iteration-count:infinite;animation-direction:normal;animation-fill-mode:forwards;animation-play-state:paused;animation-name:animate;animation-timeline:auto;animation-range-start:normal;animation-range-end:normal;transform-box:view-box;transform-origin:224px 235.42px;fill:rgba(243, 241, 234, 0.2);transform:matrix(1, 0, 0, 1, 0, 0);;animation:none"><g transform="matrix(1,0,0,1,128,128)" style="fill:rgba(243, 241, 234, 0.2);transform:matrix(1, 0, 0, 1, 128, 128);;animation:none"><path d="M-32,96L-32,96c20.295,30.445,65.032,30.445,85.327,0l0,0l0.002,0.004c20.296,30.444,65.031,30.444,85.326-0.001L138.659,96
	l0.009,0.014c20.296,30.441,65.027,30.441,85.323,0L224,96" stroke-miterlimit="10" stroke-linejoin="round" stroke-linecap="round" stroke-width="8" stroke="#777777" fill="none" data-stroke="c2" style="stroke:rgba(243, 241, 234, 0.2);fill:none;;animation:none"></path></g></g>
<g data-idx="3" data-dup="r" dx="-128" dy="128" style="animation-duration:1s;animation-timing-function:linear;animation-delay:-0.75s;animation-iteration-count:infinite;animation-direction:normal;animation-fill-mode:forwards;animation-play-state:paused;animation-name:animate;animation-timeline:auto;animation-range-start:normal;animation-range-end:normal;transform-box:view-box;transform-origin:-32px 363.42px;fill:rgba(243, 241, 234, 0.2);transform:matrix(1, 0, 0, 1, 0, 0);;animation:none"><g transform="matrix(1,0,0,1,-128,128)" style="fill:rgba(243, 241, 234, 0.2);transform:matrix(1, 0, 0, 1, -128, 128);;animation:none"><path d="M-32,224L-32,224c20.295,30.445,65.032,30.445,85.327,0l0,0l0,0.001c20.297,30.445,65.034,30.445,85.33-0.001l0,0l0.007,0.011
	c20.297,30.442,65.031,30.442,85.327,0L224,224" stroke-miterlimit="10" stroke-linejoin="round" stroke-linecap="round" stroke-width="8" stroke="#777777" fill="none" data-stroke="c2" style="stroke:rgba(243, 241, 234, 0.2);fill:none;;animation:none"></path></g></g>
<g data-idx="3" data-dup="r" dx="128" dy="128" style="animation-duration:1s;animation-timing-function:linear;animation-delay:-0.75s;animation-iteration-count:infinite;animation-direction:normal;animation-fill-mode:forwards;animation-play-state:paused;animation-name:animate;animation-timeline:auto;animation-range-start:normal;animation-range-end:normal;transform-box:view-box;transform-origin:224px 363.42px;fill:rgba(243, 241, 234, 0.2);transform:matrix(1, 0, 0, 1, 0, 0);;animation:none"><g transform="matrix(1,0,0,1,128,128)" style="fill:rgba(243, 241, 234, 0.2);transform:matrix(1, 0, 0, 1, 128, 128);;animation:none"><path d="M-32,224L-32,224c20.295,30.445,65.032,30.445,85.327,0l0,0l0,0.001c20.297,30.445,65.034,30.445,85.33-0.001l0,0l0.007,0.011
	c20.297,30.442,65.031,30.442,85.327,0L224,224" stroke-miterlimit="10" stroke-linejoin="round" stroke-linecap="round" stroke-width="8" stroke="#777777" fill="none" data-stroke="c2" style="stroke:rgba(243, 241, 234, 0.2);fill:none;;animation:none"></path></g></g></g>
<STYLE type="text/css">@keyframes animate { 0.00% {animation-timing-function: cubic-bezier(0.33,0.00,0.67,0.00);transform: translate(0.00px,0.00px) rotate(0.00deg) scale(1.00, 1.00) skew(0deg, 0.00deg) ;opacity: 1.00;}50.00% {animation-timing-function: cubic-bezier(0.33,0.00,0.67,0.00);transform: translate(0.00px,0.00px) rotate(0.00deg) ;}100.00% {animation-timing-function: cubic-bezier(0.33,0.00,0.67,0.00);transform: translate(0.00px,0.00px) rotate(0.00deg) ;} }</STYLE><!-- [ldio] generated by https://loading.io --></svg>