<?xml version="1.0" encoding="UTF-8" standalone="no"?>
<!DOCTYPE svg PUBLIC "-//W3C//DTD SVG 1.1//EN" "http://www.w3.org/Graphics/SVG/1.1/DTD/svg11.dtd">
<svg width="100%" height="100%" viewBox="0 0 128 128" version="1.1" xmlns="http://www.w3.org/2000/svg" xmlns:xlink="http://www.w3.org/1999/xlink" xml:space="preserve" xmlns:serif="http://www.serif.com/" style="fill-rule:evenodd;clip-rule:evenodd;stroke-linecap:round;stroke-linejoin:round;stroke-miterlimit:1.5;">
    <g transform="matrix(1,0,0,1,-276.150847,-0)">
        <g transform="matrix(2.133333,0,0,2.133333,-3009.780195,-6585.963481)">
            <g id="darkmode-system" transform="matrix(0.058594,0,0,0.058594,1540.280176,3087.170381)">
                <rect x="0" y="0" width="1024" height="1024" style="fill:none;"/>
                <g transform="matrix(1.15463,0,0,1.15463,-226.99866,-28.920784)">
                    <g transform="matrix(2.433829,0,0,2.433829,-994.987438,-632.34647)">
                        <path d="M730.763,430.647C689.176,430.647 679.146,433.215 668.863,409.353C667.595,406.411 661.475,352.015 673.857,337.83C685.377,324.633 692.981,326.744 761.503,326.911C801.38,327.008 795.678,362.287 795.728,392.503C795.798,435.393 759.551,430.647 730.763,430.647Z" style="fill:rgb(243,241,234);"/>
                    </g>
                    <g transform="matrix(2.433829,0,0,2.433829,-994.987438,-632.34647)">
                        <path d="M713.937,374.504C713.934,392.898 720.99,401.952 702.505,402.006C691.765,402.037 693.009,398.19 693.017,387.502C693.032,368.092 689.936,353.342 699.502,353.303C700.62,353.299 712.054,353.252 713.288,355.629C714.033,357.065 713.946,372.993 713.937,374.504Z" style="fill:rgb(74,59,48);"/>
                    </g>
                    <g transform="matrix(2.433829,0,0,2.433829,-994.987438,-632.34647)">
                        <path d="M769.826,384.503C769.807,385.895 769.6,400.843 766.537,401.592C743.743,407.167 748.799,394.009 748.845,370.498C748.869,358.505 745.605,353.288 757.5,353.255C758.453,353.252 767.625,353.227 769.168,355.686C770.263,357.433 769.83,377.208 769.826,384.503Z" style="fill:rgb(74,59,48);"/>
                    </g>
                </g>
                <g transform="matrix(0.827585,0,0,0.827585,-297.597301,134.118972)">
                    <g transform="matrix(7.703878,0,0,25.215668,-1687.148156,-8026.245937)">
                        <path d="M340.151,346.528L340.151,347.259C340.151,347.88 339.263,348.437 337.854,348.82L337.854,348.993C337.854,349.697 336.722,350.321 334.985,350.704C333.704,352.184 329.289,353.276 324.046,353.276C318.804,353.276 314.389,352.184 313.108,350.704C311.371,350.321 310.239,349.697 310.239,348.993L310.239,348.82C308.83,348.437 307.942,347.88 307.942,347.259L307.942,346.338C308.295,346.491 308.727,346.576 309.235,346.689C309.746,346.802 311.194,346.948 311.456,346.968C313.25,347.112 315.839,347.361 321.697,347.478C321.979,347.484 322.342,347.491 325.224,347.489C326.572,347.488 326.568,347.474 327.914,347.454C328.973,347.438 330.934,347.374 332.453,347.298C332.981,347.271 336.74,347.038 338.495,346.827C339.211,346.741 339.747,346.641 340.151,346.528Z" style="fill:rgb(74,59,48);"/>
                    </g>
                    <g transform="matrix(1.29502,0,0,1.29502,146.867873,-110.044078)">
                        <path d="M706.043,409.505C706.345,418.014 707.122,417.997 706.397,426.491C705.926,432.016 706.215,432.013 705.741,437.521C705.612,439.018 703.685,452.169 703.021,455.403C698.271,478.557 689.405,496.27 687.73,499.617C679.272,516.516 675.667,521.767 666.036,536.186C665.628,536.796 665.47,536.665 660.58,543.559C657.517,547.876 657.104,547.539 653.066,553.181C652.216,554.368 641.053,566.771 640.974,566.875C637.025,572.047 636.732,571.809 633.065,577.188C631.688,579.206 630.868,579.731 626.093,588.27C616.554,605.327 614.473,617.896 614.258,619.467C612.967,628.892 609.447,635.618 597.446,640.352C587.011,644.468 564.646,649.002 561.503,649.519C552.472,651.005 540.804,652.253 534.503,652.557C526.496,652.944 526.519,653.23 518.499,653.247C501.355,653.285 499.196,653.144 497.521,653.034C462.672,650.752 447.269,645.898 436.6,643.11C435.042,642.703 426.425,639.86 423.387,637.661C418.133,633.859 414.239,631.619 411.817,621.424C411.8,621.354 411.162,617.087 410.392,613.523C406.806,596.923 394.066,577.367 387.325,569.651C385.538,567.607 385.709,567.477 383.23,564.743C374.71,555.349 367.712,545.597 365.351,542.613C361.988,538.364 353.91,526.818 352.957,525.227C338.319,500.785 339.217,500.319 335.044,491.715C331.156,483.7 329.956,480.591 324.849,462.395C324.461,461.013 321.642,448.565 321.275,445.529C318.824,425.212 317.118,410.655 323.121,383.416C324.927,375.221 330.45,354.61 342.931,333.775C344.226,331.612 352.68,318.6 356.815,313.77C360.837,309.072 371.929,295.312 390.378,282.313C403.867,272.809 412.852,268.353 417.668,265.824C418.206,265.541 418.222,265.587 424.57,262.66C426.415,261.809 426.452,261.948 428.297,261.052C428.964,260.728 443.552,254.9 449.456,253.331C450.731,252.993 452.678,252.475 465.48,249.42C465.872,249.326 481.628,246.376 485.472,246.1C490.493,245.74 490.444,245.345 495.491,245.183C496.133,245.163 496.116,245.059 503.512,244.76C506.496,244.64 523.521,244.601 529.518,245.361C536.269,246.216 541.047,245.923 563.433,250.792C577.015,253.747 593.015,260.431 595.511,261.473C602.003,264.186 606.827,265.844 621.229,273.985C622.337,274.611 636.232,283.348 641.377,287.647C647.55,292.804 651.744,295.356 662.171,306.802C670.431,315.87 671.573,317.182 681.186,331.71C681.884,332.765 687.114,341.03 689.586,346.458C693.867,355.859 698.189,365.108 701.642,380.467C704.685,394.003 705.83,405.849 706.043,409.505Z" style="fill:rgb(231,224,213);"/>
                    </g>
                </g>
                <g transform="matrix(1.091537,0,0,1.091537,-74.881609,-60.724944)">
                    <g transform="matrix(1,0,0,1,7.329112,73.263402)">
                        <g transform="matrix(10.767332,0,0,15.721931,-3359.503098,-3312.024625)">
                            <path d="M374.041,238.777L374.041,243.51C374.041,244.207 373.215,244.772 372.198,244.772C371.181,244.772 370.355,244.207 370.355,243.51L370.355,238.777C370.355,238.08 371.181,237.514 372.198,237.514C373.215,237.514 374.041,238.08 374.041,238.777Z" style="fill:rgb(231,224,213);"/>
                        </g>
                        <g transform="matrix(10.742304,0,0,15.721931,-3246.23809,-3312.024625)">
                            <path d="M374.041,238.774L374.041,243.513C374.041,244.208 373.215,244.772 372.198,244.772C371.181,244.772 370.355,244.208 370.355,243.513L370.355,238.774C370.355,238.079 371.181,237.514 372.198,237.514C373.215,237.514 374.041,238.079 374.041,238.774Z" style="fill:rgb(231,224,213);"/>
                        </g>
                        <g transform="matrix(7.796958,0,-0,7.062957,-2284.895276,-1199.774879)">
                            <path d="M396.317,242.57L396.317,248.54C396.317,254.308 392.075,258.992 386.849,258.992L378.814,258.992C373.589,258.992 369.347,254.308 369.347,248.54L369.347,242.57C369.347,242.019 369.751,241.572 370.25,241.572L395.413,241.572C395.912,241.572 396.317,242.019 396.317,242.57Z" style="fill:rgb(74,59,48);"/>
                        </g>
                    </g>
                    <g transform="matrix(8,0,0,8,-2209.206775,-1420.576931)">
                        <path d="M364.57,263.794C364.57,272.706 363.384,276.033 345.191,274.539" style="fill:none;stroke:rgb(74,59,48);stroke-width:4.89px;"/>
                    </g>
                </g>
            </g>
        </g>
    </g>
</svg>
