<?xml version="1.0" encoding="UTF-8" standalone="no"?>
<!DOCTYPE svg PUBLIC "-//W3C//DTD SVG 1.1//EN" "http://www.w3.org/Graphics/SVG/1.1/DTD/svg11.dtd">
<svg width="100%" height="100%" viewBox="0 0 128 128" version="1.1" xmlns="http://www.w3.org/2000/svg" xmlns:xlink="http://www.w3.org/1999/xlink" xml:space="preserve" xmlns:serif="http://www.serif.com/" style="fill-rule:evenodd;clip-rule:evenodd;stroke-linejoin:round;stroke-miterlimit:2;">
    <g transform="matrix(2.133333,0,0,2.133333,-3009.780195,-6585.963481)">
        <g id="darkmode-dark" transform="matrix(0.058594,0,0,0.058594,1410.834466,3087.170381)">
            <rect x="0" y="0" width="1024" height="1024" style="fill:none;"/>
            <g transform="matrix(0.90748,0,0,0.90748,46.018568,56.408808)">
                <g transform="matrix(7.73434,0,0,25.315374,-1994.285787,-8053.708037)">
                    <path d="M340.151,346.528L340.151,347.259C340.151,347.88 339.263,348.437 337.854,348.82L337.854,348.993C337.854,349.697 336.722,350.321 334.985,350.704C333.704,352.184 329.289,353.276 324.046,353.276C318.804,353.276 314.389,352.184 313.108,350.704C311.371,350.321 310.239,349.697 310.239,348.993L310.239,348.82C308.83,348.437 307.942,347.88 307.942,347.259L307.942,346.338C308.295,346.491 308.727,346.576 309.235,346.689C309.746,346.802 311.194,346.948 311.456,346.968C313.25,347.112 315.839,347.361 321.697,347.478C321.979,347.484 322.342,347.491 325.224,347.489C326.572,347.488 326.568,347.474 327.914,347.454C328.973,347.438 330.934,347.374 332.453,347.298C332.981,347.271 336.74,347.038 338.495,346.827C339.211,346.741 339.747,346.641 340.151,346.528Z" style="fill:rgb(74,59,48);"/>
                </g>
                <g transform="matrix(1.3121,0,0,1.3121,-159.437177,-114.896075)">
                    <path d="M706.043,409.505C706.345,418.014 707.122,417.997 706.397,426.491C705.926,432.016 706.215,432.013 705.741,437.521C705.612,439.018 703.685,452.169 703.021,455.403C698.271,478.557 689.405,496.27 687.73,499.617C679.272,516.516 675.667,521.767 666.036,536.186C665.628,536.796 665.47,536.665 660.58,543.559C657.517,547.876 657.104,547.539 653.066,553.181C652.216,554.368 641.053,566.771 640.974,566.875C637.025,572.047 636.732,571.809 633.065,577.188C631.688,579.206 630.868,579.731 626.093,588.27C616.554,605.327 614.473,617.896 614.258,619.467C612.967,628.892 609.447,635.618 597.446,640.352C587.011,644.468 564.646,649.002 561.503,649.519C552.472,651.005 540.804,652.253 534.503,652.557C526.496,652.944 526.519,653.23 518.499,653.247C501.355,653.285 499.196,653.144 497.521,653.034C462.672,650.752 447.269,645.898 436.6,643.11C435.042,642.703 426.425,639.86 423.387,637.661C418.133,633.859 414.239,631.619 411.817,621.424C411.8,621.354 411.162,617.087 410.392,613.523C406.806,596.923 394.066,577.367 387.325,569.651C385.538,567.607 385.709,567.477 383.23,564.743C374.71,555.349 367.712,545.597 365.351,542.613C361.988,538.364 353.91,526.818 352.957,525.227C338.319,500.785 339.217,500.319 335.044,491.715C331.156,483.7 329.956,480.591 324.849,462.395C324.461,461.013 321.642,448.565 321.275,445.529C318.824,425.212 317.118,410.655 323.121,383.416C324.927,375.221 330.45,354.61 342.931,333.775C344.226,331.612 352.68,318.6 356.815,313.77C360.837,309.072 371.929,295.312 390.378,282.313C403.867,272.809 412.852,268.353 417.668,265.824C418.206,265.541 418.222,265.587 424.57,262.66C426.415,261.809 426.452,261.948 428.297,261.052C428.964,260.728 443.552,254.9 449.456,253.331C450.731,252.993 452.678,252.475 465.48,249.42C465.872,249.326 481.628,246.376 485.472,246.1C490.493,245.74 490.444,245.345 495.491,245.183C496.133,245.163 496.116,245.059 503.512,244.76C506.496,244.64 523.521,244.601 529.518,245.361C536.269,246.216 541.047,245.923 563.433,250.792C577.015,253.747 593.015,260.431 595.511,261.473C602.003,264.186 606.827,265.844 621.229,273.985C622.337,274.611 636.232,283.348 641.377,287.647C647.55,292.804 651.744,295.356 662.171,306.802C670.431,315.87 671.573,317.182 681.186,331.71C681.884,332.765 687.114,341.03 689.586,346.458C693.867,355.859 698.189,365.108 701.642,380.467C704.685,394.003 705.83,405.849 706.043,409.505Z" style="fill:rgb(231,224,213);"/>
                </g>
            </g>
            <g>
                <g transform="matrix(1.3121,0,0,1.3121,-159.437177,-114.896075)">
                    <path d="M765.417,281.427C772.443,272.964 777.358,260.316 778.121,258.352C779.883,253.818 783.66,255.069 784.571,256.443C785.618,258.019 787.909,265.728 790.8,270.313C794.717,276.526 796.298,279.259 800.614,283.381C808.837,291.237 820.395,294.511 826.486,297.527C826.789,297.677 829.004,298.774 829.487,300.504C831.718,308.497 808.528,305.701 795.415,325.441C791.657,331.098 791.307,331.332 788.085,338.318C785.674,343.545 785.438,346.144 782.507,346.548C778.661,347.078 777.439,341.283 777.197,340.61C776.077,337.5 774.772,335.231 774.452,334.522C774.069,333.674 772.605,330.432 768.319,324.629C757.28,309.685 739.915,307.502 735.502,304.497C734.555,303.852 734.189,302.384 734.291,301.475C734.645,298.315 738.465,297.815 746.313,294.103C753.042,290.92 758.274,289.289 765.417,281.427Z" style="fill:rgb(247,210,121);"/>
                </g>
                <g transform="matrix(1.3121,0,0,1.3121,-159.437177,-114.896075)">
                    <path d="M662.437,202.443C663.3,201.468 663.295,201.475 663.369,201.39C664.325,200.282 668.137,195.865 672.256,185.407C672.792,184.046 673.848,178.775 677.498,179.511C681.291,180.275 679.703,185.459 688.577,198.446C699.615,214.602 716.561,215.182 718.588,219.453C721.761,226.139 707.92,226.108 697.363,234.313C692.608,238.008 690.724,239.944 686.196,247.328C681.069,255.689 681.134,261.237 677.527,261.715C673.771,262.212 672.697,257.024 671.887,254.386C670.573,250.104 666.239,242.766 661.754,238.245C661.107,237.593 657.361,233.817 652.617,231.289C644.158,226.781 636.546,225.076 635.431,222.536C634.042,219.374 637.175,217.805 637.559,217.613C644.461,214.158 654.487,211.729 662.437,202.443Z" style="fill:rgb(247,210,121);"/>
                </g>
                <g transform="matrix(1.3121,0,0,1.3121,-159.437177,-114.896075)">
                    <path d="M239.754,507.588C238.882,509.627 239.121,509.879 237.24,511.033C236.73,511.346 234.358,512.12 232.591,510.403C230.676,508.543 230.834,504.107 224.855,494.29C218.33,483.577 207.305,478.072 197.582,474.281C197.317,474.178 195.291,473.388 194.498,472.501C193.722,471.633 193.148,468.878 195.472,467.459C199.604,464.937 212.473,462.045 219.324,454.347C220.093,453.482 221.897,452.067 226.855,442.668C230.586,435.595 231.101,429.958 234.457,429.291C238.904,428.407 239.409,434.867 240.451,437.519C249.856,461.47 270.077,463.78 274.793,467.063C276.119,467.986 276.39,467.847 276.767,469.429C278.455,476.514 261.162,475.479 249.845,488.788C242.437,497.499 239.904,507.153 239.754,507.588Z" style="fill:rgb(247,210,121);"/>
                </g>
            </g>
        </g>
    </g>
</svg>
