<?xml version="1.0" encoding="UTF-8" standalone="no"?>
<!DOCTYPE svg PUBLIC "-//W3C//DTD SVG 1.1//EN" "http://www.w3.org/Graphics/SVG/1.1/DTD/svg11.dtd">
<svg width="100%" height="100%" viewBox="0 0 60 60" version="1.1" xmlns="http://www.w3.org/2000/svg" xmlns:xlink="http://www.w3.org/1999/xlink" xml:space="preserve" xmlns:serif="http://www.serif.com/" style="fill-rule:evenodd;clip-rule:evenodd;stroke-linecap:round;stroke-linejoin:round;stroke-miterlimit:1.5;">
    <g transform="matrix(1,0,0,1,-67.974048,0)">
        <g transform="matrix(1,0,0,1,-1410.834466,-3087.170381)">
            <g id="feedback-hover" transform="matrix(0.058594,0,0,0.058594,1478.808514,3087.170381)">
                <rect x="0" y="0" width="1024" height="1024" style="fill:none;"/>
                <g transform="matrix(0.959976,0,0,0.959976,43.350629,2.800481)">
                    <g transform="matrix(1.515819,0,0,1.524912,-33.676771,-291.209195)">
                        <g transform="matrix(0.542376,0.68236,-0.681594,0.541049,1532.409015,-2225.975171)">
                            <path d="M1628.039,2777.68L1628.039,2690.702" style="fill:none;stroke:rgb(247,210,121);stroke-width:71.42px;"/>
                        </g>
                        <g transform="matrix(0.824766,0.268363,-0.268742,0.824874,-173.166242,-2409.295661)">
                            <path d="M1628.039,2777.68L1628.039,2690.702" style="fill:none;stroke:rgb(247,210,121);stroke-width:71.78px;"/>
                        </g>
                        <g transform="matrix(0.11615,0.863874,-0.864908,0.11229,2766.219726,-1222.169743)">
                            <path d="M1628.039,2777.68L1628.039,2690.702" style="fill:none;stroke:rgb(247,210,121);stroke-width:71.63px;"/>
                        </g>
                    </g>
                    <g transform="matrix(1.467333,-0.283001,0.28641,1.502876,-384.846194,-208.249692)">
                        <g transform="matrix(1,0,0,1,-46.299732,73.15213)">
                            <path d="M434.499,786.835C428.937,786.683 424.616,785.911 418.683,783.109C414.437,781.104 411.952,779.027 411.427,778.588C404.78,773.03 402.569,769.973 398.931,764.214C385.336,742.693 378.492,728.552 376.296,724.618C374.004,720.513 374.048,720.503 366.172,705.677C348.108,671.669 348.471,671.177 347.381,670.904C346.057,670.571 338.782,673.313 331.478,674.342C311.203,677.201 296.286,676.207 279.311,667.922C266.005,661.427 257.878,652.681 254.56,649.438C244.218,639.331 236.542,625.387 235.991,624.266C232.004,616.161 223.508,597.472 223.327,576.501C223.236,565.855 224.056,563.575 224.072,563.461C225.278,554.738 225.448,554.772 228.33,546.439C230.548,540.029 236.138,531.699 238.636,528.606C239.309,527.773 242.552,523.756 247.869,518.91C249.109,517.78 257.432,511.095 259.551,509.57C277.397,496.728 291.028,490.763 296.666,487.827C307.352,482.261 309.328,481.339 318.614,474.671C319.407,474.101 324.658,470.33 328.371,467.334C332.12,464.308 331.915,464.076 335.451,461.436C340.729,457.494 347.324,451.238 348.311,450.302C353.708,445.182 353.659,445.151 359.087,440.049C365.02,434.473 364.768,434.257 370.368,428.376C379.01,419.301 379.446,418.477 383.14,414.189C389.411,406.908 389.49,406.99 395.386,399.416C397.128,397.179 397.268,397.324 399.028,395.1C399.592,394.386 406.021,386.259 406.079,386.178C409.44,381.551 414.026,375.583 414.728,374.669C416.627,372.198 417.905,370.249 419.296,368.357C425.878,359.408 425.961,359.484 432.045,350.193C433.406,348.115 448.896,324.458 449.048,324.212C450.26,322.246 459.589,307.116 465.459,300.463C466.318,299.488 472.016,293.03 476.786,288.816C481.119,284.989 489.377,280.614 495.581,278.788C502.548,276.736 511.604,277.314 513.468,277.661C517.904,278.489 519.961,278.568 523.45,279.671C532.425,282.508 539.291,285.391 551.343,293.74C563.263,301.999 569.537,308.561 576.22,314.807C580.801,319.088 592.693,332.724 595.621,336.409C602.155,344.632 602.096,344.659 602.668,345.369C605.388,348.746 610.104,355.339 610.324,355.629C613.898,360.345 628.118,382.562 628.572,383.463C629.455,385.216 633.894,392.775 634.367,393.579C637.607,399.095 645.488,413.903 646.31,415.59C657.315,438.161 656.993,438.304 657.974,440.254C661.704,447.667 661.269,447.843 664.515,455.494C680.079,492.169 689.237,526.654 692.678,547.471C694.8,560.313 694.449,560.353 694.923,564.463C694.974,564.9 699.754,597.169 690.57,621.528C686.317,632.808 680.213,638.197 678.722,639.713C671.392,647.159 660.895,650.968 655.419,652.04C649.216,653.255 640.994,655.072 613.534,652.216C612.736,652.133 604.574,651.284 603.56,651.123C596.288,649.968 590.819,649.7 589.495,649.544C580.52,648.484 564.208,647.257 563.547,647.164C560.539,646.741 549.84,646.193 548.52,646.093C524.117,644.251 522.231,645.111 515.51,644.419C511.266,643.982 485.186,644.193 484.478,644.255C479.489,644.693 479.487,644.237 474.509,644.609C466.5,645.207 466.498,644.918 458.501,645.518C456.659,645.657 440.613,647.249 440.411,647.287C439.363,647.489 439.474,648.381 439.489,648.502C439.534,648.864 439.875,649.167 440.852,650.188C443.559,653.014 448.615,659.777 448.913,660.159C449.298,660.653 449.418,660.55 453.859,666.229C470.201,687.131 473.665,690.396 487.908,711.211C491.704,716.758 510.65,738.298 493.115,761.194C491.829,762.874 485.249,769.375 483.524,770.532C480.264,772.72 471.767,779.774 454.461,784.354C443.489,787.258 438.528,786.843 434.499,786.835Z" style="fill:rgb(74,59,48);"/>
                        </g>
                        <g transform="matrix(1,0,0,1,-46.299732,73.15213)">
                            <path d="M640.444,615.676C637.539,614.434 630.612,611.812 625.277,607.805C622.422,605.66 616.35,601.635 609.244,594.763C594.472,580.478 584.035,566.661 580.297,561.645C579.571,560.67 572.034,550.335 567.968,544.204C566.204,541.546 568.117,541.64 570.612,539.645C588.144,525.634 591.196,509.169 592.036,504.421C593.112,498.337 593.095,493.459 593.092,492.502C593.057,482.681 589.256,459.074 572.871,443.122C562.226,432.758 551.831,427.63 540.473,425.645C539.919,425.549 535.515,424.779 533.495,424.741C516.04,424.414 512.508,429.597 510.811,427.296C510.374,426.703 497.354,389.633 494.864,355.468C493.031,330.317 498.263,321.087 499.436,318.469C501.153,314.637 506.43,309.041 514.508,308.89C525.188,308.69 538.778,317.677 546.568,324.42C555.863,332.466 561.964,338.588 573.172,351.777C578.507,358.054 589.722,373.723 591.101,375.778C596.362,383.619 596.281,383.664 596.741,384.344C600.29,389.598 603.967,396.05 604.78,397.324C611.784,408.295 622.429,428.995 624.204,432.641C628.227,440.904 633.367,451.929 634.475,454.51C638.055,462.846 638.088,462.82 638.384,463.55C640.537,468.852 653.742,498.081 662.78,535.436C668.221,557.925 668.575,575.72 668.732,577.475C669.53,586.387 667.259,606.321 659.541,612.548C651.858,618.747 645.56,616.998 640.444,615.676Z" style="fill:rgb(231,224,213);"/>
                        </g>
                    </g>
                </g>
            </g>
        </g>
    </g>
</svg>
