<svg width="22" height="50" viewBox="0 0 22 50" fill="none" xmlns="http://www.w3.org/2000/svg">
<g clip-path="url(#clip0_3032_2035)">
<path fill-rule="evenodd" clip-rule="evenodd" d="M0.470675 86.3126L0.460256 86.3259C0.460256 86.3259 0.263598 86.3183 0.290638 86.9441C0.316313 87.5695 0.552709 117.947 0.552709 117.947C0.552709 117.947 0.488085 118.941 1.29509 119.334C2.10294 119.726 4.00404 119.804 4.00404 119.804L4.08778 119.804C4.36428 120.196 4.94159 120.197 4.94159 120.197C4.94159 120.197 14.7253 120.25 15.7527 120.279C16.2938 120.294 16.5471 120.043 16.6652 119.8L16.7338 119.8C16.7338 119.8 20.3376 119.802 20.3075 118.364C20.2766 116.926 20.4978 86.7169 20.4978 86.7169C20.4978 86.7169 20.5095 86.4584 20.3884 86.3196C20.7935 85.9948 20.7577 85.6247 20.7577 85.6247L20.6849 25.083C20.6849 25.083 20.3951 24.1783 19.932 24.1535C19.4685 24.1301 19.0883 23.9463 19.0883 23.9463C15.1148 20.1643 13.5829 16.3071 14.0418 7.66585C13.8816 7.14954 13.6308 6.72479 13.3173 6.36286C13.3173 6.36286 13.0815 6.31407 12.6979 6.25572L12.7253 3.49525C12.7253 3.49525 9.98621 1.90251 9.62014 1.6961C9.31959 1.52638 9.19234 1.70437 9.19234 1.70437C8.34173 2.52534 8.47796 5.88379 8.49791 6.28697C8.33762 6.32925 8.18369 6.37813 8.0363 6.43578C6.07892 7.20129 8.92597 11.9219 5.763 18.864C5.763 18.864 4.86133 21.7816 1.48582 24.1403C1.48582 24.1403 0.381368 24.0182 0.398363 25.3669L0.113779 85.1708C0.113779 85.1708 0.0860455 85.8953 0.470675 86.3126Z" stroke="#4F4F4F" stroke-width="1.98473" stroke-miterlimit="1.5" stroke-linecap="round" stroke-linejoin="round"/>
<path fill-rule="evenodd" clip-rule="evenodd" d="M8.50035 6.32713C8.50035 6.32713 8.28694 2.57842 9.19222 1.7042C9.19222 1.7042 9.31947 1.52621 9.62002 1.69593C9.98609 1.90234 12.7252 3.49508 12.7252 3.49508L12.6981 6.26934L8.50556 6.9476L8.50035 6.32713Z" fill="#AD89D8"/>
<path fill-rule="evenodd" clip-rule="evenodd" d="M19.0884 23.9463C15.1149 20.1643 13.583 16.3071 14.0419 7.66589C13.8817 7.14959 13.631 6.72483 13.3175 6.3629C13.3175 6.3629 9.99381 5.67031 8.03642 6.43582C6.07904 7.20133 8.92608 11.9219 5.76311 18.8641C5.76311 18.8641 4.86144 21.7817 1.48593 24.1403L1.695 25.6297L19.0546 25.0922L19.0884 23.9463Z" fill="#4F4F4F"/>
<path fill-rule="evenodd" clip-rule="evenodd" d="M2.21692 24.3478C2.21692 24.3478 1.20261 24.2357 1.21822 25.4743L0.956742 81.1099C0.956742 81.1099 0.914929 82.1849 1.66389 82.3889C2.41363 82.5924 4.79912 82.675 4.79912 82.675C4.79912 82.675 16.6426 82.7451 18.322 82.5803C20.0019 82.4164 19.9157 81.5267 19.9157 81.5267L19.8489 25.2136C19.8489 25.2136 19.8492 24.6251 19.1575 24.3599C18.8842 24.2552 18.7547 24.1696 18.3827 24.1696C18.0107 24.1696 2.21692 24.3478 2.21692 24.3478Z" fill="#AD89D8"/>
</g>
<defs>
<clipPath id="clip0_3032_2035">
<rect width="50" height="22" fill="white" transform="matrix(0 1 1 0 0 0)"/>
</clipPath>
</defs>
</svg>
