<svg width="228" height="337" viewBox="0 0 228 337" fill="none" xmlns="http://www.w3.org/2000/svg">
<path fill-rule="evenodd" clip-rule="evenodd" d="M55.1958 213.655L55.1464 213.674C55.1464 213.674 54.6364 213.334 53.6908 215.04C52.7421 216.742 3.97648 297.805 3.97648 297.805C3.97648 297.805 2.18724 300.342 3.69223 302.697C5.20032 305.052 10.1232 308.349 10.1232 308.349L10.3457 308.485C10.4415 309.978 11.9743 310.917 11.9743 310.917C11.9743 310.917 37.8713 326.969 40.5537 328.715C41.966 329.636 43.0477 329.379 43.7554 328.928L43.9377 329.039C43.9377 329.039 53.5054 334.905 55.7644 331.036C58.0203 327.166 107.728 247.294 107.728 247.294C107.728 247.294 108.18 246.626 108.084 246.06C109.688 245.856 110.195 244.815 110.195 244.815L208.443 83.9041C208.443 83.9041 209.144 81.0301 207.954 80.2111C206.762 79.3953 206.051 78.2889 206.051 78.2889C201.647 61.7834 203.85 49.0481 219.12 26.844C219.534 25.2123 219.559 23.6765 219.314 22.2055C219.314 22.2055 218.768 21.6925 217.844 20.9137L222.405 13.6267C222.405 13.6267 217.72 4.94274 217.083 3.79931C216.561 2.85985 215.934 3.12566 215.934 3.12566C212.34 3.92296 207.241 13.0642 206.638 14.1674C206.143 14.0191 205.655 13.8986 205.17 13.8121C198.727 12.6625 198.612 29.8293 178.924 43.1239C178.924 43.1239 171.785 49.4066 158.985 50.1822C158.985 50.1822 156.25 48.0624 154.102 51.6719L56.1044 210.043C56.1044 210.043 54.8528 211.921 55.1958 213.655Z" stroke="#4F4F4F" stroke-width="6.18068" stroke-miterlimit="1.5" stroke-linecap="round" stroke-linejoin="round"/>
<path fill-rule="evenodd" clip-rule="evenodd" d="M206.579 14.2777C206.579 14.2777 212.108 3.97446 215.934 3.12462C215.934 3.12462 216.561 2.85881 217.083 3.79827C217.72 4.9417 222.405 13.6256 222.405 13.6256L217.822 20.9497L205.584 15.934L206.579 14.2777Z" fill="#AD89D8"/>
<path fill-rule="evenodd" clip-rule="evenodd" d="M206.052 78.2892C201.648 61.7837 203.851 49.0484 219.121 26.8443C219.535 25.2126 219.559 23.6768 219.315 22.2058C219.315 22.2058 211.614 14.962 205.171 13.8124C198.727 12.6628 198.613 29.8296 178.925 43.1242C178.925 43.1242 171.786 49.4069 158.986 50.1825L157.119 54.4782L204.098 81.2776L206.052 78.2892Z" fill="#4F4F4F"/>
<path fill-rule="evenodd" clip-rule="evenodd" d="M55.1474 213.675C55.1474 213.675 54.6374 213.335 53.6918 215.041C52.7431 216.744 3.97746 297.807 3.97746 297.807C3.97746 297.807 2.18821 300.344 3.69321 302.699C5.2013 305.054 10.1242 308.351 10.1242 308.351L43.9387 329.041C43.9387 329.041 53.5063 334.906 55.7654 331.037C58.0213 327.168 107.729 247.295 107.729 247.295C107.729 247.295 108.181 246.628 108.085 246.062C107.986 245.5 104.494 243.287 104.494 243.287L58.3737 212.439L55.1474 213.675Z" fill="#2D324B"/>
<path fill-rule="evenodd" clip-rule="evenodd" d="M158.986 50.1826C158.986 50.1826 156.251 48.0627 154.103 51.6722L56.1051 210.043C56.1051 210.043 54.0809 213.078 55.8856 214.994C57.6935 216.91 64.4459 221.372 64.4459 221.372C64.4459 221.372 98.5725 242.544 103.721 245.041C108.87 247.541 110.195 244.815 110.195 244.815L208.443 83.9044C208.443 83.9044 209.145 81.0304 207.955 80.2114C206.762 79.3956 206.052 78.2892 206.052 78.2892L158.986 50.1826Z" fill="#AD89D8"/>
</svg>
