<?xml version="1.0" encoding="UTF-8" standalone="no"?>
<!DOCTYPE svg PUBLIC "-//W3C//DTD SVG 1.1//EN" "http://www.w3.org/Graphics/SVG/1.1/DTD/svg11.dtd">
<svg width="100%" height="100%" viewBox="0 0 1024 1024" version="1.1" xmlns="http://www.w3.org/2000/svg" xmlns:xlink="http://www.w3.org/1999/xlink" xml:space="preserve" xmlns:serif="http://www.serif.com/" style="fill-rule:evenodd;clip-rule:evenodd;stroke-linejoin:round;stroke-miterlimit:2;">
    <g transform="matrix(1,0,0,1,-4624.454841,-8.274836)">
        <g id="Artboard1" transform="matrix(1,0,0,1,4624.454841,8.274836)">
            <rect x="0" y="0" width="1024" height="1024" style="fill:none;"/>
            <g id="pouch" transform="matrix(1.072467,-0.287367,0.287367,1.072467,-236.151101,61.434534)">
                <g transform="matrix(1,0,0,1,-0.0274,0.216292)">
                    <path d="M569.013,396.903C592.855,395.053 611.9,394.632 650.792,388.297C708.538,446.102 845.636,544.914 807.608,699.531C791.137,766.5 746.974,855.709 459.515,841.012C394.247,837.675 227.911,828.35 212.299,672.531C195.072,500.589 373.351,389.184 380.538,390.134C495.97,405.388 569.013,396.903 569.013,396.903Z" style="fill:rgb(74,59,48);"/>
                </g>
                <g transform="matrix(1,0,0,1,-0.0274,0.216292)">
                    <path d="M398.249,338.812C364.826,314.78 342.513,274.776 338.898,269.247C309.273,223.927 346.53,206.599 365.533,204.936C416.599,200.465 421.924,236.936 462.793,205.878C492.704,183.147 538.458,187.185 567.227,205.923C592.514,222.394 594.413,221.562 623.458,213.348C656.132,204.109 694.268,217.799 691.832,246.536C689.838,270.067 648.985,323.357 645.357,326.969C636.184,336.101 611.176,340.688 596.621,341.506C577.432,342.585 566.431,343.389 553.993,343.625C546.948,343.717 469.466,342.406 465.937,342.238C442.107,341.107 399.429,339.66 398.249,338.812" style="fill:rgb(74,59,48);"/>
                </g>
                <g transform="matrix(0.98742,0,0,1.170446,-3369.264185,-25.59404)">
                    <path d="M3822,306C3822,306 3783.724,300.937 3780,323C3775.67,348.651 3799.111,356.435 3806.799,357.521C3866.454,365.949 3961.226,371.454 4072,355C4095.069,351.573 4098.914,332.98 4097,324C4093.868,309.309 4078.842,297.681 4061,302C4038.688,307.401 3957.281,315.977 3822,306Z" style="fill:rgb(231,224,213);"/>
                </g>
            </g>
            <g id="card" transform="matrix(0.802629,0.215064,-0.225422,0.841288,-1541.941585,-587.492545)">
                <path d="M3226,642.644L3226,907.356C3226,954.624 3185.776,993 3136.231,993L2956.693,993C2907.148,993 2866.924,954.624 2866.924,907.356L2866.924,642.644C2866.924,595.376 2907.148,557 2956.693,557L3136.231,557C3185.776,557 3226,595.376 3226,642.644Z" style="fill:rgb(231,224,213);"/>
            </g>
        </g>
    </g>
</svg>
