<svg viewBox="0 0 1024 1024"
    xmlns="http://www.w3.org/2000/svg" fill="white">
    <g transform="matrix(1.39865,0,0,1.39865,-211.361554,-205.851521)">
        <path d="M414.07,716.499C414.07,734.815 415.933,763.946 430.97,790.225C467.994,854.925 552.076,830.062 534.576,792.464C526.706,775.557 503.419,799.698 492.233,771.6C472.786,722.75 589.1,708.667 588.011,800.486C586.592,920.124 338.057,916.103 370.204,676.451C401.834,440.655 549.777,299.942 596.325,268.285C612.124,257.54 488.57,300.973 418.897,417.74C358.494,518.971 365.327,584.45 346.589,598.904C331.069,610.876 261.26,557.735 255.215,480.532C244.864,348.344 347.971,160.816 601.512,149.725C681.122,146.242 789.425,155.423 803.382,192.55C816.756,228.126 771.316,227.136 785.807,340.443C790.248,375.169 831.129,558.126 707.24,657.169C642.478,708.942 555.176,708.241 483.14,676.336C458.674,665.5 451.848,654.623 434.242,655.212C413.078,655.92 414.07,700.867 414.07,716.499Z"/>
    </g>
</svg>
