<?xml version="1.0" encoding="UTF-8" standalone="no"?>
<!DOCTYPE svg PUBLIC "-//W3C//DTD SVG 1.1//EN" "http://www.w3.org/Graphics/SVG/1.1/DTD/svg11.dtd">
<svg width="100%" height="100%" viewBox="0 0 1024 1024" version="1.1" xmlns="http://www.w3.org/2000/svg" xmlns:xlink="http://www.w3.org/1999/xlink" xml:space="preserve" xmlns:serif="http://www.serif.com/" style="fill-rule:evenodd;clip-rule:evenodd;stroke-linejoin:round;stroke-miterlimit:2;">
    <g transform="matrix(1,0,0,1,-2572.47829,-5416.03525)">
        <g transform="matrix(1,0,0,1,-0,1164.432434)">
            <g id="logout-hover" transform="matrix(1,0,0,1,2572.47829,4251.602816)">
                <rect x="0" y="0" width="1024" height="1024" style="fill:none;"/>
                <clipPath id="_clip1">
                    <rect x="0" y="0" width="1024" height="1024"/>
                </clipPath>
                <g clip-path="url(#_clip1)">
                    <g transform="matrix(1.215931,-0.325808,0.325808,1.215931,-238.760038,106.783543)">
                        <g>
                            <g transform="matrix(2.834744,-0,0,4.470235,-110.486002,-384.031723)">
                                <path d="M116.475,130.032C129.596,129.838 129.422,129.871 280.501,129.911C301.994,129.917 303.117,131.351 314.939,149.206C341.38,189.141 342.315,191.069 337.162,199.286C305.933,249.079 303.601,249.638 298.592,250.839C290.941,252.674 132.909,251.428 118.502,251.314C95.293,251.131 99.925,221.657 99.925,213.498C99.927,144.81 96.532,131.759 116.475,130.032Z" style="fill:rgb(74,59,48);"/>
                            </g>
                            <g transform="matrix(2.845217,0,0,2.57153,-112.785862,88.561147)">
                                <path d="M217.535,335.791C205.243,336.458 202.52,335.856 200.569,318.355C199.716,310.699 196.615,293.057 196.813,264.477C196.821,263.335 200.535,261.192 227.786,262.099C230.604,262.193 229.135,263.76 229.349,292.518C229.414,301.222 232.031,335.005 217.535,335.791Z" style="fill:rgb(74,59,48);"/>
                            </g>
                            <g transform="matrix(3.381908,0,0,2.867245,-226.678002,-171.866022)">
                                <path d="M226.939,107.498C226.837,118.043 228.319,119.639 225.539,119.717C199.46,120.456 198.466,120.827 198.165,118.656C193.517,85.127 224.193,83.01 226.939,107.498Z" style="fill:rgb(74,59,48);"/>
                            </g>
                        </g>
                        <g transform="matrix(3.523284,0,0,3.523284,-341.8444,-209.750736)">
                            <path d="M286.53,160.07C291.139,161.447 290.809,162.14 312.127,184.838C320.124,193.353 309.604,200.61 297.251,213.266C296.371,214.168 287.706,223.046 283.64,221.213C271.892,215.918 297.705,198.127 290.556,198.026C284.738,197.944 261.692,201.392 264.292,189.451C266.607,178.818 300.541,190.744 290.394,179.596C286.004,174.772 280.169,170.177 280.165,165.47C280.161,160.856 285.867,160.152 286.53,160.07Z" style="fill:rgb(234,221,204);"/>
                        </g>
                        <g transform="matrix(2.039092,0,0,2.039092,-320.591388,-439.817472)">
                            <g transform="matrix(1,0,0,1,-18.519029,-1.533133)">
                                <g transform="matrix(0.907928,0,0,0.907928,210.941275,249.053877)">
                                    <path d="M256.534,190.724C256.983,202.33 256.802,218.757 256.551,242.172C256.515,245.478 256.791,245.598 256.723,283.498C256.7,296.221 257.047,310.389 255.689,313.584C252.695,320.632 250.509,320.506 171.499,320.394C111.403,320.308 103.202,323.341 103.196,306.497C103.154,186.799 103.31,186.896 103.213,176.496C102.35,83.647 199.33,99.268 218.573,108.352C263.42,129.523 255.769,170.975 256.534,190.724Z" style="fill:rgb(234,221,204);"/>
                                </g>
                                <g transform="matrix(1.311655,0,0,1.311655,145.370945,157.700485)">
                                    <path d="M129.885,224.501C134.062,201.654 152.38,212.34 154.214,213.835C174.204,230.139 133.465,258.101 129.885,224.501Z" style="fill:rgb(74,59,48);"/>
                                </g>
                            </g>
                        </g>
                    </g>
                </g>
            </g>
        </g>
    </g>
</svg>
