<?xml version="1.0" encoding="UTF-8" standalone="no"?>
<!DOCTYPE svg PUBLIC "-//W3C//DTD SVG 1.1//EN" "http://www.w3.org/Graphics/SVG/1.1/DTD/svg11.dtd">
<svg width="100%" height="100%" viewBox="0 0 88 88" version="1.1" xmlns="http://www.w3.org/2000/svg" xmlns:xlink="http://www.w3.org/1999/xlink" xml:space="preserve" xmlns:serif="http://www.serif.com/" style="fill-rule:evenodd;clip-rule:evenodd;stroke-linecap:round;stroke-linejoin:round;stroke-miterlimit:1.5;">
    <g transform="matrix(1,0,0,1,-483.068879,-1159.969501)">
        <g transform="matrix(0.291424,0,0,0.291424,468.608157,1145.508778)">
            <g transform="matrix(3.431423,0,0,3.431423,-520.248799,-1963.792218)">
                <circle cx="209.898" cy="630.582" r="43.824" style="fill:rgb(84,116,173);"/>
                <clipPath id="_clip1">
                    <circle cx="209.898" cy="630.582" r="43.824"/>
                </clipPath>
                <g clip-path="url(#_clip1)">
                    <g transform="matrix(0.837341,-0.113196,0.113196,0.837341,-38.190889,126.914088)">
                        <path d="M184.926,621.953C180.75,617.831 180.942,607.462 184.199,608.552C187.234,609.568 187.799,613.267 193.556,613.035C198.218,612.846 200.622,608.604 210.788,608.584C221.914,608.562 224.393,612.822 228.716,612.883C233.4,612.948 234.899,609.451 237.331,608.545C241.809,606.876 241.1,618.956 236.881,621.702C244.72,631.448 242.812,643.218 235.83,649.124C229.412,654.552 219.908,655.536 213.5,647.819C212.022,645.915 210.541,645.96 209.057,647.802C201.986,656.749 187.642,654.497 182.342,644.069C179.728,638.925 178.553,630.342 184.926,621.953Z" style="fill:white;"/>
                    </g>
                    <g transform="matrix(0.837341,-0.113196,0.113196,0.837341,-38.190889,126.914088)">
                        <path d="M210.189,627.71C210.352,628.02 210.674,628.214 211.025,628.214C211.375,628.214 211.697,628.02 211.86,627.709C214.401,623.195 219.148,620.154 224.581,620.154C232.685,620.154 239.264,626.919 239.264,635.252C239.264,643.585 232.685,650.35 224.581,650.35C218.478,650.35 213.24,646.513 211.025,641.058C208.81,646.513 203.572,650.35 197.469,650.35C189.365,650.35 182.786,643.585 182.786,635.252C182.786,626.919 189.365,620.154 197.469,620.154C202.901,620.154 207.649,623.195 210.189,627.71Z" style="fill:rgb(252,193,44);"/>
                    </g>
                    <g transform="matrix(0.837341,-0.113196,0.113196,0.837341,-38.190889,126.914088)">
                        <path d="M191.262,633.971C192.351,641.173 201.645,641.279 203.343,634.454" style="fill:none;stroke:rgb(84,116,173);stroke-width:2.5px;"/>
                    </g>
                    <g transform="matrix(0.828293,-0.166983,0.166983,0.828293,-47.237631,140.037804)">
                        <path d="M191.262,633.971C192.351,641.173 201.645,641.279 203.343,634.454" style="fill:none;stroke:rgb(84,116,173);stroke-width:2.5px;"/>
                    </g>
                    <g transform="matrix(0.837341,-0.113196,0.113196,0.837341,-38.256672,127.095101)">
                        <path d="M211.139,646.987C207.718,644.168 206.17,640.14 208.181,637.64C209.517,635.978 213.055,636.023 214.364,637.69C216.371,640.245 214.174,644.176 211.139,646.987Z" style="fill:rgb(84,116,173);stroke:white;stroke-width:2.5px;"/>
                    </g>
                </g>
            </g>
            <g transform="matrix(3.431423,0,0,3.431423,-520.248799,-1963.792218)">
                <path d="M198.311,596.146C198.581,596.256 199.566,596.736 200.943,596.288C202.922,595.643 202.762,593.864 205.92,592.251C208.01,591.184 213.327,589.986 217.184,595.104C218.101,596.322 219.884,596.824 221.327,596.214C221.983,595.937 224.748,594.63 228.307,595.985C230.826,596.944 233.438,599.421 233.912,603.204C233.921,603.279 233.966,605.254 235.941,606.222C237.053,606.766 239.104,606.403 241.633,608.349C244.7,610.709 246.034,614.965 244.384,618.879C244.299,619.079 243.544,620.493 244.433,622.182C245.197,623.633 246.981,623.858 248.395,626.956C250.101,630.694 248.874,635.221 245.717,637.612C245.496,637.779 244.082,638.628 244.006,640.575C243.943,642.19 245.247,643.094 245.082,646.302C244.883,650.159 241.925,654.014 237.275,654.596C236.993,654.631 235.635,654.684 234.61,656.039C233.498,657.508 234.344,658.866 232.579,661.679C230.495,664.999 225.956,666.904 221.601,665.067C221.338,664.956 220.136,664.323 218.57,664.984C216.873,665.701 216.926,667.3 213.991,668.853C211.351,670.25 206.198,670.816 202.661,666.122C201.52,664.608 199.67,664.442 198.469,664.949C198.185,665.069 194.21,667.081 189.911,664.375C187.823,663.061 186.247,660.72 185.9,658.087C185.872,657.869 185.851,656.073 184.058,655.047C182.805,654.329 181.035,654.84 178.477,653.046C175.181,650.733 173.71,646.323 175.412,642.284C175.539,641.985 175.934,641.228 175.735,640.048C175.441,638.295 174.145,637.813 173.125,636.756C169.279,632.773 170.115,626.554 174.079,623.552C174.315,623.373 175.672,622.556 175.787,620.664C175.89,618.955 174.373,617.839 174.76,614.344C175.206,610.308 178.512,607.07 182.393,606.584C182.537,606.566 184.556,606.544 185.538,604.539C186.082,603.427 185.719,601.375 187.665,598.846C189.448,596.529 193.397,594.098 198.311,596.146ZM197.698,597.515C197.476,597.408 194.599,596.069 191.416,597.656C188.698,599.012 187.599,601.554 187.386,603.28C187.328,603.75 187.232,605.639 185.333,607.076C183.322,608.598 181.635,607.476 178.908,609.672C176.482,611.625 175.485,615.144 176.751,618.194C176.872,618.484 177.976,620.56 176.63,622.99C175.646,624.766 173.91,624.916 172.727,627.668C172.086,629.157 171.065,633.44 175.253,636.616C177.151,638.056 177.798,640.491 176.878,642.679C174.598,648.097 178.449,652.552 182.596,653.094C183.093,653.159 184.579,653.227 185.977,654.655C187.467,656.176 187.231,657.756 187.668,659.132C188.769,662.593 192.818,665.699 197.801,663.603C199.998,662.679 202.429,663.336 203.864,665.227C203.878,665.246 205.661,668.049 209.328,668.329C212.144,668.544 214.46,667.157 215.743,665.482C215.935,665.231 217.18,663.238 219.957,663.188C221.976,663.152 222.929,664.543 225.853,664.242C227.643,664.057 231.796,662.731 232.447,657.568C232.745,655.204 234.529,653.427 236.884,653.13C242.716,652.395 244.649,646.832 243.045,642.97C242.854,642.511 242.141,641.133 242.737,639.159C243.336,637.177 244.761,636.63 245.738,635.558C248.186,632.874 248.851,627.815 244.543,624.547C242.645,623.107 241.998,620.673 242.918,618.485C242.927,618.463 244.464,615.517 242.873,612.202C240.907,608.105 236.578,607.988 236.551,607.983C234.296,607.541 232.723,605.792 232.446,603.595C231.711,597.763 226.149,595.831 222.286,597.435C221.994,597.556 219.919,598.659 217.49,597.314C215.723,596.335 215.593,594.654 212.911,593.454C209.571,591.958 205.911,593.225 204.053,595.682C203.737,596.099 201.653,599.111 197.711,597.521C197.709,597.52 197.704,597.518 197.698,597.515Z" style="fill:rgb(252,193,44);"/>
            </g>
            <g>
                <g transform="matrix(8.252464,0,0,8.252464,-1387.765137,-4874.451964)">
                    <circle cx="192.399" cy="600.443" r="0.577" style="fill:white;"/>
                </g>
                <g transform="matrix(7.146843,4.126232,-4.126232,7.146843,1362.181038,-4988.48688)">
                    <circle cx="192.399" cy="600.443" r="0.577" style="fill:white;"/>
                </g>
                <g transform="matrix(4.126232,7.146843,-7.146843,4.126232,3800.721742,-3712.270926)">
                    <circle cx="192.399" cy="600.443" r="0.577" style="fill:white;"/>
                </g>
                <g transform="matrix(0,8.252464,-8.252464,0,5274.451964,-1387.765137)">
                    <circle cx="192.399" cy="600.443" r="0.577" style="fill:white;"/>
                </g>
                <g transform="matrix(-4.126232,7.146843,-7.146843,-4.126232,5388.48688,1362.181038)">
                    <circle cx="192.399" cy="600.443" r="0.577" style="fill:white;"/>
                </g>
                <g transform="matrix(-7.146843,4.126232,-4.126232,-7.146843,4112.270926,3800.721742)">
                    <circle cx="192.399" cy="600.443" r="0.577" style="fill:white;"/>
                </g>
                <g transform="matrix(-8.252464,0,-0,-8.252464,1787.765137,5274.451964)">
                    <circle cx="192.399" cy="600.443" r="0.577" style="fill:white;"/>
                </g>
                <g transform="matrix(-7.146843,-4.126232,4.126232,-7.146843,-962.181038,5388.48688)">
                    <circle cx="192.399" cy="600.443" r="0.577" style="fill:white;"/>
                </g>
                <g transform="matrix(-4.126232,-7.146843,7.146843,-4.126232,-3400.721742,4112.270926)">
                    <circle cx="192.399" cy="600.443" r="0.577" style="fill:white;"/>
                </g>
                <g transform="matrix(-0,-8.252464,8.252464,-0,-4874.451964,1787.765137)">
                    <circle cx="192.399" cy="600.443" r="0.577" style="fill:white;"/>
                </g>
                <g transform="matrix(4.126232,-7.146843,7.146843,4.126232,-4988.48688,-962.181038)">
                    <circle cx="192.399" cy="600.443" r="0.577" style="fill:white;"/>
                </g>
                <g transform="matrix(7.146843,-4.126232,4.126232,7.146843,-3712.270926,-3400.721742)">
                    <circle cx="192.399" cy="600.443" r="0.577" style="fill:white;"/>
                </g>
                <g transform="matrix(8.252464,0,0,8.252464,-1353.43906,-4882.544805)">
                    <circle cx="192.399" cy="600.443" r="0.577" style="fill:white;"/>
                </g>
                <g transform="matrix(7.183302,4.06243,-4.06243,7.183302,1349.797324,-4988.776419)">
                    <circle cx="192.399" cy="600.443" r="0.577" style="fill:white;"/>
                </g>
                <g transform="matrix(4.189707,7.109818,-7.109818,4.189707,3790.141902,-3718.713531)">
                    <circle cx="192.399" cy="600.443" r="0.577" style="fill:white;"/>
                </g>
                <g transform="matrix(0.073483,8.252137,-8.252137,0.073483,5268.510855,-1398.634517)">
                    <circle cx="192.399" cy="600.443" r="0.577" style="fill:white;"/>
                </g>
                <g transform="matrix(-4.06243,7.183302,-7.183302,-4.06243,5388.776419,1349.797324)">
                    <circle cx="192.399" cy="600.443" r="0.577" style="fill:white;"/>
                </g>
                <g transform="matrix(-7.109818,4.189707,-4.189707,-7.109818,4118.713531,3790.141902)">
                    <circle cx="192.399" cy="600.443" r="0.577" style="fill:white;"/>
                </g>
                <g transform="matrix(-8.252137,0.073483,-0.073483,-8.252137,1798.634517,5268.510855)">
                    <circle cx="192.399" cy="600.443" r="0.577" style="fill:white;"/>
                </g>
                <g transform="matrix(-7.183302,-4.06243,4.06243,-7.183302,-949.797324,5388.776419)">
                    <circle cx="192.399" cy="600.443" r="0.577" style="fill:white;"/>
                </g>
                <g transform="matrix(-4.189707,-7.109818,7.109818,-4.189707,-3390.141902,4118.713531)">
                    <circle cx="192.399" cy="600.443" r="0.577" style="fill:white;"/>
                </g>
                <g transform="matrix(-0.073483,-8.252137,8.252137,-0.073483,-4868.510855,1798.634517)">
                    <circle cx="192.399" cy="600.443" r="0.577" style="fill:white;"/>
                </g>
                <g transform="matrix(4.06243,-7.183302,7.183302,4.06243,-4988.776419,-949.797324)">
                    <circle cx="192.399" cy="600.443" r="0.577" style="fill:white;"/>
                </g>
                <g transform="matrix(7.109818,-4.189707,4.189707,7.109818,-3718.713531,-3390.141902)">
                    <circle cx="192.399" cy="600.443" r="0.577" style="fill:white;"/>
                </g>
            </g>
        </g>
    </g>
</svg>
