<svg width="46" height="45" viewBox="0 0 46 45" fill="none" xmlns="http://www.w3.org/2000/svg">
<g clip-path="url(#clip0_3032_2003)">
<path fill-rule="evenodd" clip-rule="evenodd" d="M7.12456 38.4541C3.01822 40.8565 -2.59721 37.0403 1.69797 30.2581C3.9819 26.6517 4.12756 26.5781 4.1298 22.0275C4.13064 21.4713 4.13147 20.9152 4.13231 20.3591C4.1325 20.2587 4.13462 19.1373 4.08348 19.105C2.46184 18.0813 -0.365889 16.7461 0.156411 8.29886C0.361866 4.97603 2.14269 1.16702 6.80342 1.11633C8.00432 1.10331 31.3604 1.11614 33.4958 1.11729C34.188 1.11768 39.8652 0.687839 40.563 8.10296C40.5906 8.39729 43.4439 8.1106 45.0793 10.8177C45.4534 11.4368 45.9817 11.3899 45.8745 18.4983C45.7756 25.0479 42.3881 25.7452 35.7434 28.4485C31.0568 30.3553 30.7251 30.2758 30.6867 31.2681C30.6841 31.3349 30.6365 32.2505 30.7357 32.2953C30.8545 32.3489 31.9694 32.5871 32.8294 33.724C33.5606 34.6905 33.4855 34.7781 34.0863 43.7143C34.2106 45.5641 35.1397 50.7401 29.7684 52.2909C27.2474 53.0187 21.7188 52.0721 21.8367 46.0895C21.865 44.6508 22.5206 35.5765 22.6755 35.0595C23.4225 32.5657 25.4871 32.4126 25.5223 32.2248C25.8383 30.5409 24.3805 27.4945 30.1499 25.148C39.7713 21.235 40.4655 21.396 40.6274 19.2049C40.6488 18.9148 40.645 14.5448 40.632 14.3267C40.5782 13.4186 40.0963 13.3881 40.0624 13.5621C39.895 14.4228 39.6567 17.1418 37.0119 18.927C34.6892 20.4949 29.5305 19.5148 27.7213 19.7831C27.1505 19.8677 29.0057 25.4057 23.4806 26.8839C20.2575 27.7463 19.8394 27.848 19.2834 30.9419C18.7529 33.8948 16.5306 35.7711 13.7484 34.3812C12.7472 33.8811 11.4408 32.6831 10.1626 34.6192C8.43916 37.2297 8.56563 37.3466 7.12456 38.4541Z" fill="#4F4F4F"/>
<path fill-rule="evenodd" clip-rule="evenodd" d="M4.21929 16.5325C3.92926 16.2774 2.3272 14.8684 2.20612 12.1445C2.06291 8.91954 1.82813 3.26297 6.80313 3.25001C8.87109 3.24456 31.4246 3.18559 32.6534 3.24667C32.8228 3.25508 31.1539 4.65887 30.8283 7.9135C30.3438 12.757 31.3641 15.2876 31.6035 15.8816C32.5186 17.6943 32.8918 17.6843 32.7218 17.7036C32.7161 17.7043 15.2521 17.6706 13.733 17.6677C6.28706 17.6534 6.11554 17.8875 4.21929 16.5325Z" fill="#AD89D8"/>
<path fill-rule="evenodd" clip-rule="evenodd" d="M25.4329 22.4144C24.8923 24.4755 24.1695 24.581 21.8111 25.2086C16.8328 26.5334 17.7269 29.3698 17.0619 31.3288C16.2129 33.83 14.2468 32.3398 13.7927 32.1105C9.90752 30.1481 8.88255 32.9688 6.9691 35.7382C4.76197 38.9326 -0.0505727 36.5199 3.55734 31.1565C6.37397 26.9694 6.22813 26.754 6.18655 20.6799C6.18225 20.0454 5.90916 19.722 6.54625 19.7315C8.28819 19.7574 25.0597 19.7528 25.478 19.7659C25.6928 19.7726 25.4536 22.2035 25.4329 22.4144Z" fill="#AD89D8"/>
<path fill-rule="evenodd" clip-rule="evenodd" d="M27.9134 50.3896C27.4962 50.3584 24.3572 50.1235 23.9416 46.9866C23.8109 46.0007 24.7033 35.5877 24.7085 35.567C25.1048 33.9981 26.8169 34.2857 29.7098 34.2901C29.883 34.3166 31.2775 34.5298 31.3935 35.6929C31.4472 36.2309 31.7757 39.5239 31.9121 42.4304C32.077 45.9476 32.5464 47.5003 31.0312 49.1457C29.7667 50.5188 28.06 50.3811 27.9134 50.3896Z" fill="#744E2A"/>
<path fill-rule="evenodd" clip-rule="evenodd" d="M27.9775 32.2099C27.6699 32.2 27.5686 32.3159 27.5613 32.1057C27.4195 27.9607 28.5249 27.9827 35.7973 24.9588C41.0696 22.7666 42.6957 22.6476 42.672 18.4984C42.6421 13.2757 43.2 11.5126 39.5905 11.4018C38.212 11.3594 36.4313 11.5006 36.4297 11.2487C36.4292 11.1702 36.4234 10.2885 36.5061 10.2709C36.5669 10.2579 39.8369 10.2345 40.6794 10.314C44.3808 10.6634 43.8088 14.352 43.8086 17.2794C43.8082 20.9483 43.9138 22.8659 39.4615 24.7183C29.9948 28.6569 28.7499 28.6445 28.7118 30.9461C28.7109 31.0014 28.715 32.1233 28.6828 32.165C28.636 32.2254 28.6208 32.1968 27.9775 32.2099Z" fill="#B8B1A9"/>
<path fill-rule="evenodd" clip-rule="evenodd" d="M32.8193 9.644C32.8752 8.46876 32.7952 5.90076 34.7357 4.15016C36.5893 2.47803 38.22 5.70898 38.4414 8.03905C38.4722 8.36321 37.6474 8.25657 36.8966 8.25817C34.904 8.26247 34.328 8.4712 34.3937 11.3119C34.4544 13.935 36.4878 13.4141 37.8575 13.4417C38.2892 13.4503 36.8728 17.8431 35.2345 16.9468C32.451 15.4239 32.8217 10.9347 32.8193 9.644Z" fill="#E7E0D5"/>
<path fill-rule="evenodd" clip-rule="evenodd" d="M10.9717 37.5534C11.0773 37.4414 11.8866 36.5832 12.8741 37.2659C13.252 37.5272 15.1297 40.7768 15.1953 40.8991C18.3953 46.8648 12.1106 50.2355 9.18587 47.4274C5.97841 44.3478 9.40011 40.0371 10.9717 37.5534Z" fill="#4F4F4F"/>
<path fill-rule="evenodd" clip-rule="evenodd" d="M13.8879 43.3255C14.5155 47.7692 9.16613 46.9628 9.97692 43.6578C10.3521 42.1287 11.1386 41.1941 11.8953 39.9433C12.0127 39.7494 12.0794 39.8035 12.171 39.944C13.4221 41.8626 13.4723 41.8443 13.8879 43.3255Z" fill="#AD89D8"/>
</g>
<defs>
<clipPath id="clip0_3032_2003">
<rect width="46" height="45" fill="white"/>
</clipPath>
</defs>
</svg>
