<?xml version="1.0" encoding="UTF-8" standalone="no"?>
<!DOCTYPE svg PUBLIC "-//W3C//DTD SVG 1.1//EN" "http://www.w3.org/Graphics/SVG/1.1/DTD/svg11.dtd">
<svg width="100%" height="100%" viewBox="0 0 506 701" version="1.1"
    xmlns="http://www.w3.org/2000/svg"
    xmlns:xlink="http://www.w3.org/1999/xlink" xml:space="preserve"
    xmlns:serif="http://www.serif.com/" style="fill-rule:evenodd;clip-rule:evenodd;stroke-linejoin:round;stroke-miterlimit:2;">
    <g transform="matrix(1,0,0,1,-241.740459,-151.083567)">
        <path d="M427.525,778.93C431.069,778.36 451.578,775.065 467.456,758.454C501.161,723.193 647.385,417.943 652.025,407.274C725.435,238.474 580.59,186.99 501.805,261.82C475.332,286.964 331.228,551.86 308.366,583.403C286.552,613.501 255.538,596.232 247.997,585.117C233.407,563.616 248.133,541.52 253.937,531.75C286.003,477.77 367.733,332.867 377.521,315.513C404.422,267.819 447.296,168.507 555.576,152.974C682.035,134.835 775.91,249.899 739.644,382.544C719.067,457.802 551.401,764.947 550.054,767.249C452.55,933.822 243.382,828.551 295.412,677.469C305.764,647.408 453.744,391.881 473.914,364.82C526.273,294.571 645.608,355.166 600.569,460.532C599.326,463.439 532.15,589.793 530.124,593.278C506.872,633.283 476.466,614.384 470.875,608.132C445.804,580.093 480.115,544.35 538.32,430.408C550.417,406.727 529.099,411.049 528.441,411.387C519.704,415.878 383.502,661.079 375.944,675.72C337.958,749.301 382.417,781.777 427.525,778.93Z" style="fill:#11B7D4;"/>
    </g>
</svg>
