<?xml version="1.0" encoding="UTF-8" standalone="no"?>
<!DOCTYPE svg PUBLIC "-//W3C//DTD SVG 1.1//EN" "http://www.w3.org/Graphics/SVG/1.1/DTD/svg11.dtd">
<svg width="100%" height="100%" viewBox="0 0 1024 1024" version="1.1" xmlns="http://www.w3.org/2000/svg" xmlns:xlink="http://www.w3.org/1999/xlink" xml:space="preserve" xmlns:serif="http://www.serif.com/" style="fill-rule:evenodd;clip-rule:evenodd;stroke-linejoin:round;stroke-miterlimit:2;">
    <g transform="matrix(1,0,0,1,0,-2328.864868)">
        <g id="settings" transform="matrix(1,0,0,1,0,2328.864868)">
            <rect x="0" y="0" width="1024" height="1024" style="fill:none;"/>
            <g transform="matrix(3.100623,0,0,3.100623,-974.512648,-109.601808)">
                <path d="M508.501,193.461C508.779,193.427 509.056,193.394 509.333,193.361C515.025,172.894 519.934,150.323 520.753,146.556C521.288,144.096 522.192,141.166 533.251,146.947C581.984,172.421 578.965,217.682 579.191,222.519C579.528,229.693 585.967,225.68 591.364,231.622C597.532,238.413 595.766,248.68 595.267,249.245C592.692,252.166 533.859,254.444 528.505,254.651C442.732,257.971 402.754,252.435 366.511,250.288C359.249,249.858 364.08,230.744 372.48,228.432C379.377,226.533 379.869,225.696 379.997,218.508C380.96,164.287 432.563,141.869 436.465,142.821C439.604,143.587 446.943,180.161 447.606,183.466C456.076,225.677 446.001,151.903 445.36,134.497C444.97,123.906 488.513,119.456 511.426,129.664C518.493,132.813 505.709,193.464 508.501,193.461Z" style="fill:rgb(74,59,48);"/>
            </g>
            <g transform="matrix(0.20928,-0.781043,0.781043,0.20928,-269.730796,930.717718)">
                <path d="M727.634,574.427C540.97,826.106 519.483,867 491.505,868.583C448.514,871.016 393.373,809.844 423.763,777.73C562.741,630.873 606.946,584.049 615.925,573.881C624.296,564.401 659.28,529.223 664.763,523.707C664.284,523.334 663.794,522.952 663.291,522.56C651.339,505.812 652.53,503.872 660.692,485.567C678.675,409.473 574.128,379.065 571.591,378.208C567.848,376.944 528.771,372.47 546.924,348.854C555.119,338.193 592.212,322.519 666.375,334.972C737.436,354.414 740.416,362.766 831.851,436.056C864.535,462.255 844.009,473.745 855.939,490.2C872.857,513.535 889.768,489.782 915.208,508.886C951.887,536.429 934.892,548.994 874.89,620.829C852.779,647.301 845.662,650.739 818.797,629.14C788.677,604.925 820.696,590.263 804.175,573.801C775.953,545.678 749.015,577.921 733.5,577.566C732.613,577.545 730.941,576.738 727.634,574.427Z" style="fill:rgb(234,221,204);"/>
            </g>
        </g>
    </g>
</svg>
