<?xml version="1.0" encoding="UTF-8" standalone="no"?>
<!DOCTYPE svg PUBLIC "-//W3C//DTD SVG 1.1//EN" "http://www.w3.org/Graphics/SVG/1.1/DTD/svg11.dtd">
<svg width="100%" height="100%" viewBox="0 0 1024 1024" version="1.1" xmlns="http://www.w3.org/2000/svg" xmlns:xlink="http://www.w3.org/1999/xlink" xml:space="preserve" xmlns:serif="http://www.serif.com/" style="fill-rule:evenodd;clip-rule:evenodd;stroke-linejoin:round;stroke-miterlimit:2;">
    <g transform="matrix(1,0,0,1,0,-1164.432434)">
        <g id="shortcuts" transform="matrix(1,0,0,1,0,1164.432434)">
            <rect x="0" y="0" width="1024" height="1024" style="fill:none;"/>
            <g id="ChatGPT-Image-Nov-9--2025--10_38_49-AM.png" serif:id="ChatGPT Image Nov 9, 2025, 10_38_49 AM.png" transform="matrix(2.804713,-0.75152,0.75152,2.804713,-438.004918,-133.065354)">
                <path d="M161.54,346.055C158.577,345.513 137.632,341.68 133.939,320.441C133.591,318.435 130.985,231.896 135.351,220.445C144.355,196.835 155.097,200.422 258.5,200.38C336.262,200.348 356.569,194.182 356.694,244.499C356.873,316.202 360.608,338.071 332.42,345.114C321.526,347.835 163.535,346.096 161.54,346.055Z" style="fill:rgb(231,224,213);"/>
                <path d="M344.081,302.501C343.984,331.625 337.591,334.1 308.5,334.087C159.601,334.021 157.924,335.533 150.788,328.212C143.981,321.23 145.364,319.63 145.301,247.499C145.295,241.016 140.805,212.909 165.501,212.704C178.535,212.596 319.023,211.432 328.429,212.966C347.232,216.035 344.068,228.657 344.081,302.501Z" style="fill:rgb(231,224,213);"/>
                <path d="M198.874,311.474C198.783,292.639 206.57,296.287 225.496,296.296C280.716,296.325 289.511,294.543 290.613,302.478C293.104,320.413 285.725,319.232 267.503,319.206C205.125,319.116 201.067,321.293 198.874,311.474Z" style="fill:rgb(184,177,169);"/>
                <path d="M313.503,261.918C322.575,262.254 325.545,258.877 328.132,267.604C329.485,272.166 328.964,310.869 328.815,311.559C326.437,322.608 310.919,319.175 309.53,319.12C304.12,318.905 293.336,307.972 306.357,296.332C314.4,289.142 303.357,287.291 301.32,281.558C294.717,262.978 311.657,262.022 313.503,261.918Z" style="fill:rgb(184,177,169);"/>
                <path d="M328.935,240.498C328.1,260.5 300.705,254.863 300.798,241.494C300.906,226.031 306.106,227.08 321.493,227.571C327.739,227.77 328.824,239.31 328.935,240.498Z" style="fill:rgb(184,177,169);"/>
                <path d="M171.5,262.067C183.981,262.371 188.451,261.867 188.329,277.497C188.215,292.087 161.604,290.603 160.824,278.483C159.789,262.415 164.01,263.039 171.5,262.067Z" style="fill:rgb(184,177,169);"/>
                <path d="M172.5,252.415C163.768,251.995 160.747,251.232 160.82,238.501C160.915,221.735 187.324,223.615 188.251,236.521C189.7,256.691 178.668,251.965 172.5,252.415Z" style="fill:rgb(184,177,169);"/>
                <path d="M169.505,319.252C168.802,319.174 162.753,319.912 161.236,312.551C156.471,289.418 186.882,294.17 188.084,302.578C191.136,323.924 175.06,319.012 169.505,319.252Z" style="fill:rgb(184,177,169);"/>
                <path d="M244.501,261.957C251.826,262.644 253.911,260.563 256.15,267.608C263.77,291.586 236.342,289.855 233.529,282.486C226.107,263.039 242.642,262.066 244.501,261.957Z" style="fill:rgb(184,177,169);"/>
                <path d="M222.872,239.497C221.938,262.567 199.571,251.947 198.798,245.457C198.556,243.427 195.784,220.171 217.631,228.186C223.406,230.306 222.86,239.409 222.872,239.497Z" style="fill:rgb(184,177,169);"/>
                <path d="M245.499,252.39C242.528,252.305 230.743,255.041 232.533,236.502C233.886,222.488 260.582,221.732 256.797,244.543C255.493,252.402 253.538,251.653 245.499,252.39Z" style="fill:rgb(184,177,169);"/>
                <path d="M210.494,262.08C217.769,262.5 222.925,261.257 222.878,274.501C222.799,296.65 199.481,286.079 198.942,280.448C197.414,264.51 200,262.513 210.494,262.08Z" style="fill:rgb(184,177,169);"/>
                <path d="M282.519,262.115C296.022,264.749 293.476,286.795 282.509,286.893C266.417,287.036 263.408,283.154 267.638,267.546C269.006,262.499 281.252,262.151 282.519,262.115Z" style="fill:rgb(184,177,169);"/>
                <path d="M279.5,252.416C277.486,252.33 269.023,253.719 266.971,245.414C262.547,227.509 276.793,227.466 278.5,227.461C295.589,227.41 297.886,251.206 279.5,252.416Z" style="fill:rgb(184,177,169);"/>
            </g>
            <g>
                <g transform="matrix(1.315288,0,0,1.315288,432.08979,-63.902882)">
                    <path d="M76.538,614.084C28.722,549.581 98.737,502.964 120.322,499.978C122.518,499.675 145.384,482.066 186.898,508.043C190.374,510.218 194.362,595.053 178.7,602.528C133.819,623.947 94.469,638.274 76.538,614.084Z" style="fill:rgb(231,224,213);"/>
                </g>
                <g transform="matrix(1.315288,0,0,1.315288,432.08979,-63.902882)">
                    <path d="M170.197,555.257C171.038,553.864 177.519,543.125 178.011,536.474C181.459,489.86 121.76,500.502 120.322,499.978C118.239,499.22 120.058,432.732 119.693,373.514C119.28,306.626 168.462,314.014 184.052,339.782C188.309,346.82 192.798,354.239 188.415,442.505C188.2,446.833 184.796,462.449 191.26,453.394C212.409,423.767 239.054,446.022 242.052,450.796C250.757,464.657 245.788,477.067 252.47,469.477C262.292,458.318 294.764,452.709 303.697,492.456C306.265,503.884 311.523,500.201 318.065,509.905C335.869,536.314 333.201,619.32 279.476,653.47C276.016,655.669 284.156,659.434 286.27,664.615C306.652,714.557 231.74,706.544 217.502,706.362C167.776,705.725 107.745,713.997 113.317,673.474C115.19,659.848 128.253,656.747 122.548,654.394C117.859,652.459 88.752,640.453 73.064,614.751C31.305,546.335 105.208,489.011 154.424,509.65C164.977,514.075 192.643,557.06 120.491,566.378C112.609,567.396 117.667,572.787 120.555,573.206C147.275,577.082 167.138,558.169 170.197,555.257Z" style="fill:rgb(74,59,48);"/>
                </g>
            </g>
        </g>
    </g>
</svg>
