<?xml version="1.0" encoding="UTF-8" standalone="no"?>
<!DOCTYPE svg PUBLIC "-//W3C//DTD SVG 1.1//EN" "http://www.w3.org/Graphics/SVG/1.1/DTD/svg11.dtd">
<svg width="100%" height="100%" viewBox="0 0 1000 1000" version="1.1" xmlns="http://www.w3.org/2000/svg" xmlns:xlink="http://www.w3.org/1999/xlink" xml:space="preserve" xmlns:serif="http://www.serif.com/" style="fill-rule:evenodd;clip-rule:evenodd;stroke-linecap:round;stroke-linejoin:round;stroke-miterlimit:1.5;">
    <rect id="Artboard1" x="0" y="0" width="1000" height="1000" style="fill:none;"/>
    <g id="Artboard11" serif:id="Artboard1">
        <g transform="matrix(10.004196,0,0,10.264598,-1599.860645,-5981.493436)">
            <path d="M201.454,585.608C206.661,582.602 213.135,582.602 218.342,585.608C226.225,590.159 237.911,596.906 245.689,601.397C250.725,604.304 253.813,609.585 253.813,615.29L253.813,647.593C253.813,653.297 250.725,658.579 245.689,661.486C237.911,665.977 226.225,672.723 218.342,677.275C213.135,680.281 206.661,680.281 201.454,677.275C193.571,672.723 181.885,665.977 174.107,661.486C169.071,658.579 165.983,653.297 165.983,647.593L165.983,615.29C165.983,609.585 169.071,604.304 174.107,601.397C181.885,596.906 193.571,590.159 201.454,585.608Z" style="fill:rgb(187,206,64);"/>
        </g>
        <g transform="matrix(9.115355,0,0,9.352623,-1413.294883,-5405.633364)">
            <path d="M200.565,586.121C206.32,582.799 213.476,582.799 219.231,586.121C226.79,590.485 237.372,596.595 244.834,600.903C250.4,604.117 253.813,609.954 253.813,616.259L253.813,646.624C253.813,652.929 250.4,658.766 244.834,661.98C237.372,666.288 226.79,672.397 219.231,676.761C213.476,680.084 206.32,680.084 200.565,676.761C193.006,672.397 182.424,666.288 174.962,661.98C169.396,658.766 165.983,652.929 165.983,646.624L165.983,616.259C165.983,609.954 169.396,604.117 174.962,600.903C182.424,596.595 193.006,590.485 200.565,586.121Z" style="fill:none;stroke:rgb(243,247,11);stroke-width:1.11px;stroke-dasharray:3.331,3.331,0,0;"/>
        </g>
        <g transform="matrix(1,0,0,1,-126.175375,-44.686238)">
            <path d="M435.125,752.958C433.208,752.125 431.541,752 430.125,752.583C428.708,753.167 427.687,754.146 427.062,755.521C426.437,756.896 426.396,758.312 426.937,759.771C427.479,761.229 428.708,762.375 430.625,763.208C432.458,764.042 434.312,764.771 436.187,765.396C438.062,766.021 439.916,766.542 441.75,766.958C443.583,767.375 445.396,767.687 447.187,767.896C448.979,768.104 450.708,768.208 452.375,768.208C456.125,768.208 459.646,767.687 462.937,766.646C466.229,765.604 469.104,764.062 471.562,762.021C474.021,759.979 475.937,757.5 477.312,754.583C478.687,751.667 479.375,748.292 479.375,744.458C479.375,740.625 478.708,737.354 477.375,734.646C476.041,731.937 474.25,729.625 472,727.708C469.75,725.792 467.187,724.125 464.312,722.708C461.437,721.292 458.458,719.917 455.375,718.583C452.958,717.667 450.5,716.646 448,715.521C445.5,714.396 443.416,712.958 441.75,711.208C440.083,709.458 439.25,707.167 439.25,704.333C439.25,701.667 439.875,699.458 441.125,697.708C442.375,695.958 444.104,694.667 446.312,693.833C448.521,693 451.083,692.583 454,692.583C456.333,692.583 458.812,692.833 461.437,693.333C464.062,693.833 466.75,694.583 469.5,695.583C471.5,696.333 473.187,696.375 474.562,695.708C475.937,695.042 476.896,694 477.437,692.583C477.979,691.167 477.958,689.75 477.375,688.333C476.791,686.917 475.5,685.833 473.5,685.083C470,683.75 466.604,682.792 463.312,682.208C460.021,681.625 456.916,681.333 454,681.333C450.083,681.333 446.541,681.875 443.375,682.958C440.208,684.042 437.479,685.583 435.187,687.583C432.896,689.583 431.125,692 429.875,694.833C428.625,697.667 428,700.833 428,704.333C428,707.917 428.625,711 429.875,713.583C431.125,716.167 432.812,718.375 434.937,720.208C437.062,722.042 439.521,723.667 442.312,725.083C445.104,726.5 448.041,727.833 451.125,729.083C453.625,730.083 456.187,731.187 458.812,732.396C461.437,733.604 463.646,735.146 465.437,737.021C467.229,738.896 468.125,741.375 468.125,744.458C468.125,747.375 467.416,749.75 466,751.583C464.583,753.417 462.687,754.771 460.312,755.646C457.937,756.521 455.291,756.958 452.375,756.958C450.625,756.958 448.791,756.812 446.875,756.521C444.958,756.229 443.021,755.771 441.062,755.146C439.104,754.521 437.125,753.792 435.125,752.958Z" style="fill:rgb(243,247,11);fill-rule:nonzero;"/>
            <path d="M387.79,731.766C384.312,723.966 382.166,714.879 382.166,704.333C382.166,694 384.25,684.698 387.941,676.333C391.959,667.225 397.684,659.48 405.05,653.051C411.648,647.293 419.423,642.711 428.539,639.592C436.136,636.993 444.603,635.5 454,635.5C459.42,635.5 465.193,635.994 471.31,637.078C477.255,638.132 483.4,639.815 489.72,642.216C506.107,648.4 514.965,659.247 519.756,670.882C524.981,683.572 525.1,696.262 520.248,708.952C519.616,710.604 518.922,712.2 518.164,713.739C518.276,713.959 518.386,714.18 518.495,714.402C522.595,722.731 525.208,732.67 525.208,744.458C525.208,755.721 522.81,765.558 518.77,774.127C514.487,783.212 508.502,790.921 500.845,797.28C493.964,802.995 485.979,807.427 476.766,810.343C469.16,812.75 461.039,814.042 452.375,814.042C449.007,814.042 445.513,813.843 441.893,813.422C438.499,813.028 435.065,812.441 431.592,811.652C428.33,810.91 425.03,809.989 421.693,808.877C418.401,807.78 415.144,806.506 411.961,805.07C396.644,798.291 388.334,787.474 383.972,775.729C378.978,762.285 379.575,749.231 385.337,736.555C386.091,734.895 386.909,733.299 387.79,731.766ZM435.125,752.958C433.208,752.125 431.541,752 430.125,752.583C428.708,753.167 427.687,754.146 427.062,755.521C426.437,756.896 426.396,758.312 426.937,759.771C427.479,761.229 428.708,762.375 430.625,763.208C432.458,764.042 434.312,764.771 436.187,765.396C438.062,766.021 439.916,766.542 441.75,766.958C443.583,767.375 445.396,767.687 447.187,767.896C448.979,768.104 450.708,768.208 452.375,768.208C456.125,768.208 459.646,767.687 462.937,766.646C466.229,765.604 469.104,764.062 471.562,762.021C474.021,759.979 475.937,757.5 477.312,754.583C478.687,751.667 479.375,748.292 479.375,744.458C479.375,740.625 478.708,737.354 477.375,734.646C476.041,731.937 474.25,729.625 472,727.708C469.75,725.792 467.187,724.125 464.312,722.708C461.437,721.292 458.458,719.917 455.375,718.583C452.958,717.667 450.5,716.646 448,715.521C445.5,714.396 443.416,712.958 441.75,711.208C440.083,709.458 439.25,707.167 439.25,704.333C439.25,701.667 439.875,699.458 441.125,697.708C442.375,695.958 444.104,694.667 446.312,693.833C448.521,693 451.083,692.583 454,692.583C456.333,692.583 458.812,692.833 461.437,693.333C464.062,693.833 466.75,694.583 469.5,695.583C471.5,696.333 473.187,696.375 474.562,695.708C475.937,695.042 476.896,694 477.437,692.583C477.979,691.167 477.958,689.75 477.375,688.333C476.791,686.917 475.5,685.833 473.5,685.083C470,683.75 466.604,682.792 463.312,682.208C460.021,681.625 456.916,681.333 454,681.333C450.083,681.333 446.541,681.875 443.375,682.958C440.208,684.042 437.479,685.583 435.187,687.583C432.896,689.583 431.125,692 429.875,694.833C428.625,697.667 428,700.833 428,704.333C428,707.917 428.625,711 429.875,713.583C431.125,716.167 432.812,718.375 434.937,720.208C437.062,722.042 439.521,723.667 442.312,725.083C445.104,726.5 448.041,727.833 451.125,729.083C453.625,730.083 456.187,731.187 458.812,732.396C461.437,733.604 463.646,735.146 465.437,737.021C467.229,738.896 468.125,741.375 468.125,744.458C468.125,747.375 467.416,749.75 466,751.583C464.583,753.417 462.687,754.771 460.312,755.646C457.937,756.521 455.291,756.958 452.375,756.958C450.625,756.958 448.791,756.812 446.875,756.521C444.958,756.229 443.021,755.771 441.062,755.146C439.104,754.521 437.125,753.792 435.125,752.958Z" style="fill:rgb(187,206,64);"/>
            <path d="M520.875,767.583C522.958,768 524.604,767.75 525.812,766.833C527.021,765.917 527.771,764.729 528.062,763.271C528.354,761.812 528.083,760.437 527.25,759.146C526.416,757.854 524.958,757 522.875,756.583C520.958,756.167 519.229,755.646 517.687,755.021C516.146,754.396 514.541,753.542 512.875,752.458C510.208,750.625 507.916,748.312 506,745.521C504.083,742.729 502.646,739.562 501.687,736.021C500.729,732.479 500.25,728.708 500.25,724.708C500.25,719.958 500.937,715.604 502.312,711.646C503.687,707.687 505.666,704.271 508.25,701.396C510.833,698.521 513.916,696.292 517.5,694.708C521.083,693.125 525.041,692.333 529.375,692.333C533.708,692.333 537.625,693.125 541.125,694.708C544.625,696.292 547.625,698.542 550.125,701.458C552.625,704.375 554.562,707.792 555.937,711.708C557.312,715.625 558,719.958 558,724.708C558,728.625 557.521,732.312 556.562,735.771C555.604,739.229 554.229,742.333 552.437,745.083C550.646,747.833 548.458,750.167 545.875,752.083C544.291,753.25 542.687,754.187 541.062,754.896C539.437,755.604 537.666,756.167 535.75,756.583C533.666,757 532.229,757.854 531.437,759.146C530.646,760.437 530.396,761.812 530.687,763.271C530.979,764.729 531.75,765.917 533,766.833C534.25,767.75 535.916,768 538,767.583C540.666,767.083 543.187,766.312 545.562,765.271C547.937,764.229 550.291,762.833 552.625,761.083C556.041,758.5 559,755.396 561.5,751.771C564,748.146 565.916,744.042 567.25,739.458C568.583,734.875 569.25,729.958 569.25,724.708C569.25,716.208 567.541,708.687 564.125,702.146C560.708,695.604 556,690.458 550,686.708C544,682.958 537.125,681.083 529.375,681.083C521.625,681.083 514.708,682.937 508.625,686.646C502.541,690.354 497.75,695.5 494.25,702.083C490.75,708.667 489,716.208 489,724.708C489,730.125 489.708,735.187 491.125,739.896C492.541,744.604 494.583,748.792 497.25,752.458C499.916,756.125 503.041,759.208 506.625,761.708C508.875,763.208 511.146,764.437 513.437,765.396C515.729,766.354 518.208,767.083 520.875,767.583Z" style="fill:rgb(243,247,11);fill-rule:nonzero;"/>
            <path d="M529.468,813.337C524.208,813.979 518.463,813.811 512.185,812.586L512.13,812.575C506.261,811.454 500.81,809.795 495.754,807.681C490.864,805.636 486.002,803.045 481.201,799.844C480.932,799.665 480.665,799.482 480.4,799.297C472.685,793.915 465.924,787.31 460.183,779.416C454.587,771.722 450.208,762.981 447.235,753.101C444.585,744.295 443.166,734.839 443.166,724.708C443.166,708.094 446.939,693.436 453.78,680.568C461.298,666.427 471.701,655.476 484.768,647.51C497.868,639.525 512.686,635.25 529.375,635.25C546.285,635.25 561.199,639.659 574.291,647.842C587.187,655.901 597.407,666.868 604.751,680.927C611.393,693.645 615.083,708.182 615.083,724.708C615.083,734.519 613.75,743.696 611.259,752.261C608.489,761.78 604.422,770.263 599.23,777.792C593.895,785.528 587.558,792.13 580.267,797.643L580.125,797.75C574.8,801.743 569.391,804.867 563.972,807.244C558.53,809.631 552.766,811.429 546.698,812.584C540.458,813.803 534.729,813.975 529.468,813.337ZM520.875,767.583C522.958,768 524.604,767.75 525.812,766.833C527.021,765.917 527.771,764.729 528.062,763.271C528.354,761.812 528.083,760.437 527.25,759.146C526.416,757.854 524.958,757 522.875,756.583C520.958,756.167 519.229,755.646 517.687,755.021C516.146,754.396 514.541,753.542 512.875,752.458C510.208,750.625 507.916,748.312 506,745.521C504.083,742.729 502.646,739.562 501.687,736.021C500.729,732.479 500.25,728.708 500.25,724.708C500.25,719.958 500.937,715.604 502.312,711.646C503.687,707.687 505.666,704.271 508.25,701.396C510.833,698.521 513.916,696.292 517.5,694.708C521.083,693.125 525.041,692.333 529.375,692.333C533.708,692.333 537.625,693.125 541.125,694.708C544.625,696.292 547.625,698.542 550.125,701.458C552.625,704.375 554.562,707.792 555.937,711.708C557.312,715.625 558,719.958 558,724.708C558,728.625 557.521,732.312 556.562,735.771C555.604,739.229 554.229,742.333 552.437,745.083C550.646,747.833 548.458,750.167 545.875,752.083C544.291,753.25 542.687,754.187 541.062,754.896C539.437,755.604 537.666,756.167 535.75,756.583C533.666,757 532.229,757.854 531.437,759.146C530.646,760.437 530.396,761.812 530.687,763.271C530.979,764.729 531.75,765.917 533,766.833C534.25,767.75 535.916,768 538,767.583C540.666,767.083 543.187,766.312 545.562,765.271C547.937,764.229 550.291,762.833 552.625,761.083C556.041,758.5 559,755.396 561.5,751.771C564,748.146 565.916,744.042 567.25,739.458C568.583,734.875 569.25,729.958 569.25,724.708C569.25,716.208 567.541,708.687 564.125,702.146C560.708,695.604 556,690.458 550,686.708C544,682.958 537.125,681.083 529.375,681.083C521.625,681.083 514.708,682.937 508.625,686.646C502.541,690.354 497.75,695.5 494.25,702.083C490.75,708.667 489,716.208 489,724.708C489,730.125 489.708,735.187 491.125,739.896C492.541,744.604 494.583,748.792 497.25,752.458C499.916,756.125 503.041,759.208 506.625,761.708C508.875,763.208 511.146,764.437 513.437,765.396C515.729,766.354 518.208,767.083 520.875,767.583ZM524.644,724.796C524.972,725.085 525.332,725.34 525.708,725.575C526.804,726.26 527.959,726.917 529.375,726.917C530.568,726.917 531.545,726.352 532.481,725.781C532.93,725.507 533.358,725.207 533.739,724.854C533.373,724.516 532.864,724.134 532.048,723.573C531.747,723.372 531.427,723.239 531.12,723.111C530.595,722.891 530.041,722.683 529.436,722.558C528.631,722.719 527.874,722.981 527.153,723.297C526.483,723.591 525.783,723.923 524.982,724.524C524.867,724.611 524.754,724.702 524.644,724.796Z" style="fill:rgb(187,206,64);"/>
            <path d="M642.375,761.583C644.125,760.417 645.125,759.062 645.375,757.521C645.625,755.979 645.354,754.583 644.562,753.333C643.771,752.083 642.625,751.271 641.125,750.896C639.625,750.521 637.958,750.917 636.125,752.083C633.541,753.833 630.687,755.104 627.562,755.896C624.437,756.687 621.541,757.083 618.875,757.083C614.958,757.083 611.354,756.354 608.062,754.896C604.771,753.437 601.896,751.312 599.437,748.521C596.979,745.729 595.083,742.333 593.75,738.333C592.416,734.333 591.75,729.833 591.75,724.833C591.75,718.167 592.958,712.417 595.375,707.583C597.791,702.75 601.083,699.042 605.25,696.458C609.416,693.875 614.125,692.583 619.375,692.583C622.041,692.583 624.875,692.937 627.875,693.646C630.875,694.354 633.666,695.542 636.25,697.208C638,698.375 639.625,698.75 641.125,698.333C642.625,697.917 643.771,697.083 644.562,695.833C645.354,694.583 645.604,693.208 645.312,691.708C645.021,690.208 644,688.875 642.25,687.708C638.75,685.458 634.979,683.833 630.937,682.833C626.896,681.833 623.041,681.333 619.375,681.333C614.125,681.333 609.146,682.312 604.437,684.271C599.729,686.229 595.583,689.104 592,692.896C588.416,696.687 585.604,701.271 583.562,706.646C581.521,712.021 580.5,718.083 580.5,724.833C580.5,733.833 582.229,741.604 585.687,748.146C589.146,754.687 593.791,759.708 599.625,763.208C605.458,766.708 611.875,768.417 618.875,768.333C622.625,768.333 626.583,767.771 630.75,766.646C634.916,765.521 638.791,763.833 642.375,761.583Z" style="fill:rgb(243,247,11);fill-rule:nonzero;"/>
            <path d="M680.331,724.582C681.367,725.928 682.351,727.338 683.283,728.81C690.11,739.59 692.773,751.562 690.617,764.857C688.554,777.577 682.237,790.093 667.798,799.719C667.451,799.95 667.101,800.177 666.747,800.399C659.332,805.055 651.32,808.566 642.697,810.895C634.437,813.125 626.57,814.144 619.212,814.166C603.51,814.316 589.138,810.367 576.044,802.51C563.209,794.809 552.777,783.96 545.168,769.567C538.514,756.981 534.666,742.149 534.666,724.833C534.666,712.028 536.842,700.568 540.716,690.371C545.029,679.016 551.118,669.425 558.688,661.415C566.79,652.842 576.19,646.38 586.836,641.952C597.095,637.685 607.935,635.5 619.375,635.5C626.529,635.5 634.06,636.39 641.945,638.341C650.909,640.559 659.272,644.164 667.034,649.154C667.249,649.292 667.462,649.431 667.673,649.573C681.684,658.913 687.968,670.951 690.303,682.96C692.95,696.573 690.468,709.012 683.283,720.356C682.352,721.827 681.368,723.236 680.331,724.582ZM619.375,727.167C620.315,727.167 621.196,726.94 622.039,726.589C623.018,726.182 623.92,725.647 624.72,724.946C624.246,724.555 623.729,724.221 623.206,723.906C621.767,723.043 620.214,722.516 618.498,722.503C618.325,722.576 618.161,722.668 618.002,722.767L616.951,723.448C616.352,723.847 615.773,724.254 615.213,724.667C615.931,725.208 616.681,725.74 617.465,726.262C618.065,726.648 618.702,726.95 619.375,727.167ZM619.375,727.167C619.557,727.226 619.741,727.279 619.929,727.325C619.729,727.275 619.556,727.167 619.375,727.167ZM642.375,761.583C644.125,760.417 645.125,759.062 645.375,757.521C645.625,755.979 645.354,754.583 644.562,753.333C643.771,752.083 642.625,751.271 641.125,750.896C639.625,750.521 637.958,750.917 636.125,752.083C633.541,753.833 630.687,755.104 627.562,755.896C624.437,756.687 621.541,757.083 618.875,757.083C614.958,757.083 611.354,756.354 608.062,754.896C604.771,753.437 601.896,751.312 599.437,748.521C596.979,745.729 595.083,742.333 593.75,738.333C592.416,734.333 591.75,729.833 591.75,724.833C591.75,718.167 592.958,712.417 595.375,707.583C597.791,702.75 601.083,699.042 605.25,696.458C609.416,693.875 614.125,692.583 619.375,692.583C622.041,692.583 624.875,692.937 627.875,693.646C630.875,694.354 633.666,695.542 636.25,697.208C638,698.375 639.625,698.75 641.125,698.333C642.625,697.917 643.771,697.083 644.562,695.833C645.354,694.583 645.604,693.208 645.312,691.708C645.021,690.208 644,688.875 642.25,687.708C638.75,685.458 634.979,683.833 630.937,682.833C626.896,681.833 623.041,681.333 619.375,681.333C614.125,681.333 609.146,682.312 604.437,684.271C599.729,686.229 595.583,689.104 592,692.896C588.416,696.687 585.604,701.271 583.562,706.646C581.521,712.021 580.5,718.083 580.5,724.833C580.5,733.833 582.229,741.604 585.687,748.146C589.146,754.687 593.791,759.708 599.625,763.208C605.458,766.708 611.875,768.417 618.875,768.333C622.625,768.333 626.583,767.771 630.75,766.646C634.916,765.521 638.791,763.833 642.375,761.583ZM618.501,722.501L618.875,722.5C618.835,722.5 618.846,722.385 618.803,722.397C618.699,722.425 618.599,722.46 618.501,722.501Z" style="fill:rgb(187,206,64);"/>
            <path d="M661.125,762.333C661.125,764.5 661.687,766.104 662.812,767.146C663.937,768.187 665.25,768.708 666.75,768.708C668.25,768.708 669.562,768.187 670.687,767.146C671.812,766.104 672.375,764.5 672.375,762.333L672.375,687.333C672.375,685.25 671.812,683.687 670.687,682.646C669.562,681.604 668.25,681.083 666.75,681.083C665.25,681.083 663.937,681.604 662.812,682.646C661.687,683.687 661.125,685.25 661.125,687.333L661.125,762.333Z" style="fill:rgb(243,247,11);fill-rule:nonzero;"/>
            <path d="M615.291,762.333L615.291,687.333C615.291,669.907 622.262,657.728 631.673,649.015C641.68,639.749 653.407,635.25 666.75,635.25C680.092,635.25 691.82,639.749 701.827,649.015C711.237,657.728 718.208,669.907 718.208,687.333L718.208,762.333C718.208,780.087 711.045,792.241 701.827,800.776C691.82,810.042 680.092,814.542 666.75,814.542C653.407,814.542 641.68,810.042 631.673,800.776C622.454,792.241 615.291,780.087 615.291,762.333ZM661.125,723.233C658.621,723.561 656.198,724.113 653.857,724.896C656.198,725.678 658.621,726.231 661.125,726.558L661.125,762.333C661.125,764.5 661.687,766.104 662.812,767.146C663.937,768.187 665.25,768.708 666.75,768.708C668.25,768.708 669.562,768.187 670.687,767.146C671.812,766.104 672.375,764.5 672.375,762.333L672.375,726.558C674.879,726.231 677.302,725.678 679.642,724.896C677.302,724.113 674.879,723.561 672.375,723.233L672.375,687.333C672.375,685.25 671.812,683.687 670.687,682.646C669.562,681.604 668.25,681.083 666.75,681.083C665.25,681.083 663.937,681.604 662.812,682.646C661.687,683.687 661.125,685.25 661.125,687.333L661.125,723.233Z" style="fill:rgb(187,206,64);"/>
            <path d="M688.875,760.458C688.125,762.458 688.104,764.146 688.812,765.521C689.521,766.896 690.583,767.833 692,768.333C693.416,768.833 694.833,768.771 696.25,768.146C697.666,767.521 698.708,766.208 699.375,764.208C699.958,762.542 700.521,760.979 701.062,759.521C701.604,758.062 702.125,756.604 702.625,755.146C703.125,753.687 703.666,752.125 704.25,750.458C704.75,749.292 705.208,748.354 705.625,747.646C706.041,746.937 706.625,746.437 707.375,746.146C708.125,745.854 709.208,745.708 710.625,745.708L732.375,745.708C734.041,745.708 735.396,745.333 736.437,744.583C737.479,743.833 738.166,742.896 738.5,741.771C738.833,740.646 738.833,739.521 738.5,738.396C738.166,737.271 737.479,736.333 736.437,735.583C735.396,734.833 734.041,734.458 732.375,734.458L716.875,734.458C715.375,734.458 714.229,734.229 713.437,733.771C712.646,733.312 712.166,732.646 712,731.771C711.833,730.896 711.854,729.854 712.062,728.646C712.271,727.437 712.625,726.125 713.125,724.708C713.875,722.458 714.666,720.167 715.5,717.833C716.333,715.5 719.666,706.167 720.5,703.833C721.333,701.5 722.125,699.208 722.875,696.958C723.291,695.708 723.604,694.854 723.812,694.396C724.021,693.937 724.229,693.875 724.437,694.208C724.646,694.542 724.958,695.333 725.375,696.583C726.791,700.417 728.312,704.667 729.937,709.333C731.562,714 733.187,718.75 734.812,723.583C736.437,728.417 738.021,733.062 739.562,737.521C741.104,741.979 742.5,745.958 743.75,749.458C744.25,750.792 744.791,752.292 745.375,753.958C745.958,755.625 746.562,757.354 747.187,759.146C747.812,760.937 748.416,762.625 749,764.208C749.666,766.208 750.708,767.521 752.125,768.146C753.541,768.771 754.958,768.833 756.375,768.333C757.791,767.833 758.854,766.896 759.562,765.521C760.271,764.146 760.25,762.458 759.5,760.458C758.916,758.792 758.312,757.062 757.687,755.271C757.062,753.479 756.458,751.75 755.875,750.083C755.291,748.417 754.75,746.958 754.25,745.708C753.25,742.958 752.166,739.854 751,736.396C749.833,732.937 748.604,729.292 747.312,725.458C746.021,721.625 744.708,717.729 743.375,713.771C742.041,709.812 740.708,705.917 739.375,702.083C738.041,698.25 736.75,694.625 735.5,691.208C734.166,687.625 732.479,684.937 730.437,683.146C728.396,681.354 726.25,680.458 724,680.458C721.75,680.458 719.646,681.354 717.687,683.146C715.729,684.937 714.125,687.583 712.875,691.083C711.958,693.917 711.041,696.646 710.125,699.271C709.208,701.896 708.312,704.437 707.437,706.896C706.562,709.354 705.687,711.75 704.812,714.083C703.937,716.417 703.125,718.708 702.375,720.958C701.208,724.375 700.646,727.583 700.687,730.583C700.729,733.583 701.354,736.208 702.562,738.458C703.771,740.708 705.562,742.479 707.937,743.771C710.312,745.062 713.291,745.708 716.875,745.708L732.375,745.708C734.041,745.708 735.396,745.333 736.437,744.583C737.479,743.833 738.166,742.896 738.5,741.771C738.833,740.646 738.833,739.521 738.5,738.396C738.166,737.271 737.479,736.333 736.437,735.583C735.396,734.833 734.041,734.458 732.375,734.458L710.625,734.458C707.541,734.458 704.896,734.937 702.687,735.896C700.479,736.854 698.666,738.229 697.25,740.021C695.833,741.812 694.666,744.042 693.75,746.708C693.166,748.375 692.604,749.937 692.062,751.396C691.521,752.854 691,754.312 690.5,755.771C690,757.229 689.458,758.792 688.875,760.458Z" style="fill:rgb(243,247,11);fill-rule:nonzero;"/>
            <path d="M645.729,744.99L645.752,744.926C646.249,743.503 646.713,742.163 647.144,740.906C647.769,739.083 648.42,737.26 649.097,735.437C649.536,734.255 649.991,732.99 650.453,731.67C651.916,727.443 653.651,723.613 655.59,720.144C656.237,715.69 657.328,711.08 658.939,706.326C659.851,703.597 660.836,700.818 661.897,697.99C662.684,695.892 663.471,693.737 664.257,691.527C665.103,689.152 665.968,686.696 666.854,684.16C667.658,681.857 668.462,679.461 669.267,676.975C669.408,676.537 669.557,676.101 669.712,675.668C673.936,663.84 680.131,655.384 686.749,649.33C698.18,638.871 710.866,634.625 724,634.625C736.668,634.625 749.173,638.609 760.668,648.696C767.518,654.707 773.982,663.203 778.456,675.225L778.543,675.461C779.872,679.094 781.246,682.949 782.664,687.026C784.046,690.999 785.428,695.037 786.81,699.14L790.746,710.823L794.428,721.745C795.388,724.589 796.283,727.165 797.109,729.455C797.74,731.064 798.417,732.892 799.135,734.942L800.963,740.174L802.628,744.943C808.609,761.359 806.142,775.183 800.307,786.51C793.963,798.826 784.317,807.075 771.629,811.554C758.964,816.024 746.29,815.667 733.625,810.079C730.359,808.639 727.186,806.885 724.187,804.751C721.187,806.886 718.015,808.639 714.75,810.079C702.085,815.667 689.411,816.024 676.745,811.554C664.057,807.075 654.412,798.826 648.068,786.51C642.238,775.193 639.771,761.385 645.729,744.99ZM701.653,736.39C699.906,737.307 698.439,738.517 697.25,740.021C695.833,741.812 694.666,744.042 693.75,746.708C693.166,748.375 692.604,749.937 692.062,751.396C691.521,752.854 691,754.312 690.5,755.771C690,757.229 689.458,758.792 688.875,760.458C688.125,762.458 688.104,764.146 688.812,765.521C689.521,766.896 690.583,767.833 692,768.333C693.416,768.833 694.833,768.771 696.25,768.146C697.666,767.521 698.708,766.208 699.375,764.208C699.958,762.542 700.521,760.979 701.062,759.521C701.604,758.062 702.125,756.604 702.625,755.146C703.125,753.687 703.666,752.125 704.25,750.458C704.75,749.292 705.208,748.354 705.625,747.646C706.041,746.937 706.625,746.437 707.375,746.146C708.125,745.854 709.208,745.708 710.625,745.708L716.875,745.708C713.291,745.708 710.312,745.062 707.937,743.771C705.562,742.479 703.771,740.708 702.562,738.458C702.209,737.801 701.906,737.112 701.653,736.39ZM716.875,734.458C715.375,734.458 714.229,734.229 713.437,733.771C712.646,733.312 712.166,732.646 712,731.771C711.833,730.896 711.854,729.854 712.062,728.646C712.271,727.437 712.625,726.125 713.125,724.708C713.875,722.458 714.666,720.167 715.5,717.833L720.5,703.833C721.333,701.5 722.125,699.208 722.875,696.958C723.291,695.708 723.604,694.854 723.812,694.396C724.021,693.937 724.229,693.875 724.437,694.208C724.646,694.542 724.958,695.333 725.375,696.583C726.791,700.417 728.312,704.667 729.937,709.333C731.562,714 733.187,718.75 734.812,723.583C736.437,728.417 738.021,733.062 739.562,737.521C741.104,741.979 742.5,745.958 743.75,749.458C744.25,750.792 744.791,752.292 745.375,753.958L747.187,759.146C747.812,760.937 748.416,762.625 749,764.208C749.666,766.208 750.708,767.521 752.125,768.146C753.541,768.771 754.958,768.833 756.375,768.333C757.791,767.833 758.854,766.896 759.562,765.521C760.271,764.146 760.25,762.458 759.5,760.458L755.875,750.083C755.291,748.417 754.75,746.958 754.25,745.708C753.25,742.958 752.166,739.854 751,736.396L747.312,725.458L743.375,713.771C742.041,709.812 740.708,705.917 739.375,702.083C738.041,698.25 736.75,694.625 735.5,691.208C734.166,687.625 732.479,684.937 730.437,683.146C728.396,681.354 726.25,680.458 724,680.458C721.75,680.458 719.646,681.354 717.687,683.146C715.729,684.937 714.125,687.583 712.875,691.083C711.958,693.917 711.041,696.646 710.125,699.271C709.208,701.896 708.312,704.437 707.437,706.896C706.562,709.354 705.687,711.75 704.812,714.083C703.937,716.417 703.125,718.708 702.375,720.958C701.208,724.375 700.646,727.583 700.687,730.583C700.687,730.597 700.688,730.61 700.688,730.623L699.939,728.402C699.324,726.575 698.709,724.762 698.093,722.963C697.656,722.913 697.218,722.87 696.781,722.835C695.898,724.735 695.16,726.709 694.555,728.75L694.436,729.158C696.583,731.067 698.786,732.636 701.003,733.926C701.161,734.785 701.377,735.607 701.653,736.39C701.987,736.215 702.332,736.05 702.687,735.896C704.896,734.937 707.541,734.458 710.625,734.458L716.875,734.458ZM724.187,736.491C723.299,737.526 722.458,738.618 721.664,739.768C723.249,739.87 724.973,739.929 726.799,739.897C725.979,738.699 725.108,737.564 724.187,736.491Z" style="fill:rgb(187,206,64);"/>
            <path d="M816.625,767.333C818.708,767.333 820.271,766.771 821.312,765.646C822.354,764.521 822.875,763.208 822.875,761.708C822.875,760.208 822.354,758.896 821.312,757.771C820.271,756.646 818.708,756.083 816.625,756.083L793.25,756.083C791.25,756.083 789.75,756 788.75,755.833C787.75,755.667 787.083,755.146 786.75,754.271C786.416,753.396 786.25,752 786.25,750.083L786.25,687.333C786.25,685.25 785.687,683.687 784.562,682.646C783.437,681.604 782.125,681.083 780.625,681.083C779.125,681.083 777.812,681.604 776.687,682.646C775.562,683.687 775,685.25 775,687.333L775,744.583C775,749.333 775.125,753.208 775.375,756.208C775.625,759.208 776.25,761.5 777.25,763.083C778.25,764.667 779.833,765.771 782,766.396C784.166,767.021 787.125,767.333 790.875,767.333L816.625,767.333Z" style="fill:rgb(243,247,11);fill-rule:nonzero;"/>
            <path d="M832.083,712.323C841.637,715.064 849.076,720.295 854.943,726.631C864.209,736.638 868.708,748.366 868.708,761.708C868.708,775.051 864.209,786.778 854.943,796.785C846.23,806.196 834.051,813.167 816.625,813.167L790.875,813.167C781.735,813.167 774.577,811.957 769.297,810.433C754.943,806.293 745.123,798.047 738.498,787.558C734.441,781.133 730.714,772.187 729.7,760.014C729.368,756.032 729.166,750.889 729.166,744.583L729.166,687.333C729.166,669.907 736.137,657.728 745.548,649.015C755.555,639.749 767.282,635.25 780.625,635.25C793.967,635.25 805.695,639.749 815.702,649.015C825.112,657.728 832.083,669.907 832.083,687.333L832.083,712.323ZM816.625,767.333C818.708,767.333 820.271,766.771 821.312,765.646C822.354,764.521 822.875,763.208 822.875,761.708C822.875,760.208 822.354,758.896 821.312,757.771C820.271,756.646 818.708,756.083 816.625,756.083L793.25,756.083C791.25,756.083 789.75,756 788.75,755.833C787.75,755.667 787.083,755.146 786.75,754.271C786.416,753.396 786.25,752 786.25,750.083L786.25,687.333C786.25,685.25 785.687,683.687 784.562,682.646C783.437,681.604 782.125,681.083 780.625,681.083C779.125,681.083 777.812,681.604 776.687,682.646C775.562,683.687 775,685.25 775,687.333L775,744.583C775,749.333 775.125,753.208 775.375,756.208C775.625,759.208 776.25,761.5 777.25,763.083C778.25,764.667 779.833,765.771 782,766.396C784.166,767.021 787.125,767.333 790.875,767.333L816.625,767.333Z" style="fill:rgb(187,206,64);"/>
            <path d="M395.363,857.982C393.631,857.982 392.315,858.45 391.414,859.385C390.514,860.32 390.064,861.411 390.064,862.658C390.064,863.904 390.514,864.995 391.414,865.931C392.315,866.866 393.631,867.333 395.363,867.333C397.995,867.333 400.281,867.316 402.22,867.281C404.16,867.247 405.961,867.056 407.623,866.71C409.286,866.363 411.052,865.705 412.922,864.736C415.139,863.627 417.061,862.173 418.689,860.372C420.316,858.571 421.581,856.527 422.481,854.242C423.382,851.956 423.832,849.462 423.832,846.761C423.832,843.713 423.208,840.907 421.962,838.345C420.715,835.782 418.983,833.6 416.766,831.799C414.55,829.998 411.952,828.647 408.974,827.747C408.212,827.539 407.294,827.348 406.22,827.175C405.147,827.002 404.004,826.863 402.792,826.759C401.579,826.656 400.333,826.586 399.051,826.552C397.77,826.517 396.54,826.5 395.363,826.5C393.977,826.5 392.852,826.811 391.986,827.435C391.12,828.058 390.549,828.838 390.271,829.773C389.994,830.708 389.994,831.643 390.271,832.578C390.549,833.513 391.12,834.292 391.986,834.916C392.852,835.539 393.977,835.851 395.363,835.851C398.41,835.851 401.129,835.678 403.519,835.331C405.909,834.985 407.935,834.396 409.597,833.565C411.537,832.526 413.372,831.297 415.104,829.877C416.836,828.457 418.238,826.673 419.312,824.526C420.386,822.378 420.923,819.746 420.923,816.629C420.923,813.651 420.403,810.932 419.364,808.473C418.325,806.014 416.853,803.901 414.948,802.135C413.043,800.368 410.775,799.018 408.143,798.083C405.51,797.147 402.567,796.68 399.311,796.68L392.35,796.68C389.163,796.68 386.618,797.147 384.713,798.083C382.808,799.018 381.423,800.49 380.557,802.498C379.691,804.507 379.258,807.07 379.258,810.187L379.258,862.658C379.258,864.389 379.725,865.705 380.661,866.606C381.596,867.506 382.687,867.957 383.933,867.957C385.18,867.957 386.271,867.506 387.206,866.606C388.142,865.705 388.609,864.389 388.609,862.658L388.609,810.187C388.609,808.871 388.644,807.936 388.713,807.382C388.782,806.828 389.077,806.464 389.596,806.291C390.116,806.118 391.033,806.031 392.35,806.031L399.311,806.031C401.805,806.031 403.969,806.429 405.805,807.226C407.64,808.023 409.06,809.217 410.065,810.811C411.069,812.404 411.571,814.343 411.571,816.629C411.571,819.192 411.069,821.131 410.065,822.448C409.06,823.764 407.727,824.768 406.065,825.461C405.441,825.738 404.575,825.946 403.467,826.084C402.359,826.223 401.129,826.327 399.779,826.396C398.428,826.465 396.956,826.5 395.363,826.5C393.631,826.5 392.315,826.967 391.414,827.902C390.514,828.838 390.064,829.929 390.064,831.175C390.064,832.422 390.514,833.513 391.414,834.448C392.315,835.383 393.631,835.851 395.363,835.851C397.371,835.851 399.086,835.868 400.506,835.903C401.926,835.937 403.138,836.024 404.142,836.163C405.147,836.301 406.03,836.474 406.792,836.682C408.385,837.167 409.753,837.877 410.896,838.812C412.039,839.747 412.922,840.873 413.546,842.189C414.169,843.505 414.481,845.029 414.481,846.761C414.481,848.215 414.256,849.566 413.805,850.813C413.355,852.06 412.697,853.151 411.831,854.086C410.965,855.021 409.944,855.8 408.766,856.423C406.757,857.393 404.714,857.895 402.636,857.93C400.558,857.965 398.133,857.982 395.363,857.982Z" style="fill:rgb(243,247,11);fill-rule:nonzero;"/>
            <path d="M466.189,825.574C468.467,832.202 469.665,839.255 469.665,846.761C469.665,855.538 468.051,863.613 465.125,871.041C462.176,878.526 458.022,885.208 452.691,891.105C447.311,897.057 440.989,901.905 433.739,905.57C427.846,908.593 422.216,910.487 416.971,911.58C412.682,912.473 408.042,913.018 403.039,913.107C400.868,913.146 398.309,913.167 395.363,913.167C394.429,913.167 393.511,913.146 392.608,913.105C389.796,913.564 386.903,913.79 383.933,913.79C370.616,913.79 358.857,909.239 348.869,899.621C339.928,891.011 333.425,879.214 333.425,862.658L333.425,810.187C333.425,799.667 335.544,791.136 338.467,784.356C343.867,771.829 352.636,762.771 364.515,756.939C371.505,753.508 380.657,750.847 392.35,750.847L399.311,750.847C408.235,750.847 416.271,752.331 423.486,754.894C432.265,758.012 439.759,762.636 446.112,768.527C452.766,774.697 457.954,782.044 461.583,790.634C464.9,798.483 466.756,807.122 466.756,816.629C466.756,819.754 466.558,822.734 466.189,825.574ZM414.618,830.268C414.781,830.139 414.943,830.009 415.104,829.877C416.836,828.457 418.238,826.673 419.312,824.526C420.386,822.378 420.923,819.746 420.923,816.629C420.923,813.651 420.403,810.932 419.364,808.473C418.325,806.014 416.853,803.901 414.948,802.135C413.043,800.368 410.775,799.018 408.143,798.083C405.51,797.147 402.567,796.68 399.311,796.68L392.35,796.68C389.163,796.68 386.618,797.147 384.713,798.083C382.808,799.018 381.423,800.49 380.557,802.498C379.691,804.507 379.258,807.07 379.258,810.187L379.258,862.658C379.258,864.389 379.725,865.705 380.661,866.606C381.596,867.506 382.687,867.957 383.933,867.957C385.18,867.957 386.271,867.506 387.206,866.606C388.142,865.705 388.609,864.389 388.609,862.658L388.609,839.333C389.912,840.088 391.306,840.741 392.799,841.271C393.862,841.649 394.982,841.983 396.172,842.21C399.68,841.647 402.535,840.392 404.91,839.226C406.126,838.629 407.294,837.984 408.414,837.289C409.335,837.703 410.162,838.211 410.896,838.812C412.039,839.747 412.922,840.873 413.546,842.189C414.169,843.505 414.481,845.029 414.481,846.761C414.481,848.215 414.256,849.566 413.805,850.813C413.355,852.06 412.697,853.151 411.831,854.086C410.965,855.021 409.944,855.8 408.766,856.423C406.757,857.393 404.714,857.895 402.636,857.93C400.558,857.965 398.133,857.982 395.363,857.982C393.631,857.982 392.315,858.45 391.414,859.385C390.514,860.32 390.064,861.411 390.064,862.658C390.064,863.904 390.514,864.995 391.414,865.931C392.315,866.866 393.631,867.333 395.363,867.333C397.995,867.333 400.281,867.316 402.22,867.281C404.16,867.247 405.961,867.056 407.623,866.71C409.286,866.363 411.052,865.705 412.922,864.736C415.139,863.627 417.061,862.173 418.689,860.372C420.316,858.571 421.581,856.527 422.481,854.242C423.382,851.956 423.832,849.462 423.832,846.761C423.832,843.713 423.208,840.907 421.962,838.345C420.715,835.782 418.983,833.6 416.766,831.799C416.086,831.246 415.37,830.736 414.618,830.268C413.565,831.101 412.474,831.864 411.346,832.559C408.778,830.243 406.071,828.328 403.229,826.799C404.28,826.897 405.277,827.023 406.22,827.175C407.294,827.348 408.212,827.539 408.974,827.747C411.038,828.371 412.92,829.211 414.618,830.268ZM388.609,826.077L388.609,810.187C388.609,808.871 388.644,807.936 388.713,807.382C388.782,806.828 389.077,806.464 389.596,806.291C390.116,806.118 391.033,806.031 392.35,806.031L399.311,806.031C401.805,806.031 403.969,806.429 405.805,807.226C407.64,808.023 409.06,809.217 410.065,810.811C411.069,812.404 411.571,814.343 411.571,816.629C411.571,819.192 411.069,821.131 410.065,822.448C409.06,823.764 407.727,824.768 406.065,825.461C405.441,825.738 404.575,825.946 403.467,826.084C403.039,826.138 402.593,826.186 402.129,826.229C399.425,824.884 396.603,823.878 393.669,823.199C393.147,823.41 392.62,823.646 392.089,823.912C390.858,824.55 389.699,825.273 388.609,826.077Z" style="fill:rgb(187,206,64);"/>
            <path d="M443.677,800.836C443.677,799.104 443.21,797.788 442.274,796.888C441.339,795.987 440.248,795.537 439.002,795.537C437.755,795.537 436.664,795.987 435.729,796.888C434.793,797.788 434.326,799.104 434.326,800.836L434.326,839.487C434.326,843.644 435.019,847.488 436.404,851.021C437.789,854.553 439.712,857.618 442.171,860.216C444.63,862.813 447.539,864.822 450.898,866.242C454.258,867.662 457.912,868.372 461.86,868.372C465.947,868.372 469.653,867.662 472.977,866.242C476.302,864.822 479.177,862.813 481.601,860.216C484.026,857.618 485.896,854.553 487.212,851.021C488.528,847.488 489.186,843.644 489.186,839.487L489.186,800.836C489.186,799.104 488.719,797.788 487.783,796.888C486.848,795.987 485.757,795.537 484.511,795.537C483.264,795.537 482.173,795.987 481.238,796.888C480.303,797.788 479.835,799.104 479.835,800.836L479.835,839.487C479.835,843.297 479.108,846.674 477.653,849.618C476.198,852.562 474.138,854.865 471.471,856.527C468.804,858.19 465.6,859.021 461.86,859.021C458.258,859.021 455.089,858.19 452.353,856.527C449.617,854.865 447.487,852.562 445.963,849.618C444.439,846.674 443.677,843.297 443.677,839.487L443.677,800.836Z" style="fill:rgb(243,247,11);fill-rule:nonzero;"/>
            <path d="M461.756,754.988C468.718,751.425 476.32,749.704 484.511,749.704C497.828,749.704 509.587,754.255 519.575,763.873C528.516,772.482 535.019,784.28 535.019,800.836L535.019,839.487C535.019,849.418 533.306,858.58 530.162,867.021C526.652,876.443 521.574,884.561 515.108,891.489C508.319,898.763 500.289,904.416 490.979,908.392C482.257,912.117 472.58,914.206 461.86,914.206C451.474,914.206 441.891,912.194 433.054,908.459C423.743,904.524 415.701,898.925 408.886,891.725C402.461,884.938 397.354,876.984 393.734,867.754C390.336,859.088 388.493,849.683 388.493,839.487L388.493,800.836C388.493,784.28 394.996,772.482 403.937,763.873C413.925,754.255 425.684,749.704 439.002,749.704C447.193,749.704 454.794,751.425 461.756,754.988ZM471.569,825.499C470.68,824.939 469.738,824.446 468.743,824.025C466.624,823.13 464.35,822.539 461.86,822.539C459.312,822.539 457.049,823.207 454.976,824.092C453.945,824.532 452.971,825.047 452.052,825.634C453.288,827.154 454.611,828.573 455.992,829.902C457.838,831.681 459.761,833.244 461.756,834.597C463.751,833.244 465.674,831.681 467.521,829.902C468.942,828.534 470.302,827.07 471.569,825.499ZM443.677,800.836C443.677,799.104 443.21,797.788 442.274,796.888C441.339,795.987 440.248,795.537 439.002,795.537C437.755,795.537 436.664,795.987 435.729,796.888C434.793,797.788 434.326,799.104 434.326,800.836L434.326,839.487C434.326,843.644 435.019,847.488 436.404,851.021C437.789,854.553 439.712,857.618 442.171,860.216C444.63,862.813 447.539,864.822 450.898,866.242C454.258,867.662 457.912,868.372 461.86,868.372C465.947,868.372 469.653,867.662 472.977,866.242C476.302,864.822 479.177,862.813 481.601,860.216C484.026,857.618 485.896,854.553 487.212,851.021C488.528,847.488 489.186,843.644 489.186,839.487L489.186,800.836C489.186,799.104 488.719,797.788 487.783,796.888C486.848,795.987 485.757,795.537 484.511,795.537C483.264,795.537 482.173,795.987 481.238,796.888C480.303,797.788 479.835,799.104 479.835,800.836L479.835,839.487C479.835,843.297 479.108,846.674 477.653,849.618C476.198,852.562 474.138,854.865 471.471,856.527C468.804,858.19 465.6,859.021 461.86,859.021C458.258,859.021 455.089,858.19 452.353,856.527C449.617,854.865 447.487,852.562 445.963,849.618C444.439,846.674 443.677,843.297 443.677,839.487L443.677,800.836Z" style="fill:rgb(187,206,64);"/>
            <path d="M540.41,806.031C542.211,806.031 543.544,805.563 544.41,804.628C545.276,803.693 545.709,802.602 545.709,801.355C545.709,800.109 545.276,799.018 544.41,798.083C543.544,797.147 542.211,796.68 540.41,796.68L504.252,796.68C502.867,796.68 501.741,796.992 500.875,797.615C500.009,798.238 499.438,799.018 499.161,799.953C498.884,800.888 498.884,801.823 499.161,802.758C499.438,803.693 500.009,804.473 500.875,805.096C501.741,805.719 502.867,806.031 504.252,806.031C505.914,806.031 507.542,806.066 509.135,806.135C510.728,806.204 512.166,806.481 513.447,806.966C514.729,807.451 515.75,808.265 516.512,809.408C517.274,810.551 517.655,812.196 517.655,814.343L517.655,863.177C517.655,864.909 518.123,866.225 519.058,867.125C519.993,868.026 521.084,868.476 522.331,868.476C523.578,868.476 524.669,868.026 525.604,867.125C526.539,866.225 527.006,864.909 527.006,863.177L527.006,814.343C527.006,811.711 526.574,809.425 525.708,807.486C524.842,805.546 523.647,803.884 522.123,802.498C520.599,801.113 518.867,799.987 516.928,799.122C514.988,798.256 512.928,797.632 510.746,797.251C508.564,796.87 506.399,796.68 504.252,796.68C502.867,796.68 501.741,796.992 500.875,797.615C500.009,798.238 499.438,799.018 499.161,799.953C498.884,800.888 498.884,801.823 499.161,802.758C499.438,803.693 500.009,804.473 500.875,805.096C501.741,805.719 502.867,806.031 504.252,806.031L540.41,806.031Z" style="fill:rgb(243,247,11);fill-rule:nonzero;"/>
            <path d="M504.252,750.847L540.41,750.847C557.799,750.847 569.681,757.914 578.041,766.943C587.131,776.76 591.542,788.266 591.542,801.355C591.542,814.445 587.131,825.951 578.041,835.768C576.441,837.496 574.712,839.152 572.84,840.701L572.84,863.177C572.84,879.733 566.336,891.531 557.396,900.14C547.407,909.759 535.649,914.309 522.331,914.309C509.013,914.309 497.254,909.759 487.266,900.14C478.326,891.531 471.822,879.733 471.822,863.177L471.822,840.565C463.421,833.834 458.077,825.434 455.216,815.779C452.367,806.163 452.367,796.548 455.216,786.932C458.326,776.434 464.374,767.419 474.094,760.42C481.913,754.79 491.742,750.847 504.252,750.847ZM507.513,825.267C502.577,827.153 498,830.077 493.812,834.111C493.001,834.892 492.209,835.704 491.444,836.549C493.451,838.347 495.705,839.84 498.244,840.974C499.696,841.622 501.229,842.116 502.862,842.402C503.329,842.483 503.793,842.513 504.252,842.513C509.262,842.513 513.699,841.635 517.655,840.186L517.655,863.177C517.655,864.909 518.123,866.225 519.058,867.125C519.993,868.026 521.084,868.476 522.331,868.476C523.578,868.476 524.669,868.026 525.604,867.125C526.539,866.225 527.006,864.909 527.006,863.177L527.006,822.879C530.553,823.246 533.953,824.041 537.197,825.286C539.854,821.54 541.791,817.412 543.106,812.974C543.966,810.071 544.504,807.168 544.719,804.265C545.379,803.414 545.709,802.444 545.709,801.355C545.709,800.267 545.379,799.297 544.719,798.446C544.504,795.543 543.966,792.64 543.106,789.737C540.549,781.109 535.645,773.653 527.656,767.901C525.955,766.676 524.138,765.535 522.191,764.525C517.662,766.915 513.931,770.085 510.779,773.489C504.101,780.701 500.563,789.048 499.966,798.451C499.594,798.896 499.325,799.397 499.161,799.953C498.884,800.888 498.884,801.823 499.161,802.758C499.325,803.314 499.594,803.814 499.966,804.26C500.457,811.991 502.936,819.008 507.513,825.267C510.743,824.033 514.126,823.244 517.655,822.879L517.655,835.367C515.084,833.513 512.811,831.416 510.779,829.222C509.592,827.94 508.504,826.621 507.513,825.267Z" style="fill:rgb(187,206,64);"/>
            <path d="M592.153,806.031C593.954,806.031 595.287,805.563 596.153,804.628C597.019,803.693 597.452,802.602 597.452,801.355C597.452,800.109 597.019,799.018 596.153,798.083C595.287,797.147 593.954,796.68 592.153,796.68L555.995,796.68C554.61,796.68 553.484,796.992 552.618,797.615C551.752,798.238 551.181,799.018 550.904,799.953C550.627,800.888 550.627,801.823 550.904,802.758C551.181,803.693 551.752,804.473 552.618,805.096C553.484,805.719 554.61,806.031 555.995,806.031C557.658,806.031 559.285,806.066 560.878,806.135C562.472,806.204 563.909,806.481 565.19,806.966C566.472,807.451 567.494,808.265 568.256,809.408C569.017,810.551 569.398,812.196 569.398,814.343L569.398,863.177C569.398,864.909 569.866,866.225 570.801,867.125C571.736,868.026 572.827,868.476 574.074,868.476C575.321,868.476 576.412,868.026 577.347,867.125C578.282,866.225 578.75,864.909 578.75,863.177L578.75,814.343C578.75,811.711 578.317,809.425 577.451,807.486C576.585,805.546 575.39,803.884 573.866,802.498C572.342,801.113 570.611,799.987 568.671,799.122C566.732,798.256 564.671,797.632 562.489,797.251C560.307,796.87 558.142,796.68 555.995,796.68C554.61,796.68 553.484,796.992 552.618,797.615C551.752,798.238 551.181,799.018 550.904,799.953C550.627,800.888 550.627,801.823 550.904,802.758C551.181,803.693 551.752,804.473 552.618,805.096C553.484,805.719 554.61,806.031 555.995,806.031L592.153,806.031Z" style="fill:rgb(243,247,11);fill-rule:nonzero;"/>
            <path d="M555.995,750.847L592.153,750.847C609.542,750.847 621.424,757.914 629.784,766.943C638.874,776.76 643.285,788.266 643.285,801.355C643.285,814.445 638.874,825.951 629.784,835.768C628.184,837.496 626.455,839.152 624.583,840.701L624.583,863.177C624.583,879.733 618.079,891.531 609.139,900.14C599.15,909.759 587.392,914.309 574.074,914.309C560.756,914.309 548.998,909.759 539.009,900.14C530.069,891.531 523.565,879.733 523.565,863.177L523.565,840.565C515.164,833.834 509.82,825.434 506.959,815.779C504.11,806.163 504.11,796.548 506.959,786.932C510.07,776.434 516.117,767.419 525.838,760.42C533.656,754.79 543.485,750.847 555.995,750.847ZM559.257,825.267C554.32,827.153 549.744,830.077 545.555,834.111C544.744,834.892 543.952,835.704 543.187,836.549C545.194,838.347 547.449,839.84 549.987,840.974C551.439,841.622 552.973,842.116 554.606,842.402C555.072,842.483 555.536,842.513 555.995,842.513C561.005,842.513 565.442,841.635 569.398,840.186L569.398,863.177C569.398,864.909 569.866,866.225 570.801,867.125C571.736,868.026 572.827,868.476 574.074,868.476C575.321,868.476 576.412,868.026 577.347,867.125C578.282,866.225 578.75,864.909 578.75,863.177L578.75,822.879C582.296,823.246 585.696,824.041 588.94,825.286C591.598,821.54 593.534,817.412 594.849,812.974C595.709,810.071 596.247,807.168 596.462,804.265C597.122,803.414 597.452,802.444 597.452,801.355C597.452,800.267 597.122,799.297 596.462,798.446C596.247,795.543 595.709,792.64 594.849,789.737C592.292,781.109 587.388,773.653 579.399,767.901C577.698,766.676 575.882,765.535 573.934,764.525C569.406,766.915 565.674,770.085 562.522,773.489C555.844,780.701 552.306,789.048 551.71,798.451C551.337,798.896 551.069,799.397 550.904,799.953C550.627,800.888 550.627,801.823 550.904,802.758C551.069,803.314 551.337,803.814 551.71,804.26C552.2,811.991 554.679,819.008 559.257,825.267C562.486,824.033 565.869,823.244 569.398,822.879L569.398,835.367C566.827,833.513 564.554,831.416 562.522,829.222C561.335,827.94 560.247,826.621 559.257,825.267Z" style="fill:rgb(187,206,64);"/>
            <path d="M643.896,806.031C645.628,806.031 646.944,805.563 647.844,804.628C648.745,803.693 649.195,802.602 649.195,801.355C649.195,800.109 648.745,799.018 647.844,798.083C646.944,797.147 645.628,796.68 643.896,796.68L621.349,796.68C618.163,796.68 615.617,797.199 613.713,798.238C611.808,799.277 610.422,800.853 609.557,802.966C608.691,805.079 608.258,807.693 608.258,810.811L608.258,823.071C608.258,824.872 608.552,826.534 609.141,828.058C609.73,829.582 610.544,830.916 611.583,832.058C612.622,833.201 613.817,834.085 615.167,834.708C616.518,835.331 617.99,835.643 619.583,835.643L641.818,835.643C643.203,835.643 644.312,835.331 645.143,834.708C645.974,834.085 646.528,833.305 646.805,832.37C647.082,831.435 647.082,830.5 646.805,829.565C646.528,828.63 645.974,827.85 645.143,827.227C644.312,826.604 643.203,826.292 641.818,826.292L619.687,826.292C617.055,826.292 614.89,826.69 613.193,827.487C611.496,828.283 610.249,829.444 609.453,830.968C608.656,832.491 608.258,834.327 608.258,836.474L608.258,854.657C608.258,857.705 608.76,860.164 609.764,862.034C610.769,863.904 612.223,865.255 614.128,866.086C616.033,866.918 618.371,867.333 621.142,867.333L643.896,867.333C645.628,867.333 646.927,866.866 647.792,865.931C648.658,864.995 649.091,863.904 649.091,862.658C649.091,861.411 648.658,860.32 647.792,859.385C646.927,858.45 645.628,857.982 643.896,857.982L621.142,857.982C619.618,857.982 618.648,857.843 618.232,857.566C617.817,857.289 617.609,856.32 617.609,854.657L617.609,836.474C617.609,835.92 617.782,835.643 618.128,835.643L641.818,835.643C643.203,835.643 644.312,835.331 645.143,834.708C645.974,834.085 646.528,833.305 646.805,832.37C647.082,831.435 647.082,830.5 646.805,829.565C646.528,828.63 645.974,827.85 645.143,827.227C644.312,826.604 643.203,826.292 641.818,826.292L619.583,826.292C619.237,826.292 618.942,826.188 618.7,825.98C618.457,825.772 618.25,825.513 618.076,825.201C617.903,824.889 617.782,824.543 617.713,824.162C617.644,823.781 617.609,823.417 617.609,823.071L617.609,810.811C617.609,808.871 617.747,807.59 618.025,806.966C618.302,806.343 619.41,806.031 621.349,806.031L643.896,806.031Z" style="fill:rgb(243,247,11);fill-rule:nonzero;"/>
            <path d="M691.635,819.925C693.415,827.774 693.297,835.622 691.281,843.471C693.723,849.425 694.925,855.826 694.925,862.658C694.925,875.747 690.513,887.253 681.423,897.07C672.885,906.291 660.972,913.167 643.896,913.167L621.142,913.167C611.088,913.167 602.709,911.11 595.797,908.094C584.301,903.078 575.447,895.007 569.385,883.719C565.399,876.296 562.424,866.754 562.424,854.657L562.424,836.474C562.424,834.153 562.548,831.912 562.783,829.75C562.547,827.577 562.424,825.351 562.424,823.071L562.424,810.811C562.424,800.75 564.352,792.404 567.147,785.585C572.232,773.176 580.577,764.104 591.765,758.002C599.204,753.944 608.906,750.847 621.349,750.847L643.896,750.847C660.452,750.847 672.25,757.35 680.859,766.291C690.478,776.279 695.028,788.038 695.028,801.355C695.028,807.934 693.918,814.133 691.635,819.925ZM619.583,826.292C619.237,826.292 618.942,826.188 618.7,825.98C618.457,825.772 618.25,825.513 618.076,825.201C617.903,824.889 617.782,824.543 617.713,824.162C617.644,823.781 617.609,823.417 617.609,823.071L617.609,810.811C617.609,808.871 617.747,807.59 618.025,806.966C618.302,806.343 619.41,806.031 621.349,806.031L643.896,806.031C645.628,806.031 646.944,805.563 647.844,804.628C648.745,803.693 649.195,802.602 649.195,801.355C649.195,800.109 648.745,799.018 647.844,798.083C646.944,797.147 645.628,796.68 643.896,796.68L621.349,796.68C618.163,796.68 615.617,797.199 613.713,798.238C611.808,799.277 610.422,800.853 609.557,802.966C608.691,805.079 608.258,807.693 608.258,810.811L608.258,823.071C608.258,824.872 608.552,826.534 609.141,828.058C609.404,828.739 609.712,829.382 610.065,829.986C609.837,830.295 609.633,830.622 609.453,830.968C608.656,832.491 608.258,834.327 608.258,836.474L608.258,854.657C608.258,857.705 608.76,860.164 609.764,862.034C610.769,863.904 612.223,865.255 614.128,866.086C616.033,866.918 618.371,867.333 621.142,867.333L643.896,867.333C645.628,867.333 646.927,866.866 647.792,865.931C648.658,864.995 649.091,863.904 649.091,862.658C649.091,861.411 648.658,860.32 647.792,859.385C646.927,858.45 645.628,857.982 643.896,857.982L621.142,857.982C619.618,857.982 618.648,857.843 618.232,857.566C617.817,857.289 617.609,856.32 617.609,854.657L617.609,836.474C617.609,835.92 617.782,835.643 618.128,835.643L621.52,835.643C624.414,837.667 627.647,839.364 631.287,840.565C632.889,839.927 634.338,839.196 635.66,838.475C637.231,837.618 638.72,836.675 640.124,835.643L641.818,835.643C643.203,835.643 644.312,835.331 645.143,834.708C645.974,834.085 646.528,833.305 646.805,832.37C647.082,831.435 647.082,830.5 646.805,829.565C646.528,828.63 645.974,827.85 645.143,827.227C644.312,826.604 643.203,826.292 641.818,826.292L636.79,826.292C635.415,825.475 633.97,824.738 632.459,824.078C632.008,823.882 631.545,823.688 631.068,823.5C628.808,824.254 626.709,825.199 624.754,826.292L619.687,826.292C619.652,826.292 619.618,826.292 619.583,826.292Z" style="fill:rgb(187,206,64);"/>
            <path d="M662.598,863.177C662.598,864.909 663.066,866.225 664.001,867.125C664.936,868.026 666.027,868.476 667.274,868.476C668.521,868.476 669.612,868.026 670.547,867.125C671.482,866.225 671.95,864.909 671.95,863.177L671.95,813.824C671.95,812.577 671.932,811.469 671.898,810.499C671.863,809.529 671.898,808.715 672.002,808.057C672.105,807.399 672.365,806.897 672.781,806.551C673.196,806.204 673.855,806.031 674.755,806.031L683.379,806.031C686.15,806.031 688.539,806.516 690.548,807.486C692.557,808.455 694.115,809.823 695.224,811.59C696.332,813.356 696.886,815.451 696.886,817.876C696.886,820.3 696.367,822.396 695.328,824.162C694.289,825.928 692.851,827.279 691.016,828.214C689.18,829.149 687.05,829.617 684.626,829.617L678.184,829.617C676.798,829.617 675.673,829.929 674.807,830.552C673.941,831.175 673.37,831.955 673.093,832.89C672.815,833.825 672.815,834.76 673.093,835.695C673.37,836.63 673.941,837.409 674.807,838.033C675.673,838.656 676.798,838.968 678.184,838.968C680.954,838.968 683.067,839.176 684.522,839.591C685.976,840.007 687.206,840.7 688.21,841.669C689.215,842.639 690.34,843.99 691.587,845.722C692.695,847.176 693.752,848.7 694.756,850.293C695.761,851.886 696.782,853.514 697.821,855.177C698.86,856.839 699.917,858.553 700.99,860.32C702.064,862.086 703.189,863.87 704.367,865.671C705.337,867.195 706.462,868.061 707.744,868.268C709.025,868.476 710.168,868.251 711.173,867.593C712.177,866.935 712.852,865.982 713.199,864.736C713.545,863.489 713.233,862.138 712.264,860.683C711.086,858.813 709.96,857.012 708.887,855.281C707.813,853.549 706.757,851.834 705.718,850.137C704.679,848.44 703.622,846.778 702.549,845.15C701.475,843.522 700.384,841.912 699.276,840.319C698.237,838.864 697.111,837.496 695.899,836.215C694.687,834.933 693.267,833.79 691.639,832.786C690.011,831.781 688.106,831.002 685.924,830.448C683.743,829.894 681.162,829.617 678.184,829.617C676.798,829.617 675.673,829.929 674.807,830.552C673.941,831.175 673.37,831.955 673.093,832.89C672.815,833.825 672.815,834.76 673.093,835.695C673.37,836.63 673.941,837.409 674.807,838.033C675.673,838.656 676.798,838.968 678.184,838.968L683.587,838.968C687.743,838.968 691.535,838.067 694.964,836.267C698.393,834.466 701.129,831.989 703.172,828.838C705.216,825.686 706.237,822.032 706.237,817.876C706.237,814.828 705.7,812.023 704.627,809.46C703.553,806.897 702.012,804.663 700.003,802.758C697.994,800.853 695.587,799.364 692.782,798.29C689.977,797.217 686.842,796.68 683.379,796.68L673.716,796.68C671.361,796.68 669.456,797.026 668.001,797.719C666.547,798.412 665.421,799.451 664.625,800.836C663.828,802.221 663.291,804.005 663.014,806.187C662.737,808.369 662.598,810.914 662.598,813.824L662.598,863.177Z" style="fill:rgb(243,247,11);fill-rule:nonzero;"/>
            <path d="M750.032,834.644L750.818,835.896C760.284,850.47 760.834,864.497 757.36,877.003C753.821,889.741 746.552,899.207 736.29,905.931C725.75,912.837 713.856,915.691 700.407,913.511C696.268,912.839 692.121,911.71 688.082,909.966C681.656,912.891 674.708,914.309 667.274,914.309C653.956,914.309 642.198,909.759 632.209,900.14C623.269,891.531 616.765,879.733 616.765,863.177L616.765,813.824C616.765,808.714 617.059,804.246 617.546,800.413C618.716,791.2 621.528,783.839 624.891,777.989C630.418,768.378 638.204,761.144 648.296,756.338C654.809,753.236 663.171,750.847 673.716,750.847L683.379,750.847C692.89,750.847 701.46,752.536 709.164,755.485C717.887,758.823 725.295,763.577 731.541,769.5C738.211,775.826 743.335,783.24 746.901,791.751C750.238,799.716 752.071,808.403 752.071,817.876C752.071,823.789 751.371,829.372 750.032,834.644ZM662.598,822.879C662.066,822.934 661.537,822.999 661.012,823.073C661.345,824.493 661.803,825.856 662.353,827.169C662.433,827.36 662.515,827.549 662.598,827.737L662.598,863.177C662.598,864.909 663.066,866.225 664.001,867.125C664.936,868.026 666.027,868.476 667.274,868.476C668.521,868.476 669.612,868.026 670.547,867.125C671.482,866.225 671.95,864.909 671.95,863.177L671.95,849.371C674.27,850.384 676.82,851.207 679.653,851.605C684.881,851.038 689.301,849.593 693.061,847.741C693.642,848.571 694.207,849.422 694.756,850.293C695.761,851.886 696.782,853.514 697.821,855.177C698.86,856.839 699.917,858.553 700.99,860.32C702.064,862.086 703.189,863.87 704.367,865.671C705.337,867.195 706.462,868.061 707.744,868.268C709.025,868.476 710.168,868.251 711.173,867.593C712.177,866.935 712.852,865.982 713.199,864.736C713.545,863.489 713.233,862.138 712.264,860.683C711.086,858.813 709.96,857.012 708.887,855.281C707.813,853.549 706.757,851.834 705.718,850.137C704.679,848.44 703.622,846.778 702.549,845.15C702.013,844.338 701.474,843.531 700.93,842.728C701.339,842.406 701.736,842.083 702.123,841.761L702.18,841.712C700.6,839.314 698.794,837.142 696.853,835.161C699.412,833.495 701.519,831.387 703.172,828.838C705.216,825.686 706.237,822.032 706.237,817.876C706.237,814.828 705.7,812.023 704.627,809.46C703.553,806.897 702.012,804.663 700.003,802.758C697.994,800.853 695.587,799.364 692.782,798.29C689.977,797.217 686.842,796.68 683.379,796.68L673.716,796.68C671.361,796.68 669.456,797.026 668.001,797.719C666.547,798.412 665.421,799.451 664.625,800.836C663.828,802.221 663.291,804.005 663.014,806.187C662.737,808.369 662.598,810.914 662.598,813.824L662.598,822.879ZM671.95,844.847L671.95,838.802C672.789,839.358 673.674,839.867 674.609,840.321C675.012,839.731 675.43,839.155 675.863,838.592C678.343,835.366 681.309,832.573 684.703,830.175C685.123,830.257 685.53,830.348 685.924,830.448C688.106,831.002 690.011,831.781 691.639,832.786C692.703,833.443 693.679,834.158 694.566,834.934C692.881,836.219 691.07,837.37 689.131,838.388C687.361,838.775 685.513,838.968 683.587,838.968L678.184,838.968C680.954,838.968 683.067,839.176 684.522,839.591C684.929,839.708 685.318,839.846 685.69,840.005C683.782,840.805 681.64,841.531 679.224,841.993C680.526,842.313 681.906,842.513 683.379,842.513L673.716,842.513C675.696,842.513 677.528,842.318 679.224,841.993C678.24,841.751 677.301,841.441 676.4,841.096C675.783,840.86 675.187,840.601 674.609,840.321C673.633,841.75 672.745,843.257 671.95,844.847ZM671.95,822.879L671.95,813.824C671.95,812.577 671.932,811.469 671.898,810.499C671.863,809.529 671.898,808.715 672.002,808.057C672.105,807.399 672.365,806.897 672.781,806.551C673.196,806.204 673.855,806.031 674.755,806.031L683.379,806.031C686.15,806.031 688.539,806.516 690.548,807.486C692.557,808.455 694.115,809.823 695.224,811.59C696.332,813.356 696.886,815.451 696.886,817.876C696.886,820.3 696.367,822.396 695.328,824.162C694.289,825.928 692.851,827.279 691.016,828.214C689.416,829.029 687.592,829.489 685.545,829.594C685.714,829.48 685.884,829.367 686.055,829.255C686.675,828.849 687.301,828.459 687.932,828.087C683.011,825.178 677.672,823.471 671.95,822.879Z" style="fill:rgb(187,206,64);"/>
            <path d="M757.773,837.721C759.504,837.721 760.803,837.254 761.669,836.318C762.535,835.383 762.968,834.292 762.968,833.046C762.968,831.799 762.535,830.708 761.669,829.773C760.803,828.838 759.504,828.37 757.773,828.37L737.096,828.37C735.018,828.37 733.183,828.699 731.589,829.357C729.996,830.015 728.68,831.002 727.641,832.318C726.602,833.634 725.805,835.279 725.251,837.254C724.697,839.228 724.42,841.531 724.42,844.163L724.42,863.177C724.42,864.562 724.732,865.688 725.355,866.554C725.979,867.42 726.758,867.991 727.693,868.268C728.628,868.545 729.563,868.545 730.498,868.268C731.434,867.991 732.213,867.42 732.836,866.554C733.46,865.688 733.771,864.562 733.771,863.177L733.771,810.187C733.771,808.94 733.823,808.023 733.927,807.434C734.031,806.845 734.377,806.464 734.966,806.291C735.555,806.118 736.542,806.031 737.927,806.031L760.058,806.031C761.79,806.031 763.089,805.563 763.955,804.628C764.821,803.693 765.254,802.602 765.254,801.355C765.254,800.109 764.821,799.018 763.955,798.083C763.089,797.147 761.79,796.68 760.058,796.68L737.927,796.68C734.603,796.68 731.953,797.182 729.979,798.186C728.005,799.191 726.585,800.697 725.719,802.706C724.853,804.715 724.42,807.209 724.42,810.187L724.42,863.177C724.42,864.562 724.732,865.688 725.355,866.554C725.979,867.42 726.758,867.991 727.693,868.268C728.628,868.545 729.563,868.545 730.498,868.268C731.434,867.991 732.213,867.42 732.836,866.554C733.46,865.688 733.771,864.562 733.771,863.177L733.771,843.124C733.771,841.739 733.823,840.648 733.927,839.851C734.031,839.055 734.325,838.5 734.81,838.189C735.295,837.877 736.057,837.721 737.096,837.721L757.773,837.721Z" style="fill:rgb(243,247,11);fill-rule:nonzero;"/>
            <path d="M807.375,820.709C808.329,824.649 808.801,828.763 808.801,833.046C808.801,846.135 804.39,857.641 795.3,867.458C790.388,872.763 784.359,877.291 776.873,880.181C775.186,885.111 772.815,889.469 770.032,893.335C763.033,903.055 754.018,909.103 743.519,912.213C733.904,915.062 724.288,915.062 714.672,912.213C704.174,909.103 695.159,903.055 688.16,893.335C682.53,885.516 678.587,875.687 678.587,863.177L678.587,810.187C678.587,799.943 680.651,791.473 683.629,784.564C688.836,772.484 697.324,763.376 709.195,757.336C716.383,753.679 725.822,750.847 737.927,750.847L760.058,750.847C777.134,750.847 789.048,757.722 797.586,766.943C806.675,776.76 811.087,788.266 811.087,801.355C811.087,808.251 809.863,814.708 807.375,820.709ZM724.42,822.881C722.291,823.135 720.162,823.562 718.033,824.163C717.432,827.015 717.134,829.977 717.134,833.046C717.134,841.726 719.514,849.553 724.42,856.468L724.42,863.177C724.42,864.562 724.732,865.688 725.355,866.554C725.979,867.42 726.758,867.991 727.693,868.268C728.628,868.545 729.563,868.545 730.498,868.268C731.434,867.991 732.213,867.42 732.836,866.554C733.004,866.321 733.149,866.07 733.271,865.8C736.996,868.767 741.341,871.209 746.485,872.681C747.381,872.389 748.247,872.066 749.087,871.719C754.969,869.289 759.778,865.578 763.615,860.719C765.567,858.246 767.363,855.373 768.64,851.918C768.575,851.702 768.509,851.488 768.44,851.274C765.794,851.66 763.003,851.864 760.058,851.864L737.927,851.864C742.634,851.864 745.898,850.85 747.899,850.262C754.283,848.384 759.689,845.665 764.142,842.13C763.631,841.32 763.099,840.535 762.551,839.773C761.897,838.865 761.221,837.997 760.524,837.168C760.965,836.949 761.347,836.666 761.669,836.318C762.535,835.383 762.968,834.292 762.968,833.046C762.968,831.799 762.535,830.708 761.669,829.773C760.803,828.838 759.504,828.37 757.773,828.37L737.096,828.37C735.909,828.37 734.8,828.477 733.771,828.692L733.771,832.607C732.729,831.682 731.739,830.717 730.795,829.724C731.052,829.592 731.316,829.47 731.589,829.357C732.272,829.075 732.999,828.853 733.771,828.692L733.771,810.187C733.771,808.94 733.823,808.023 733.927,807.434C734.031,806.845 734.377,806.464 734.966,806.291C735.555,806.118 736.542,806.031 737.927,806.031L760.058,806.031C761.79,806.031 763.089,805.563 763.955,804.628C764.821,803.693 765.254,802.602 765.254,801.355C765.254,800.109 764.821,799.018 763.955,798.083C763.089,797.147 761.79,796.68 760.058,796.68L737.927,796.68C734.603,796.68 731.953,797.182 729.979,798.186C728.005,799.191 726.585,800.697 725.719,802.706C724.853,804.715 724.42,807.209 724.42,810.187L724.42,822.881ZM753.146,837.721C752.375,838.182 751.581,838.62 750.762,839.037C749.744,839.555 748.639,840.09 747.433,840.581C751.178,841.807 755.362,842.513 760.058,842.513L737.927,842.513C741.677,842.513 744.797,841.654 747.433,840.581C745.096,839.815 742.93,838.847 740.916,837.721L753.146,837.721Z" style="fill:rgb(187,206,64);"/>
            <path d="M811.282,867.333C813.014,867.333 814.313,866.866 815.178,865.931C816.044,864.995 816.477,863.904 816.477,862.658C816.477,861.411 816.044,860.32 815.178,859.385C814.313,858.45 813.014,857.982 811.282,857.982L791.852,857.982C790.19,857.982 788.943,857.913 788.112,857.774C787.281,857.636 786.727,857.203 786.45,856.475C786.173,855.748 786.034,854.588 786.034,852.995L786.034,800.836C786.034,799.104 785.566,797.805 784.631,796.94C783.696,796.074 782.605,795.641 781.358,795.641C780.112,795.641 779.021,796.074 778.085,796.94C777.15,797.805 776.683,799.104 776.683,800.836L776.683,848.423C776.683,852.371 776.787,855.592 776.995,858.086C777.202,860.58 777.722,862.484 778.553,863.801C779.384,865.117 780.7,866.034 782.501,866.554C784.302,867.073 786.761,867.333 789.878,867.333L811.282,867.333Z" style="fill:rgb(243,247,11);fill-rule:nonzero;"/>
            <path d="M831.867,816.125C838.671,819.022 844.227,823.296 848.809,828.245C857.899,838.062 862.311,849.568 862.311,862.658C862.311,875.747 857.899,887.253 848.809,897.07C840.271,906.291 828.358,913.167 811.282,913.167L789.878,913.167C781.372,913.167 774.713,912.009 769.798,910.592C755.81,906.557 746.258,898.498 739.801,888.275C735.913,882.118 732.292,873.559 731.319,861.892C731.03,858.416 730.849,853.927 730.849,848.423L730.849,800.836C730.849,783.761 737.725,771.847 746.946,763.309C756.763,754.219 768.269,749.808 781.358,749.808C794.448,749.808 805.954,754.219 815.771,763.309C824.992,771.847 831.867,783.761 831.867,800.836L831.867,816.125ZM776.683,841.098C776.656,841.141 776.629,841.183 776.602,841.226C776.629,841.229 776.656,841.232 776.683,841.235L776.683,848.423C776.683,852.371 776.787,855.592 776.995,858.086C777.202,860.58 777.722,862.484 778.553,863.801C779.384,865.117 780.7,866.034 782.501,866.554C784.302,867.073 786.761,867.333 789.878,867.333L811.282,867.333C813.014,867.333 814.313,866.866 815.178,865.931C816.044,864.995 816.477,863.904 816.477,862.658C816.477,861.411 816.044,860.32 815.178,859.385C814.313,858.45 813.014,857.982 811.282,857.982L791.852,857.982C790.19,857.982 788.943,857.913 788.112,857.774C787.281,857.636 786.727,857.203 786.45,856.475C786.173,855.748 786.034,854.588 786.034,852.995L786.034,841.235C794.717,840.326 802.469,836.826 809.225,830.57L809.592,830.227C806.438,827.489 802.721,825.204 798.315,823.546C793.56,825.155 789.518,827.606 786.034,830.512L786.034,800.836C786.034,799.104 785.566,797.805 784.631,796.94C783.696,796.074 782.605,795.641 781.358,795.641C780.112,795.641 779.021,796.074 778.085,796.94C777.15,797.805 776.683,799.104 776.683,800.836L776.683,841.098Z" style="fill:rgb(187,206,64);"/>
            <path d="M872.169,803.122C873.069,801.598 873.312,800.213 872.896,798.966C872.48,797.719 871.736,796.801 870.662,796.212C869.588,795.624 868.428,795.485 867.181,795.797C865.935,796.108 864.896,797.026 864.064,798.55C863.302,799.866 862.558,801.182 861.83,802.498C861.103,803.814 860.393,805.131 859.7,806.447C859.008,807.763 858.315,809.079 857.622,810.395C856.168,812.958 854.852,815.313 853.674,817.46C852.497,819.608 851.319,821.755 850.141,823.902C848.964,826.049 847.682,828.405 846.297,830.968C844.981,833.392 843.855,835.989 842.92,838.76C841.985,841.531 841.518,844.544 841.518,847.8L841.518,863.177C841.518,864.562 841.829,865.688 842.453,866.554C843.076,867.42 843.855,867.991 844.791,868.268C845.726,868.545 846.661,868.545 847.596,868.268C848.531,867.991 849.31,867.42 849.934,866.554C850.557,865.688 850.869,864.562 850.869,863.177L850.869,847.696C850.869,844.44 850.678,841.791 850.297,839.747C849.916,837.704 849.31,835.886 848.479,834.292C847.648,832.699 846.626,830.985 845.414,829.149C844.202,827.314 842.764,824.976 841.102,822.136C839.994,820.196 838.972,818.361 838.037,816.629C837.102,814.897 836.167,813.148 835.232,811.382C834.296,809.616 833.275,807.711 832.166,805.667C831.058,803.624 829.811,801.286 828.426,798.654C827.595,797.061 826.556,796.108 825.309,795.797C824.062,795.485 822.885,795.624 821.776,796.212C820.668,796.801 819.906,797.702 819.49,798.914C819.075,800.126 819.283,801.494 820.114,803.018C821.568,805.719 822.85,808.109 823.958,810.187C825.066,812.265 826.088,814.205 827.023,816.006C827.958,817.807 828.911,819.556 829.881,821.253C830.85,822.95 831.889,824.803 832.998,826.811C834.314,829.097 835.509,830.985 836.582,832.474C837.656,833.963 838.556,835.383 839.284,836.734C840.011,838.085 840.565,839.591 840.946,841.254C841.327,842.916 841.518,845.064 841.518,847.696L841.518,863.177C841.518,864.562 841.829,865.688 842.453,866.554C843.076,867.42 843.855,867.991 844.791,868.268C845.726,868.545 846.661,868.545 847.596,868.268C848.531,867.991 849.31,867.42 849.934,866.554C850.557,865.688 850.869,864.562 850.869,863.177L850.869,847.8C850.869,845.445 851.25,843.228 852.012,841.15C852.774,839.072 853.639,837.132 854.609,835.331C855.925,832.838 857.172,830.517 858.35,828.37C859.527,826.223 860.705,824.075 861.882,821.928C863.06,819.781 864.341,817.46 865.727,814.967C866.835,813.027 867.909,811.07 868.948,809.096C869.987,807.122 871.06,805.131 872.169,803.122Z" style="fill:rgb(243,247,11);fill-rule:nonzero;"/>
            <path d="M846.247,754.813C849.441,753.3 852.735,752.164 856.065,751.332C869.202,748.048 881.388,749.822 892.7,756.025C903.908,762.171 912.039,771.457 916.377,784.472C920.468,796.743 920.637,810.706 912.075,825.67L912.065,825.688C911.186,827.286 910.334,828.871 909.506,830.443C908.266,832.799 906.986,835.136 905.664,837.456C904.372,839.783 903.174,841.953 902.07,843.966L898.537,850.408C897.945,851.488 897.333,852.617 896.702,853.794L896.702,863.177C896.702,875.687 892.758,885.516 887.129,893.335C880.13,903.055 871.115,909.103 860.617,912.213C851.001,915.062 841.385,915.062 831.77,912.213C821.271,909.103 812.256,903.055 805.257,893.335C799.628,885.516 795.684,875.687 795.684,863.177L795.684,853.704C794.908,852.457 794.104,851.116 793.277,849.681C793.138,849.439 793.002,849.196 792.867,848.952C791.878,847.16 790.951,845.507 790.086,843.992C788.817,841.772 787.57,839.483 786.346,837.126C785.483,835.464 784.54,833.674 783.517,831.756C782.443,829.741 781.202,827.427 779.807,824.837C771.652,809.804 772.033,796.013 776.135,784.049C780.504,771.304 788.621,761.926 800.273,755.736C811.621,749.708 823.659,748.14 836.425,751.332C839.74,752.16 843.037,753.293 846.247,754.813ZM832.073,825.143C824.502,827.871 817.927,832.567 812.738,839.773L812.677,839.859C813.182,840.001 813.688,840.135 814.193,840.262C823.246,842.525 831.843,841.791 840.006,838.264C840.39,839.197 840.703,840.194 840.946,841.254C841.327,842.916 841.518,845.064 841.518,847.696C841.528,844.48 841.995,841.501 842.92,838.76C843.188,837.967 843.471,837.189 843.77,836.424C844.609,835.965 845.425,835.486 846.219,834.986C845.729,834.678 845.248,834.361 844.774,834.037C845.25,832.985 845.758,831.961 846.297,830.968C846.341,830.887 846.384,830.807 846.427,830.727C846.106,830.211 845.768,829.685 845.414,829.149C844.202,827.314 842.764,824.976 841.102,822.136C839.994,820.196 838.972,818.361 838.037,816.629C837.102,814.897 836.167,813.148 835.232,811.382C834.296,809.616 833.275,807.711 832.166,805.667C831.058,803.624 829.811,801.286 828.426,798.654C827.595,797.061 826.556,796.108 825.309,795.797C824.062,795.485 822.885,795.624 821.776,796.212C820.668,796.801 819.906,797.702 819.49,798.914C819.075,800.126 819.283,801.494 820.114,803.018C821.568,805.719 822.85,808.109 823.958,810.187C825.066,812.265 826.088,814.205 827.023,816.006C827.958,817.807 828.911,819.556 829.881,821.253C830.576,822.469 831.307,823.766 832.073,825.143ZM850.869,847.696C850.88,845.379 851.261,843.197 852.012,841.15C852.341,840.251 852.69,839.378 853.059,838.531C860.953,841.797 869.35,842.498 878.298,840.262C878.774,840.142 879.251,840.016 879.727,839.883L879.648,839.773C874.422,832.515 867.791,827.804 860.151,825.085L861.882,821.928C863.06,819.781 864.341,817.46 865.727,814.967C866.835,813.027 867.909,811.07 868.948,809.096C869.987,807.122 871.06,805.131 872.169,803.122C873.069,801.598 873.312,800.213 872.896,798.966C872.48,797.719 871.736,796.801 870.662,796.212C869.588,795.624 868.428,795.485 867.181,795.797C865.935,796.108 864.896,797.026 864.064,798.55C863.302,799.866 862.558,801.182 861.83,802.498C861.103,803.814 860.393,805.131 859.7,806.447L857.622,810.395C856.168,812.958 854.852,815.313 853.674,817.46L850.141,823.902C849.001,825.982 847.763,828.257 846.427,830.727C847.069,831.755 847.646,832.742 848.158,833.688C847.528,834.135 846.881,834.568 846.219,834.986C847,835.478 847.802,835.949 848.624,836.4C848.94,836.573 849.258,836.742 849.576,836.908C849.87,837.8 850.111,838.747 850.297,839.747C850.678,841.791 850.869,844.44 850.869,847.696ZM895.062,856.877L894.964,857.061C894.988,857.017 895.025,856.979 895.044,856.928L895.062,856.877Z" style="fill:rgb(187,206,64);"/>
        </g>
        <g transform="matrix(10.816043,0,0,10.81606,-1745.89431,-6342.672448)">
            <path d="M211.046,621.378C215.523,613.587 226.733,604.271 234.874,604.271C238.543,604.271 239.002,607.325 237.996,610.673C236.461,615.787 236.282,614.124 235.635,619.856C235.342,622.447 235.524,627.021 228.667,627.193C234.878,629.107 233.916,637.288 230.302,640.089C225.485,643.823 217.322,646.536 213.262,639.57C212.8,638.776 211.563,635.969 211.212,634.8C210.669,636.758 210.242,638.123 210.242,638.123C206.922,645.594 204.603,637.061 204.092,634.541C203.761,635.679 202.496,638.554 202.027,639.36C197.967,646.326 189.804,643.613 184.987,639.879C181.373,637.078 180.411,628.897 186.622,626.983C179.765,626.811 179.947,622.237 179.654,619.646C179.007,613.914 178.828,615.577 177.293,610.463C176.287,607.115 176.746,604.061 180.415,604.061C188.656,604.061 200.042,613.606 204.405,621.453C204.537,620.765 204.727,620.095 204.997,619.448C203.643,617.931 203.219,615.261 205.448,613.75C204.831,610.275 203.634,607.05 201.43,604.256C199.528,604.815 198.168,604.776 198.149,603.26C198.139,602.5 199.321,600.736 202.012,602.801C204.97,605.07 206.292,610.448 206.721,613.193C207.321,612.994 208.354,613.007 208.851,613.146C209.446,608.876 211.176,605.405 213.164,603.289C214.513,601.853 216.757,601.084 217.47,602.574C218.508,604.743 215.575,605.033 214.453,604.219C210.851,607.754 210.133,613.767 210.133,613.767C212.452,615.287 211.924,618.104 210.419,619.545C210.782,620.307 210.966,621.009 211.046,621.378Z" style="fill:rgb(243,247,11);"/>
            <path d="M202.036,614.271C202.252,613.795 202.544,613.337 202.921,612.91C202.427,610.741 201.651,608.694 200.438,606.834C199.984,606.894 199.57,606.911 199.206,606.884C198.236,606.811 197.479,606.458 196.921,605.931C196.309,605.354 195.853,604.524 195.838,603.29C195.823,602.119 196.789,599.911 199.152,599.565C200.174,599.415 201.627,599.592 203.419,600.967C205.435,602.514 206.851,605.289 207.772,607.95C208.723,605.359 210.051,603.227 211.479,601.706C212.724,600.381 214.512,599.517 215.942,599.459C217.519,599.395 218.829,600.06 219.555,601.576C220.047,602.604 220.071,603.467 219.92,604.153C219.634,605.451 218.669,606.389 217.299,606.769C216.646,606.951 215.902,606.975 215.191,606.872C213.648,608.9 212.933,611.424 212.629,612.872C213.003,613.283 213.297,613.725 213.517,614.185C216.241,611.161 219.571,608.283 223.022,606.096C227.046,603.548 231.246,601.96 234.874,601.96C237.314,601.96 238.833,602.918 239.751,604.249C240.901,605.917 241.049,608.548 240.21,611.338C238.742,616.229 238.551,614.634 237.932,620.116L237.932,620.116C237.713,622.058 237.528,624.835 235.709,626.837C235.239,627.354 234.662,627.838 233.941,628.248C234.939,629.705 235.422,631.448 235.48,633.235C235.588,636.621 234.041,640.116 231.718,641.916C225.968,646.374 216.273,649.07 211.363,640.898C210.138,642.747 208.846,643.339 207.907,643.42C207.027,643.497 206.175,643.249 205.395,642.658C204.847,642.243 204.312,641.605 203.848,640.817C198.913,648.831 189.291,646.14 183.571,641.706C181.249,639.906 179.702,636.41 179.81,633.025C179.867,631.237 180.351,629.495 181.349,628.038C180.628,627.628 180.051,627.144 179.581,626.627C177.761,624.624 177.577,621.847 177.357,619.906L177.357,619.905C176.738,614.423 176.547,616.019 175.079,611.128C174.241,608.338 174.388,605.706 175.538,604.038C176.456,602.707 177.976,601.75 180.415,601.75C184.085,601.75 188.342,603.376 192.408,605.976C195.922,608.222 199.3,611.179 202.036,614.271ZM211.046,621.378C210.966,621.009 210.782,620.307 210.419,619.545C211.924,618.104 212.452,615.287 210.133,613.767C210.133,613.767 210.851,607.754 214.453,604.219C215.575,605.033 218.508,604.743 217.47,602.574C216.757,601.084 214.513,601.853 213.164,603.289C211.176,605.405 209.446,608.876 208.851,613.146C208.354,613.007 207.321,612.994 206.721,613.193C206.292,610.448 204.97,605.07 202.012,602.801C199.321,600.736 198.139,602.5 198.149,603.26C198.168,604.776 199.528,604.815 201.43,604.256C203.634,607.05 204.831,610.275 205.448,613.75C203.219,615.261 203.643,617.931 204.997,619.448C204.727,620.095 204.537,620.765 204.405,621.453C200.042,613.606 188.656,604.061 180.415,604.061C176.746,604.061 176.287,607.115 177.293,610.463C178.828,615.577 179.007,613.914 179.654,619.646C179.947,622.237 179.765,626.811 186.622,626.983C180.411,628.897 181.373,637.078 184.987,639.879C189.804,643.613 197.967,646.326 202.027,639.36C202.496,638.554 203.761,635.679 204.092,634.541C204.603,637.061 206.922,645.594 210.242,638.123C210.242,638.123 210.669,636.758 211.212,634.8C211.563,635.969 212.8,638.776 213.262,639.57C217.322,646.536 225.485,643.823 230.302,640.089C233.916,637.288 234.878,629.107 228.667,627.193C235.524,627.021 235.342,622.447 235.635,619.856C236.282,614.124 236.461,615.787 237.996,610.673C239.002,607.325 238.543,604.271 234.874,604.271C226.733,604.271 215.523,613.587 211.046,621.378Z" style="fill:rgb(187,206,64);"/>
        </g>
        <g transform="matrix(28.858244,0,0,15.898231,-5544.39237,-9236.124548)">
            <path d="M220.863,610.055C220.876,609.976 220.916,609.923 220.962,609.922C221.007,609.922 221.048,609.975 221.062,610.053C221.25,611.115 221.654,611.784 222.221,612.158C222.262,612.185 222.29,612.255 222.291,612.334C222.292,612.414 222.266,612.487 222.226,612.517C221.667,612.948 221.284,613.698 221.072,614.757C221.056,614.835 221.015,614.886 220.969,614.884C220.924,614.882 220.884,614.827 220.871,614.748C220.688,613.671 220.347,612.881 219.779,612.504C219.737,612.477 219.71,612.405 219.71,612.325C219.71,612.245 219.738,612.174 219.78,612.148C220.33,611.794 220.686,611.086 220.863,610.055Z" style="fill:rgb(243,247,11);"/>
        </g>
        <g transform="matrix(1,0,0,1,-126.175375,-44.686238)">
            <text x="420.125px" y="767.333px" style="font-family:'TiltNeon-Regular', 'Tilt Neon';font-size:125px;fill:rgb(243,247,11);">S<tspan x="483.375px " y="767.333px ">O</tspan>CIAL</text>
            <g transform="matrix(103.901936,0,0,103.901936,876.428656,867.3332)">
            </g>
            <text x="370.946px" y="867.333px" style="font-family:'TiltNeon-Regular', 'Tilt Neon';font-size:103.902px;fill:rgb(243,247,11);">BUTTERFL<tspan x="815.958px " y="867.333px ">Y</tspan></text>
        </g>
        <g transform="matrix(12.187912,3.890935,-2.998909,9.393771,-193.858913,-6072.974003)">
            <path d="M233.293,616.698C234.334,614.173 236.417,614.173 237.458,615.376C238.499,616.579 238.499,618.984 237.458,621.39C236.729,623.194 234.855,624.998 233.293,626.201C231.731,624.998 229.857,623.194 229.128,621.39C228.086,618.984 228.086,616.579 229.128,615.376C230.169,614.173 232.252,614.173 233.293,616.698Z" style="fill:rgb(243,247,11);"/>
        </g>
    </g>
</svg>
