<svg width="323" height="185" viewBox="0 0 323 185" fill="none" xmlns="http://www.w3.org/2000/svg">
<g filter="url(#filter0_d_2998_1255)">
<path fill-rule="evenodd" clip-rule="evenodd" d="M254.89 181.031C255.228 180.725 257.184 178.955 257.725 176.087C258.874 170 253.32 127.378 253.076 125.921C249.211 102.867 230.225 107.408 227.014 120.828C225.935 125.338 228.922 163.516 228.671 168.457C228.431 173.172 223.934 173.479 222.361 172.817C219.32 171.538 219.359 168.166 219.301 166.724C218.98 158.757 217.655 137.672 217.496 135.146C217.06 128.206 214.753 114.664 225.207 105.517C237.418 94.8346 255.376 100.59 260.694 117.224C263.711 126.662 267.113 170.97 267.129 171.308C268.274 195.792 238.716 199.058 233.801 179.37C232.823 175.453 230.897 138.003 231.172 133.726C231.886 122.623 248.786 120.817 251.282 135.153C251.351 135.548 252.942 153.651 252.967 154.163C253.26 160.031 248.714 160.123 247.686 159.844C243.076 158.594 244.256 152.413 242.569 136.253C242.218 132.894 240.248 134.83 240.201 134.911C239.581 135.994 242.047 171.529 242.255 173.611C243.302 184.074 250.284 184.456 254.89 181.031Z" fill="#11B7D4"/>
</g>
<g filter="url(#filter1_d_2998_1255)">
<path fill-rule="evenodd" clip-rule="evenodd" d="M164.592 214.776L164.58 214.816C164.58 214.816 164.113 214.98 164.755 216.418C165.393 217.856 194.013 288.649 194.013 288.649C194.013 288.649 194.782 291.034 197.031 291.206C199.282 291.376 203.797 289.801 203.797 289.801L203.993 289.724C205.002 290.386 206.352 289.853 206.352 289.853C206.352 289.853 229.273 280.939 231.701 280.056C232.98 279.592 233.339 278.77 233.392 278.095L233.552 278.031C233.552 278.031 241.978 274.706 240.579 271.372C239.178 268.039 211.782 197.216 211.782 197.216C211.782 197.216 211.571 196.601 211.16 196.388C211.806 195.255 211.381 194.423 211.381 194.423L155.271 52.9646C155.271 52.9646 153.757 51.1174 152.652 51.4874C151.546 51.8609 150.488 51.7824 150.488 51.7824C137.705 46.613 130.56 39.0115 123.648 18.3874C122.796 17.3285 121.818 16.5672 120.751 16.0108C120.751 16.0108 120.154 16.1147 119.204 16.3327L116.717 9.8544C116.717 9.8544 108.842 8.66202 107.796 8.51775C106.936 8.39871 106.803 8.93235 106.803 8.93235C105.573 11.6375 108.995 19.3625 109.414 20.2865C109.079 20.5335 108.764 20.79 108.473 21.0609C104.604 24.659 115.622 33.0635 114.642 52.2144C114.642 52.2144 115.23 59.8678 109.519 68.5004C109.519 68.5004 106.824 69.2357 108.11 72.3726L162.703 212.436C162.703 212.436 163.308 214.156 164.592 214.776Z" stroke="#4F4F4F" stroke-width="4.98889" stroke-miterlimit="1.5" stroke-linecap="round" stroke-linejoin="round"/>
<path fill-rule="evenodd" clip-rule="evenodd" d="M109.458 20.3784C109.458 20.3784 105.495 11.8124 106.804 8.93228C106.804 8.93228 106.937 8.39864 107.796 8.51768C108.843 8.66195 116.717 9.85433 116.717 9.85433L119.217 16.3646L110.043 21.824L109.458 20.3784Z" fill="#AD89D8"/>
<path fill-rule="evenodd" clip-rule="evenodd" d="M150.489 51.7825C137.706 46.6131 130.561 39.0116 123.649 18.3875C122.798 17.3286 121.819 16.5673 120.752 16.011C120.752 16.011 112.343 17.4629 108.474 21.061C104.606 24.6591 115.623 33.0636 114.644 52.2145C114.644 52.2145 115.232 59.8679 109.52 68.5005L111.385 71.789L151.469 54.4925L150.489 51.7825Z" fill="#4F4F4F"/>
<path fill-rule="evenodd" clip-rule="evenodd" d="M164.582 214.817C164.582 214.817 164.115 214.981 164.757 216.418C165.395 217.857 194.015 288.649 194.015 288.649C194.015 288.649 194.783 291.034 197.033 291.206C199.283 291.377 203.799 289.801 203.799 289.801L233.554 278.031C233.554 278.031 241.98 274.707 240.581 271.372C239.18 268.039 211.784 197.216 211.784 197.216C211.784 197.216 211.573 196.601 211.161 196.388C210.751 196.179 207.629 197.358 207.629 197.358L165.35 212.136L164.582 214.817Z" fill="#2D324B"/>
<path fill-rule="evenodd" clip-rule="evenodd" d="M109.52 68.5006C109.52 68.5006 106.825 69.2359 108.111 72.3729L162.704 212.437C162.704 212.437 163.679 215.215 165.791 214.981C167.904 214.744 174.059 212.555 174.059 212.555C174.059 212.555 204.276 200.817 208.385 198.708C212.496 196.601 211.382 194.423 211.382 194.423L155.272 52.9648C155.272 52.9648 153.758 51.1176 152.653 51.4876C151.548 51.8611 150.489 51.7826 150.489 51.7826L109.52 68.5006Z" fill="#AD89D8"/>
</g>
<defs>
<filter id="filter0_d_2998_1255" x="191.659" y="92.0181" width="104.811" height="114.502" filterUnits="userSpaceOnUse" color-interpolation-filters="sRGB">
<feFlood flood-opacity="0" result="BackgroundImageFix"/>
<feColorMatrix in="SourceAlpha" type="matrix" values="0 0 0 0 0 0 0 0 0 0 0 0 0 0 0 0 0 0 127 0" result="hardAlpha"/>
<feOffset dx="2.42152" dy="4.84305"/>
<feComposite in2="hardAlpha" operator="out"/>
<feColorMatrix type="matrix" values="0 0 0 0 0 0 0 0 0 0 0 0 0 0 0 0 0 0 0.25 0"/>
<feBlend mode="normal" in2="BackgroundImageFix" result="effect1_dropShadow_2998_1255"/>
<feBlend mode="normal" in="SourceGraphic" in2="effect1_dropShadow_2998_1255" result="shape"/>
</filter>
<filter id="filter1_d_2998_1255" x="0" y="0" width="331.967" height="312.197" filterUnits="userSpaceOnUse" color-interpolation-filters="sRGB">
<feFlood flood-opacity="0" result="BackgroundImageFix"/>
<feColorMatrix in="SourceAlpha" type="matrix" values="0 0 0 0 0 0 0 0 0 0 0 0 0 0 0 0 0 0 127 0" result="hardAlpha"/>
<feOffset dx="4.84305" dy="2.42152"/>
<feComposite in2="hardAlpha" operator="out"/>
<feColorMatrix type="matrix" values="0 0 0 0 0 0 0 0 0 0 0 0 0 0 0 0 0 0 0.25 0"/>
<feBlend mode="normal" in2="BackgroundImageFix" result="effect1_dropShadow_2998_1255"/>
<feBlend mode="normal" in="SourceGraphic" in2="effect1_dropShadow_2998_1255" result="shape"/>
</filter>
</defs>
</svg>
