<?xml version="1.0" encoding="UTF-8" standalone="no"?>
<!DOCTYPE svg PUBLIC "-//W3C//DTD SVG 1.1//EN" "http://www.w3.org/Graphics/SVG/1.1/DTD/svg11.dtd">
<svg width="100%" height="100%" viewBox="0 0 875 1129" version="1.1" xmlns="http://www.w3.org/2000/svg" xmlns:xlink="http://www.w3.org/1999/xlink" xml:space="preserve" xmlns:serif="http://www.serif.com/" style="fill-rule:evenodd;clip-rule:evenodd;stroke-linejoin:round;stroke-miterlimit:2;">
    <g id="Artboard1" transform="matrix(0.853791,0,0,1.101739,0,0)">
        <rect x="0" y="0" width="1024" height="1024" style="fill:none;"/>
        <g transform="matrix(1.635684,0,0,1.267571,-355.285345,-137.465343)">
            <path d="M414.07,716.499C414.07,734.815 415.933,763.946 430.97,790.225C467.994,854.925 552.076,830.062 534.576,792.464C526.706,775.557 503.419,799.698 492.233,771.6C472.786,722.75 589.1,708.667 588.011,800.486C586.592,920.124 338.057,916.103 370.204,676.451C401.834,440.655 549.777,299.942 596.325,268.285C612.124,257.54 488.57,300.973 418.897,417.74C358.494,518.971 365.327,584.45 346.589,598.904C331.069,610.876 261.26,557.735 255.215,480.532C244.864,348.344 347.971,160.816 601.512,149.725C681.122,146.242 789.425,155.423 803.382,192.55C816.756,228.126 771.316,227.136 785.807,340.443C790.248,375.169 831.129,558.126 707.24,657.169C642.478,708.942 555.176,708.241 483.14,676.336C458.674,665.5 451.848,654.623 434.242,655.212C413.078,655.92 414.07,700.867 414.07,716.499Z" style="fill:rgb(17,183,212);"/>
            <path d="M596.209,730.427C598.045,732.474 599.807,734.639 601.484,736.924C612.704,752.208 620.561,773.068 620.232,800.869C619.629,851.664 588.188,887.185 544.802,902.2C490.444,921.012 415.959,905.553 371.459,843.593C344.347,805.845 327.849,749.834 338.267,672.167C340.074,658.697 342.243,645.523 344.739,632.647C343.822,632.724 342.889,632.775 341.939,632.797C332.405,633.026 318.759,629.704 304.081,620.537C272.022,600.515 228.263,549.104 223.091,483.048C211.742,338.107 322.104,129.694 600.104,117.533C660.01,114.912 734.96,119.647 779.727,136.003C808.538,146.529 826.784,163.231 833.544,181.212C841.171,201.501 838.935,215.538 832.532,231.058C825.73,247.546 808.989,267.706 817.769,336.355C820.589,358.403 836.769,436.929 821.362,518.852C810.347,577.425 783.6,637.378 727.36,682.338C688.602,713.323 642.849,728.337 596.209,730.427ZM486.157,712.362C480.738,710.33 475.379,708.14 470.091,705.798C461.012,701.777 454.009,697.786 448.033,694.206C447.181,702.631 446.293,712.396 446.293,716.499C446.293,730.808 447.19,753.691 458.938,774.221C459.128,774.552 459.319,774.881 459.513,775.205C452.088,747.723 464.084,725.71 486.157,712.362ZM414.07,716.499C414.07,700.867 413.078,655.92 434.242,655.212C451.848,654.623 458.674,665.5 483.14,676.336C555.176,708.241 642.478,708.942 707.24,657.169C831.129,558.126 790.248,375.169 785.807,340.443C771.316,227.136 816.756,228.126 803.382,192.55C789.425,155.423 681.122,146.242 601.512,149.725C347.971,160.816 244.864,348.344 255.215,480.532C261.26,557.735 331.069,610.876 346.589,598.904C365.327,584.45 358.494,518.971 418.897,417.74C488.57,300.973 612.124,257.54 596.325,268.285C549.777,299.942 401.834,440.655 370.204,676.451C338.057,916.103 586.592,920.124 588.011,800.486C589.1,708.667 472.786,722.75 492.233,771.6C503.419,799.698 526.706,775.557 534.576,792.464C552.076,830.062 467.994,854.925 430.97,790.225C415.933,763.946 414.07,734.815 414.07,716.499Z" style="fill:rgb(243,241,234);"/>
        </g>
        <g transform="matrix(1.602699,0,0,1.223351,-403.67949,-117.791596)">
            <g transform="matrix(1.970508,0,0,2.000561,599.711867,608.033974)">
                <path d="M128.366,22.901L128.366,40.283C128.366,52.922 118.105,63.183 105.465,63.183L22.901,63.183C10.261,63.183 0,52.922 0,40.283L0,22.901C0,10.261 10.261,0 22.901,0L105.465,0C118.105,0 128.366,10.261 128.366,22.901Z" style="fill:rgb(245,153,179);"/>
            </g>
            <g transform="matrix(1.970508,0,0,2.000561,599.711867,608.033974)">
                <path d="M32.5,42.024L35.275,42.024C36.068,41.997 36.848,41.799 37.614,41.429C38.063,41.191 38.447,40.9 38.764,40.557C39.107,40.187 39.358,39.764 39.517,39.288C39.702,38.812 39.795,38.297 39.795,37.742C39.795,37.081 39.676,36.5 39.438,35.998C39.2,35.496 38.856,35.073 38.407,34.729C37.984,34.359 37.469,34.082 36.861,33.897C36.57,33.817 36.227,33.751 35.83,33.698C35.46,33.645 34.998,33.619 34.443,33.619C33.914,33.593 33.267,33.579 32.5,33.579C31.839,33.579 31.337,33.408 30.994,33.064C30.65,32.694 30.478,32.271 30.478,31.795C30.478,31.32 30.65,30.91 30.994,30.567C31.337,30.197 31.839,30.012 32.5,30.012C33.108,30.012 33.663,29.998 34.165,29.972C34.694,29.945 35.169,29.906 35.592,29.853C36.015,29.8 36.346,29.721 36.583,29.615C37.218,29.351 37.72,28.968 38.09,28.465C38.486,27.963 38.684,27.223 38.684,26.245C38.684,25.373 38.486,24.633 38.09,24.025C37.72,23.417 37.178,22.968 36.464,22.677C35.777,22.36 34.958,22.201 34.007,22.201L31.35,22.201C30.848,22.201 30.491,22.241 30.28,22.32C30.095,22.373 29.989,22.506 29.963,22.717C29.936,22.928 29.923,23.285 29.923,23.787L29.923,43.808C29.923,44.468 29.738,44.971 29.368,45.314C29.024,45.658 28.615,45.83 28.139,45.83C27.663,45.83 27.241,45.658 26.87,45.314C26.527,44.971 26.355,44.468 26.355,43.808L26.355,23.787C26.355,22.598 26.514,21.62 26.831,20.854C27.174,20.087 27.703,19.532 28.417,19.189C29.157,18.819 30.135,18.634 31.35,18.634L34.007,18.634C35.249,18.634 36.372,18.819 37.376,19.189C38.381,19.532 39.239,20.047 39.953,20.735C40.693,21.395 41.261,22.201 41.658,23.153C42.054,24.078 42.252,25.109 42.252,26.245C42.252,27.435 42.041,28.439 41.618,29.258C41.222,30.078 40.693,30.765 40.032,31.32C39.372,31.848 38.671,32.311 37.931,32.707C37.297,33.024 36.517,33.249 35.592,33.381C34.694,33.513 33.663,33.579 32.5,33.579C31.971,33.579 31.535,33.461 31.192,33.223C30.875,32.985 30.663,32.694 30.557,32.35C30.452,31.98 30.452,31.624 30.557,31.28C30.663,30.91 30.875,30.606 31.192,30.368C31.535,30.13 31.971,30.012 32.5,30.012C32.949,30.012 33.412,30.025 33.888,30.051C34.39,30.051 34.865,30.078 35.315,30.13C35.791,30.157 36.227,30.21 36.623,30.289C37.046,30.342 37.403,30.408 37.693,30.487C38.83,30.831 39.821,31.346 40.667,32.033C41.513,32.721 42.173,33.553 42.649,34.531C43.125,35.509 43.363,36.579 43.363,37.742C43.363,38.773 43.191,39.724 42.847,40.596C42.504,41.469 42.015,42.248 41.38,42.935C40.773,43.623 40.046,44.178 39.2,44.601C38.486,44.971 37.812,45.222 37.178,45.354C36.544,45.486 35.857,45.565 35.117,45.592L32.5,45.592C31.839,45.592 31.337,45.42 30.994,45.076C30.65,44.706 30.478,44.283 30.478,43.808C30.478,43.332 30.65,42.922 30.994,42.579C31.337,42.209 31.839,42.024 32.5,42.024ZM52.126,33.936L59.935,33.936C60.253,33.936 60.53,33.95 60.768,33.976C61.032,33.976 61.23,33.963 61.363,33.936C61.521,33.883 61.627,33.804 61.68,33.698C61.759,33.593 61.772,33.408 61.719,33.143C61.534,32.298 61.204,31.571 60.728,30.963C60.279,30.329 59.698,29.853 58.984,29.536C58.27,29.192 57.464,29.02 56.566,29.02C55.376,29.02 54.319,29.298 53.394,29.853C52.495,30.408 51.782,31.201 51.253,32.231C50.751,33.236 50.5,34.412 50.5,35.76C50.5,37.187 50.778,38.403 51.333,39.407C51.888,40.411 52.641,41.178 53.592,41.706C54.57,42.209 55.68,42.46 56.922,42.46C57.477,42.46 58.059,42.407 58.667,42.301C59.275,42.169 59.883,41.984 60.49,41.746C61.125,41.508 61.759,41.218 62.393,40.874C62.975,40.53 63.49,40.438 63.94,40.596C64.415,40.755 64.772,41.046 65.01,41.469C65.248,41.865 65.301,42.301 65.168,42.777C65.063,43.253 64.719,43.649 64.138,43.966C63.318,44.442 62.499,44.838 61.68,45.156C60.861,45.446 60.041,45.658 59.222,45.79C58.429,45.949 57.663,46.028 56.922,46.028C55.072,46.028 53.394,45.618 51.888,44.799C50.381,43.98 49.179,42.803 48.28,41.27C47.381,39.737 46.932,37.901 46.932,35.76C46.932,33.698 47.355,31.901 48.201,30.368C49.047,28.809 50.196,27.606 51.65,26.761C53.103,25.888 54.742,25.452 56.566,25.452C58.019,25.452 59.354,25.743 60.57,26.325C61.785,26.906 62.79,27.725 63.583,28.782C64.402,29.813 64.944,31.055 65.208,32.509C65.367,33.328 65.393,34.055 65.287,34.69C65.182,35.324 64.917,35.852 64.495,36.275C64.072,36.672 63.477,36.976 62.711,37.187C61.971,37.398 61.045,37.504 59.935,37.504L52.126,37.504C51.465,37.504 50.963,37.332 50.619,36.989C50.275,36.619 50.104,36.196 50.104,35.72C50.104,35.245 50.275,34.835 50.619,34.491C50.963,34.121 51.465,33.936 52.126,33.936ZM72.382,44.006L72.382,22.281C72.382,21.62 72.554,21.118 72.898,20.774C73.268,20.431 73.691,20.259 74.166,20.259C74.642,20.259 75.052,20.431 75.395,20.774C75.766,21.118 75.951,21.62 75.951,22.281L75.951,44.006C75.951,44.667 75.766,45.169 75.395,45.512C75.052,45.856 74.642,46.028 74.166,46.028C73.691,46.028 73.268,45.869 72.898,45.552C72.554,45.208 72.382,44.693 72.382,44.006ZM78.765,29.417L69.964,29.417C69.303,29.417 68.801,29.245 68.458,28.901C68.114,28.531 67.942,28.108 67.942,27.633C67.942,27.157 68.114,26.747 68.458,26.404C68.801,26.034 69.303,25.849 69.964,25.849L78.765,25.849C79.426,25.849 79.928,26.034 80.272,26.404C80.615,26.747 80.787,27.157 80.787,27.633C80.787,28.108 80.615,28.531 80.272,28.901C79.928,29.245 79.426,29.417 78.765,29.417ZM102.197,27.672L102.197,36.592C102.197,38.099 101.959,39.434 101.484,40.596C101.008,41.759 100.334,42.751 99.462,43.57C98.616,44.363 97.612,44.971 96.449,45.394C95.312,45.816 94.07,46.028 92.722,46.028C91.374,46.028 90.119,45.777 88.956,45.275C87.793,44.772 86.776,44.059 85.903,43.134C85.031,42.209 84.357,41.125 83.882,39.883C83.406,38.614 83.168,37.227 83.168,35.72C83.168,33.712 83.578,31.941 84.397,30.408C85.243,28.849 86.379,27.633 87.806,26.761C89.26,25.888 90.885,25.452 92.683,25.452C94.031,25.452 95.273,25.703 96.409,26.206C97.572,26.681 98.576,27.382 99.422,28.307C100.294,29.205 100.968,30.276 101.444,31.518C101.946,32.76 102.197,34.135 102.197,35.641L102.197,44.442C102.197,45.103 102.012,45.605 101.642,45.949C101.299,46.292 100.889,46.464 100.413,46.464C99.938,46.464 99.515,46.292 99.145,45.949C98.801,45.605 98.629,45.103 98.629,44.442L98.629,35.641C98.629,34.346 98.378,33.196 97.876,32.192C97.374,31.188 96.674,30.408 95.775,29.853C94.876,29.298 93.846,29.02 92.683,29.02C91.81,29.02 91.004,29.192 90.264,29.536C89.524,29.853 88.89,30.315 88.361,30.923C87.859,31.505 87.463,32.205 87.172,33.024C86.881,33.844 86.736,34.742 86.736,35.72C86.736,36.698 86.881,37.597 87.172,38.416C87.463,39.235 87.872,39.949 88.401,40.557C88.93,41.165 89.564,41.641 90.304,41.984C91.044,42.301 91.85,42.46 92.722,42.46C93.594,42.46 94.387,42.341 95.101,42.103C95.841,41.865 96.475,41.508 97.004,41.033C97.532,40.53 97.929,39.909 98.193,39.169C98.484,38.429 98.629,37.57 98.629,36.592L98.629,27.672C98.629,27.012 98.801,26.509 99.145,26.166C99.515,25.822 99.938,25.651 100.413,25.651C100.889,25.651 101.299,25.822 101.642,26.166C102.012,26.509 102.197,27.012 102.197,27.672Z" style="fill:rgb(243,241,234);fill-rule:nonzero;"/>
            </g>
        </g>
    </g>
</svg>
