<?xml version="1.0" encoding="UTF-8" standalone="no"?>
<!DOCTYPE svg PUBLIC "-//W3C//DTD SVG 1.1//EN" "http://www.w3.org/Graphics/SVG/1.1/DTD/svg11.dtd">
<svg width="100%" height="100%" viewBox="0 0 118 117" version="1.1" xmlns="http://www.w3.org/2000/svg" xmlns:xlink="http://www.w3.org/1999/xlink" xml:space="preserve" xmlns:serif="http://www.serif.com/" style="fill-rule:evenodd;clip-rule:evenodd;stroke-linecap:round;stroke-linejoin:round;stroke-miterlimit:1.5;">
    <g transform="matrix(1,0,0,1,-454,-216)">
        <g id="Artboard1" transform="matrix(0.291424,0,0,0.291424,454.839,216.207)">
            <rect x="0" y="0" width="400" height="400" style="fill:none;"/>
            <g transform="matrix(9.84061,0,0,9.84061,-83.5669,-2355.33)">
                <circle cx="28.816" cy="259.672" r="14.82" style="fill:rgb(246,223,106);"/>
            </g>
            <g transform="matrix(1.24461,0,0,1.24461,-48.9229,-48.9229)">
                <g transform="matrix(3.43142,0,0,3.43142,-1560.75,-1097.96)">
                    <path d="M491.789,364.182C491.789,364.182 491.949,363.756 492.71,363.861C493.471,363.965 506.866,365.621 506.866,365.621C506.866,365.621 507.856,365.991 509.954,365.045C512.052,364.099 526.938,357.023 526.938,357.023L531.032,355.109C531.032,355.109 539.287,351.241 541.838,349.859L544.222,348.654L545.269,348.064C545.269,348.064 545.461,347.906 545.443,348.177C545.443,348.177 544.526,354.762 542.78,363.267C543.311,363.227 550.697,362.664 551.143,362.612C551.607,362.557 551.472,362.808 551.472,362.808C551.272,363.402 551.061,364.019 550.838,364.654C550.931,364.634 551.392,364.535 551.635,364.534C551.907,364.533 551.806,364.785 551.806,364.785C551.334,366.436 550.775,368.266 550.164,370.185L551.968,370.274L551.963,370.288C552.122,370.371 552.09,370.799 552.09,370.799L551.911,375.403C550.288,380.758 540.249,408.461 540.249,408.461L540.245,408.456L540.243,408.494C507.997,405.781 474.156,400.801 474.156,400.801L474.182,395.356L491.789,364.182Z" style="fill:none;stroke:black;stroke-width:2px;"/>
                </g>
                <g transform="matrix(3.43142,0,0,3.43142,-1546.5,-1050.41)">
                    <path d="M536.099,394.606C536.099,394.606 546.137,366.903 547.761,361.548L547.939,356.944C547.939,356.944 547.977,356.433 547.763,356.419C547.55,356.404 545.878,359.32 545.878,359.32L535.677,386.422L534.971,389.636L535.555,393.954L536.099,394.606Z" style="fill:rgb(241,120,138);"/>
                </g>
                <g transform="matrix(3.43142,0,0,3.43142,-1546.5,-1050.41)">
                    <path d="M536.38,387.851L547.817,356.419L545.649,356.311L498.236,384.45L536.173,388.011L536.38,387.851Z" style="fill:rgb(226,30,48);"/>
                </g>
                <g transform="matrix(3.43142,0,0,3.43142,-1546.5,-1050.41)">
                    <path d="M498.42,384.505L533.495,383.568C533.495,383.568 536.216,383.757 537.328,381.019C538.439,378.281 544.725,361.182 547.655,350.929C547.655,350.929 547.756,350.678 547.485,350.679C547.213,350.68 546.671,350.803 546.671,350.803L539.785,359.73L489.52,383.161L489.909,384.334L498.42,384.505Z" style="fill:rgb(235,40,57);"/>
                </g>
                <g transform="matrix(3.43142,0,0,3.43142,-1546.5,-1050.41)">
                    <path d="M496.024,383.12L531.41,379.215C531.41,379.215 535.477,378.838 536.716,376.109C537.956,373.38 544.176,358.322 547.321,348.953C547.321,348.953 547.456,348.702 546.993,348.757C546.529,348.811 538.599,349.414 538.599,349.414L492.932,381.243L495.807,383.083L496.024,383.12Z" style="fill:rgb(239,66,86);"/>
                </g>
                <g transform="matrix(3.43142,0,0,3.43142,-1546.5,-1050.41)">
                    <path d="M470.031,381.501L487.639,350.327C487.639,350.327 487.798,349.901 488.559,350.005C489.32,350.109 502.716,351.766 502.716,351.766C502.716,351.766 503.705,352.136 505.804,351.19C507.902,350.244 522.787,343.168 522.787,343.168L526.882,341.254C526.882,341.254 535.137,337.386 537.687,336.004L540.072,334.799L541.119,334.209C541.119,334.209 541.311,334.05 541.293,334.322C541.293,334.322 538.924,351.326 534.555,365.971C534.555,365.971 533.299,371.773 527.712,373.847C522.126,375.92 499.173,384.679 488.146,383.468C477.119,382.257 470.031,381.501 470.031,381.501Z" style="fill:rgb(241,106,127);"/>
                </g>
                <g transform="matrix(3.43142,0,0,3.43142,-1546.5,-1050.41)">
                    <path d="M470.031,381.501L470.006,386.946C470.006,386.946 503.846,391.926 536.092,394.639L536.389,387.803C508.461,385.775 472.672,381.771 470.031,381.501Z" style="fill:rgb(238,78,107);"/>
                </g>
            </g>
        </g>
    </g>
</svg>
