<?xml version="1.0" encoding="UTF-8" standalone="no"?>
<!DOCTYPE svg PUBLIC "-//W3C//DTD SVG 1.1//EN" "http://www.w3.org/Graphics/SVG/1.1/DTD/svg11.dtd">
<svg width="100%" height="100%" viewBox="0 0 118 117" version="1.1" xmlns="http://www.w3.org/2000/svg" xmlns:xlink="http://www.w3.org/1999/xlink" xml:space="preserve" xmlns:serif="http://www.serif.com/" style="fill-rule:evenodd;clip-rule:evenodd;stroke-linecap:round;stroke-linejoin:round;stroke-miterlimit:1.5;">
    <g transform="matrix(1,0,0,1,-151,-216)">
        <g id="Artboard1" transform="matrix(0.291424,0,0,0.291424,151.613,216.207)">
            <rect x="0" y="0" width="400" height="400" style="fill:none;"/>
            <g transform="matrix(9.84061,0,0,9.84061,-83.5669,-2355.33)">
                <circle cx="28.816" cy="259.672" r="14.82" style="fill:rgb(245,153,179);"/>
            </g>
            <g transform="matrix(1.20938,0,0,1.20938,-26.5029,-34.2544)">
                <g transform="matrix(3.43142,0,0,3.43142,-520.249,-1097.96)">
                    <path d="M177.458,343.758L177.431,343.711L195.118,336.619C195.118,336.619 198.331,335.154 202.992,338.671C207.18,341.83 211.071,346.323 214.434,352.915C217.797,359.506 219.04,364.021 219.04,364.021C219.04,364.021 222.258,373.979 219.988,382.473C219.988,382.473 218.037,392.518 225.573,397.562C233.11,402.606 239.807,407.371 239.807,407.371L223.384,416.523L207.891,404.838C207.891,404.838 200.814,400.237 202.796,391.085C202.822,390.965 202.847,390.844 202.871,390.722C202.158,392.138 201.171,393.185 199.91,393.766C193.878,396.547 183.836,387.647 177.5,373.903C171.163,360.16 170.915,346.744 176.947,343.963C177.114,343.886 177.285,343.817 177.458,343.758Z" style="fill:none;stroke:black;stroke-width:2px;"/>
                </g>
                <g>
                    <g transform="matrix(3.43142,0,0,3.43142,-520.249,-1097.96)">
                        <path d="M199.529,371.37C201.704,379.688 200.728,386.788 196.688,388.568C191.598,390.81 183.558,383.759 178.745,372.832C173.932,361.905 174.158,351.214 179.248,348.972C183.099,347.275 188.537,350.18 193.09,356.777L193.014,357.4C193.014,357.4 193.947,365.408 199.046,370.883C199.223,371.073 199.383,371.234 199.529,371.37Z" style="fill:rgb(187,182,189);"/>
                    </g>
                    <g transform="matrix(3.43142,0,0,3.43142,-520.249,-1097.96)">
                        <path d="M176.292,352.23C176.955,350.679 177.941,349.547 179.248,348.972C183.099,347.275 188.537,350.18 193.09,356.777L193.014,357.4C193.014,357.4 193.947,365.408 199.046,370.883C199.223,371.073 199.383,371.234 199.529,371.37C201.045,377.169 201.03,382.377 199.512,385.602L176.511,352.889L176.292,352.23Z" style="fill:rgb(155,134,133);"/>
                    </g>
                    <g id="_-Curve-" serif:id="(Curve)" transform="matrix(3.43142,0,0,3.43142,-520.249,-1097.96)">
                        <path d="M177.431,343.711L195.118,336.619C195.118,336.619 198.331,335.154 202.992,338.671C207.18,341.83 211.071,346.323 214.434,352.915C217.797,359.506 219.04,364.021 219.04,364.021C219.04,364.021 222.258,373.979 219.988,382.473C219.988,382.473 218.037,392.518 225.573,397.562C233.11,402.606 239.807,407.371 239.807,407.371L223.384,416.523L207.891,404.838C207.891,404.838 200.814,400.237 202.796,391.085C204.395,383.707 202.057,372.516 202.057,372.516L196.562,359.56L190.757,351.062L183.879,345.869L178.25,345.153L177.431,343.711Z" style="fill:rgb(159,146,199);"/>
                    </g>
                    <g transform="matrix(3.43142,0,0,3.43142,-520.249,-1097.96)">
                        <path d="M176.947,343.963C182.979,341.181 193.021,350.082 199.358,363.825C205.694,377.569 205.942,390.985 199.91,393.766C193.878,396.547 183.836,387.647 177.5,373.903C171.163,360.16 170.915,346.744 176.947,343.963ZM179.248,348.972C184.338,346.73 192.378,353.781 197.191,364.707C202.004,375.634 201.779,386.326 196.688,388.568C191.598,390.81 183.558,383.759 178.745,372.832C173.932,361.905 174.158,351.214 179.248,348.972Z" style="fill:rgb(107,93,108);"/>
                    </g>
                    <g transform="matrix(3.43142,0,0,3.43142,-520.249,-1097.96)">
                        <path d="M178.59,346.823C184.136,344.434 192.884,352.354 198.115,364.497C203.346,376.64 203.09,388.438 197.545,390.827C192,393.215 183.251,385.296 178.021,373.153C172.79,361.009 173.045,349.211 178.59,346.823ZM179.622,349.322C184.625,347.167 192.477,354.215 197.144,365.051C201.812,375.888 201.54,386.435 196.537,388.59C191.534,390.745 183.682,383.697 179.014,372.861C174.347,362.025 174.619,351.478 179.622,349.322Z" style="fill:rgb(118,91,74);"/>
                    </g>
                </g>
            </g>
        </g>
    </g>
</svg>
