<?xml version="1.0" encoding="UTF-8" standalone="no"?>
<!DOCTYPE svg PUBLIC "-//W3C//DTD SVG 1.1//EN" "http://www.w3.org/Graphics/SVG/1.1/DTD/svg11.dtd">
<svg width="100%" height="100%" viewBox="0 0 117 118" version="1.1" xmlns="http://www.w3.org/2000/svg" xmlns:xlink="http://www.w3.org/1999/xlink" xml:space="preserve" xmlns:serif="http://www.serif.com/" style="fill-rule:evenodd;clip-rule:evenodd;stroke-linecap:round;stroke-linejoin:round;stroke-miterlimit:1.5;">
    <g transform="matrix(1,0,0,1,0,-215)">
        <g id="Artboard1" transform="matrix(0.291424,0,0,0.291424,0,215.663)">
            <rect x="0" y="0" width="400" height="400" style="fill:none;"/>
            <g transform="matrix(9.84061,0,0,9.84061,-83.5669,-2355.33)">
                <circle cx="28.816" cy="259.672" r="14.82" style="fill:rgb(251,197,111);"/>
            </g>
            <g transform="matrix(1,0,0,1,-12.6777,2.01464)">
                <g transform="matrix(3.43142,0,0,3.43142,0,-1096.09)">
                    <path d="M51.77,376.388C50.566,371.535 48.025,361.265 47.456,358.757C46.704,355.44 46.679,353.69 43.147,349.932C39.447,345.994 32.973,345.121 35.28,337.592C37.587,330.063 45.294,328.802 45.294,328.802C45.294,328.802 49.024,327.926 54.851,330.05C60.678,332.174 60.2,336.105 60.2,336.105C60.2,336.105 60.13,338.123 59.076,343.36C58.021,348.597 60.812,352.212 60.812,352.212L69.069,366.78L71.014,369.904L86.878,364.558C86.878,364.558 88.143,364.321 89.302,366.642C90.462,368.962 99.64,393.491 99.64,393.491L99.646,393.548L101.398,392.95C103.909,392.823 105.131,396.692 103.966,398.575L101.885,399.409C102.049,401.91 100.136,402.415 100.136,402.415L87.755,407.209C87.538,407.313 87.334,407.391 87.143,407.447L87.125,407.453L87.123,407.452C85.24,407.993 84.616,406.417 84.616,406.417C84.608,406.401 84.6,406.384 84.593,406.365C84.497,406.41 84.393,406.458 84.283,406.508C83.663,408.871 80.923,409.335 80.923,409.335C75.145,410.628 66.665,415.028 66.665,415.028L65.522,414.123L65.435,414.042L63.145,412.475C62.466,413.941 60.866,415.292 60.866,415.292L58.917,416.077L59.055,416.686L60.117,417.5L60.207,417.701L59.897,418.247L42.992,425.455C41.053,426.527 39.72,422.283 39.833,421.53C39.802,420.268 40.687,419.193 41.246,419.149C41.313,419.144 41.388,419.159 41.467,419.191L33.969,412.799C33.969,412.799 26.631,407.371 24.321,405.682C22.011,403.994 21.852,403.464 21.852,403.464C21.852,403.464 20.177,400.913 22.693,398.206C25.285,395.417 27.058,390.02 27.669,387.108C27.171,387.043 20.386,386.01 19.814,384.321C19.153,382.368 19.938,381.296 19.938,381.296C19.938,381.296 22.358,376.906 30.706,374.729C39.054,372.553 42.907,375.48 42.907,375.48C42.907,375.48 44.854,376.78 44.834,378.63C44.834,378.663 44.832,378.695 44.83,378.727L51.77,376.388ZM43.506,422.349C43.539,422.506 43.569,422.671 43.594,422.84C43.575,422.678 43.546,422.514 43.506,422.349ZM68.603,410.137L68.588,410.142L68.602,410.137L68.603,410.137ZM90.839,402.231C90.851,402.246 90.856,402.255 90.856,402.255L90.874,402.256L90.857,402.232L90.839,402.231ZM30.581,387.402C30.652,387.587 30.724,387.782 30.799,387.989C30.716,387.766 30.643,387.57 30.58,387.403L30.581,387.402ZM41.922,379.706L28.623,384.188C28.613,384.188 28.608,384.189 28.608,384.189C28.608,384.189 28.52,384.206 28.383,384.302C26.321,384.378 24.487,384.19 23.391,383.516C19.543,381.147 29.948,377.901 29.948,377.901C29.948,377.901 33.755,376.804 37.79,376.827C41.826,376.849 41.915,379.491 41.915,379.491L41.922,379.706ZM28.629,384.188C28.634,384.187 28.642,384.188 28.653,384.19C28.643,384.188 28.635,384.188 28.629,384.188ZM68.688,370.688L67.818,369.272L58.754,353.189C55.769,347.948 56.352,347.141 56.796,343.364C57.231,339.666 60.397,334.577 54.214,332.084C48.031,329.592 44.119,331.666 44.119,331.666C44.119,331.666 40.32,333.335 38.474,336.406C36.628,339.477 36.021,342.2 42.459,346.291C48.896,350.382 49.327,355.877 49.327,355.877L54.259,375.549L68.688,370.688Z" style="fill:none;stroke:black;stroke-width:2px;"/>
                </g>
                <g transform="matrix(3.43142,0,0,3.43142,0,-1096.09)">
                    <path d="M27.18,386.935C27.18,386.935 20.41,386.08 19.814,384.321C19.153,382.368 19.938,381.296 19.938,381.296C19.938,381.296 22.358,376.906 30.706,374.729C39.054,372.553 42.907,375.48 42.907,375.48C42.907,375.48 44.854,376.78 44.834,378.63C44.813,380.48 41.926,379.811 41.926,379.811L41.915,379.491C41.915,379.491 41.826,376.849 37.79,376.827C33.755,376.804 29.948,377.901 29.948,377.901C29.948,377.901 19.543,381.147 23.391,383.516C27.239,385.885 40.184,382.254 40.184,382.254L29.688,387.881L27.18,386.935Z" style="fill:rgb(244,244,244);"/>
                    <g transform="matrix(1,0,0,1,0.0787263,-0.184991)">
                        <path d="M28.529,384.374C28.529,384.374 29.214,384.216 30.374,387.253C31.732,390.808 42.373,420.215 42.373,420.215L33.89,412.984C33.89,412.984 26.552,407.556 24.242,405.867C21.932,404.179 21.773,403.649 21.773,403.649C21.773,403.649 20.098,401.098 22.614,398.391C25.232,395.574 26.484,389.914 27.088,387.028C27.607,384.549 28.529,384.374 28.529,384.374Z"/>
                    </g>
                    <path d="M65.522,414.123L66.665,415.028C66.665,415.028 75.145,410.628 80.923,409.335C80.923,409.335 83.678,408.869 84.289,406.488C84.899,404.107 82.558,405.962 82.558,405.962L65.341,413.666L65.397,414.008L65.522,414.123Z" style="fill:rgb(63,63,63);"/>
                    <path d="M28.622,384.188L86.878,364.558C86.878,364.558 88.143,364.321 89.302,366.642C90.462,368.962 99.64,393.491 99.64,393.491L99.996,396.451L85.645,403.687L63.249,412.163L42.16,419.352C42.16,419.352 31.866,391.26 31.297,389.469C29.57,384.034 28.622,384.188 28.622,384.188Z" style="fill:rgb(112,112,112);"/>
                    <path d="M42.955,425.47L59.897,418.247L60.207,417.701L60.117,417.5L59.055,416.686L58.883,415.929L45.233,421.22C45.233,421.22 43.929,421.971 43.107,421.247C43.835,422.758 43.8,424.167 42.955,425.47Z" style="fill:rgb(63,63,63);"/>
                    <path d="M87.125,407.453L100.136,402.415C100.136,402.415 102.063,401.906 101.883,399.381L98.037,399.441L91.074,402.262L90.856,402.255C90.856,402.255 90.39,401.489 88.868,401.638C81.792,402.33 87.125,407.453 87.125,407.453Z" style="fill:rgb(63,63,63);"/>
                    <g transform="matrix(1,0,0,1,0.0626143,0.040134)">
                        <path d="M84.553,406.377C84.553,406.377 85.575,408.957 88.95,406.381C91.478,404.451 89.478,402.354 88.718,402.161C84.486,401.088 84.16,405.565 84.553,406.377Z" style="fill:rgb(5,5,5);"/>
                    </g>
                    <path d="M62.848,412.271L68.602,410.137C69.72,406.317 70.892,406.926 70.892,406.926L81.066,402.846C81.066,402.846 82.065,402.13 83.152,403.403C84.2,404.631 85.536,403.654 85.826,403.617C85.826,403.617 85.919,405.341 85.467,405.887C84.909,406.56 65.496,414.084 65.496,414.084L62.848,412.271Z" style="fill:rgb(63,63,63);"/>
                    <g transform="matrix(1,0,0,1,0.0659917,-0.0322277)">
                        <path d="M41.18,419.181C41.739,419.137 42.782,420.511 43.122,421.298C43.461,422.086 44.085,424.817 42.955,425.47C41,426.602 39.653,422.319 39.767,421.563C39.736,420.3 40.621,419.225 41.18,419.181Z" style="fill:rgb(5,5,5);"/>
                    </g>
                    <path d="M58.754,353.189L67.818,369.272L81.838,392.096L86.288,399.239C86.288,399.239 87.992,401.895 90.786,402.225C93.579,402.554 91.119,399.892 91.119,399.892L88.634,397.484L88.323,397.221L76.297,378.388L69.069,366.78L60.812,352.212C60.812,352.212 58.021,348.597 59.076,343.36C60.13,338.123 60.2,336.105 60.2,336.105C60.2,336.105 60.678,332.174 54.851,330.05C49.024,327.926 45.294,328.802 45.294,328.802C45.294,328.802 37.587,330.063 35.28,337.592C32.973,345.121 39.447,345.994 43.147,349.932C46.679,353.69 46.704,355.44 47.456,358.757C48.208,362.073 52.407,378.951 52.407,378.951L58.17,408.98L59.035,410.525L60.893,409.634L60.852,408.971L57.958,392.011L54.803,377.719L49.327,355.877C49.327,355.877 48.896,350.382 42.459,346.291C36.021,342.2 36.628,339.477 38.474,336.406C40.32,333.335 44.119,331.666 44.119,331.666C44.119,331.666 48.031,329.592 54.214,332.084C60.397,334.577 57.231,339.666 56.796,343.364C56.352,347.141 55.769,347.948 58.754,353.189Z" style="fill:rgb(244,244,244);"/>
                    <path d="M88.656,397.299L101.398,392.95C103.909,392.823 105.131,396.692 103.966,398.575L91.71,403.487C91.71,403.487 89.915,400.658 88.922,400.069C88.002,399.524 87.964,397.604 88.656,397.299Z" style="fill:rgb(63,63,63);"/>
                    <path d="M42.149,415.284L58.285,408.957C58.285,408.957 62.083,408.388 63.242,410.478C64.303,412.39 60.866,415.292 60.866,415.292L44.719,421.796L42.149,415.284Z" style="fill:rgb(63,63,63);"/>
                    <g transform="matrix(1,0,0,1,-0.177163,0.0166134)">
                        <path d="M41.723,418.161C41.723,418.161 41.146,415.343 42.431,415.275C43.755,415.205 44.859,417.619 44.859,417.619C44.859,417.619 46.432,421.117 44.719,421.796C42.937,422.502 41.723,418.161 41.723,418.161Z" style="fill:rgb(5,5,5);"/>
                    </g>
                </g>
            </g>
        </g>
    </g>
</svg>
