<?xml version="1.0" encoding="UTF-8" standalone="no"?>
<!DOCTYPE svg PUBLIC "-//W3C//DTD SVG 1.1//EN" "http://www.w3.org/Graphics/SVG/1.1/DTD/svg11.dtd">
<svg width="100%" height="100%" viewBox="0 0 93 94" version="1.1" xmlns="http://www.w3.org/2000/svg" xmlns:xlink="http://www.w3.org/1999/xlink" xml:space="preserve" xmlns:serif="http://www.serif.com/" style="fill-rule:evenodd;clip-rule:evenodd;stroke-linecap:round;stroke-linejoin:round;stroke-miterlimit:1.5;">
    <g transform="matrix(1,0,0,1,-12,-153)">
        <g transform="matrix(0.291424,0,0,0.291424,0,141.831)">
            <g transform="matrix(3.23338,0,0,3.23347,-441.859,-375.765)">
                <path d="M247.459,169.724C247.459,147.311 229.263,129.116 206.85,129.116L190.171,129.116C167.758,129.116 149.562,147.311 149.562,169.724L149.562,186.405C149.562,208.817 167.758,227.013 190.171,227.013L206.85,227.013C229.263,227.013 247.459,208.817 247.459,186.405L247.459,169.724Z" style="fill:rgb(190,160,223);"/>
                <clipPath id="_clip1">
                    <path d="M247.459,169.724C247.459,147.311 229.263,129.116 206.85,129.116L190.171,129.116C167.758,129.116 149.562,147.311 149.562,169.724L149.562,186.405C149.562,208.817 167.758,227.013 190.171,227.013L206.85,227.013C229.263,227.013 247.459,208.817 247.459,186.405L247.459,169.724Z"/>
                </clipPath>
                <g clip-path="url(#_clip1)">
                    <g transform="matrix(2.4303,0,0,2.4303,-286.177,-186.779)">
                        <g transform="matrix(1.06125,0,0,1.06122,-22.5491,-48.3968)">
                            <circle cx="209.172" cy="197.077" r="16.921" style="fill:rgb(173,137,216);"/>
                        </g>
                        <g transform="matrix(0.118723,0.0685428,-0.0685447,0.11872,208.606,134.381)">
                            <g transform="matrix(-3.43142,0,0,3.43142,234.813,-499.234)">
                                <path d="M58.641,175.135L55.761,175.135C50.458,175.135 46.152,179.44 46.152,184.743L46.152,222.804C46.152,228.108 50.458,232.413 55.761,232.413L58.641,232.413C63.944,232.413 68.25,228.108 68.25,222.804C68.649,212.893 68.261,197.832 68.261,190.362C68.261,181.044 59.695,181.771 59.544,181.922" style="fill:none;stroke:rgb(253,249,230);stroke-width:4.5px;"/>
                            </g>
                            <g transform="matrix(-1.60047,0,0,2.59488,131.321,-328.768)">
                                <path d="M62.999,174.878C62.999,174.878 49.856,176.542 49.856,184.394L49.856,227.341C49.856,230.141 53.541,232.413 58.079,232.413C58.079,232.413 66.672,232.94 66.672,227.406L66.672,188.862" style="fill:none;stroke:rgb(253,249,230);stroke-width:7.17px;"/>
                            </g>
                        </g>
                    </g>
                    <g>
                        <g transform="matrix(1.56882,0.92166,-0.917838,1.56223,3.93442,41.7115)">
                            <path d="M153.721,11.979C153.928,14.062 155.073,15.207 157.156,15.414C155.236,15.784 154.091,16.929 153.721,18.849C153.474,16.807 152.304,15.686 150.286,15.414C152.278,15.116 153.387,13.935 153.721,11.979Z" style="fill:none;stroke:rgb(190,160,223);stroke-width:1.17px;"/>
                        </g>
                        <g transform="matrix(0.490545,0.426692,-0.426716,0.490545,121.955,13.6537)">
                            <g transform="matrix(1.06125,0,0,1.06122,-13.4455,116.211)">
                                <path d="M224.983,21.312L224.983,28.362" style="fill:none;stroke:rgb(190,160,223);stroke-width:3.08px;"/>
                            </g>
                            <g transform="matrix(-1.94949e-16,1.06122,-1.06125,-1.94943e-16,251.676,-96.1875)">
                                <path d="M224.983,21.312L224.983,28.362" style="fill:none;stroke:rgb(190,160,223);stroke-width:3.08px;"/>
                            </g>
                        </g>
                        <g transform="matrix(0.920484,-0.0251828,0.0251842,0.920484,-20.448,48.8949)">
                            <g transform="matrix(1.06125,0,0,1.06122,-13.4455,116.211)">
                                <path d="M224.983,21.312L224.983,28.362" style="fill:none;stroke:rgb(190,160,223);stroke-width:2.17px;"/>
                            </g>
                            <g transform="matrix(-1.94949e-16,1.06122,-1.06125,-1.94943e-16,251.676,-96.1875)">
                                <path d="M224.983,21.312L224.983,28.362" style="fill:none;stroke:rgb(190,160,223);stroke-width:2.17px;"/>
                            </g>
                        </g>
                        <g transform="matrix(1.06125,0,0,1.06122,-61.2424,12.224)">
                            <circle cx="221.035" cy="177.227" r="1.587" style="fill:rgb(190,160,223);"/>
                        </g>
                    </g>
                    <g>
                        <g transform="matrix(2.08126,-0.482543,0.482556,2.0812,-164.168,201.566)">
                            <path d="M153.721,11.979C153.928,14.062 155.073,15.207 157.156,15.414C155.236,15.784 154.091,16.929 153.721,18.849C153.474,16.807 152.304,15.686 150.286,15.414C152.278,15.116 153.387,13.935 153.721,11.979Z" style="fill:none;stroke:rgb(173,137,216);stroke-width:0.99px;"/>
                        </g>
                        <g transform="matrix(0.959898,1.01341,-1.01344,0.959871,105.606,-2.84913)">
                            <path d="M153.721,11.979C153.928,14.062 155.073,15.207 157.156,15.414C155.236,15.784 154.091,16.929 153.721,18.849C153.474,16.807 152.304,15.686 150.286,15.414C152.278,15.116 153.387,13.935 153.721,11.979Z" style="fill:none;stroke:rgb(173,137,216);stroke-width:1.52px;"/>
                        </g>
                        <g transform="matrix(1.35618,0.330529,-0.330538,1.35614,-0.86959,81.4478)">
                            <path d="M153.721,11.979C153.928,14.062 155.073,15.207 157.156,15.414C155.236,15.784 154.091,16.929 153.721,18.849C153.474,16.807 152.304,15.686 150.286,15.414C152.278,15.116 153.387,13.935 153.721,11.979Z" style="fill:none;stroke:rgb(173,137,216);stroke-width:1.52px;"/>
                        </g>
                        <g transform="matrix(0.511376,0,0,0.511376,103.496,66.319)">
                            <g transform="matrix(1.06125,0,0,1.06122,-13.4455,116.211)">
                                <path d="M224.983,21.312L224.983,28.362" style="fill:none;stroke:rgb(173,137,216);stroke-width:3.91px;"/>
                            </g>
                            <g transform="matrix(-1.94949e-16,1.06122,-1.06125,-1.94943e-16,251.676,-96.1875)">
                                <path d="M224.983,21.312L224.983,28.362" style="fill:none;stroke:rgb(173,137,216);stroke-width:3.91px;"/>
                            </g>
                        </g>
                        <g transform="matrix(0.490545,0.426692,-0.426716,0.490545,180.327,-14.566)">
                            <g transform="matrix(1.06125,0,0,1.06122,-13.4455,116.211)">
                                <path d="M224.983,21.312L224.983,28.362" style="fill:none;stroke:rgb(173,137,216);stroke-width:3.08px;"/>
                            </g>
                            <g transform="matrix(-1.94949e-16,1.06122,-1.06125,-1.94943e-16,251.676,-96.1875)">
                                <path d="M224.983,21.312L224.983,28.362" style="fill:none;stroke:rgb(173,137,216);stroke-width:3.08px;"/>
                            </g>
                        </g>
                        <g transform="matrix(0.490545,0.426692,-0.426716,0.490545,118.285,-19.4099)">
                            <g transform="matrix(1.06125,0,0,1.06122,-13.4455,116.211)">
                                <path d="M224.983,21.312L224.983,28.362" style="fill:none;stroke:rgb(173,137,216);stroke-width:3.08px;"/>
                            </g>
                            <g transform="matrix(-1.94949e-16,1.06122,-1.06125,-1.94943e-16,251.676,-96.1875)">
                                <path d="M224.983,21.312L224.983,28.362" style="fill:none;stroke:rgb(173,137,216);stroke-width:3.08px;"/>
                            </g>
                        </g>
                        <g transform="matrix(0.841911,0.207229,-0.207241,0.841911,33.8357,-28.7337)">
                            <g transform="matrix(1.06125,0,0,1.06122,-13.4455,116.211)">
                                <path d="M224.983,21.312L224.983,28.362" style="fill:none;stroke:rgb(173,137,216);stroke-width:2.31px;"/>
                            </g>
                            <g transform="matrix(-1.94949e-16,1.06122,-1.06125,-1.94943e-16,251.676,-96.1875)">
                                <path d="M224.983,21.312L224.983,28.362" style="fill:none;stroke:rgb(173,137,216);stroke-width:2.31px;"/>
                            </g>
                        </g>
                        <g transform="matrix(1.06125,0,0,1.06122,-14.1718,-34.7307)">
                            <circle cx="221.035" cy="177.227" r="1.587" style="fill:rgb(173,137,216);"/>
                        </g>
                        <g transform="matrix(1.06125,0,0,1.06122,-52.6184,-40.6792)">
                            <circle cx="221.035" cy="177.227" r="1.587" style="fill:rgb(173,137,216);"/>
                        </g>
                        <g transform="matrix(1.43914,0,0,1.4391,-161.417,-75.3161)">
                            <circle cx="221.035" cy="177.227" r="1.587" style="fill:rgb(173,137,216);"/>
                        </g>
                    </g>
                </g>
                <path d="M247.459,169.724C247.459,147.311 229.263,129.116 206.85,129.116L190.171,129.116C167.758,129.116 149.562,147.311 149.562,169.724L149.562,186.405C149.562,208.817 167.758,227.013 190.171,227.013L206.85,227.013C229.263,227.013 247.459,208.817 247.459,186.405L247.459,169.724ZM241.091,169.724L241.091,186.405C241.091,205.303 225.748,220.645 206.85,220.645L190.171,220.645C171.272,220.645 155.929,205.303 155.929,186.405C155.929,186.405 155.929,169.724 155.929,169.724C155.929,150.826 171.272,135.483 190.171,135.483C190.171,135.483 206.85,135.483 206.85,135.483C225.748,135.483 241.091,150.826 241.091,169.724Z" style="fill:rgb(190,160,223);"/>
            </g>
        </g>
    </g>
</svg>
