<?xml version="1.0" encoding="UTF-8" standalone="no"?>
<!DOCTYPE svg PUBLIC "-//W3C//DTD SVG 1.1//EN" "http://www.w3.org/Graphics/SVG/1.1/DTD/svg11.dtd">
<svg width="100%" height="100%" viewBox="0 0 117 117" version="1.1" xmlns="http://www.w3.org/2000/svg" xmlns:xlink="http://www.w3.org/1999/xlink" xml:space="preserve" xmlns:serif="http://www.serif.com/" style="fill-rule:evenodd;clip-rule:evenodd;stroke-linecap:round;stroke-linejoin:round;stroke-miterlimit:1.5;">
    <g transform="matrix(1,0,0,1,-303,-216)">
        <g id="Artboard1" transform="matrix(0.291424,0,0,0.291424,303.226,216.349)">
            <rect x="0" y="0" width="400" height="400" style="fill:none;"/>
            <g transform="matrix(9.84061,0,0,9.84061,-83.5669,-2355.33)">
                <circle cx="28.816" cy="259.672" r="14.82" style="fill:rgb(198,228,190);"/>
            </g>
            <g transform="matrix(-5.5746e-17,0.910402,0.910402,5.5746e-17,19.2387,17.0426)">
                <g transform="matrix(3.43142,0,0,3.43142,-1040.5,-1098.45)">
                    <path d="M376.655,359.353L376.661,359.337C376.661,359.337 376.551,359.172 377.103,358.866C377.654,358.559 403.885,342.779 403.885,342.779C403.885,342.779 404.706,342.2 405.468,342.687C406.23,343.175 407.297,344.768 407.297,344.768L407.341,344.84C407.824,344.871 408.128,345.367 408.128,345.367C408.128,345.367 413.322,353.747 413.887,354.615C414.185,355.072 414.102,355.422 413.956,355.651L413.992,355.71C413.992,355.71 415.89,358.806 414.638,359.537C413.386,360.267 387.54,376.352 387.54,376.352C387.54,376.352 387.324,376.498 387.141,376.467L387.141,376.467C387.075,376.986 386.738,377.15 386.738,377.15L334.669,408.942C334.669,408.942 333.739,409.169 333.474,408.784C333.21,408.398 332.852,408.168 332.852,408.168C327.511,406.743 323.39,407.456 316.205,412.397C315.677,412.531 315.18,412.539 314.704,412.46C314.704,412.46 314.538,412.283 314.286,411.984L311.928,413.46C311.928,413.46 309.118,411.944 308.748,411.738C308.444,411.569 308.53,411.366 308.53,411.366C308.788,410.203 311.746,408.553 312.103,408.358C312.055,408.198 312.016,408.04 311.988,407.883C311.616,405.798 317.171,405.761 321.473,399.39C321.473,399.39 323.506,397.08 323.757,392.938C323.757,392.938 323.071,392.053 324.239,391.358L375.486,359.647C375.486,359.647 376.094,359.242 376.655,359.353Z" style="fill:none;stroke:black;stroke-width:2px;"/>
                </g>
                <g transform="matrix(3.43142,0,0,3.43142,-1040.5,-1098.45)">
                    <path d="M312.139,408.339C312.139,408.339 308.805,410.128 308.53,411.366C308.53,411.366 308.444,411.569 308.748,411.738C309.118,411.944 311.928,413.46 311.928,413.46L314.298,411.977L312.675,408.017L312.139,408.339" style="fill:rgb(63,153,61);"/>
                </g>
                <g transform="matrix(3.43142,0,0,3.43142,-1040.5,-1098.45)">
                    <path d="M332.852,408.168C327.511,406.743 323.39,407.456 316.205,412.397C315.677,412.531 315.18,412.539 314.704,412.46C314.704,412.46 312.36,409.968 311.988,407.883C311.616,405.798 317.171,405.761 321.473,399.39C321.473,399.39 323.506,397.08 323.757,392.938L325.147,392.334L333.819,407.536L332.852,408.168Z" style="fill:rgb(91,237,108);"/>
                </g>
                <g transform="matrix(3.43142,0,0,3.43142,-1040.5,-1098.45)">
                    <path d="M376.661,359.337C376.661,359.337 376.551,359.172 377.103,358.866C377.654,358.559 403.885,342.779 403.885,342.779C403.885,342.779 404.706,342.2 405.468,342.687C406.23,343.175 407.297,344.768 407.297,344.768L413.992,355.71C413.992,355.71 415.89,358.806 414.638,359.537C413.386,360.267 387.54,376.352 387.54,376.352C387.54,376.352 387.324,376.498 387.141,376.467C386.959,376.435 386.243,375.305 386.243,375.305L376.261,360.381L376.661,359.337Z" style="fill:rgb(45,50,75);"/>
                </g>
                <g transform="matrix(3.43142,0,0,3.43142,-1040.5,-1098.45)">
                    <path d="M323.757,392.938C323.757,392.938 323.071,392.053 324.239,391.358L375.486,359.647C375.486,359.647 376.468,358.992 377.088,359.576C377.708,360.161 379.152,362.346 379.152,362.346C379.152,362.346 386.003,373.389 386.811,375.055C387.62,376.721 386.738,377.15 386.738,377.15L334.669,408.942C334.669,408.942 333.739,409.169 333.474,408.784C333.21,408.398 332.852,408.168 332.852,408.168L323.757,392.938Z" style="fill:rgb(124,240,116);"/>
                </g>
                <g transform="matrix(3.43142,0,0,3.43142,-1040.5,-1098.45)">
                    <path d="M383.087,359.554C383.087,359.554 380.755,360.785 381.9,363.641L385.506,369.628C385.506,369.628 387.093,372.172 390.204,370.283C393.316,368.394 413.644,355.965 413.644,355.965C413.644,355.965 414.453,355.483 413.887,354.615C413.322,353.747 408.128,345.367 408.128,345.367C408.128,345.367 407.609,344.521 406.85,344.971C406.09,345.42 383.087,359.554 383.087,359.554Z" style="fill:rgb(49,75,108);"/>
                </g>
            </g>
        </g>
    </g>
</svg>
