<?xml version="1.0" encoding="UTF-8" standalone="no"?>
<!DOCTYPE svg PUBLIC "-//W3C//DTD SVG 1.1//EN" "http://www.w3.org/Graphics/SVG/1.1/DTD/svg11.dtd">
<svg width="100%" height="100%" viewBox="0 0 93 93" version="1.1"
    xmlns="http://www.w3.org/2000/svg"
    xmlns:xlink="http://www.w3.org/1999/xlink" xml:space="preserve"
    xmlns:serif="http://www.serif.com/" style="fill-rule:evenodd;clip-rule:evenodd;stroke-linecap:round;stroke-linejoin:round;stroke-miterlimit:1.5;">
    <g transform="matrix(1,0,0,1,-153,-12)">
        <g transform="matrix(0.291424,0,0,0.291424,141.438,0)">
            <g transform="matrix(3.23338,0,0,3.23347,-441.859,-375.765)">
                <path d="M247.459,169.724C247.459,147.311 229.263,129.116 206.85,129.116L190.171,129.116C167.758,129.116 149.562,147.311 149.562,169.724L149.562,186.405C149.562,208.817 167.758,227.013 190.171,227.013L206.85,227.013C229.263,227.013 247.459,208.817 247.459,186.405L247.459,169.724Z" style="fill:#F38CA8"/>
                <clipPath id="_clip2">
                    <path d="M247.459,169.724C247.459,147.311 229.263,129.116 206.85,129.116L190.171,129.116C167.758,129.116 149.562,147.311 149.562,169.724L149.562,186.405C149.562,208.817 167.758,227.013 190.171,227.013L206.85,227.013C229.263,227.013 247.459,208.817 247.459,186.405L247.459,169.724Z"/>
                </clipPath>
                <g clip-path="url(#_clip2)">
                    <g transform="matrix(1.06125,0,0,1.06122,-22.0291,124.683)">
                        <path d="M158.558,80.01L186.384,80.01" style="fill:none;stroke:rgb(250,172,185);stroke-width:4px;"/>
                    </g>
                    <g transform="matrix(1.06125,0,0,1.06122,32.9843,117.883)">
                        <path d="M158.558,80.01L186.384,80.01" style="fill:none;stroke:rgb(250,172,185);stroke-width:4px;"/>
                    </g>
                    <g transform="matrix(1.14949,0,0,1.14946,55.6062,110.823)">
                        <path d="M158.558,80.01L186.384,80.01" style="fill:none;stroke:rgb(250,172,185);stroke-width:3.69px;"/>
                    </g>
                    <g transform="matrix(1.06125,0,0,1.06122,0.71041,117.883)">
                        <path d="M158.558,80.01L186.384,80.01" style="fill:none;stroke:rgb(250,172,185);stroke-width:4px;"/>
                    </g>
                    <g transform="matrix(1.06125,0,0,1.06122,-37.3261,117.883)">
                        <path d="M158.558,80.01L186.384,80.01" style="fill:none;stroke:rgb(250,172,185);stroke-width:4px;"/>
                    </g>
                    <g transform="matrix(1.06125,0,0,1.06122,51.2158,124.683)">
                        <path d="M158.558,80.01L186.384,80.01" style="fill:none;stroke:rgb(250,172,185);stroke-width:4px;"/>
                    </g>
                    <g transform="matrix(0.671979,0,0,0.67196,88.4828,169.429)">
                        <path d="M158.558,80.01L186.384,80.01" style="fill:none;stroke:rgb(250,172,185);stroke-width:6.32px;"/>
                    </g>
                    <g transform="matrix(0.671979,0,0,0.67196,59.1512,169.429)">
                        <path d="M158.558,80.01L186.384,80.01" style="fill:none;stroke:rgb(250,172,185);stroke-width:6.32px;"/>
                    </g>
                    <g transform="matrix(0.671979,0,0,0.67196,114.187,169.429)">
                        <path d="M158.558,80.01L186.384,80.01" style="fill:none;stroke:rgb(250,172,185);stroke-width:6.32px;"/>
                    </g>
                    <g transform="matrix(1.26091,0,0,1.26088,-39.9834,115.509)">
                        <path d="M158.558,80.01L186.384,80.01" style="fill:none;stroke:rgb(250,172,185);stroke-width:3.37px;"/>
                    </g>
                    <g transform="matrix(0.350371,0,0,0.350361,153.3,188.36)">
                        <path d="M158.558,80.01L186.384,80.01" style="fill:none;stroke:rgb(250,172,185);stroke-width:12.12px;"/>
                    </g>
                    <g transform="matrix(0.350371,0,0,0.350361,172.563,188.36)">
                        <path d="M158.558,80.01L186.384,80.01" style="fill:none;stroke:rgb(250,172,185);stroke-width:12.12px;"/>
                    </g>
                    <g transform="matrix(2.13647,0,0,2.13641,-158.272,113.82)">
                        <path d="M153.721,11.979C153.928,14.062 155.073,15.207 157.156,15.414C155.236,15.784 154.091,16.929 153.721,18.849C153.474,16.807 152.304,15.686 150.286,15.414C152.278,15.116 153.387,13.935 153.721,11.979Z" style="fill:none;stroke:rgb(250,172,185);stroke-width:0.99px;"/>
                    </g>
                    <g transform="matrix(1.60494,0.747361,-0.747383,1.60489,-30.0159,-5.7242)">
                        <path d="M153.721,11.979C153.928,14.062 155.073,15.207 157.156,15.414C155.236,15.784 154.091,16.929 153.721,18.849C153.474,16.807 152.304,15.686 150.286,15.414C152.278,15.116 153.387,13.935 153.721,11.979Z" style="fill:none;stroke:rgb(250,172,185);stroke-width:1.2px;"/>
                    </g>
                    <g transform="matrix(0.511376,0,0,0.511376,110.982,75.7572)">
                        <g transform="matrix(1.06125,0,0,1.06122,-13.4455,116.211)">
                            <path d="M224.983,21.312L224.983,28.362" style="fill:none;stroke:rgb(250,172,185);stroke-width:3.91px;"/>
                        </g>
                        <g transform="matrix(-1.94949e-16,1.06122,-1.06125,-1.94943e-16,251.676,-96.1875)">
                            <path d="M224.983,21.312L224.983,28.362" style="fill:none;stroke:rgb(250,172,185);stroke-width:3.91px;"/>
                        </g>
                    </g>
                    <g transform="matrix(0.4298,0.277079,-0.277095,0.4298,124.801,8.58475)">
                        <g transform="matrix(1.06125,0,0,1.06122,-13.4455,116.211)">
                            <path d="M224.983,21.312L224.983,28.362" style="fill:none;stroke:rgb(250,172,185);stroke-width:3.91px;"/>
                        </g>
                        <g transform="matrix(-1.94949e-16,1.06122,-1.06125,-1.94943e-16,251.676,-96.1875)">
                            <path d="M224.983,21.312L224.983,28.362" style="fill:none;stroke:rgb(250,172,185);stroke-width:3.91px;"/>
                        </g>
                    </g>
                </g>
            </g>
            <g transform="matrix(3.43142,0,0,3.43142,-485.333,0)">
                <path d="M168.513,41.363L199.723,24.816L231.283,41.375L199.723,59.723L168.513,41.363Z" style="fill:rgb(126,193,205);"/>
            </g>
            <g transform="matrix(2.6387,0,0,2.6387,-326.869,74.1611)">
                <circle cx="199.898" cy="49.559" r="10.722" style="fill:white;"/>
            </g>
            <g transform="matrix(-3.43142,0,0,3.43142,900.623,-10.6716)">
                <path d="M204.178,27.995L172.618,44.485L204.178,27.995Z" style="fill:none;stroke:rgb(253,249,230);stroke-width:3px;"/>
            </g>
            <g transform="matrix(3.43142,0,0,3.43142,-500.623,-10.6716)">
                <path d="M204.178,27.995L172.618,44.485L204.178,27.995Z" style="fill:none;stroke:rgb(253,249,230);stroke-width:3px;"/>
            </g>
            <g transform="matrix(3.43142,0,0,3.43142,-485.333,0)">
                <path d="M199.723,58.285L182.027,42.269" style="fill:none;stroke:white;stroke-width:1.5px;"/>
            </g>
            <g transform="matrix(3.43142,0,0,3.43142,-485.333,0)">
                <path d="M176.403,37.18L180.423,40.665" style="fill:none;stroke:white;stroke-width:1.5px;"/>
            </g>
            <g transform="matrix(3.43142,0,0,3.43142,-485.333,0)">
                <path d="M199.723,58.285L191.671,43.533" style="fill:none;stroke:white;stroke-width:1.5px;"/>
            </g>
            <g transform="matrix(3.43142,0,0,3.43142,-485.333,0)">
                <path d="M183.942,29.374L188.825,38.32" style="fill:none;stroke:white;stroke-width:1.5px;"/>
            </g>
            <g transform="matrix(3.43142,0,0,3.43142,-485.333,0)">
                <path d="M199.723,58.285L199.723,35.803" style="fill:none;stroke:white;stroke-width:1.5px;"/>
            </g>
            <g transform="matrix(3.43142,0,0,3.43142,-485.333,0)">
                <path d="M199.723,20.347L199.723,31.496" style="fill:none;stroke:white;stroke-width:1.5px;"/>
            </g>
            <g transform="matrix(3.43142,0,0,3.43142,-485.333,0)">
                <path d="M199.723,58.285L205.35,48.036" style="fill:none;stroke:white;stroke-width:1.5px;"/>
            </g>
            <g transform="matrix(3.43142,0,0,3.43142,-461.313,-44.6085)">
                <path d="M199.723,58.285L207.919,43.356" style="fill:none;stroke:white;stroke-width:1.5px;"/>
            </g>
            <g transform="matrix(3.43142,0,0,3.43142,-485.333,0)">
                <path d="M199.723,58.285L213.996,45.913" style="fill:none;stroke:white;stroke-width:1.5px;"/>
            </g>
            <g transform="matrix(3.43142,0,0,3.43142,-485.333,0)">
                <path d="M170.531,77.59C169.064,76.737 168.162,75.169 168.162,73.473C168.162,65.254 168.162,41.375 168.162,41.375L199.723,59.723L231.283,41.375L231.283,73.473C231.283,75.169 230.381,76.737 228.914,77.59C223.066,80.99 207.991,89.754 202.116,93.169C200.636,94.029 198.809,94.029 197.329,93.169C191.455,89.754 176.38,80.99 170.531,77.59Z" style="fill:rgb(253,249,230);stroke:rgb(253,249,230);stroke-width:3px;"/>
            </g>
            <g transform="matrix(-2.95513,0,0,3.0054,815.504,17.4059)">
                <path d="M204.178,64.476C204.178,63.458 203.631,62.514 202.739,61.996C198.232,59.376 184.261,51.254 177.04,47.056C176.134,46.529 175.011,46.52 174.096,47.033C173.182,47.546 172.618,48.501 172.618,49.536C172.618,57.525 172.618,72.682 172.618,77.679C172.618,78.698 173.165,79.641 174.057,80.159C178.564,82.78 192.535,90.902 199.756,95.1C200.662,95.626 201.786,95.635 202.7,95.122C203.614,94.609 204.178,93.654 204.178,92.619C204.178,84.63 204.178,69.474 204.178,64.476Z" style="fill:rgb(126,193,205);"/>
            </g>
            <g transform="matrix(2.95513,0,0,3.0054,-415.504,17.4059)">
                <path d="M204.178,64.476C204.178,63.458 203.631,62.514 202.739,61.996C198.232,59.376 184.261,51.254 177.04,47.056C176.134,46.529 175.011,46.52 174.096,47.033C173.182,47.546 172.618,48.501 172.618,49.536C172.618,57.525 172.618,72.682 172.618,77.679C172.618,78.698 173.165,79.641 174.057,80.159C178.564,82.78 192.535,90.902 199.756,95.1C200.662,95.626 201.786,95.635 202.7,95.122C203.614,94.609 204.178,93.654 204.178,92.619C204.178,84.63 204.178,69.474 204.178,64.476Z" style="fill:rgb(126,193,205);"/>
            </g>
        </g>
    </g>
    <defs>
        <linearGradient id="_Linear1" x1="0" y1="0" x2="1" y2="0" gradientUnits="userSpaceOnUse" gradientTransform="matrix(75.9285,70.3143,-70.3163,75.9264,165.389,137.561)">
            <stop offset="0" style="stop-color:rgb(245,153,179);stop-opacity:1"/>
            <stop offset="1" style="stop-color:rgb(243,136,165);stop-opacity:1"/>
        </linearGradient>
    </defs>
</svg>
