<?xml version="1.0" encoding="UTF-8" standalone="no"?>
<!DOCTYPE svg PUBLIC "-//W3C//DTD SVG 1.1//EN" "http://www.w3.org/Graphics/SVG/1.1/DTD/svg11.dtd">
<svg width="100%" height="100%" viewBox="0 0 93 93" version="1.1" xmlns="http://www.w3.org/2000/svg" xmlns:xlink="http://www.w3.org/1999/xlink" xml:space="preserve" xmlns:serif="http://www.serif.com/" style="fill-rule:evenodd;clip-rule:evenodd;stroke-linejoin:round;stroke-miterlimit:2;">
    <g transform="matrix(1,0,0,1,-295,-12)">
        <g transform="matrix(0.291424,0,0,0.291424,282.876,0)">
            <g transform="matrix(3.23338,0,0,3.23347,-441.859,-375.765)">
                <path d="M247.459,169.724C247.459,147.311 229.263,129.116 206.85,129.116L190.171,129.116C167.758,129.116 149.562,147.311 149.562,169.724L149.562,186.405C149.562,208.817 167.758,227.013 190.171,227.013L206.85,227.013C229.263,227.013 247.459,208.817 247.459,186.405L247.459,169.724Z" style="fill:rgb(247,210,121);"/>
                <clipPath id="_clip1">
                    <path d="M247.459,169.724C247.459,147.311 229.263,129.116 206.85,129.116L190.171,129.116C167.758,129.116 149.562,147.311 149.562,169.724L149.562,186.405C149.562,208.817 167.758,227.013 190.171,227.013L206.85,227.013C229.263,227.013 247.459,208.817 247.459,186.405L247.459,169.724Z"/>
                </clipPath>
                <g clip-path="url(#_clip1)">
                    <g transform="matrix(0.660439,0,0,2.27829,-19.6491,-9.1646)">
                        <path d="M310.722,67.486C308.806,67.486 306.968,67.266 305.613,66.873C304.258,66.48 303.497,65.948 303.497,65.392C303.497,65.392 303.497,65.391 303.497,65.39C303.497,64.835 304.258,64.302 305.613,63.91C306.968,63.517 308.806,63.296 310.722,63.296C319.109,63.296 331.806,63.296 331.806,63.296C331.806,63.296 331.602,63.122 331.268,62.838C330.52,62.201 331.276,61.496 333.139,61.094C335.002,60.692 337.547,60.684 339.439,61.075C344.553,62.13 350.123,63.28 354.228,64.128C355.638,64.419 356.475,64.89 356.475,65.391C356.475,65.893 355.638,66.364 354.228,66.655C350.123,67.502 344.553,68.652 339.439,69.708C337.547,70.098 335.002,70.091 333.139,69.689C331.276,69.287 330.52,68.582 331.268,67.945C331.602,67.661 331.806,67.486 331.806,67.486L310.722,67.486Z" style="fill:rgb(251,191,101);"/>
                    </g>
                    <g transform="matrix(0.660439,0,0,2.27829,2.80341,13.1313)">
                        <path d="M310.722,67.486C308.806,67.486 306.968,67.266 305.613,66.873C304.258,66.48 303.497,65.948 303.497,65.392C303.497,65.392 303.497,65.391 303.497,65.39C303.497,64.835 304.258,64.302 305.613,63.91C306.968,63.517 308.806,63.296 310.722,63.296C319.109,63.296 331.806,63.296 331.806,63.296C331.806,63.296 331.602,63.122 331.268,62.838C330.52,62.201 331.276,61.496 333.139,61.094C335.002,60.692 337.547,60.684 339.439,61.075C344.553,62.13 350.123,63.28 354.228,64.128C355.638,64.419 356.475,64.89 356.475,65.391C356.475,65.893 355.638,66.364 354.228,66.655C350.123,67.502 344.553,68.652 339.439,69.708C337.547,70.098 335.002,70.091 333.139,69.689C331.276,69.287 330.52,68.582 331.268,67.945C331.602,67.661 331.806,67.486 331.806,67.486L310.722,67.486Z" style="fill:rgb(251,191,101);"/>
                    </g>
                    <g transform="matrix(0.660439,0,0,2.27829,21.7304,37.6428)">
                        <path d="M310.722,67.486C308.806,67.486 306.968,67.266 305.613,66.873C304.258,66.48 303.497,65.948 303.497,65.392C303.497,65.392 303.497,65.391 303.497,65.39C303.497,64.835 304.258,64.302 305.613,63.91C306.968,63.517 308.806,63.296 310.722,63.296C319.109,63.296 331.806,63.296 331.806,63.296C331.806,63.296 331.602,63.122 331.268,62.838C330.52,62.201 331.276,61.496 333.139,61.094C335.002,60.692 337.547,60.684 339.439,61.075C344.553,62.13 350.123,63.28 354.228,64.128C355.638,64.419 356.475,64.89 356.475,65.391C356.475,65.893 355.638,66.364 354.228,66.655C350.123,67.502 344.553,68.652 339.439,69.708C337.547,70.098 335.002,70.091 333.139,69.689C331.276,69.287 330.52,68.582 331.268,67.945C331.602,67.661 331.806,67.486 331.806,67.486L310.722,67.486Z" style="fill:rgb(251,191,101);"/>
                    </g>
                    <g transform="matrix(0.660439,0,0,2.27829,-13.507,50.7577)">
                        <path d="M310.722,67.486C308.806,67.486 306.968,67.266 305.613,66.873C304.258,66.48 303.497,65.948 303.497,65.392C303.497,65.392 303.497,65.391 303.497,65.39C303.497,64.835 304.258,64.302 305.613,63.91C306.968,63.517 308.806,63.296 310.722,63.296C319.109,63.296 331.806,63.296 331.806,63.296C331.806,63.296 331.602,63.122 331.268,62.838C330.52,62.201 331.276,61.496 333.139,61.094C335.002,60.692 337.547,60.684 339.439,61.075C344.553,62.13 350.123,63.28 354.228,64.128C355.638,64.419 356.475,64.89 356.475,65.391C356.475,65.893 355.638,66.364 354.228,66.655C350.123,67.502 344.553,68.652 339.439,69.708C337.547,70.098 335.002,70.091 333.139,69.689C331.276,69.287 330.52,68.582 331.268,67.945C331.602,67.661 331.806,67.486 331.806,67.486L310.722,67.486Z" style="fill:rgb(251,191,101);"/>
                    </g>
                    <g transform="matrix(0.660439,0,0,2.27829,17.8496,66.698)">
                        <path d="M310.722,67.486C308.806,67.486 306.968,67.266 305.613,66.873C304.258,66.48 303.497,65.948 303.497,65.392C303.497,65.392 303.497,65.391 303.497,65.39C303.497,64.835 304.258,64.302 305.613,63.91C306.968,63.517 308.806,63.296 310.722,63.296C319.109,63.296 331.806,63.296 331.806,63.296C331.806,63.296 331.602,63.122 331.268,62.838C330.52,62.201 331.276,61.496 333.139,61.094C335.002,60.692 337.547,60.684 339.439,61.075C344.553,62.13 350.123,63.28 354.228,64.128C355.638,64.419 356.475,64.89 356.475,65.391C356.475,65.893 355.638,66.364 354.228,66.655C350.123,67.502 344.553,68.652 339.439,69.708C337.547,70.098 335.002,70.091 333.139,69.689C331.276,69.287 330.52,68.582 331.268,67.945C331.602,67.661 331.806,67.486 331.806,67.486L310.722,67.486Z" style="fill:rgb(251,191,101);"/>
                    </g>
                    <g transform="matrix(0.660439,0,0,2.27829,-40.2862,69.1071)">
                        <path d="M310.722,67.486C308.806,67.486 306.968,67.266 305.613,66.873C304.258,66.48 303.497,65.948 303.497,65.392C303.497,65.392 303.497,65.391 303.497,65.39C303.497,64.835 304.258,64.302 305.613,63.91C306.968,63.517 308.806,63.296 310.722,63.296C319.109,63.296 331.806,63.296 331.806,63.296C331.806,63.296 331.602,63.122 331.268,62.838C330.52,62.201 331.276,61.496 333.139,61.094C335.002,60.692 337.547,60.684 339.439,61.075C344.553,62.13 350.123,63.28 354.228,64.128C355.638,64.419 356.475,64.89 356.475,65.391C356.475,65.893 355.638,66.364 354.228,66.655C350.123,67.502 344.553,68.652 339.439,69.708C337.547,70.098 335.002,70.091 333.139,69.689C331.276,69.287 330.52,68.582 331.268,67.945C331.602,67.661 331.806,67.486 331.806,67.486L310.722,67.486Z" style="fill:rgb(251,191,101);"/>
                    </g>
                    <g transform="matrix(0.660439,0,0,2.27829,-54.9106,43.6221)">
                        <path d="M310.722,67.486C308.806,67.486 306.968,67.266 305.613,66.873C304.258,66.48 303.497,65.948 303.497,65.392C303.497,65.392 303.497,65.391 303.497,65.39C303.497,64.835 304.258,64.302 305.613,63.91C306.968,63.517 308.806,63.296 310.722,63.296C319.109,63.296 331.806,63.296 331.806,63.296C331.806,63.296 331.602,63.122 331.268,62.838C330.52,62.201 331.276,61.496 333.139,61.094C335.002,60.692 337.547,60.684 339.439,61.075C344.553,62.13 350.123,63.28 354.228,64.128C355.638,64.419 356.475,64.89 356.475,65.391C356.475,65.893 355.638,66.364 354.228,66.655C350.123,67.502 344.553,68.652 339.439,69.708C337.547,70.098 335.002,70.091 333.139,69.689C331.276,69.287 330.52,68.582 331.268,67.945C331.602,67.661 331.806,67.486 331.806,67.486L310.722,67.486Z" style="fill:rgb(251,191,101);"/>
                    </g>
                    <g transform="matrix(0.660439,0,0,2.27829,-58.7922,5.15878)">
                        <path d="M310.722,67.486C308.806,67.486 306.968,67.266 305.613,66.873C304.258,66.48 303.497,65.948 303.497,65.392C303.497,65.392 303.497,65.391 303.497,65.39C303.497,64.835 304.258,64.302 305.613,63.91C306.968,63.517 308.806,63.296 310.722,63.296C319.109,63.296 331.806,63.296 331.806,63.296C331.806,63.296 331.602,63.122 331.268,62.838C330.52,62.201 331.276,61.496 333.139,61.094C335.002,60.692 337.547,60.684 339.439,61.075C344.553,62.13 350.123,63.28 354.228,64.128C355.638,64.419 356.475,64.89 356.475,65.391C356.475,65.893 355.638,66.364 354.228,66.655C350.123,67.502 344.553,68.652 339.439,69.708C337.547,70.098 335.002,70.091 333.139,69.689C331.276,69.287 330.52,68.582 331.268,67.945C331.602,67.661 331.806,67.486 331.806,67.486L310.722,67.486Z" style="fill:rgb(251,191,101);"/>
                    </g>
                    <g transform="matrix(0.660439,0,0,2.27829,25.7672,-6.04909)">
                        <path d="M310.722,67.486C308.806,67.486 306.968,67.266 305.613,66.873C304.258,66.48 303.497,65.948 303.497,65.392C303.497,65.392 303.497,65.391 303.497,65.39C303.497,64.835 304.258,64.302 305.613,63.91C306.968,63.517 308.806,63.296 310.722,63.296C319.109,63.296 331.806,63.296 331.806,63.296C331.806,63.296 331.602,63.122 331.268,62.838C330.52,62.201 331.276,61.496 333.139,61.094C335.002,60.692 337.547,60.684 339.439,61.075C344.553,62.13 350.123,63.28 354.228,64.128C355.638,64.419 356.475,64.89 356.475,65.391C356.475,65.893 355.638,66.364 354.228,66.655C350.123,67.502 344.553,68.652 339.439,69.708C337.547,70.098 335.002,70.091 333.139,69.689C331.276,69.287 330.52,68.582 331.268,67.945C331.602,67.661 331.806,67.486 331.806,67.486L310.722,67.486Z" style="fill:rgb(251,191,101);"/>
                    </g>
                    <g transform="matrix(1.6837,0,0,5.80819,-374.135,-201.249)">
                        <path d="M308.82,67.486C305.88,67.486 303.497,66.796 303.497,65.943C303.497,65.583 303.497,65.199 303.497,64.839C303.497,63.987 305.88,63.296 308.82,63.296C317.02,63.296 331.806,63.296 331.806,63.296C331.806,63.296 329.711,61.51 328.021,60.071C327.728,59.821 328.024,59.544 328.755,59.387C329.486,59.229 330.484,59.226 331.226,59.379C338.809,60.945 352.444,63.759 357.947,64.896C358.501,65.01 358.829,65.194 358.829,65.391C358.829,65.588 358.501,65.773 357.947,65.887C352.444,67.023 338.809,69.838 331.226,71.403C330.484,71.557 329.486,71.553 328.755,71.396C328.024,71.238 327.728,70.962 328.021,70.712C329.711,69.272 331.806,67.486 331.806,67.486L308.82,67.486Z" style="fill:rgb(253,249,230);"/>
                    </g>
                </g>
                <path d="M247.459,169.724C247.459,147.311 229.263,129.116 206.85,129.116L190.171,129.116C167.758,129.116 149.562,147.311 149.562,169.724L149.562,186.405C149.562,208.817 167.758,227.013 190.171,227.013L206.85,227.013C229.263,227.013 247.459,208.817 247.459,186.405L247.459,169.724ZM241.091,169.724L241.091,186.405C241.091,205.303 225.748,220.645 206.85,220.645C206.85,220.645 190.171,220.645 190.171,220.645C171.272,220.645 155.929,205.303 155.929,186.405L155.929,169.724C155.929,150.826 171.272,135.483 190.171,135.483C190.171,135.483 206.85,135.483 206.85,135.483C225.748,135.483 241.091,150.826 241.091,169.724Z" style="fill:rgb(247,210,120);"/>
            </g>
        </g>
    </g>
</svg>
