<svg width="20" height="20" viewBox="0 0 20 20" fill="none"
  xmlns="http://www.w3.org/2000/svg">
  <path d="M2.82486 20C2.04381 20 1.37778 19.7244 0.826776 19.1732C0.275592 18.6222 0 17.9562 0 17.1751C0 16.3941 0.275592 15.7316 0.826776 15.1877C1.37778 14.6436 2.04381 14.3716 2.82486 14.3716C3.60592 14.3716 4.2684 14.6436 4.81229 15.1877C5.35638 15.7316 5.62842 16.3941 5.62842 17.1751C5.62842 17.9562 5.35638 18.6222 4.81229 19.1732C4.2684 19.7244 3.60592 20 2.82486 20ZM10.0036 20C9.23616 20 8.57468 19.7244 8.01913 19.1732C7.46357 18.6222 7.18579 17.9562 7.18579 17.1751C7.18579 16.3941 7.46239 15.7316 8.01557 15.1877C8.56858 14.6436 9.22887 14.3716 9.99645 14.3716C10.7638 14.3716 11.4253 14.6436 11.9809 15.1877C12.5364 15.7316 12.8142 16.3941 12.8142 17.1751C12.8142 17.9562 12.5376 18.6222 11.9844 19.1732C11.4314 19.7244 10.7711 20 10.0036 20ZM17.1751 20C16.3941 20 15.7316 19.7244 15.1877 19.1732C14.6436 18.6222 14.3716 17.9562 14.3716 17.1751C14.3716 16.3941 14.6436 15.7316 15.1877 15.1877C15.7316 14.6436 16.3941 14.3716 17.1751 14.3716C17.9562 14.3716 18.6222 14.6436 19.1732 15.1877C19.7244 15.7316 20 16.3941 20 17.1751C20 17.9562 19.7244 18.6222 19.1732 19.1732C18.6222 19.7244 17.9562 20 17.1751 20ZM2.82486 12.8142C2.04381 12.8142 1.37778 12.5376 0.826776 11.9844C0.275592 11.4314 0 10.7711 0 10.0036C0 9.23616 0.275592 8.57468 0.826776 8.01913C1.37778 7.46357 2.04381 7.18579 2.82486 7.18579C3.60592 7.18579 4.2684 7.46239 4.81229 8.01557C5.35638 8.56858 5.62842 9.22887 5.62842 9.99645C5.62842 10.7638 5.35638 11.4253 4.81229 11.9809C4.2684 12.5364 3.60592 12.8142 2.82486 12.8142ZM10.0036 12.8142C9.23616 12.8142 8.57468 12.5376 8.01913 11.9844C7.46357 11.4314 7.18579 10.7711 7.18579 10.0036C7.18579 9.23616 7.46239 8.57468 8.01557 8.01913C8.56858 7.46357 9.22887 7.18579 9.99645 7.18579C10.7638 7.18579 11.4253 7.46239 11.9809 8.01557C12.5364 8.56858 12.8142 9.22887 12.8142 9.99645C12.8142 10.7638 12.5376 11.4253 11.9844 11.9809C11.4314 12.5364 10.7711 12.8142 10.0036 12.8142ZM17.1751 12.8142C16.3941 12.8142 15.7316 12.5376 15.1877 11.9844C14.6436 11.4314 14.3716 10.7711 14.3716 10.0036C14.3716 9.23616 14.6436 8.57468 15.1877 8.01913C15.7316 7.46357 16.3941 7.18579 17.1751 7.18579C17.9562 7.18579 18.6222 7.46239 19.1732 8.01557C19.7244 8.56858 20 9.22887 20 9.99645C20 10.7638 19.7244 11.4253 19.1732 11.9809C18.6222 12.5364 17.9562 12.8142 17.1751 12.8142ZM2.82486 5.62842C2.04381 5.62842 1.37778 5.35638 0.826776 4.81229C0.275592 4.2684 0 3.60592 0 2.82486C0 2.04381 0.275592 1.37778 0.826776 0.826776C1.37778 0.275592 2.04381 0 2.82486 0C3.60592 0 4.2684 0.275592 4.81229 0.826776C5.35638 1.37778 5.62842 2.04381 5.62842 2.82486C5.62842 3.60592 5.35638 4.2684 4.81229 4.81229C4.2684 5.35638 3.60592 5.62842 2.82486 5.62842ZM10.0036 5.62842C9.23616 5.62842 8.57468 5.35638 8.01913 4.81229C7.46357 4.2684 7.18579 3.60592 7.18579 2.82486C7.18579 2.04381 7.46239 1.37778 8.01557 0.826776C8.56858 0.275592 9.22887 0 9.99645 0C10.7638 0 11.4253 0.275592 11.9809 0.826776C12.5364 1.37778 12.8142 2.04381 12.8142 2.82486C12.8142 3.60592 12.5376 4.2684 11.9844 4.81229C11.4314 5.35638 10.7711 5.62842 10.0036 5.62842ZM17.1751 5.62842C16.3941 5.62842 15.7316 5.35638 15.1877 4.81229C14.6436 4.2684 14.3716 3.60592 14.3716 2.82486C14.3716 2.04381 14.6436 1.37778 15.1877 0.826776C15.7316 0.275592 16.3941 0 17.1751 0C17.9562 0 18.6222 0.275592 19.1732 0.826776C19.7244 1.37778 20 2.04381 20 2.82486C20 3.60592 19.7244 4.2684 19.1732 4.81229C18.6222 5.35638 17.9562 5.62842 17.1751 5.62842Z" fill="currentColor"/>
</svg>
