<svg width="25" height="25" viewBox="0 0 25 25" fill="none" xmlns="http://www.w3.org/2000/svg">
<path d="M24.5 12.7841C24.5 11.8977 24.4205 11.0455 24.2727 10.2273H12.5V15.0682H19.2273C18.9318 16.625 18.0455 17.9432 16.7159 18.8295V21.9773H20.7727C23.1364 19.7955 24.5 16.5909 24.5 12.7841Z" fill="#4285F4"/>
<path d="M12.5 25C15.875 25 18.7045 23.8864 20.7727 21.9773L16.7159 18.8295C15.6023 19.5795 14.1818 20.0341 12.5 20.0341C9.25 20.0341 6.48864 17.8409 5.5 14.8864H1.34091V18.1136C3.39773 22.1932 7.61364 25 12.5 25Z" fill="#34A853"/>
<path d="M5.5 14.875C5.25 14.125 5.10227 13.3295 5.10227 12.5C5.10227 11.6705 5.25 10.875 5.5 10.125V6.89773H1.34091C0.488636 8.57955 0 10.4773 0 12.5C0 14.5227 0.488636 16.4205 1.34091 18.1023L4.57955 15.5795L5.5 14.875Z" fill="#FBBC05"/>
<path d="M12.5 4.97727C14.3409 4.97727 15.9773 5.61364 17.2841 6.84091L20.8636 3.26136C18.6932 1.23864 15.875 0 12.5 0C7.61364 0 3.39773 2.80682 1.34091 6.89773L5.5 10.125C6.48864 7.17045 9.25 4.97727 12.5 4.97727Z" fill="#EA4335"/>
</svg>
