<svg width="18" height="18" viewBox="0 0 18 18" fill="none"
  xmlns="http://www.w3.org/2000/svg">
  <path d="M9 16.5C8.7875 16.5 8.60938 16.4281 8.46563 16.2844C8.32188 16.1406 8.25 15.9625 8.25 15.75V2.25C8.25 2.0375 8.32188 1.85937 8.46563 1.71562C8.60938 1.57187 8.7875 1.5 9 1.5C9.2125 1.5 9.39062 1.57187 9.53438 1.71562C9.67813 1.85937 9.75 2.0375 9.75 2.25V15.75C9.75 15.9625 9.67813 16.1406 9.53438 16.2844C9.39062 16.4281 9.2125 16.5 9 16.5ZM12 12.75C11.7875 12.75 11.6094 12.6781 11.4656 12.5344C11.3219 12.3906 11.25 12.2125 11.25 12V6C11.25 5.7875 11.3219 5.60937 11.4656 5.46562C11.6094 5.32187 11.7875 5.25 12 5.25H12.75C12.9625 5.25 13.1406 5.32187 13.2844 5.46562C13.4281 5.60937 13.5 5.7875 13.5 6V12C13.5 12.2125 13.4281 12.3906 13.2844 12.5344C13.1406 12.6781 12.9625 12.75 12.75 12.75H12ZM5.25 12.75C5.0375 12.75 4.85938 12.6781 4.71563 12.5344C4.57188 12.3906 4.5 12.2125 4.5 12V6C4.5 5.7875 4.57188 5.60937 4.71563 5.46562C4.85938 5.32187 5.0375 5.25 5.25 5.25H6C6.2125 5.25 6.39063 5.32187 6.53438 5.46562C6.67813 5.60937 6.75 5.7875 6.75 6V12C6.75 12.2125 6.67813 12.3906 6.53438 12.5344C6.39063 12.6781 6.2125 12.75 6 12.75H5.25Z" fill="currentColor"/>
</svg>
