<?xml version="1.0" encoding="UTF-8" standalone="no"?>
<!DOCTYPE svg PUBLIC "-//W3C//DTD SVG 1.1//EN" "http://www.w3.org/Graphics/SVG/1.1/DTD/svg11.dtd">
<svg width="100%" height="100%" viewBox="0 0 1024 1024" version="1.1" xmlns="http://www.w3.org/2000/svg" xmlns:xlink="http://www.w3.org/1999/xlink" xml:space="preserve" xmlns:serif="http://www.serif.com/" style="fill-rule:evenodd;clip-rule:evenodd;stroke-linejoin:round;stroke-miterlimit:2;">
    <g id="Background">
        <path d="M518.497,851.066C445.018,850.815 218.312,851.695 235.998,629.519C246.112,502.453 340.995,416.038 356.204,402.185C362.037,396.873 362.267,396.235 360.166,388.575C355.936,373.157 366.613,362.465 363.215,358.739C331.865,324.366 288.245,258.308 309.781,227.706C333.417,194.12 400.016,189.72 408.474,189.162C446.892,186.624 512.178,154.72 586.507,183.485C625.58,198.606 678.158,187.285 709.267,222.699C742.612,260.661 665.455,352.645 657.834,361.731C655.009,365.099 664.251,371.036 659.815,389.574C657.772,398.11 661.697,396.957 668.208,402.829C811.152,531.739 836.318,745.107 699.33,816.196C680.251,826.097 631.346,849.152 518.497,851.066Z" style="fill:rgb(105,72,33);"/>
        <path d="M373.177,414.029C376.662,421.322 374.9,424.742 392.436,433.631C415.936,445.543 450.17,447.11 454.593,449.554C439.246,472.272 438.279,471.638 426.803,496.644C402.484,549.629 433.552,562.268 457.307,550.191C470.722,554.331 499.089,519.862 517.609,467.453C520.666,474.833 553.677,554.527 582.456,543.376C620.868,528.493 574.287,456.029 570.199,449.67C564.847,442.961 565.102,442.954 559.631,436.422C556.523,432.713 569.029,434.798 578.438,432.215C592.169,428.446 591.557,426.683 605.517,424.629C631.239,420.845 641.09,408.353 647.279,412.845C720.591,466.057 768.787,577.635 769.107,643.516C769.631,751.569 727.261,785.394 667.582,807.716C602.976,831.881 254.092,880.151 255.475,665.502C256,583.955 257.858,519.505 373.177,414.029Z" style="fill:rgb(244,217,170);"/>
        <path d="M454.481,365.18C443.578,366.316 443.621,366.268 433.585,370.732C432.977,371.002 397.274,368.386 377.085,344.879C375.92,343.522 345.92,311.806 328.536,268.492C324.552,258.565 337.602,282.033 391.523,275.703C434.537,270.654 434.108,277.207 469.53,289.419C513.06,304.425 553.885,269.04 592.567,276.106C609.074,279.121 646.217,290.337 687.2,266.034C689.913,264.425 696.622,258.662 696.019,260.624C693.786,267.894 662.002,345.576 620.334,363.1C588.289,376.577 582.768,368.27 579.532,367.388C573.553,365.757 573.612,366.283 567.515,366.034C572.296,360.197 571.287,359.695 575.197,353.277C596.703,317.98 570.954,322.974 568.77,323.97C556.219,329.688 537.767,370.252 537.742,373.844C529.802,379.265 529.441,382.757 521.262,377.899C505.819,368.728 499.358,383.056 491.804,378.036C487.648,375.274 487.733,375.391 483.438,372.6C484.119,370.459 457.442,313.851 451.475,311.542C446.515,309.623 427.397,309.62 443.792,343.382C444.181,344.183 447.892,351.826 448.845,353.295C449.947,354.995 454.053,364.219 454.481,365.18Z" style="fill:rgb(244,218,171);"/>
        <path d="M491.498,272.861C489.23,272.556 482.527,273.583 466.44,266.645C419.088,246.224 417.262,254.949 371.507,256.762C341.904,257.935 326.289,242.708 329.921,237.781C347.802,213.527 400.022,210.243 406.533,209.834C459.344,206.512 502.836,176.053 581.449,203.651C631.123,221.09 656.093,206.237 689.027,232.953C695.9,238.529 663.68,269.009 610.5,258.498C544.734,245.5 546.22,270.412 491.498,272.861Z" style="fill:rgb(244,217,170);"/>
        <path d="M706.595,698.791C712.435,698.197 712.451,697.734 713.366,698.653C725.546,710.877 698.253,730.433 702.635,734.341C704.208,735.744 723.649,753.081 714.186,758.02C702.012,764.374 692.703,751.96 690.166,749.977C686.714,747.279 677.736,760.775 674.095,764.184C661.984,775.519 655.946,763.665 655.919,763.492C655.063,757.995 670.607,739.157 672.178,737.252C675.959,732.67 657.474,726.129 657.206,713.524C656.813,695.053 681.488,715.642 683.092,716.981C692.49,724.822 693.168,703.417 706.595,698.791Z" style="fill:rgb(224,171,100);"/>
        <path d="M490.186,436.557C487.747,444.113 460.074,549.008 438.776,533.188C424.34,522.465 482.613,435.831 490.186,436.557Z" style="fill:rgb(191,120,66);"/>
        <path d="M545.207,481.613C525.051,436.803 525.857,431.8 529.383,433.757C551.694,446.139 591.553,518.268 577.374,524.044C567.647,528.005 547.061,485.447 545.207,481.613Z" style="fill:rgb(190,119,65);"/>
        <path d="M373.177,414.029C381.862,408.453 382.228,412.933 391.591,417.287C398.726,420.605 413.054,424.11 417.465,424.713C441.433,427.991 440.412,433.692 464.724,434.081C466.203,434.104 465.539,435.411 454.593,449.554C450.17,447.11 413.936,446.543 390.436,434.631C372.9,425.742 374.662,420.322 373.177,414.029Z" style="fill:rgb(244,217,170);"/>
        <path d="M454.481,365.18C454.053,364.219 446.947,355.995 445.845,354.295C444.892,352.826 440.181,344.183 439.792,343.382C423.397,309.62 449.515,306.623 454.475,308.542C460.442,310.851 484.119,370.459 483.438,372.6C469.409,367.26 469.655,366.416 454.481,365.18Z" style="fill:rgb(244,217,170);"/>
        <path d="M517.609,467.453C505.742,523.941 472.379,555.347 457.307,550.191C470.397,540.247 474.706,535.808 485.101,513.321C504.238,471.924 506.982,430.644 511.019,444.756C514.314,456.277 513.852,456.211 517.609,467.453Z" style="fill:rgb(244,217,170);"/>
        <path d="M567.515,366.034C552.304,366.992 552.473,367.646 537.742,373.844C537.767,370.252 551.219,325.688 563.77,319.97C565.954,318.974 600.703,316.98 579.197,352.277C575.287,358.695 572.296,360.197 567.515,366.034Z" style="fill:rgb(244,217,170);"/>
        <path d="M468.383,386.832C479.387,392.886 484.358,390.93 483.191,403.467C483.093,404.522 487.359,413.461 466.513,413.865C421.452,414.739 438.859,385.9 450.56,384.864C459.609,384.063 459.379,384.926 468.383,386.832Z" style="fill:rgb(191,121,67);"/>
        <path d="M549.478,389.452C576.175,378.913 587,393.836 584.188,402.437C579.336,417.273 562.511,413.79 555.495,413.577C540.056,413.108 537.467,413.089 537.283,404.51C537.053,393.729 540.307,394.948 549.478,389.452Z" style="fill:rgb(191,121,67);"/>
        <path d="M397.337,398.971C393.773,397.443 379.54,392.98 378.573,381.497C377.251,365.785 386.74,380.645 417.563,387.335C418.834,387.611 418.229,388.214 417.675,403.591C417.615,405.258 416.521,405.471 397.337,398.971Z" style="fill:rgb(189,119,65);"/>
        <path d="M634.555,393.572C620.663,403.721 604.352,405.604 604.174,403.68C602.846,389.242 602.242,388.703 603.424,388.382C610.74,386.395 617.65,386.031 637.632,375.818C640.11,374.552 647.723,380.916 634.555,393.572Z" style="fill:rgb(189,118,64);"/>
        <path d="M501.095,410.548C501.111,409.315 501.254,398.705 505.744,395.862C506.464,395.406 511.73,392.072 516.241,397.683C527.114,411.209 508.496,438.235 501.095,410.548Z" style="fill:rgb(186,114,61);"/>
    </g>
</svg>
