<svg width="13" height="17" viewBox="0 0 13 17" fill="none" xmlns="http://www.w3.org/2000/svg">
<path d="M9.79414 2.13385L10.4181 2.49325C11.5671 3.15503 11.9609 4.62399 11.2967 5.77156L6.53017 14.008C5.86593 15.1558 4.39385 15.55 3.24491 14.8883L2.62093 14.5289C1.47198 13.8671 1.07818 12.3981 1.74243 11.2503C2.89719 9.0558 4.86741 5.845 5.80292 4.22848C6.96986 2.21206 8.73472 3.43836 8.74853 3.48988" stroke="#1491D1" stroke-width="0.903211" stroke-miterlimit="1.5" stroke-linecap="round" stroke-linejoin="round"/>
<path d="M8.74751 3.49092C8.74751 3.49092 9.91788 4.52813 9.17442 5.81293L5.10798 12.8402C4.84286 13.2984 4.25542 13.4557 3.79691 13.1916C3.79691 13.1916 2.8788 12.7777 3.40279 11.8722L7.05233 5.56531" stroke="#1491D1" stroke-width="0.854681" stroke-miterlimit="1.5" stroke-linecap="round" stroke-linejoin="round"/>
</svg>
