<svg viewBox="0 0 47 47" fill="none"
  xmlns="http://www.w3.org/2000/svg">
  <path fill-rule="evenodd" clip-rule="evenodd" d="M16.0008 3.35315C18.8231 0.806739 22.7859 -0.421182 26.8054 0.400999L34.5379 1.98303C41.2476 3.35601 45.5792 9.91579 44.2068 16.6256L40.8767 32.902C40.0622 36.8829 37.4199 40.0228 34.0174 41.6324C33.1142 42.4471 32.0964 43.1261 30.9969 43.6461C28.1745 46.1918 24.2129 47.4203 20.1941 46.5983L12.4627 45.0162C5.75259 43.6438 1.42054 37.0835 2.79275 30.3737L6.12283 14.0973L6.20877 13.7086C7.11109 9.91252 9.69005 6.92382 12.9803 5.36682C13.8831 4.55184 14.9014 3.87324 16.0008 3.35315ZM19.9373 9.26623C15.1978 8.29684 10.5631 11.3578 9.59353 16.0973L6.53982 31.024C5.57067 35.7633 8.63075 40.3983 13.3699 41.3678L20.4617 42.818C25.201 43.7871 29.8361 40.7263 30.8054 35.9869L33.8582 21.0612C34.8275 16.3218 31.7674 11.687 27.0281 10.7174L19.9373 9.26623Z" fill="currentColor"/>
</svg>
