<svg width="16" height="16" viewBox="0 0 16 16" fill="none"
  xmlns="http://www.w3.org/2000/svg">
  <path d="M4.00016 14C3.81127 14 3.65294 13.9361 3.52516 13.8083C3.39739 13.6806 3.3335 13.5222 3.3335 13.3333C3.3335 13.1444 3.39739 12.9861 3.52516 12.8583C3.65294 12.7306 3.81127 12.6667 4.00016 12.6667H12.0002C12.1891 12.6667 12.3474 12.7306 12.4752 12.8583C12.6029 12.9861 12.6668 13.1444 12.6668 13.3333C12.6668 13.5222 12.6029 13.6806 12.4752 13.8083C12.3474 13.9361 12.1891 14 12.0002 14H4.00016ZM8.00016 11.3333C6.87794 11.3333 6.00572 10.9833 5.3835 10.2833C4.76127 9.58333 4.45016 8.65556 4.45016 7.5V2.85C4.45016 2.61667 4.53627 2.41667 4.7085 2.25C4.88072 2.08333 5.0835 2 5.31683 2C5.55016 2 5.75016 2.08333 5.91683 2.25C6.0835 2.41667 6.16683 2.61667 6.16683 2.85V7.6C6.16683 8.22222 6.32239 8.72778 6.6335 9.11667C6.94461 9.50556 7.40016 9.7 8.00016 9.7C8.60016 9.7 9.05572 9.50556 9.36683 9.11667C9.67794 8.72778 9.8335 8.22222 9.8335 7.6V2.85C9.8335 2.61667 9.91961 2.41667 10.0918 2.25C10.2641 2.08333 10.4668 2 10.7002 2C10.9335 2 11.1335 2.08333 11.3002 2.25C11.4668 2.41667 11.5502 2.61667 11.5502 2.85V7.5C11.5502 8.65556 11.2391 9.58333 10.6168 10.2833C9.99461 10.9833 9.12239 11.3333 8.00016 11.3333Z" fill="currentColor"/>
</svg>
