<svg width="18" height="18" viewBox="0 0 18 18" fill="none"
  xmlns="http://www.w3.org/2000/svg">
  <path d="M2.25 9.75C2.0375 9.75 1.85937 9.67812 1.71562 9.53437C1.57187 9.39062 1.5 9.2125 1.5 9C1.5 8.7875 1.57187 8.60937 1.71562 8.46562C1.85937 8.32187 2.0375 8.25 2.25 8.25H15.75C15.9625 8.25 16.1406 8.32187 16.2844 8.46562C16.4281 8.60937 16.5 8.7875 16.5 9C16.5 9.2125 16.4281 9.39062 16.2844 9.53437C16.1406 9.67812 15.9625 9.75 15.75 9.75H2.25ZM6 7.5C5.7875 7.5 5.60937 7.42812 5.46562 7.28437C5.32187 7.14062 5.25 6.9625 5.25 6.75V6C5.25 5.7875 5.32187 5.60937 5.46562 5.46562C5.60937 5.32187 5.7875 5.25 6 5.25H12C12.2125 5.25 12.3906 5.32187 12.5344 5.46562C12.6781 5.60937 12.75 5.7875 12.75 6V6.75C12.75 6.9625 12.6781 7.14062 12.5344 7.28437C12.3906 7.42812 12.2125 7.5 12 7.5H6ZM6 12.75C5.7875 12.75 5.60937 12.6781 5.46562 12.5344C5.32187 12.3906 5.25 12.2125 5.25 12V11.25C5.25 11.0375 5.32187 10.8594 5.46562 10.7156C5.60937 10.5719 5.7875 10.5 6 10.5H12C12.2125 10.5 12.3906 10.5719 12.5344 10.7156C12.6781 10.8594 12.75 11.0375 12.75 11.25V12C12.75 12.2125 12.6781 12.3906 12.5344 12.5344C12.3906 12.6781 12.2125 12.75 12 12.75H6Z" fill="currentColor"/>
</svg>
