<svg xmlns="http://www.w3.org/2000/svg" xmlns:xlink="http://www.w3.org/1999/xlink" viewBox="0 0 67 67" preserveAspectRatio="xMidYMid" width="67" height="67" style="shape-rendering: auto; background: rgb(243, 136, 165);"><g id="pattern-group" transform="scale(0.26171875)">










<g data-idx="0" data-dup="" dx="-128" dy="-128" style="opacity: 0; animation: 10s linear 0s infinite normal forwards running animate; transform-box: view-box; transform-origin: 64px -64px;"><g transform="translate(-128,-128)"><circle r="48" cy="64" cx="192" fill="#F37021" data-fill="c1" style="fill: rgb(250, 164, 188);"></circle></g></g><g data-idx="0" data-dup="" dx="128" dy="-128" style="opacity: 0; animation: 10s linear 0s infinite normal forwards running animate; transform-box: view-box; transform-origin: 320px -64px;"><g transform="translate(128,-128)"><circle r="48" cy="64" cx="192" fill="#F37021" data-fill="c1" style="fill: rgb(250, 164, 188);"></circle></g></g><g data-idx="1" data-dup="" dx="-128" dy="-128" style="opacity: 0; animation: 10s linear -0.166667s infinite normal forwards running animate; transform-box: view-box; transform-origin: -64px 64px;"><g transform="translate(-128,-128)"><circle r="48" cy="192" cx="64" fill="#F37021" data-fill="c1" style="fill: rgb(250, 164, 188);"></circle></g></g><g data-idx="1" data-dup="" dx="128" dy="-128" style="opacity: 0; animation: 10s linear -0.166667s infinite normal forwards running animate; transform-box: view-box; transform-origin: 192px 64px;"><g transform="translate(128,-128)"><circle r="48" cy="192" cx="64" fill="#F37021" data-fill="c1" style="fill: rgb(250, 164, 188);"></circle></g></g><g data-idx="2" data-dup="" dx="-128" dy="-128" style="opacity: 0; animation: 10s linear -0.333333s infinite normal forwards running animate; transform-box: view-box; transform-origin: 32px 32px;"><g transform="translate(-128,-128)"><path d="M192.002,128L192,128c-35.346,0-64,28.654-64,64v0.002c-0.001,35.344-28.653,63.996-63.998,63.998H128
	h64.002c35.344-0.001,63.996-28.653,63.998-63.998V131v-3v0v-2V64.002C255.999,99.347,227.347,127.999,192.002,128z M192,240
	c-26.51,0-48-21.49-48-48c0-26.51,21.49-48,48-48s48,21.49,48,48C240,218.51,218.51,240,192,240z" fill="#F37021" data-fill="c1" style="fill: rgb(250, 164, 188);"></path></g></g><g data-idx="2" data-dup="" dx="128" dy="-128" style="opacity: 0; animation: 10s linear -0.333333s infinite normal forwards running animate; transform-box: view-box; transform-origin: 288px 32px;"><g transform="translate(128,-128)"><path d="M192.002,128L192,128c-35.346,0-64,28.654-64,64v0.002c-0.001,35.344-28.653,63.996-63.998,63.998H128
	h64.002c35.344-0.001,63.996-28.653,63.998-63.998V131v-3v0v-2V64.002C255.999,99.347,227.347,127.999,192.002,128z M192,240
	c-26.51,0-48-21.49-48-48c0-26.51,21.49-48,48-48s48,21.49,48,48C240,218.51,218.51,240,192,240z" fill="#F37021" data-fill="c1" style="fill: rgb(250, 164, 188);"></path></g></g><g data-idx="3" data-dup="" dx="-128" dy="-128" style="opacity: 0; animation: 10s linear -0.5s infinite normal forwards running animate; transform-box: view-box; transform-origin: -32px -32px;"><g transform="translate(-128,-128)"><path d="M128,0H64C28.654,0,0,28.654,0,64v64h0.333v0H0v64c0-35.346,28.654-64,64-64l0.002,0
	c35.344-0.001,63.996-28.653,63.998-63.998V64c0-35.346,28.654-64,64-64H128z M64,112c-26.51,0-48-21.49-48-48
	c0-26.51,21.49-48,48-48s48,21.49,48,48C112,90.51,90.51,112,64,112z" fill="#F37021" data-fill="c1" style="fill: rgb(250, 164, 188);"></path></g></g><g data-idx="3" data-dup="" dx="128" dy="-128" style="opacity: 0; animation: 10s linear -0.5s infinite normal forwards running animate; transform-box: view-box; transform-origin: 224px -32px;"><g transform="translate(128,-128)"><path d="M128,0H64C28.654,0,0,28.654,0,64v64h0.333v0H0v64c0-35.346,28.654-64,64-64l0.002,0
	c35.344-0.001,63.996-28.653,63.998-63.998V64c0-35.346,28.654-64,64-64H128z M64,112c-26.51,0-48-21.49-48-48
	c0-26.51,21.49-48,48-48s48,21.49,48,48C112,90.51,90.51,112,64,112z" fill="#F37021" data-fill="c1" style="fill: rgb(250, 164, 188);"></path></g></g><g data-idx="4" data-dup="" dx="-128" dy="-128" style="opacity: 0; animation: 10s linear -0.666667s infinite normal forwards running animate; transform-box: view-box; transform-origin: -64px -64px;"><g transform="translate(-128,-128)"><circle r="48" cy="64" cx="64" fill="#FCB711" data-fill="c2" style="fill: rgb(245, 153, 179);"></circle></g></g><g data-idx="4" data-dup="" dx="128" dy="-128" style="opacity: 0; animation: 10s linear -0.666667s infinite normal forwards running animate; transform-box: view-box; transform-origin: 192px -64px;"><g transform="translate(128,-128)"><circle r="48" cy="64" cx="64" fill="#FCB711" data-fill="c2" style="fill: rgb(245, 153, 179);"></circle></g></g><g data-idx="5" data-dup="" dx="-128" dy="-128" style="opacity: 0; animation: 10s linear -0.833333s infinite normal forwards running animate; transform-box: view-box; transform-origin: 64px 64px;"><g transform="translate(-128,-128)"><circle r="48" cy="192" cx="192" fill="#FCB711" data-fill="c2" style="fill: rgb(245, 153, 179);"></circle></g></g><g data-idx="5" data-dup="" dx="128" dy="-128" style="opacity: 0; animation: 10s linear -0.833333s infinite normal forwards running animate; transform-box: view-box; transform-origin: 320px 64px;"><g transform="translate(128,-128)"><circle r="48" cy="192" cx="192" fill="#FCB711" data-fill="c2" style="fill: rgb(245, 153, 179);"></circle></g></g><g data-idx="0" data-dup="" dx="-128" dy="128" style="opacity: 0; animation: 10s linear 0s infinite normal forwards running animate; transform-box: view-box; transform-origin: 64px 192px;"><g transform="translate(-128,128)"><circle r="48" cy="64" cx="192" fill="#F37021" data-fill="c1" style="fill: rgb(250, 164, 188);"></circle></g></g><g data-idx="0" data-dup="" dx="128" dy="128" style="opacity: 0; animation: 10s linear 0s infinite normal forwards running animate; transform-box: view-box; transform-origin: 320px 192px;"><g transform="translate(128,128)"><circle r="48" cy="64" cx="192" fill="#F37021" data-fill="c1" style="fill: rgb(250, 164, 188);"></circle></g></g><g data-idx="1" data-dup="" dx="-128" dy="128" style="opacity: 0; animation: 10s linear -0.166667s infinite normal forwards running animate; transform-box: view-box; transform-origin: -64px 320px;"><g transform="translate(-128,128)"><circle r="48" cy="192" cx="64" fill="#F37021" data-fill="c1" style="fill: rgb(250, 164, 188);"></circle></g></g><g data-idx="1" data-dup="" dx="128" dy="128" style="opacity: 0; animation: 10s linear -0.166667s infinite normal forwards running animate; transform-box: view-box; transform-origin: 192px 320px;"><g transform="translate(128,128)"><circle r="48" cy="192" cx="64" fill="#F37021" data-fill="c1" style="fill: rgb(250, 164, 188);"></circle></g></g><g data-idx="2" data-dup="" dx="-128" dy="128" style="opacity: 0; animation: 10s linear -0.333333s infinite normal forwards running animate; transform-box: view-box; transform-origin: 32px 288px;"><g transform="translate(-128,128)"><path d="M192.002,128L192,128c-35.346,0-64,28.654-64,64v0.002c-0.001,35.344-28.653,63.996-63.998,63.998H128
	h64.002c35.344-0.001,63.996-28.653,63.998-63.998V131v-3v0v-2V64.002C255.999,99.347,227.347,127.999,192.002,128z M192,240
	c-26.51,0-48-21.49-48-48c0-26.51,21.49-48,48-48s48,21.49,48,48C240,218.51,218.51,240,192,240z" fill="#F37021" data-fill="c1" style="fill: rgb(250, 164, 188);"></path></g></g><g data-idx="2" data-dup="" dx="128" dy="128" style="opacity: 0; animation: 10s linear -0.333333s infinite normal forwards running animate; transform-box: view-box; transform-origin: 288px 288px;"><g transform="translate(128,128)"><path d="M192.002,128L192,128c-35.346,0-64,28.654-64,64v0.002c-0.001,35.344-28.653,63.996-63.998,63.998H128
	h64.002c35.344-0.001,63.996-28.653,63.998-63.998V131v-3v0v-2V64.002C255.999,99.347,227.347,127.999,192.002,128z M192,240
	c-26.51,0-48-21.49-48-48c0-26.51,21.49-48,48-48s48,21.49,48,48C240,218.51,218.51,240,192,240z" fill="#F37021" data-fill="c1" style="fill: rgb(250, 164, 188);"></path></g></g><g data-idx="3" data-dup="" dx="-128" dy="128" style="opacity: 0; animation: 10s linear -0.5s infinite normal forwards running animate; transform-box: view-box; transform-origin: -32px 224px;"><g transform="translate(-128,128)"><path d="M128,0H64C28.654,0,0,28.654,0,64v64h0.333v0H0v64c0-35.346,28.654-64,64-64l0.002,0
	c35.344-0.001,63.996-28.653,63.998-63.998V64c0-35.346,28.654-64,64-64H128z M64,112c-26.51,0-48-21.49-48-48
	c0-26.51,21.49-48,48-48s48,21.49,48,48C112,90.51,90.51,112,64,112z" fill="#F37021" data-fill="c1" style="fill: rgb(250, 164, 188);"></path></g></g><g data-idx="3" data-dup="" dx="128" dy="128" style="opacity: 0; animation: 10s linear -0.5s infinite normal forwards running animate; transform-box: view-box; transform-origin: 224px 224px;"><g transform="translate(128,128)"><path d="M128,0H64C28.654,0,0,28.654,0,64v64h0.333v0H0v64c0-35.346,28.654-64,64-64l0.002,0
	c35.344-0.001,63.996-28.653,63.998-63.998V64c0-35.346,28.654-64,64-64H128z M64,112c-26.51,0-48-21.49-48-48
	c0-26.51,21.49-48,48-48s48,21.49,48,48C112,90.51,90.51,112,64,112z" fill="#F37021" data-fill="c1" style="fill: rgb(250, 164, 188);"></path></g></g><g data-idx="4" data-dup="" dx="-128" dy="128" style="opacity: 0; animation: 10s linear -0.666667s infinite normal forwards running animate; transform-box: view-box; transform-origin: -64px 192px;"><g transform="translate(-128,128)"><circle r="48" cy="64" cx="64" fill="#FCB711" data-fill="c2" style="fill: rgb(245, 153, 179);"></circle></g></g><g data-idx="4" data-dup="" dx="128" dy="128" style="opacity: 0; animation: 10s linear -0.666667s infinite normal forwards running animate; transform-box: view-box; transform-origin: 192px 192px;"><g transform="translate(128,128)"><circle r="48" cy="64" cx="64" fill="#FCB711" data-fill="c2" style="fill: rgb(245, 153, 179);"></circle></g></g><g data-idx="5" data-dup="" dx="-128" dy="128" style="opacity: 0; animation: 10s linear -0.833333s infinite normal forwards running animate; transform-box: view-box; transform-origin: 64px 320px;"><g transform="translate(-128,128)"><circle r="48" cy="192" cx="192" fill="#FCB711" data-fill="c2" style="fill: rgb(245, 153, 179);"></circle></g></g><g data-idx="5" data-dup="" dx="128" dy="128" style="opacity: 0; animation: 10s linear -0.833333s infinite normal forwards running animate; transform-box: view-box; transform-origin: 320px 320px;"><g transform="translate(128,128)"><circle r="48" cy="192" cx="192" fill="#FCB711" data-fill="c2" style="fill: rgb(245, 153, 179);"></circle></g></g></g><style type="text/css">@keyframes animate { 0.00% {animation-timing-function: cubic-bezier(0.59,0.02,0.79,0.52);transform: translate(0.00px,0.00px) rotate(0.00deg) scale(1.00, 1.00) skew(0deg, 0.00deg) ;opacity: 0.00;}26.00% {animation-timing-function: cubic-bezier(0.19,0.49,0.42,0.98);transform: translate(0.00px,0.00px) rotate(0.00deg) ;opacity: 0.55;}50.00% {animation-timing-function: cubic-bezier(0.59,0.02,0.79,0.52);transform: translate(0.00px,0.00px) rotate(0.00deg) ;opacity: 1.00;}76.00% {animation-timing-function: cubic-bezier(0.21,0.48,0.44,0.93);transform: translate(0.00px,0.00px) rotate(0.00deg) ;opacity: 0.45;}100.00% {animation-timing-function: cubic-bezier(0.21,0.48,0.44,0.93);transform: translate(0.00px,0.00px) rotate(0.00deg) ;opacity: 0.00;} }</style><!-- [ldio] generated by https://loading.io --></svg>