<svg xmlns="http://www.w3.org/2000/svg" xmlns:xlink="http://www.w3.org/1999/xlink" viewBox="0 0 102 102" preserveAspectRatio="xMidYMid" width="102" height="102" style="shape-rendering: auto; background: rgb(228, 239, 223);"><g id="pattern-group" transform="scale(0.3984375)" data-fill="c1" style="fill: rgb(240, 249, 232);">








<g data-idx="0" data-dup="" dx="-128" dy="-128" style="opacity: 1; transform-origin: 32px -84.58px; transform: matrix3d(1, 0, 0, 0, 0, 1, 0, 0, 0, 0, 1, 0, 0, 10, 0, 1); animation: 4.54545s linear 0s infinite normal forwards running animate; transform-box: view-box;"><g transform="translate(-128,-128)"><path d="M32,32L32,32c20.295,30.445,65.032,30.445,85.327,0l0,0l0.002,0.004c20.296,30.444,65.031,30.444,85.326-0.001L202.659,32
	l0.009,0.014c20.296,30.441,65.027,30.441,85.323,0L288,32" stroke-miterlimit="10" stroke-linejoin="round" stroke-linecap="round" stroke-width="8" stroke="#000000" fill="none" data-stroke="c1" style="stroke: rgb(240, 249, 232);"></path></g></g><g data-idx="0" data-dup="" dx="128" dy="-128" style="opacity: 1; transform-origin: 288px -84.58px; transform: matrix3d(1, 0, 0, 0, 0, 1, 0, 0, 0, 0, 1, 0, 0, 10, 0, 1); animation: 4.54545s linear 0s infinite normal forwards running animate; transform-box: view-box;"><g transform="translate(128,-128)"><path d="M32,32L32,32c20.295,30.445,65.032,30.445,85.327,0l0,0l0.002,0.004c20.296,30.444,65.031,30.444,85.326-0.001L202.659,32
	l0.009,0.014c20.296,30.441,65.027,30.441,85.323,0L288,32" stroke-miterlimit="10" stroke-linejoin="round" stroke-linecap="round" stroke-width="8" stroke="#000000" fill="none" data-stroke="c1" style="stroke: rgb(240, 249, 232);"></path></g></g><g data-idx="1" data-dup="" dx="-128" dy="-128" style="opacity: 1; transform-origin: 32px 43.42px; transform: matrix3d(1, 0, 0, 0, 0, 1, 0, 0, 0, 0, 1, 0, 0, 10, 0, 1); animation: 4.54545s linear -0.25s infinite normal forwards running animate; transform-box: view-box;"><g transform="translate(-128,-128)"><path d="M32,160L32,160c20.295,30.445,65.032,30.445,85.327,0l0,0l0.002,0.004c20.296,30.444,65.031,30.444,85.326-0.001l0.002-0.003
	l0.009,0.014c20.296,30.441,65.027,30.441,85.323,0L288,160" stroke-miterlimit="10" stroke-linejoin="round" stroke-linecap="round" stroke-width="8" stroke="#000000" fill="none" data-stroke="c1" style="stroke: rgb(240, 249, 232);"></path></g></g><g data-idx="1" data-dup="" dx="128" dy="-128" style="opacity: 1; transform-origin: 288px 43.42px; transform: matrix3d(1, 0, 0, 0, 0, 1, 0, 0, 0, 0, 1, 0, 0, 10, 0, 1); animation: 4.54545s linear -0.25s infinite normal forwards running animate; transform-box: view-box;"><g transform="translate(128,-128)"><path d="M32,160L32,160c20.295,30.445,65.032,30.445,85.327,0l0,0l0.002,0.004c20.296,30.444,65.031,30.444,85.326-0.001l0.002-0.003
	l0.009,0.014c20.296,30.441,65.027,30.441,85.323,0L288,160" stroke-miterlimit="10" stroke-linejoin="round" stroke-linecap="round" stroke-width="8" stroke="#000000" fill="none" data-stroke="c1" style="stroke: rgb(240, 249, 232);"></path></g></g><g data-idx="2" data-dup="r" dx="-128" dy="-128" style="opacity: 1; transform-origin: -32px -20.58px; transform: matrix3d(1, 0, 0, 0, 0, 1, 0, 0, 0, 0, 1, 0, 0, 10, 0, 1); animation: 4.54545s linear -0.5s infinite normal forwards running animate; transform-box: view-box;"><g transform="translate(-128,-128)"><path d="M-32,96L-32,96c20.295,30.445,65.032,30.445,85.327,0l0,0l0.002,0.004c20.296,30.444,65.031,30.444,85.326-0.001L138.659,96
	l0.009,0.014c20.296,30.441,65.027,30.441,85.323,0L224,96" stroke-miterlimit="10" stroke-linejoin="round" stroke-linecap="round" stroke-width="8" stroke="#777777" fill="none" data-stroke="c2" style="stroke: rgb(240, 244, 217);"></path></g></g><g data-idx="2" data-dup="r" dx="128" dy="-128" style="opacity: 1; transform-origin: 224px -20.58px; transform: matrix3d(1, 0, 0, 0, 0, 1, 0, 0, 0, 0, 1, 0, 0, 10, 0, 1); animation: 4.54545s linear -0.5s infinite normal forwards running animate; transform-box: view-box;"><g transform="translate(128,-128)"><path d="M-32,96L-32,96c20.295,30.445,65.032,30.445,85.327,0l0,0l0.002,0.004c20.296,30.444,65.031,30.444,85.326-0.001L138.659,96
	l0.009,0.014c20.296,30.441,65.027,30.441,85.323,0L224,96" stroke-miterlimit="10" stroke-linejoin="round" stroke-linecap="round" stroke-width="8" stroke="#777777" fill="none" data-stroke="c2" style="stroke: rgb(240, 244, 217);"></path></g></g><g data-idx="3" data-dup="r" dx="-128" dy="-128" style="opacity: 1; transform-origin: -32px 107.42px; transform: matrix3d(1, 0, 0, 0, 0, 1, 0, 0, 0, 0, 1, 0, 0, 10, 0, 1); animation: 4.54545s linear -0.75s infinite normal forwards running animate; transform-box: view-box;"><g transform="translate(-128,-128)"><path d="M-32,224L-32,224c20.295,30.445,65.032,30.445,85.327,0l0,0l0,0.001c20.297,30.445,65.034,30.445,85.33-0.001l0,0l0.007,0.011
	c20.297,30.442,65.031,30.442,85.327,0L224,224" stroke-miterlimit="10" stroke-linejoin="round" stroke-linecap="round" stroke-width="8" stroke="#777777" fill="none" data-stroke="c2" style="stroke: rgb(240, 244, 217);"></path></g></g><g data-idx="3" data-dup="r" dx="128" dy="-128" style="opacity: 1; transform-origin: 224px 107.42px; transform: matrix3d(1, 0, 0, 0, 0, 1, 0, 0, 0, 0, 1, 0, 0, 10, 0, 1); animation: 4.54545s linear -0.75s infinite normal forwards running animate; transform-box: view-box;"><g transform="translate(128,-128)"><path d="M-32,224L-32,224c20.295,30.445,65.032,30.445,85.327,0l0,0l0,0.001c20.297,30.445,65.034,30.445,85.33-0.001l0,0l0.007,0.011
	c20.297,30.442,65.031,30.442,85.327,0L224,224" stroke-miterlimit="10" stroke-linejoin="round" stroke-linecap="round" stroke-width="8" stroke="#777777" fill="none" data-stroke="c2" style="stroke: rgb(240, 244, 217);"></path></g></g><g data-idx="0" data-dup="" dx="-128" dy="128" style="opacity: 1; transform-origin: 32px 171.42px; transform: matrix3d(1, 0, 0, 0, 0, 1, 0, 0, 0, 0, 1, 0, 0, 10, 0, 1); animation: 4.54545s linear 0s infinite normal forwards running animate; transform-box: view-box;"><g transform="translate(-128,128)"><path d="M32,32L32,32c20.295,30.445,65.032,30.445,85.327,0l0,0l0.002,0.004c20.296,30.444,65.031,30.444,85.326-0.001L202.659,32
	l0.009,0.014c20.296,30.441,65.027,30.441,85.323,0L288,32" stroke-miterlimit="10" stroke-linejoin="round" stroke-linecap="round" stroke-width="8" stroke="#000000" fill="none" data-stroke="c1" style="stroke: rgb(240, 249, 232);"></path></g></g><g data-idx="0" data-dup="" dx="128" dy="128" style="opacity: 1; transform-origin: 288px 171.42px; transform: matrix3d(1, 0, 0, 0, 0, 1, 0, 0, 0, 0, 1, 0, 0, 10, 0, 1); animation: 4.54545s linear 0s infinite normal forwards running animate; transform-box: view-box;"><g transform="translate(128,128)"><path d="M32,32L32,32c20.295,30.445,65.032,30.445,85.327,0l0,0l0.002,0.004c20.296,30.444,65.031,30.444,85.326-0.001L202.659,32
	l0.009,0.014c20.296,30.441,65.027,30.441,85.323,0L288,32" stroke-miterlimit="10" stroke-linejoin="round" stroke-linecap="round" stroke-width="8" stroke="#000000" fill="none" data-stroke="c1" style="stroke: rgb(240, 249, 232);"></path></g></g><g data-idx="1" data-dup="" dx="-128" dy="128" style="opacity: 1; transform-origin: 32px 299.42px; transform: matrix3d(1, 0, 0, 0, 0, 1, 0, 0, 0, 0, 1, 0, 0, 10, 0, 1); animation: 4.54545s linear -0.25s infinite normal forwards running animate; transform-box: view-box;"><g transform="translate(-128,128)"><path d="M32,160L32,160c20.295,30.445,65.032,30.445,85.327,0l0,0l0.002,0.004c20.296,30.444,65.031,30.444,85.326-0.001l0.002-0.003
	l0.009,0.014c20.296,30.441,65.027,30.441,85.323,0L288,160" stroke-miterlimit="10" stroke-linejoin="round" stroke-linecap="round" stroke-width="8" stroke="#000000" fill="none" data-stroke="c1" style="stroke: rgb(240, 249, 232);"></path></g></g><g data-idx="1" data-dup="" dx="128" dy="128" style="opacity: 1; transform-origin: 288px 299.42px; transform: matrix3d(1, 0, 0, 0, 0, 1, 0, 0, 0, 0, 1, 0, 0, 10, 0, 1); animation: 4.54545s linear -0.25s infinite normal forwards running animate; transform-box: view-box;"><g transform="translate(128,128)"><path d="M32,160L32,160c20.295,30.445,65.032,30.445,85.327,0l0,0l0.002,0.004c20.296,30.444,65.031,30.444,85.326-0.001l0.002-0.003
	l0.009,0.014c20.296,30.441,65.027,30.441,85.323,0L288,160" stroke-miterlimit="10" stroke-linejoin="round" stroke-linecap="round" stroke-width="8" stroke="#000000" fill="none" data-stroke="c1" style="stroke: rgb(240, 249, 232);"></path></g></g><g data-idx="2" data-dup="r" dx="-128" dy="128" style="opacity: 1; transform-origin: -32px 235.42px; transform: matrix3d(1, 0, 0, 0, 0, 1, 0, 0, 0, 0, 1, 0, 0, 10, 0, 1); animation: 4.54545s linear -0.5s infinite normal forwards running animate; transform-box: view-box;"><g transform="translate(-128,128)"><path d="M-32,96L-32,96c20.295,30.445,65.032,30.445,85.327,0l0,0l0.002,0.004c20.296,30.444,65.031,30.444,85.326-0.001L138.659,96
	l0.009,0.014c20.296,30.441,65.027,30.441,85.323,0L224,96" stroke-miterlimit="10" stroke-linejoin="round" stroke-linecap="round" stroke-width="8" stroke="#777777" fill="none" data-stroke="c2" style="stroke: rgb(240, 244, 217);"></path></g></g><g data-idx="2" data-dup="r" dx="128" dy="128" style="opacity: 1; transform-origin: 224px 235.42px; transform: matrix3d(1, 0, 0, 0, 0, 1, 0, 0, 0, 0, 1, 0, 0, 10, 0, 1); animation: 4.54545s linear -0.5s infinite normal forwards running animate; transform-box: view-box;"><g transform="translate(128,128)"><path d="M-32,96L-32,96c20.295,30.445,65.032,30.445,85.327,0l0,0l0.002,0.004c20.296,30.444,65.031,30.444,85.326-0.001L138.659,96
	l0.009,0.014c20.296,30.441,65.027,30.441,85.323,0L224,96" stroke-miterlimit="10" stroke-linejoin="round" stroke-linecap="round" stroke-width="8" stroke="#777777" fill="none" data-stroke="c2" style="stroke: rgb(240, 244, 217);"></path></g></g><g data-idx="3" data-dup="r" dx="-128" dy="128" style="opacity: 1; transform-origin: -32px 363.42px; transform: matrix3d(1, 0, 0, 0, 0, 1, 0, 0, 0, 0, 1, 0, 0, 10, 0, 1); animation: 4.54545s linear -0.75s infinite normal forwards running animate; transform-box: view-box;"><g transform="translate(-128,128)"><path d="M-32,224L-32,224c20.295,30.445,65.032,30.445,85.327,0l0,0l0,0.001c20.297,30.445,65.034,30.445,85.33-0.001l0,0l0.007,0.011
	c20.297,30.442,65.031,30.442,85.327,0L224,224" stroke-miterlimit="10" stroke-linejoin="round" stroke-linecap="round" stroke-width="8" stroke="#777777" fill="none" data-stroke="c2" style="stroke: rgb(240, 244, 217);"></path></g></g><g data-idx="3" data-dup="r" dx="128" dy="128" style="opacity: 1; transform-origin: 224px 363.42px; transform: matrix3d(1, 0, 0, 0, 0, 1, 0, 0, 0, 0, 1, 0, 0, 10, 0, 1); animation: 4.54545s linear -0.75s infinite normal forwards running animate; transform-box: view-box;"><g transform="translate(128,128)"><path d="M-32,224L-32,224c20.295,30.445,65.032,30.445,85.327,0l0,0l0,0.001c20.297,30.445,65.034,30.445,85.33-0.001l0,0l0.007,0.011
	c20.297,30.442,65.031,30.442,85.327,0L224,224" stroke-miterlimit="10" stroke-linejoin="round" stroke-linecap="round" stroke-width="8" stroke="#777777" fill="none" data-stroke="c2" style="stroke: rgb(240, 244, 217);"></path></g></g></g><style type="text/css">@keyframes animate { 0.00% {animation-timing-function: cubic-bezier(0.59,0.02,0.79,0.52);transform: translate(0.00px,10.00px) rotate(0.00deg) scale(1.00, 1.00) skew(0deg, 0.00deg) ;opacity: 1.00;}26.00% {animation-timing-function: cubic-bezier(0.19,0.49,0.42,0.98);transform: translate(0.00px,-1.00px) rotate(0.00deg) ;}50.00% {animation-timing-function: cubic-bezier(0.59,0.02,0.79,0.52);transform: translate(0.00px,-10.00px) rotate(0.00deg) ;}76.00% {animation-timing-function: cubic-bezier(0.21,0.48,0.44,0.93);transform: translate(0.00px,1.00px) rotate(0.00deg) ;}100.00% {animation-timing-function: cubic-bezier(0.21,0.48,0.44,0.93);transform: translate(0.00px,10.00px) rotate(0.00deg) ;} }</style><!-- [ldio] generated by https://loading.io --></svg>