<svg xmlns="http://www.w3.org/2000/svg" viewBox="0 0 878 461" preserveAspectRatio="xMidYMid" width="878" height="461" style="shape-rendering: auto; display: block; background: rgb(251, 197, 111);" xmlns:xlink="http://www.w3.org/1999/xlink"><g><g transform="translate(195.30864803551344 -100) rotate(0)">
  <animateTransform begin="-0.2519085323528122s" repeatCount="indefinite" dur="10s" values="195.30864803551344 -100;1464.4721056025182 561" keyTimes="0;1" type="translate" attributeName="transform"></animateTransform>
  <animateTransform additive="sum" repeatCount="indefinite" dur="10s" values="0 50 50;1006.2115440179406 50 50" begin="-0.2519085323528122s" keyTimes="0;1" type="rotate" attributeName="transform"></animateTransform>
  <path transform="scale(0.5703404367577017)" fill="#ffc46c" d="M87.422,66.495c-2.009-0.544-4.049-0.97-6.107-1.283c10.617-11.116,15.747-27.37,13.129-42.549 c-5.236,1.77-10.223,4.252-14.824,7.313c-4.13,2.747-7.948,5.961-11.374,9.55C67.425,24.863,61.344,10.451,50.991,0 c-4.015,5.451-7.281,11.444-9.753,17.744c-3.579,9.122-5.501,18.893-5.669,28.691c-4.79-7.979-11.256-14.955-18.858-20.322 c-4.514-3.187-9.431-5.806-14.616-7.72c-3.361,16.717,2.731,35.015,15.445,46.379c0.369,0.33,0.745,0.654,1.126,0.972 c-2.359,0.411-4.689,0.983-6.969,1.714C7.582,68.775,3.634,70.61,0,72.945c8.85,9.963,23.134,14.771,36.208,12.186 c3.524-0.697,7.002-1.919,9.887-4.057c0.073-0.054,0.145-0.111,0.218-0.167c-0.987,5.662-2.714,11.136-5.104,16.221l7.509,2.806 c1.698-5.797,2.631-11.748,2.814-17.669c0.107,0.076,0.215,0.152,0.324,0.225c3.142,2.114,6.863,3.232,10.607,3.796 C76.352,88.379,91.161,82.628,100,71.71C96.061,69.427,91.816,67.684,87.422,66.495z"></path>
</g><g transform="translate(186.10620156055995 -100) rotate(0)">
  <animateTransform begin="-0.568668365225856s" repeatCount="indefinite" dur="10s" values="186.10620156055995 -100;978 535.3400217968883" keyTimes="0;1" type="translate" attributeName="transform"></animateTransform>
  <animateTransform additive="sum" repeatCount="indefinite" dur="10s" values="0 50 50;373.87275820307815 50 50" begin="-0.568668365225856s" keyTimes="0;1" type="rotate" attributeName="transform"></animateTransform>
  <path transform="scale(1.002463583757431)" fill="#ff956e" d="M87.422,66.495c-2.009-0.544-4.049-0.97-6.107-1.283c10.617-11.116,15.747-27.37,13.129-42.549 c-5.236,1.77-10.223,4.252-14.824,7.313c-4.13,2.747-7.948,5.961-11.374,9.55C67.425,24.863,61.344,10.451,50.991,0 c-4.015,5.451-7.281,11.444-9.753,17.744c-3.579,9.122-5.501,18.893-5.669,28.691c-4.79-7.979-11.256-14.955-18.858-20.322 c-4.514-3.187-9.431-5.806-14.616-7.72c-3.361,16.717,2.731,35.015,15.445,46.379c0.369,0.33,0.745,0.654,1.126,0.972 c-2.359,0.411-4.689,0.983-6.969,1.714C7.582,68.775,3.634,70.61,0,72.945c8.85,9.963,23.134,14.771,36.208,12.186 c3.524-0.697,7.002-1.919,9.887-4.057c0.073-0.054,0.145-0.111,0.218-0.167c-0.987,5.662-2.714,11.136-5.104,16.221l7.509,2.806 c1.698-5.797,2.631-11.748,2.814-17.669c0.107,0.076,0.215,0.152,0.324,0.225c3.142,2.114,6.863,3.232,10.607,3.796 C76.352,88.379,91.161,82.628,100,71.71C96.061,69.427,91.816,67.684,87.422,66.495z"></path>
</g><g transform="translate(-100 216.5914817225118) rotate(0)">
  <animateTransform begin="-1.6594628893380272s" repeatCount="indefinite" dur="10s" values="-100 216.5914817225118;1074.2525515550353 561" keyTimes="0;1" type="translate" attributeName="transform"></animateTransform>
  <animateTransform additive="sum" repeatCount="indefinite" dur="10s" values="0 50 50;657.007781652485 50 50" begin="-1.6594628893380272s" keyTimes="0;1" type="rotate" attributeName="transform"></animateTransform>
  <path transform="scale(1.0237572301814593)" fill="#ff9f32" d="M87.422,66.495c-2.009-0.544-4.049-0.97-6.107-1.283c10.617-11.116,15.747-27.37,13.129-42.549 c-5.236,1.77-10.223,4.252-14.824,7.313c-4.13,2.747-7.948,5.961-11.374,9.55C67.425,24.863,61.344,10.451,50.991,0 c-4.015,5.451-7.281,11.444-9.753,17.744c-3.579,9.122-5.501,18.893-5.669,28.691c-4.79-7.979-11.256-14.955-18.858-20.322 c-4.514-3.187-9.431-5.806-14.616-7.72c-3.361,16.717,2.731,35.015,15.445,46.379c0.369,0.33,0.745,0.654,1.126,0.972 c-2.359,0.411-4.689,0.983-6.969,1.714C7.582,68.775,3.634,70.61,0,72.945c8.85,9.963,23.134,14.771,36.208,12.186 c3.524-0.697,7.002-1.919,9.887-4.057c0.073-0.054,0.145-0.111,0.218-0.167c-0.987,5.662-2.714,11.136-5.104,16.221l7.509,2.806 c1.698-5.797,2.631-11.748,2.814-17.669c0.107,0.076,0.215,0.152,0.324,0.225c3.142,2.114,6.863,3.232,10.607,3.796 C76.352,88.379,91.161,82.628,100,71.71C96.061,69.427,91.816,67.684,87.422,66.495z"></path>
</g><g transform="translate(-100 41.46938006167994) rotate(0)">
  <animateTransform begin="-0.6857189537710433s" repeatCount="indefinite" dur="10s" values="-100 41.46938006167994;917.8115738513917 561" keyTimes="0;1" type="translate" attributeName="transform"></animateTransform>
  <animateTransform additive="sum" repeatCount="indefinite" dur="10s" values="0 50 50;812.68909064631 50 50" begin="-0.6857189537710433s" keyTimes="0;1" type="rotate" attributeName="transform"></animateTransform>
  <path transform="scale(0.7250702799603957)" fill="#ff9f32" d="M87.422,66.495c-2.009-0.544-4.049-0.97-6.107-1.283c10.617-11.116,15.747-27.37,13.129-42.549 c-5.236,1.77-10.223,4.252-14.824,7.313c-4.13,2.747-7.948,5.961-11.374,9.55C67.425,24.863,61.344,10.451,50.991,0 c-4.015,5.451-7.281,11.444-9.753,17.744c-3.579,9.122-5.501,18.893-5.669,28.691c-4.79-7.979-11.256-14.955-18.858-20.322 c-4.514-3.187-9.431-5.806-14.616-7.72c-3.361,16.717,2.731,35.015,15.445,46.379c0.369,0.33,0.745,0.654,1.126,0.972 c-2.359,0.411-4.689,0.983-6.969,1.714C7.582,68.775,3.634,70.61,0,72.945c8.85,9.963,23.134,14.771,36.208,12.186 c3.524-0.697,7.002-1.919,9.887-4.057c0.073-0.054,0.145-0.111,0.218-0.167c-0.987,5.662-2.714,11.136-5.104,16.221l7.509,2.806 c1.698-5.797,2.631-11.748,2.814-17.669c0.107,0.076,0.215,0.152,0.324,0.225c3.142,2.114,6.863,3.232,10.607,3.796 C76.352,88.379,91.161,82.628,100,71.71C96.061,69.427,91.816,67.684,87.422,66.495z"></path>
</g><g transform="translate(430.0684121036714 -100) rotate(0)">
  <animateTransform begin="-7.671734240822885s" repeatCount="indefinite" dur="10s" values="430.0684121036714 -100;978 358.1478859506894" keyTimes="0;1" type="translate" attributeName="transform"></animateTransform>
  <animateTransform additive="sum" repeatCount="indefinite" dur="10s" values="0 50 50;1070.881381616252 50 50" begin="-7.671734240822885s" keyTimes="0;1" type="rotate" attributeName="transform"></animateTransform>
  <path transform="scale(0.5316458059693209)" fill="#f86161" d="M87.422,66.495c-2.009-0.544-4.049-0.97-6.107-1.283c10.617-11.116,15.747-27.37,13.129-42.549 c-5.236,1.77-10.223,4.252-14.824,7.313c-4.13,2.747-7.948,5.961-11.374,9.55C67.425,24.863,61.344,10.451,50.991,0 c-4.015,5.451-7.281,11.444-9.753,17.744c-3.579,9.122-5.501,18.893-5.669,28.691c-4.79-7.979-11.256-14.955-18.858-20.322 c-4.514-3.187-9.431-5.806-14.616-7.72c-3.361,16.717,2.731,35.015,15.445,46.379c0.369,0.33,0.745,0.654,1.126,0.972 c-2.359,0.411-4.689,0.983-6.969,1.714C7.582,68.775,3.634,70.61,0,72.945c8.85,9.963,23.134,14.771,36.208,12.186 c3.524-0.697,7.002-1.919,9.887-4.057c0.073-0.054,0.145-0.111,0.218-0.167c-0.987,5.662-2.714,11.136-5.104,16.221l7.509,2.806 c1.698-5.797,2.631-11.748,2.814-17.669c0.107,0.076,0.215,0.152,0.324,0.225c3.142,2.114,6.863,3.232,10.607,3.796 C76.352,88.379,91.161,82.628,100,71.71C96.061,69.427,91.816,67.684,87.422,66.495z"></path>
</g><g transform="translate(-100 160.45567754490133) rotate(0)">
  <animateTransform begin="-5.1376466368859095s" repeatCount="indefinite" dur="10s" values="-100 160.45567754490133;1054.2502094316906 561" keyTimes="0;1" type="translate" attributeName="transform"></animateTransform>
  <animateTransform additive="sum" repeatCount="indefinite" dur="10s" values="0 50 50;388.961749813441 50 50" begin="-5.1376466368859095s" keyTimes="0;1" type="rotate" attributeName="transform"></animateTransform>
  <path transform="scale(0.6712618714212379)" fill="#f86161" d="M87.422,66.495c-2.009-0.544-4.049-0.97-6.107-1.283c10.617-11.116,15.747-27.37,13.129-42.549 c-5.236,1.77-10.223,4.252-14.824,7.313c-4.13,2.747-7.948,5.961-11.374,9.55C67.425,24.863,61.344,10.451,50.991,0 c-4.015,5.451-7.281,11.444-9.753,17.744c-3.579,9.122-5.501,18.893-5.669,28.691c-4.79-7.979-11.256-14.955-18.858-20.322 c-4.514-3.187-9.431-5.806-14.616-7.72c-3.361,16.717,2.731,35.015,15.445,46.379c0.369,0.33,0.745,0.654,1.126,0.972 c-2.359,0.411-4.689,0.983-6.969,1.714C7.582,68.775,3.634,70.61,0,72.945c8.85,9.963,23.134,14.771,36.208,12.186 c3.524-0.697,7.002-1.919,9.887-4.057c0.073-0.054,0.145-0.111,0.218-0.167c-0.987,5.662-2.714,11.136-5.104,16.221l7.509,2.806 c1.698-5.797,2.631-11.748,2.814-17.669c0.107,0.076,0.215,0.152,0.324,0.225c3.142,2.114,6.863,3.232,10.607,3.796 C76.352,88.379,91.161,82.628,100,71.71C96.061,69.427,91.816,67.684,87.422,66.495z"></path>
</g><g transform="translate(-100 77.97450506179038) rotate(0)">
  <animateTransform begin="-9.511700460498997s" repeatCount="indefinite" dur="10s" values="-100 77.97450506179038;957.2718466458318 561" keyTimes="0;1" type="translate" attributeName="transform"></animateTransform>
  <animateTransform additive="sum" repeatCount="indefinite" dur="10s" values="0 50 50;80.31854743663206 50 50" begin="-9.511700460498997s" keyTimes="0;1" type="rotate" attributeName="transform"></animateTransform>
  <path transform="scale(0.7176747966338167)" fill="#f86161" d="M87.422,66.495c-2.009-0.544-4.049-0.97-6.107-1.283c10.617-11.116,15.747-27.37,13.129-42.549 c-5.236,1.77-10.223,4.252-14.824,7.313c-4.13,2.747-7.948,5.961-11.374,9.55C67.425,24.863,61.344,10.451,50.991,0 c-4.015,5.451-7.281,11.444-9.753,17.744c-3.579,9.122-5.501,18.893-5.669,28.691c-4.79-7.979-11.256-14.955-18.858-20.322 c-4.514-3.187-9.431-5.806-14.616-7.72c-3.361,16.717,2.731,35.015,15.445,46.379c0.369,0.33,0.745,0.654,1.126,0.972 c-2.359,0.411-4.689,0.983-6.969,1.714C7.582,68.775,3.634,70.61,0,72.945c8.85,9.963,23.134,14.771,36.208,12.186 c3.524-0.697,7.002-1.919,9.887-4.057c0.073-0.054,0.145-0.111,0.218-0.167c-0.987,5.662-2.714,11.136-5.104,16.221l7.509,2.806 c1.698-5.797,2.631-11.748,2.814-17.669c0.107,0.076,0.215,0.152,0.324,0.225c3.142,2.114,6.863,3.232,10.607,3.796 C76.352,88.379,91.161,82.628,100,71.71C96.061,69.427,91.816,67.684,87.422,66.495z"></path>
</g><g transform="translate(686.5066756669748 -100) rotate(0)">
  <animateTransform begin="-5.659511626888251s" repeatCount="indefinite" dur="10s" values="686.5066756669748 -100;978 189.83859779577074" keyTimes="0;1" type="translate" attributeName="transform"></animateTransform>
  <animateTransform additive="sum" repeatCount="indefinite" dur="10s" values="0 50 50;379.53874547727634 50 50" begin="-5.659511626888251s" keyTimes="0;1" type="rotate" attributeName="transform"></animateTransform>
  <path transform="scale(0.958937465669483)" fill="#f86161" d="M87.422,66.495c-2.009-0.544-4.049-0.97-6.107-1.283c10.617-11.116,15.747-27.37,13.129-42.549 c-5.236,1.77-10.223,4.252-14.824,7.313c-4.13,2.747-7.948,5.961-11.374,9.55C67.425,24.863,61.344,10.451,50.991,0 c-4.015,5.451-7.281,11.444-9.753,17.744c-3.579,9.122-5.501,18.893-5.669,28.691c-4.79-7.979-11.256-14.955-18.858-20.322 c-4.514-3.187-9.431-5.806-14.616-7.72c-3.361,16.717,2.731,35.015,15.445,46.379c0.369,0.33,0.745,0.654,1.126,0.972 c-2.359,0.411-4.689,0.983-6.969,1.714C7.582,68.775,3.634,70.61,0,72.945c8.85,9.963,23.134,14.771,36.208,12.186 c3.524-0.697,7.002-1.919,9.887-4.057c0.073-0.054,0.145-0.111,0.218-0.167c-0.987,5.662-2.714,11.136-5.104,16.221l7.509,2.806 c1.698-5.797,2.631-11.748,2.814-17.669c0.107,0.076,0.215,0.152,0.324,0.225c3.142,2.114,6.863,3.232,10.607,3.796 C76.352,88.379,91.161,82.628,100,71.71C96.061,69.427,91.816,67.684,87.422,66.495z"></path>
</g><g transform="translate(114.67802175332945 -100) rotate(0)">
  <animateTransform begin="-3.1090182041463654s" repeatCount="indefinite" dur="10s" values="114.67802175332945 -100;978 456.1388841396822" keyTimes="0;1" type="translate" attributeName="transform"></animateTransform>
  <animateTransform additive="sum" repeatCount="indefinite" dur="10s" values="0 50 50;358.70158224534424 50 50" begin="-3.1090182041463654s" keyTimes="0;1" type="rotate" attributeName="transform"></animateTransform>
  <path transform="scale(1.068109675686374)" fill="#ff9f32" d="M87.422,66.495c-2.009-0.544-4.049-0.97-6.107-1.283c10.617-11.116,15.747-27.37,13.129-42.549 c-5.236,1.77-10.223,4.252-14.824,7.313c-4.13,2.747-7.948,5.961-11.374,9.55C67.425,24.863,61.344,10.451,50.991,0 c-4.015,5.451-7.281,11.444-9.753,17.744c-3.579,9.122-5.501,18.893-5.669,28.691c-4.79-7.979-11.256-14.955-18.858-20.322 c-4.514-3.187-9.431-5.806-14.616-7.72c-3.361,16.717,2.731,35.015,15.445,46.379c0.369,0.33,0.745,0.654,1.126,0.972 c-2.359,0.411-4.689,0.983-6.969,1.714C7.582,68.775,3.634,70.61,0,72.945c8.85,9.963,23.134,14.771,36.208,12.186 c3.524-0.697,7.002-1.919,9.887-4.057c0.073-0.054,0.145-0.111,0.218-0.167c-0.987,5.662-2.714,11.136-5.104,16.221l7.509,2.806 c1.698-5.797,2.631-11.748,2.814-17.669c0.107,0.076,0.215,0.152,0.324,0.225c3.142,2.114,6.863,3.232,10.607,3.796 C76.352,88.379,91.161,82.628,100,71.71C96.061,69.427,91.816,67.684,87.422,66.495z"></path>
</g><g transform="translate(-100 33.73637345849637) rotate(0)">
  <animateTransform begin="-0.47378581698013095s" repeatCount="indefinite" dur="10s" values="-100 33.73637345849637;467.33181607302583 561" keyTimes="0;1" type="translate" attributeName="transform"></animateTransform>
  <animateTransform additive="sum" repeatCount="indefinite" dur="10s" values="0 50 50;576.2604925678263 50 50" begin="-0.47378581698013095s" keyTimes="0;1" type="rotate" attributeName="transform"></animateTransform>
  <path transform="scale(0.6923819521274627)" fill="#ff956e" d="M87.422,66.495c-2.009-0.544-4.049-0.97-6.107-1.283c10.617-11.116,15.747-27.37,13.129-42.549 c-5.236,1.77-10.223,4.252-14.824,7.313c-4.13,2.747-7.948,5.961-11.374,9.55C67.425,24.863,61.344,10.451,50.991,0 c-4.015,5.451-7.281,11.444-9.753,17.744c-3.579,9.122-5.501,18.893-5.669,28.691c-4.79-7.979-11.256-14.955-18.858-20.322 c-4.514-3.187-9.431-5.806-14.616-7.72c-3.361,16.717,2.731,35.015,15.445,46.379c0.369,0.33,0.745,0.654,1.126,0.972 c-2.359,0.411-4.689,0.983-6.969,1.714C7.582,68.775,3.634,70.61,0,72.945c8.85,9.963,23.134,14.771,36.208,12.186 c3.524-0.697,7.002-1.919,9.887-4.057c0.073-0.054,0.145-0.111,0.218-0.167c-0.987,5.662-2.714,11.136-5.104,16.221l7.509,2.806 c1.698-5.797,2.631-11.748,2.814-17.669c0.107,0.076,0.215,0.152,0.324,0.225c3.142,2.114,6.863,3.232,10.607,3.796 C76.352,88.379,91.161,82.628,100,71.71C96.061,69.427,91.816,67.684,87.422,66.495z"></path>
</g><g transform="translate(-100 92.73966188165822) rotate(0)">
  <animateTransform begin="-2.8258034664311387s" repeatCount="indefinite" dur="10s" values="-100 92.73966188165822;581.6285417377034 561" keyTimes="0;1" type="translate" attributeName="transform"></animateTransform>
  <animateTransform additive="sum" repeatCount="indefinite" dur="10s" values="0 50 50;1065.8999450045696 50 50" begin="-2.8258034664311387s" keyTimes="0;1" type="rotate" attributeName="transform"></animateTransform>
  <path transform="scale(0.7693830976294946)" fill="#ff9f32" d="M87.422,66.495c-2.009-0.544-4.049-0.97-6.107-1.283c10.617-11.116,15.747-27.37,13.129-42.549 c-5.236,1.77-10.223,4.252-14.824,7.313c-4.13,2.747-7.948,5.961-11.374,9.55C67.425,24.863,61.344,10.451,50.991,0 c-4.015,5.451-7.281,11.444-9.753,17.744c-3.579,9.122-5.501,18.893-5.669,28.691c-4.79-7.979-11.256-14.955-18.858-20.322 c-4.514-3.187-9.431-5.806-14.616-7.72c-3.361,16.717,2.731,35.015,15.445,46.379c0.369,0.33,0.745,0.654,1.126,0.972 c-2.359,0.411-4.689,0.983-6.969,1.714C7.582,68.775,3.634,70.61,0,72.945c8.85,9.963,23.134,14.771,36.208,12.186 c3.524-0.697,7.002-1.919,9.887-4.057c0.073-0.054,0.145-0.111,0.218-0.167c-0.987,5.662-2.714,11.136-5.104,16.221l7.509,2.806 c1.698-5.797,2.631-11.748,2.814-17.669c0.107,0.076,0.215,0.152,0.324,0.225c3.142,2.114,6.863,3.232,10.607,3.796 C76.352,88.379,91.161,82.628,100,71.71C96.061,69.427,91.816,67.684,87.422,66.495z"></path>
</g><g transform="translate(-100 223.655987388099) rotate(0)">
  <animateTransform begin="-7.93893680771675s" repeatCount="indefinite" dur="10s" values="-100 223.655987388099;923.0591763087219 561" keyTimes="0;1" type="translate" attributeName="transform"></animateTransform>
  <animateTransform additive="sum" repeatCount="indefinite" dur="10s" values="0 50 50;366.74111455525644 50 50" begin="-7.93893680771675s" keyTimes="0;1" type="rotate" attributeName="transform"></animateTransform>
  <path transform="scale(0.615224502197643)" fill="#ffc46c" d="M87.422,66.495c-2.009-0.544-4.049-0.97-6.107-1.283c10.617-11.116,15.747-27.37,13.129-42.549 c-5.236,1.77-10.223,4.252-14.824,7.313c-4.13,2.747-7.948,5.961-11.374,9.55C67.425,24.863,61.344,10.451,50.991,0 c-4.015,5.451-7.281,11.444-9.753,17.744c-3.579,9.122-5.501,18.893-5.669,28.691c-4.79-7.979-11.256-14.955-18.858-20.322 c-4.514-3.187-9.431-5.806-14.616-7.72c-3.361,16.717,2.731,35.015,15.445,46.379c0.369,0.33,0.745,0.654,1.126,0.972 c-2.359,0.411-4.689,0.983-6.969,1.714C7.582,68.775,3.634,70.61,0,72.945c8.85,9.963,23.134,14.771,36.208,12.186 c3.524-0.697,7.002-1.919,9.887-4.057c0.073-0.054,0.145-0.111,0.218-0.167c-0.987,5.662-2.714,11.136-5.104,16.221l7.509,2.806 c1.698-5.797,2.631-11.748,2.814-17.669c0.107,0.076,0.215,0.152,0.324,0.225c3.142,2.114,6.863,3.232,10.607,3.796 C76.352,88.379,91.161,82.628,100,71.71C96.061,69.427,91.816,67.684,87.422,66.495z"></path>
</g><g transform="translate(-100 141.83403138282006) rotate(0)">
  <animateTransform begin="-9.594733466357555s" repeatCount="indefinite" dur="10s" values="-100 141.83403138282006;1069.0240955736003 561" keyTimes="0;1" type="translate" attributeName="transform"></animateTransform>
  <animateTransform additive="sum" repeatCount="indefinite" dur="10s" values="0 50 50;803.4180471672403 50 50" begin="-9.594733466357555s" keyTimes="0;1" type="rotate" attributeName="transform"></animateTransform>
  <path transform="scale(0.4966872747069999)" fill="#ff9f32" d="M87.422,66.495c-2.009-0.544-4.049-0.97-6.107-1.283c10.617-11.116,15.747-27.37,13.129-42.549 c-5.236,1.77-10.223,4.252-14.824,7.313c-4.13,2.747-7.948,5.961-11.374,9.55C67.425,24.863,61.344,10.451,50.991,0 c-4.015,5.451-7.281,11.444-9.753,17.744c-3.579,9.122-5.501,18.893-5.669,28.691c-4.79-7.979-11.256-14.955-18.858-20.322 c-4.514-3.187-9.431-5.806-14.616-7.72c-3.361,16.717,2.731,35.015,15.445,46.379c0.369,0.33,0.745,0.654,1.126,0.972 c-2.359,0.411-4.689,0.983-6.969,1.714C7.582,68.775,3.634,70.61,0,72.945c8.85,9.963,23.134,14.771,36.208,12.186 c3.524-0.697,7.002-1.919,9.887-4.057c0.073-0.054,0.145-0.111,0.218-0.167c-0.987,5.662-2.714,11.136-5.104,16.221l7.509,2.806 c1.698-5.797,2.631-11.748,2.814-17.669c0.107,0.076,0.215,0.152,0.324,0.225c3.142,2.114,6.863,3.232,10.607,3.796 C76.352,88.379,91.161,82.628,100,71.71C96.061,69.427,91.816,67.684,87.422,66.495z"></path>
</g><g transform="translate(-100 188.28408069599095) rotate(0)">
  <animateTransform begin="-0.701322458162892s" repeatCount="indefinite" dur="10s" values="-100 188.28408069599095;497.91607249040044 561" keyTimes="0;1" type="translate" attributeName="transform"></animateTransform>
  <animateTransform additive="sum" repeatCount="indefinite" dur="10s" values="0 50 50;851.3182979225494 50 50" begin="-0.701322458162892s" keyTimes="0;1" type="rotate" attributeName="transform"></animateTransform>
  <path transform="scale(1.1068236053383562)" fill="#f86161" d="M87.422,66.495c-2.009-0.544-4.049-0.97-6.107-1.283c10.617-11.116,15.747-27.37,13.129-42.549 c-5.236,1.77-10.223,4.252-14.824,7.313c-4.13,2.747-7.948,5.961-11.374,9.55C67.425,24.863,61.344,10.451,50.991,0 c-4.015,5.451-7.281,11.444-9.753,17.744c-3.579,9.122-5.501,18.893-5.669,28.691c-4.79-7.979-11.256-14.955-18.858-20.322 c-4.514-3.187-9.431-5.806-14.616-7.72c-3.361,16.717,2.731,35.015,15.445,46.379c0.369,0.33,0.745,0.654,1.126,0.972 c-2.359,0.411-4.689,0.983-6.969,1.714C7.582,68.775,3.634,70.61,0,72.945c8.85,9.963,23.134,14.771,36.208,12.186 c3.524-0.697,7.002-1.919,9.887-4.057c0.073-0.054,0.145-0.111,0.218-0.167c-0.987,5.662-2.714,11.136-5.104,16.221l7.509,2.806 c1.698-5.797,2.631-11.748,2.814-17.669c0.107,0.076,0.215,0.152,0.324,0.225c3.142,2.114,6.863,3.232,10.607,3.796 C76.352,88.379,91.161,82.628,100,71.71C96.061,69.427,91.816,67.684,87.422,66.495z"></path>
</g><g transform="translate(-100 10.631612196247348) rotate(0)">
  <animateTransform begin="-2.567824333946941s" repeatCount="indefinite" dur="10s" values="-100 10.631612196247348;1147.4832196954692 561" keyTimes="0;1" type="translate" attributeName="transform"></animateTransform>
  <animateTransform additive="sum" repeatCount="indefinite" dur="10s" values="0 50 50;523.9614716936346 50 50" begin="-2.567824333946941s" keyTimes="0;1" type="rotate" attributeName="transform"></animateTransform>
  <path transform="scale(0.6872775297256406)" fill="#f86161" d="M87.422,66.495c-2.009-0.544-4.049-0.97-6.107-1.283c10.617-11.116,15.747-27.37,13.129-42.549 c-5.236,1.77-10.223,4.252-14.824,7.313c-4.13,2.747-7.948,5.961-11.374,9.55C67.425,24.863,61.344,10.451,50.991,0 c-4.015,5.451-7.281,11.444-9.753,17.744c-3.579,9.122-5.501,18.893-5.669,28.691c-4.79-7.979-11.256-14.955-18.858-20.322 c-4.514-3.187-9.431-5.806-14.616-7.72c-3.361,16.717,2.731,35.015,15.445,46.379c0.369,0.33,0.745,0.654,1.126,0.972 c-2.359,0.411-4.689,0.983-6.969,1.714C7.582,68.775,3.634,70.61,0,72.945c8.85,9.963,23.134,14.771,36.208,12.186 c3.524-0.697,7.002-1.919,9.887-4.057c0.073-0.054,0.145-0.111,0.218-0.167c-0.987,5.662-2.714,11.136-5.104,16.221l7.509,2.806 c1.698-5.797,2.631-11.748,2.814-17.669c0.107,0.076,0.215,0.152,0.324,0.225c3.142,2.114,6.863,3.232,10.607,3.796 C76.352,88.379,91.161,82.628,100,71.71C96.061,69.427,91.816,67.684,87.422,66.495z"></path>
</g><g transform="translate(170.83332794540132 -100) rotate(0)">
  <animateTransform begin="-6.235417774351926s" repeatCount="indefinite" dur="10s" values="170.83332794540132 -100;978 232.21629036643958" keyTimes="0;1" type="translate" attributeName="transform"></animateTransform>
  <animateTransform additive="sum" repeatCount="indefinite" dur="10s" values="0 50 50;647.032522260232 50 50" begin="-6.235417774351926s" keyTimes="0;1" type="rotate" attributeName="transform"></animateTransform>
  <path transform="scale(0.9038466668848945)" fill="#f86161" d="M87.422,66.495c-2.009-0.544-4.049-0.97-6.107-1.283c10.617-11.116,15.747-27.37,13.129-42.549 c-5.236,1.77-10.223,4.252-14.824,7.313c-4.13,2.747-7.948,5.961-11.374,9.55C67.425,24.863,61.344,10.451,50.991,0 c-4.015,5.451-7.281,11.444-9.753,17.744c-3.579,9.122-5.501,18.893-5.669,28.691c-4.79-7.979-11.256-14.955-18.858-20.322 c-4.514-3.187-9.431-5.806-14.616-7.72c-3.361,16.717,2.731,35.015,15.445,46.379c0.369,0.33,0.745,0.654,1.126,0.972 c-2.359,0.411-4.689,0.983-6.969,1.714C7.582,68.775,3.634,70.61,0,72.945c8.85,9.963,23.134,14.771,36.208,12.186 c3.524-0.697,7.002-1.919,9.887-4.057c0.073-0.054,0.145-0.111,0.218-0.167c-0.987,5.662-2.714,11.136-5.104,16.221l7.509,2.806 c1.698-5.797,2.631-11.748,2.814-17.669c0.107,0.076,0.215,0.152,0.324,0.225c3.142,2.114,6.863,3.232,10.607,3.796 C76.352,88.379,91.161,82.628,100,71.71C96.061,69.427,91.816,67.684,87.422,66.495z"></path>
</g><g transform="translate(140.59788295397558 -100) rotate(0)">
  <animateTransform begin="-2.950019022663675s" repeatCount="indefinite" dur="10s" values="140.59788295397558 -100;978 195.5892314355395" keyTimes="0;1" type="translate" attributeName="transform"></animateTransform>
  <animateTransform additive="sum" repeatCount="indefinite" dur="10s" values="0 50 50;749.7330319897817 50 50" begin="-2.950019022663675s" keyTimes="0;1" type="rotate" attributeName="transform"></animateTransform>
  <path transform="scale(0.9323344392478834)" fill="#ff956e" d="M87.422,66.495c-2.009-0.544-4.049-0.97-6.107-1.283c10.617-11.116,15.747-27.37,13.129-42.549 c-5.236,1.77-10.223,4.252-14.824,7.313c-4.13,2.747-7.948,5.961-11.374,9.55C67.425,24.863,61.344,10.451,50.991,0 c-4.015,5.451-7.281,11.444-9.753,17.744c-3.579,9.122-5.501,18.893-5.669,28.691c-4.79-7.979-11.256-14.955-18.858-20.322 c-4.514-3.187-9.431-5.806-14.616-7.72c-3.361,16.717,2.731,35.015,15.445,46.379c0.369,0.33,0.745,0.654,1.126,0.972 c-2.359,0.411-4.689,0.983-6.969,1.714C7.582,68.775,3.634,70.61,0,72.945c8.85,9.963,23.134,14.771,36.208,12.186 c3.524-0.697,7.002-1.919,9.887-4.057c0.073-0.054,0.145-0.111,0.218-0.167c-0.987,5.662-2.714,11.136-5.104,16.221l7.509,2.806 c1.698-5.797,2.631-11.748,2.814-17.669c0.107,0.076,0.215,0.152,0.324,0.225c3.142,2.114,6.863,3.232,10.607,3.796 C76.352,88.379,91.161,82.628,100,71.71C96.061,69.427,91.816,67.684,87.422,66.495z"></path>
</g><g transform="translate(-100 96.8225332843) rotate(0)">
  <animateTransform begin="-7.585009503395495s" repeatCount="indefinite" dur="10s" values="-100 96.8225332843;391.23512528505427 561" keyTimes="0;1" type="translate" attributeName="transform"></animateTransform>
  <animateTransform additive="sum" repeatCount="indefinite" dur="10s" values="0 50 50;624.6769974397871 50 50" begin="-7.585009503395495s" keyTimes="0;1" type="rotate" attributeName="transform"></animateTransform>
  <path transform="scale(1.0352800538747828)" fill="#f86161" d="M87.422,66.495c-2.009-0.544-4.049-0.97-6.107-1.283c10.617-11.116,15.747-27.37,13.129-42.549 c-5.236,1.77-10.223,4.252-14.824,7.313c-4.13,2.747-7.948,5.961-11.374,9.55C67.425,24.863,61.344,10.451,50.991,0 c-4.015,5.451-7.281,11.444-9.753,17.744c-3.579,9.122-5.501,18.893-5.669,28.691c-4.79-7.979-11.256-14.955-18.858-20.322 c-4.514-3.187-9.431-5.806-14.616-7.72c-3.361,16.717,2.731,35.015,15.445,46.379c0.369,0.33,0.745,0.654,1.126,0.972 c-2.359,0.411-4.689,0.983-6.969,1.714C7.582,68.775,3.634,70.61,0,72.945c8.85,9.963,23.134,14.771,36.208,12.186 c3.524-0.697,7.002-1.919,9.887-4.057c0.073-0.054,0.145-0.111,0.218-0.167c-0.987,5.662-2.714,11.136-5.104,16.221l7.509,2.806 c1.698-5.797,2.631-11.748,2.814-17.669c0.107,0.076,0.215,0.152,0.324,0.225c3.142,2.114,6.863,3.232,10.607,3.796 C76.352,88.379,91.161,82.628,100,71.71C96.061,69.427,91.816,67.684,87.422,66.495z"></path>
</g><g transform="translate(644.2920079394681 -100) rotate(0)">
  <animateTransform begin="-8.85440405457959s" repeatCount="indefinite" dur="10s" values="644.2920079394681 -100;1404.6214578060803 561" keyTimes="0;1" type="translate" attributeName="transform"></animateTransform>
  <animateTransform additive="sum" repeatCount="indefinite" dur="10s" values="0 50 50;976.915442357946 50 50" begin="-8.85440405457959s" keyTimes="0;1" type="rotate" attributeName="transform"></animateTransform>
  <path transform="scale(0.9081820283567391)" fill="#ff956e" d="M87.422,66.495c-2.009-0.544-4.049-0.97-6.107-1.283c10.617-11.116,15.747-27.37,13.129-42.549 c-5.236,1.77-10.223,4.252-14.824,7.313c-4.13,2.747-7.948,5.961-11.374,9.55C67.425,24.863,61.344,10.451,50.991,0 c-4.015,5.451-7.281,11.444-9.753,17.744c-3.579,9.122-5.501,18.893-5.669,28.691c-4.79-7.979-11.256-14.955-18.858-20.322 c-4.514-3.187-9.431-5.806-14.616-7.72c-3.361,16.717,2.731,35.015,15.445,46.379c0.369,0.33,0.745,0.654,1.126,0.972 c-2.359,0.411-4.689,0.983-6.969,1.714C7.582,68.775,3.634,70.61,0,72.945c8.85,9.963,23.134,14.771,36.208,12.186 c3.524-0.697,7.002-1.919,9.887-4.057c0.073-0.054,0.145-0.111,0.218-0.167c-0.987,5.662-2.714,11.136-5.104,16.221l7.509,2.806 c1.698-5.797,2.631-11.748,2.814-17.669c0.107,0.076,0.215,0.152,0.324,0.225c3.142,2.114,6.863,3.232,10.607,3.796 C76.352,88.379,91.161,82.628,100,71.71C96.061,69.427,91.816,67.684,87.422,66.495z"></path>
</g><g transform="translate(811.492491709952 -100) rotate(0)">
  <animateTransform begin="-0.4052297402140997s" repeatCount="indefinite" dur="10s" values="811.492491709952 -100;978 520.3289807480343" keyTimes="0;1" type="translate" attributeName="transform"></animateTransform>
  <animateTransform additive="sum" repeatCount="indefinite" dur="10s" values="0 50 50;82.5396014162488 50 50" begin="-0.4052297402140997s" keyTimes="0;1" type="rotate" attributeName="transform"></animateTransform>
  <path transform="scale(0.5414161326040728)" fill="#ffc46c" d="M87.422,66.495c-2.009-0.544-4.049-0.97-6.107-1.283c10.617-11.116,15.747-27.37,13.129-42.549 c-5.236,1.77-10.223,4.252-14.824,7.313c-4.13,2.747-7.948,5.961-11.374,9.55C67.425,24.863,61.344,10.451,50.991,0 c-4.015,5.451-7.281,11.444-9.753,17.744c-3.579,9.122-5.501,18.893-5.669,28.691c-4.79-7.979-11.256-14.955-18.858-20.322 c-4.514-3.187-9.431-5.806-14.616-7.72c-3.361,16.717,2.731,35.015,15.445,46.379c0.369,0.33,0.745,0.654,1.126,0.972 c-2.359,0.411-4.689,0.983-6.969,1.714C7.582,68.775,3.634,70.61,0,72.945c8.85,9.963,23.134,14.771,36.208,12.186 c3.524-0.697,7.002-1.919,9.887-4.057c0.073-0.054,0.145-0.111,0.218-0.167c-0.987,5.662-2.714,11.136-5.104,16.221l7.509,2.806 c1.698-5.797,2.631-11.748,2.814-17.669c0.107,0.076,0.215,0.152,0.324,0.225c3.142,2.114,6.863,3.232,10.607,3.796 C76.352,88.379,91.161,82.628,100,71.71C96.061,69.427,91.816,67.684,87.422,66.495z"></path>
</g><g transform="translate(-100 71.40943921666646) rotate(0)">
  <animateTransform begin="-0.994423371890215s" repeatCount="indefinite" dur="10s" values="-100 71.40943921666646;978 760.2158424110193" keyTimes="0;1" type="translate" attributeName="transform"></animateTransform>
  <animateTransform additive="sum" repeatCount="indefinite" dur="10s" values="0 50 50;511.9995039991224 50 50" begin="-0.994423371890215s" keyTimes="0;1" type="rotate" attributeName="transform"></animateTransform>
  <path transform="scale(0.6079295091653898)" fill="#ff956e" d="M87.422,66.495c-2.009-0.544-4.049-0.97-6.107-1.283c10.617-11.116,15.747-27.37,13.129-42.549 c-5.236,1.77-10.223,4.252-14.824,7.313c-4.13,2.747-7.948,5.961-11.374,9.55C67.425,24.863,61.344,10.451,50.991,0 c-4.015,5.451-7.281,11.444-9.753,17.744c-3.579,9.122-5.501,18.893-5.669,28.691c-4.79-7.979-11.256-14.955-18.858-20.322 c-4.514-3.187-9.431-5.806-14.616-7.72c-3.361,16.717,2.731,35.015,15.445,46.379c0.369,0.33,0.745,0.654,1.126,0.972 c-2.359,0.411-4.689,0.983-6.969,1.714C7.582,68.775,3.634,70.61,0,72.945c8.85,9.963,23.134,14.771,36.208,12.186 c3.524-0.697,7.002-1.919,9.887-4.057c0.073-0.054,0.145-0.111,0.218-0.167c-0.987,5.662-2.714,11.136-5.104,16.221l7.509,2.806 c1.698-5.797,2.631-11.748,2.814-17.669c0.107,0.076,0.215,0.152,0.324,0.225c3.142,2.114,6.863,3.232,10.607,3.796 C76.352,88.379,91.161,82.628,100,71.71C96.061,69.427,91.816,67.684,87.422,66.495z"></path>
</g><g transform="translate(-100 46.96218861721009) rotate(0)">
  <animateTransform begin="-5.9619674072799125s" repeatCount="indefinite" dur="10s" values="-100 46.96218861721009;978 515.1244777090882" keyTimes="0;1" type="translate" attributeName="transform"></animateTransform>
  <animateTransform additive="sum" repeatCount="indefinite" dur="10s" values="0 50 50;325.89878132476684 50 50" begin="-5.9619674072799125s" keyTimes="0;1" type="rotate" attributeName="transform"></animateTransform>
  <path transform="scale(1.0003908465308056)" fill="#ffc46c" d="M87.422,66.495c-2.009-0.544-4.049-0.97-6.107-1.283c10.617-11.116,15.747-27.37,13.129-42.549 c-5.236,1.77-10.223,4.252-14.824,7.313c-4.13,2.747-7.948,5.961-11.374,9.55C67.425,24.863,61.344,10.451,50.991,0 c-4.015,5.451-7.281,11.444-9.753,17.744c-3.579,9.122-5.501,18.893-5.669,28.691c-4.79-7.979-11.256-14.955-18.858-20.322 c-4.514-3.187-9.431-5.806-14.616-7.72c-3.361,16.717,2.731,35.015,15.445,46.379c0.369,0.33,0.745,0.654,1.126,0.972 c-2.359,0.411-4.689,0.983-6.969,1.714C7.582,68.775,3.634,70.61,0,72.945c8.85,9.963,23.134,14.771,36.208,12.186 c3.524-0.697,7.002-1.919,9.887-4.057c0.073-0.054,0.145-0.111,0.218-0.167c-0.987,5.662-2.714,11.136-5.104,16.221l7.509,2.806 c1.698-5.797,2.631-11.748,2.814-17.669c0.107,0.076,0.215,0.152,0.324,0.225c3.142,2.114,6.863,3.232,10.607,3.796 C76.352,88.379,91.161,82.628,100,71.71C96.061,69.427,91.816,67.684,87.422,66.495z"></path>
</g><g transform="translate(-100 198.9410174195087) rotate(0)">
  <animateTransform begin="-0.5306474427741807s" repeatCount="indefinite" dur="10s" values="-100 198.9410174195087;378.4114034882301 561" keyTimes="0;1" type="translate" attributeName="transform"></animateTransform>
  <animateTransform additive="sum" repeatCount="indefinite" dur="10s" values="0 50 50;447.4970276743076 50 50" begin="-0.5306474427741807s" keyTimes="0;1" type="rotate" attributeName="transform"></animateTransform>
  <path transform="scale(1.0033441054296859)" fill="#ff9f32" d="M87.422,66.495c-2.009-0.544-4.049-0.97-6.107-1.283c10.617-11.116,15.747-27.37,13.129-42.549 c-5.236,1.77-10.223,4.252-14.824,7.313c-4.13,2.747-7.948,5.961-11.374,9.55C67.425,24.863,61.344,10.451,50.991,0 c-4.015,5.451-7.281,11.444-9.753,17.744c-3.579,9.122-5.501,18.893-5.669,28.691c-4.79-7.979-11.256-14.955-18.858-20.322 c-4.514-3.187-9.431-5.806-14.616-7.72c-3.361,16.717,2.731,35.015,15.445,46.379c0.369,0.33,0.745,0.654,1.126,0.972 c-2.359,0.411-4.689,0.983-6.969,1.714C7.582,68.775,3.634,70.61,0,72.945c8.85,9.963,23.134,14.771,36.208,12.186 c3.524-0.697,7.002-1.919,9.887-4.057c0.073-0.054,0.145-0.111,0.218-0.167c-0.987,5.662-2.714,11.136-5.104,16.221l7.509,2.806 c1.698-5.797,2.631-11.748,2.814-17.669c0.107,0.076,0.215,0.152,0.324,0.225c3.142,2.114,6.863,3.232,10.607,3.796 C76.352,88.379,91.161,82.628,100,71.71C96.061,69.427,91.816,67.684,87.422,66.495z"></path>
</g><g transform="translate(386.1459367918438 -100) rotate(0)">
  <animateTransform begin="-8.212456419824793s" repeatCount="indefinite" dur="10s" values="386.1459367918438 -100;978 428.33074610158235" keyTimes="0;1" type="translate" attributeName="transform"></animateTransform>
  <animateTransform additive="sum" repeatCount="indefinite" dur="10s" values="0 50 50;526.8708349218543 50 50" begin="-8.212456419824793s" keyTimes="0;1" type="rotate" attributeName="transform"></animateTransform>
  <path transform="scale(1.109445727495588)" fill="#ff9f32" d="M87.422,66.495c-2.009-0.544-4.049-0.97-6.107-1.283c10.617-11.116,15.747-27.37,13.129-42.549 c-5.236,1.77-10.223,4.252-14.824,7.313c-4.13,2.747-7.948,5.961-11.374,9.55C67.425,24.863,61.344,10.451,50.991,0 c-4.015,5.451-7.281,11.444-9.753,17.744c-3.579,9.122-5.501,18.893-5.669,28.691c-4.79-7.979-11.256-14.955-18.858-20.322 c-4.514-3.187-9.431-5.806-14.616-7.72c-3.361,16.717,2.731,35.015,15.445,46.379c0.369,0.33,0.745,0.654,1.126,0.972 c-2.359,0.411-4.689,0.983-6.969,1.714C7.582,68.775,3.634,70.61,0,72.945c8.85,9.963,23.134,14.771,36.208,12.186 c3.524-0.697,7.002-1.919,9.887-4.057c0.073-0.054,0.145-0.111,0.218-0.167c-0.987,5.662-2.714,11.136-5.104,16.221l7.509,2.806 c1.698-5.797,2.631-11.748,2.814-17.669c0.107,0.076,0.215,0.152,0.324,0.225c3.142,2.114,6.863,3.232,10.607,3.796 C76.352,88.379,91.161,82.628,100,71.71C96.061,69.427,91.816,67.684,87.422,66.495z"></path>
</g><g transform="translate(-100 187.6103232075562) rotate(0)">
  <animateTransform begin="-5.928252319291408s" repeatCount="indefinite" dur="10s" values="-100 187.6103232075562;903.8140712818912 561" keyTimes="0;1" type="translate" attributeName="transform"></animateTransform>
  <animateTransform additive="sum" repeatCount="indefinite" dur="10s" values="0 50 50;800.4888502072608 50 50" begin="-5.928252319291408s" keyTimes="0;1" type="rotate" attributeName="transform"></animateTransform>
  <path transform="scale(0.8406802510498337)" fill="#f86161" d="M87.422,66.495c-2.009-0.544-4.049-0.97-6.107-1.283c10.617-11.116,15.747-27.37,13.129-42.549 c-5.236,1.77-10.223,4.252-14.824,7.313c-4.13,2.747-7.948,5.961-11.374,9.55C67.425,24.863,61.344,10.451,50.991,0 c-4.015,5.451-7.281,11.444-9.753,17.744c-3.579,9.122-5.501,18.893-5.669,28.691c-4.79-7.979-11.256-14.955-18.858-20.322 c-4.514-3.187-9.431-5.806-14.616-7.72c-3.361,16.717,2.731,35.015,15.445,46.379c0.369,0.33,0.745,0.654,1.126,0.972 c-2.359,0.411-4.689,0.983-6.969,1.714C7.582,68.775,3.634,70.61,0,72.945c8.85,9.963,23.134,14.771,36.208,12.186 c3.524-0.697,7.002-1.919,9.887-4.057c0.073-0.054,0.145-0.111,0.218-0.167c-0.987,5.662-2.714,11.136-5.104,16.221l7.509,2.806 c1.698-5.797,2.631-11.748,2.814-17.669c0.107,0.076,0.215,0.152,0.324,0.225c3.142,2.114,6.863,3.232,10.607,3.796 C76.352,88.379,91.161,82.628,100,71.71C96.061,69.427,91.816,67.684,87.422,66.495z"></path>
</g><g transform="translate(-100 110.15343513029394) rotate(0)">
  <animateTransform begin="-1.592837356893785s" repeatCount="indefinite" dur="10s" values="-100 110.15343513029394;489.7203914564999 561" keyTimes="0;1" type="translate" attributeName="transform"></animateTransform>
  <animateTransform additive="sum" repeatCount="indefinite" dur="10s" values="0 50 50;209.5952207655261 50 50" begin="-1.592837356893785s" keyTimes="0;1" type="rotate" attributeName="transform"></animateTransform>
  <path transform="scale(0.7742638743459272)" fill="#f86161" d="M87.422,66.495c-2.009-0.544-4.049-0.97-6.107-1.283c10.617-11.116,15.747-27.37,13.129-42.549 c-5.236,1.77-10.223,4.252-14.824,7.313c-4.13,2.747-7.948,5.961-11.374,9.55C67.425,24.863,61.344,10.451,50.991,0 c-4.015,5.451-7.281,11.444-9.753,17.744c-3.579,9.122-5.501,18.893-5.669,28.691c-4.79-7.979-11.256-14.955-18.858-20.322 c-4.514-3.187-9.431-5.806-14.616-7.72c-3.361,16.717,2.731,35.015,15.445,46.379c0.369,0.33,0.745,0.654,1.126,0.972 c-2.359,0.411-4.689,0.983-6.969,1.714C7.582,68.775,3.634,70.61,0,72.945c8.85,9.963,23.134,14.771,36.208,12.186 c3.524-0.697,7.002-1.919,9.887-4.057c0.073-0.054,0.145-0.111,0.218-0.167c-0.987,5.662-2.714,11.136-5.104,16.221l7.509,2.806 c1.698-5.797,2.631-11.748,2.814-17.669c0.107,0.076,0.215,0.152,0.324,0.225c3.142,2.114,6.863,3.232,10.607,3.796 C76.352,88.379,91.161,82.628,100,71.71C96.061,69.427,91.816,67.684,87.422,66.495z"></path>
</g><g transform="translate(-100 90.6446458287702) rotate(0)">
  <animateTransform begin="-1.6279951499728031s" repeatCount="indefinite" dur="10s" values="-100 90.6446458287702;1123.7852234217137 561" keyTimes="0;1" type="translate" attributeName="transform"></animateTransform>
  <animateTransform additive="sum" repeatCount="indefinite" dur="10s" values="0 50 50;35.416095719326044 50 50" begin="-1.6279951499728031s" keyTimes="0;1" type="rotate" attributeName="transform"></animateTransform>
  <path transform="scale(0.6868684273986019)" fill="#ffc46c" d="M87.422,66.495c-2.009-0.544-4.049-0.97-6.107-1.283c10.617-11.116,15.747-27.37,13.129-42.549 c-5.236,1.77-10.223,4.252-14.824,7.313c-4.13,2.747-7.948,5.961-11.374,9.55C67.425,24.863,61.344,10.451,50.991,0 c-4.015,5.451-7.281,11.444-9.753,17.744c-3.579,9.122-5.501,18.893-5.669,28.691c-4.79-7.979-11.256-14.955-18.858-20.322 c-4.514-3.187-9.431-5.806-14.616-7.72c-3.361,16.717,2.731,35.015,15.445,46.379c0.369,0.33,0.745,0.654,1.126,0.972 c-2.359,0.411-4.689,0.983-6.969,1.714C7.582,68.775,3.634,70.61,0,72.945c8.85,9.963,23.134,14.771,36.208,12.186 c3.524-0.697,7.002-1.919,9.887-4.057c0.073-0.054,0.145-0.111,0.218-0.167c-0.987,5.662-2.714,11.136-5.104,16.221l7.509,2.806 c1.698-5.797,2.631-11.748,2.814-17.669c0.107,0.076,0.215,0.152,0.324,0.225c3.142,2.114,6.863,3.232,10.607,3.796 C76.352,88.379,91.161,82.628,100,71.71C96.061,69.427,91.816,67.684,87.422,66.495z"></path>
</g><g transform="translate(-100 181.1841740932628) rotate(0)">
  <animateTransform begin="-6.29313827319082s" repeatCount="indefinite" dur="10s" values="-100 181.1841740932628;978 640.5397816221437" keyTimes="0;1" type="translate" attributeName="transform"></animateTransform>
  <animateTransform additive="sum" repeatCount="indefinite" dur="10s" values="0 50 50;577.1811075265834 50 50" begin="-6.29313827319082s" keyTimes="0;1" type="rotate" attributeName="transform"></animateTransform>
  <path transform="scale(1.0096376539885508)" fill="#ff9f32" d="M87.422,66.495c-2.009-0.544-4.049-0.97-6.107-1.283c10.617-11.116,15.747-27.37,13.129-42.549 c-5.236,1.77-10.223,4.252-14.824,7.313c-4.13,2.747-7.948,5.961-11.374,9.55C67.425,24.863,61.344,10.451,50.991,0 c-4.015,5.451-7.281,11.444-9.753,17.744c-3.579,9.122-5.501,18.893-5.669,28.691c-4.79-7.979-11.256-14.955-18.858-20.322 c-4.514-3.187-9.431-5.806-14.616-7.72c-3.361,16.717,2.731,35.015,15.445,46.379c0.369,0.33,0.745,0.654,1.126,0.972 c-2.359,0.411-4.689,0.983-6.969,1.714C7.582,68.775,3.634,70.61,0,72.945c8.85,9.963,23.134,14.771,36.208,12.186 c3.524-0.697,7.002-1.919,9.887-4.057c0.073-0.054,0.145-0.111,0.218-0.167c-0.987,5.662-2.714,11.136-5.104,16.221l7.509,2.806 c1.698-5.797,2.631-11.748,2.814-17.669c0.107,0.076,0.215,0.152,0.324,0.225c3.142,2.114,6.863,3.232,10.607,3.796 C76.352,88.379,91.161,82.628,100,71.71C96.061,69.427,91.816,67.684,87.422,66.495z"></path>
</g><g transform="translate(-100 158.01756267779732) rotate(0)">
  <animateTransform begin="-6.185476031954893s" repeatCount="indefinite" dur="10s" values="-100 158.01756267779732;978 425.3469620422097" keyTimes="0;1" type="translate" attributeName="transform"></animateTransform>
  <animateTransform additive="sum" repeatCount="indefinite" dur="10s" values="0 50 50;225.55300011958542 50 50" begin="-6.185476031954893s" keyTimes="0;1" type="rotate" attributeName="transform"></animateTransform>
  <path transform="scale(0.596312123184908)" fill="#f86161" d="M87.422,66.495c-2.009-0.544-4.049-0.97-6.107-1.283c10.617-11.116,15.747-27.37,13.129-42.549 c-5.236,1.77-10.223,4.252-14.824,7.313c-4.13,2.747-7.948,5.961-11.374,9.55C67.425,24.863,61.344,10.451,50.991,0 c-4.015,5.451-7.281,11.444-9.753,17.744c-3.579,9.122-5.501,18.893-5.669,28.691c-4.79-7.979-11.256-14.955-18.858-20.322 c-4.514-3.187-9.431-5.806-14.616-7.72c-3.361,16.717,2.731,35.015,15.445,46.379c0.369,0.33,0.745,0.654,1.126,0.972 c-2.359,0.411-4.689,0.983-6.969,1.714C7.582,68.775,3.634,70.61,0,72.945c8.85,9.963,23.134,14.771,36.208,12.186 c3.524-0.697,7.002-1.919,9.887-4.057c0.073-0.054,0.145-0.111,0.218-0.167c-0.987,5.662-2.714,11.136-5.104,16.221l7.509,2.806 c1.698-5.797,2.631-11.748,2.814-17.669c0.107,0.076,0.215,0.152,0.324,0.225c3.142,2.114,6.863,3.232,10.607,3.796 C76.352,88.379,91.161,82.628,100,71.71C96.061,69.427,91.816,67.684,87.422,66.495z"></path>
</g><g transform="translate(-100 46.20954915220539) rotate(0)">
  <animateTransform begin="-4.258729032211367s" repeatCount="indefinite" dur="10s" values="-100 46.20954915220539;1108.7181422233593 561" keyTimes="0;1" type="translate" attributeName="transform"></animateTransform>
  <animateTransform additive="sum" repeatCount="indefinite" dur="10s" values="0 50 50;402.75707696306154 50 50" begin="-4.258729032211367s" keyTimes="0;1" type="rotate" attributeName="transform"></animateTransform>
  <path transform="scale(0.9940746905995866)" fill="#ff956e" d="M87.422,66.495c-2.009-0.544-4.049-0.97-6.107-1.283c10.617-11.116,15.747-27.37,13.129-42.549 c-5.236,1.77-10.223,4.252-14.824,7.313c-4.13,2.747-7.948,5.961-11.374,9.55C67.425,24.863,61.344,10.451,50.991,0 c-4.015,5.451-7.281,11.444-9.753,17.744c-3.579,9.122-5.501,18.893-5.669,28.691c-4.79-7.979-11.256-14.955-18.858-20.322 c-4.514-3.187-9.431-5.806-14.616-7.72c-3.361,16.717,2.731,35.015,15.445,46.379c0.369,0.33,0.745,0.654,1.126,0.972 c-2.359,0.411-4.689,0.983-6.969,1.714C7.582,68.775,3.634,70.61,0,72.945c8.85,9.963,23.134,14.771,36.208,12.186 c3.524-0.697,7.002-1.919,9.887-4.057c0.073-0.054,0.145-0.111,0.218-0.167c-0.987,5.662-2.714,11.136-5.104,16.221l7.509,2.806 c1.698-5.797,2.631-11.748,2.814-17.669c0.107,0.076,0.215,0.152,0.324,0.225c3.142,2.114,6.863,3.232,10.607,3.796 C76.352,88.379,91.161,82.628,100,71.71C96.061,69.427,91.816,67.684,87.422,66.495z"></path>
</g><g transform="translate(685.7965010743187 -100) rotate(0)">
  <animateTransform begin="-9.250212396551653s" repeatCount="indefinite" dur="10s" values="685.7965010743187 -100;1198.6845527044634 561" keyTimes="0;1" type="translate" attributeName="transform"></animateTransform>
  <animateTransform additive="sum" repeatCount="indefinite" dur="10s" values="0 50 50;435.12814603395157 50 50" begin="-9.250212396551653s" keyTimes="0;1" type="rotate" attributeName="transform"></animateTransform>
  <path transform="scale(0.7632092357327)" fill="#ffc46c" d="M87.422,66.495c-2.009-0.544-4.049-0.97-6.107-1.283c10.617-11.116,15.747-27.37,13.129-42.549 c-5.236,1.77-10.223,4.252-14.824,7.313c-4.13,2.747-7.948,5.961-11.374,9.55C67.425,24.863,61.344,10.451,50.991,0 c-4.015,5.451-7.281,11.444-9.753,17.744c-3.579,9.122-5.501,18.893-5.669,28.691c-4.79-7.979-11.256-14.955-18.858-20.322 c-4.514-3.187-9.431-5.806-14.616-7.72c-3.361,16.717,2.731,35.015,15.445,46.379c0.369,0.33,0.745,0.654,1.126,0.972 c-2.359,0.411-4.689,0.983-6.969,1.714C7.582,68.775,3.634,70.61,0,72.945c8.85,9.963,23.134,14.771,36.208,12.186 c3.524-0.697,7.002-1.919,9.887-4.057c0.073-0.054,0.145-0.111,0.218-0.167c-0.987,5.662-2.714,11.136-5.104,16.221l7.509,2.806 c1.698-5.797,2.631-11.748,2.814-17.669c0.107,0.076,0.215,0.152,0.324,0.225c3.142,2.114,6.863,3.232,10.607,3.796 C76.352,88.379,91.161,82.628,100,71.71C96.061,69.427,91.816,67.684,87.422,66.495z"></path>
</g><g transform="translate(-100 121.15998120402013) rotate(0)">
  <animateTransform begin="-3.7357086047908696s" repeatCount="indefinite" dur="10s" values="-100 121.15998120402013;978 589.7564266703275" keyTimes="0;1" type="translate" attributeName="transform"></animateTransform>
  <animateTransform additive="sum" repeatCount="indefinite" dur="10s" values="0 50 50;497.3663289479025 50 50" begin="-3.7357086047908696s" keyTimes="0;1" type="rotate" attributeName="transform"></animateTransform>
  <path transform="scale(0.6126936844550928)" fill="#ff9f32" d="M87.422,66.495c-2.009-0.544-4.049-0.97-6.107-1.283c10.617-11.116,15.747-27.37,13.129-42.549 c-5.236,1.77-10.223,4.252-14.824,7.313c-4.13,2.747-7.948,5.961-11.374,9.55C67.425,24.863,61.344,10.451,50.991,0 c-4.015,5.451-7.281,11.444-9.753,17.744c-3.579,9.122-5.501,18.893-5.669,28.691c-4.79-7.979-11.256-14.955-18.858-20.322 c-4.514-3.187-9.431-5.806-14.616-7.72c-3.361,16.717,2.731,35.015,15.445,46.379c0.369,0.33,0.745,0.654,1.126,0.972 c-2.359,0.411-4.689,0.983-6.969,1.714C7.582,68.775,3.634,70.61,0,72.945c8.85,9.963,23.134,14.771,36.208,12.186 c3.524-0.697,7.002-1.919,9.887-4.057c0.073-0.054,0.145-0.111,0.218-0.167c-0.987,5.662-2.714,11.136-5.104,16.221l7.509,2.806 c1.698-5.797,2.631-11.748,2.814-17.669c0.107,0.076,0.215,0.152,0.324,0.225c3.142,2.114,6.863,3.232,10.607,3.796 C76.352,88.379,91.161,82.628,100,71.71C96.061,69.427,91.816,67.684,87.422,66.495z"></path>
</g><g transform="translate(-100 16.589861109058848) rotate(0)">
  <animateTransform begin="-3.8611758836587033s" repeatCount="indefinite" dur="10s" values="-100 16.589861109058848;533.4021873763074 561" keyTimes="0;1" type="translate" attributeName="transform"></animateTransform>
  <animateTransform additive="sum" repeatCount="indefinite" dur="10s" values="0 50 50;969.7246406988959 50 50" begin="-3.8611758836587033s" keyTimes="0;1" type="rotate" attributeName="transform"></animateTransform>
  <path transform="scale(0.9024845382778626)" fill="#ff9f32" d="M87.422,66.495c-2.009-0.544-4.049-0.97-6.107-1.283c10.617-11.116,15.747-27.37,13.129-42.549 c-5.236,1.77-10.223,4.252-14.824,7.313c-4.13,2.747-7.948,5.961-11.374,9.55C67.425,24.863,61.344,10.451,50.991,0 c-4.015,5.451-7.281,11.444-9.753,17.744c-3.579,9.122-5.501,18.893-5.669,28.691c-4.79-7.979-11.256-14.955-18.858-20.322 c-4.514-3.187-9.431-5.806-14.616-7.72c-3.361,16.717,2.731,35.015,15.445,46.379c0.369,0.33,0.745,0.654,1.126,0.972 c-2.359,0.411-4.689,0.983-6.969,1.714C7.582,68.775,3.634,70.61,0,72.945c8.85,9.963,23.134,14.771,36.208,12.186 c3.524-0.697,7.002-1.919,9.887-4.057c0.073-0.054,0.145-0.111,0.218-0.167c-0.987,5.662-2.714,11.136-5.104,16.221l7.509,2.806 c1.698-5.797,2.631-11.748,2.814-17.669c0.107,0.076,0.215,0.152,0.324,0.225c3.142,2.114,6.863,3.232,10.607,3.796 C76.352,88.379,91.161,82.628,100,71.71C96.061,69.427,91.816,67.684,87.422,66.495z"></path>
</g><g transform="translate(-100 37.99724567458499) rotate(0)">
  <animateTransform begin="-1.723019317557162s" repeatCount="indefinite" dur="10s" values="-100 37.99724567458499;812.808065345046 561" keyTimes="0;1" type="translate" attributeName="transform"></animateTransform>
  <animateTransform additive="sum" repeatCount="indefinite" dur="10s" values="0 50 50;466.968105506045 50 50" begin="-1.723019317557162s" keyTimes="0;1" type="rotate" attributeName="transform"></animateTransform>
  <path transform="scale(0.992571305694381)" fill="#ff956e" d="M87.422,66.495c-2.009-0.544-4.049-0.97-6.107-1.283c10.617-11.116,15.747-27.37,13.129-42.549 c-5.236,1.77-10.223,4.252-14.824,7.313c-4.13,2.747-7.948,5.961-11.374,9.55C67.425,24.863,61.344,10.451,50.991,0 c-4.015,5.451-7.281,11.444-9.753,17.744c-3.579,9.122-5.501,18.893-5.669,28.691c-4.79-7.979-11.256-14.955-18.858-20.322 c-4.514-3.187-9.431-5.806-14.616-7.72c-3.361,16.717,2.731,35.015,15.445,46.379c0.369,0.33,0.745,0.654,1.126,0.972 c-2.359,0.411-4.689,0.983-6.969,1.714C7.582,68.775,3.634,70.61,0,72.945c8.85,9.963,23.134,14.771,36.208,12.186 c3.524-0.697,7.002-1.919,9.887-4.057c0.073-0.054,0.145-0.111,0.218-0.167c-0.987,5.662-2.714,11.136-5.104,16.221l7.509,2.806 c1.698-5.797,2.631-11.748,2.814-17.669c0.107,0.076,0.215,0.152,0.324,0.225c3.142,2.114,6.863,3.232,10.607,3.796 C76.352,88.379,91.161,82.628,100,71.71C96.061,69.427,91.816,67.684,87.422,66.495z"></path>
</g><g transform="translate(-100 33.14258110069905) rotate(0)">
  <animateTransform begin="-6.2404331995743725s" repeatCount="indefinite" dur="10s" values="-100 33.14258110069905;481.28113187885174 561" keyTimes="0;1" type="translate" attributeName="transform"></animateTransform>
  <animateTransform additive="sum" repeatCount="indefinite" dur="10s" values="0 50 50;865.3183542288302 50 50" begin="-6.2404331995743725s" keyTimes="0;1" type="rotate" attributeName="transform"></animateTransform>
  <path transform="scale(1.0037005328557722)" fill="#f86161" d="M87.422,66.495c-2.009-0.544-4.049-0.97-6.107-1.283c10.617-11.116,15.747-27.37,13.129-42.549 c-5.236,1.77-10.223,4.252-14.824,7.313c-4.13,2.747-7.948,5.961-11.374,9.55C67.425,24.863,61.344,10.451,50.991,0 c-4.015,5.451-7.281,11.444-9.753,17.744c-3.579,9.122-5.501,18.893-5.669,28.691c-4.79-7.979-11.256-14.955-18.858-20.322 c-4.514-3.187-9.431-5.806-14.616-7.72c-3.361,16.717,2.731,35.015,15.445,46.379c0.369,0.33,0.745,0.654,1.126,0.972 c-2.359,0.411-4.689,0.983-6.969,1.714C7.582,68.775,3.634,70.61,0,72.945c8.85,9.963,23.134,14.771,36.208,12.186 c3.524-0.697,7.002-1.919,9.887-4.057c0.073-0.054,0.145-0.111,0.218-0.167c-0.987,5.662-2.714,11.136-5.104,16.221l7.509,2.806 c1.698-5.797,2.631-11.748,2.814-17.669c0.107,0.076,0.215,0.152,0.324,0.225c3.142,2.114,6.863,3.232,10.607,3.796 C76.352,88.379,91.161,82.628,100,71.71C96.061,69.427,91.816,67.684,87.422,66.495z"></path>
</g><g transform="translate(216.73235320213718 -100) rotate(0)">
  <animateTransform begin="-9.896392277243836s" repeatCount="indefinite" dur="10s" values="216.73235320213718 -100;840.1423294163606 561" keyTimes="0;1" type="translate" attributeName="transform"></animateTransform>
  <animateTransform additive="sum" repeatCount="indefinite" dur="10s" values="0 50 50;646.2580992160242 50 50" begin="-9.896392277243836s" keyTimes="0;1" type="rotate" attributeName="transform"></animateTransform>
  <path transform="scale(0.6194312400335871)" fill="#ff956e" d="M87.422,66.495c-2.009-0.544-4.049-0.97-6.107-1.283c10.617-11.116,15.747-27.37,13.129-42.549 c-5.236,1.77-10.223,4.252-14.824,7.313c-4.13,2.747-7.948,5.961-11.374,9.55C67.425,24.863,61.344,10.451,50.991,0 c-4.015,5.451-7.281,11.444-9.753,17.744c-3.579,9.122-5.501,18.893-5.669,28.691c-4.79-7.979-11.256-14.955-18.858-20.322 c-4.514-3.187-9.431-5.806-14.616-7.72c-3.361,16.717,2.731,35.015,15.445,46.379c0.369,0.33,0.745,0.654,1.126,0.972 c-2.359,0.411-4.689,0.983-6.969,1.714C7.582,68.775,3.634,70.61,0,72.945c8.85,9.963,23.134,14.771,36.208,12.186 c3.524-0.697,7.002-1.919,9.887-4.057c0.073-0.054,0.145-0.111,0.218-0.167c-0.987,5.662-2.714,11.136-5.104,16.221l7.509,2.806 c1.698-5.797,2.631-11.748,2.814-17.669c0.107,0.076,0.215,0.152,0.324,0.225c3.142,2.114,6.863,3.232,10.607,3.796 C76.352,88.379,91.161,82.628,100,71.71C96.061,69.427,91.816,67.684,87.422,66.495z"></path>
</g><g transform="translate(-100 58.031001090820055) rotate(0)">
  <animateTransform begin="-2.143936975274234s" repeatCount="indefinite" dur="10s" values="-100 58.031001090820055;429.50101083498305 561" keyTimes="0;1" type="translate" attributeName="transform"></animateTransform>
  <animateTransform additive="sum" repeatCount="indefinite" dur="10s" values="0 50 50;584.5095329946276 50 50" begin="-2.143936975274234s" keyTimes="0;1" type="rotate" attributeName="transform"></animateTransform>
  <path transform="scale(0.8067475010012948)" fill="#ff956e" d="M87.422,66.495c-2.009-0.544-4.049-0.97-6.107-1.283c10.617-11.116,15.747-27.37,13.129-42.549 c-5.236,1.77-10.223,4.252-14.824,7.313c-4.13,2.747-7.948,5.961-11.374,9.55C67.425,24.863,61.344,10.451,50.991,0 c-4.015,5.451-7.281,11.444-9.753,17.744c-3.579,9.122-5.501,18.893-5.669,28.691c-4.79-7.979-11.256-14.955-18.858-20.322 c-4.514-3.187-9.431-5.806-14.616-7.72c-3.361,16.717,2.731,35.015,15.445,46.379c0.369,0.33,0.745,0.654,1.126,0.972 c-2.359,0.411-4.689,0.983-6.969,1.714C7.582,68.775,3.634,70.61,0,72.945c8.85,9.963,23.134,14.771,36.208,12.186 c3.524-0.697,7.002-1.919,9.887-4.057c0.073-0.054,0.145-0.111,0.218-0.167c-0.987,5.662-2.714,11.136-5.104,16.221l7.509,2.806 c1.698-5.797,2.631-11.748,2.814-17.669c0.107,0.076,0.215,0.152,0.324,0.225c3.142,2.114,6.863,3.232,10.607,3.796 C76.352,88.379,91.161,82.628,100,71.71C96.061,69.427,91.816,67.684,87.422,66.495z"></path>
</g><g transform="translate(829.9258187237741 -100) rotate(0)">
  <animateTransform begin="-8.687270414208097s" repeatCount="indefinite" dur="10s" values="829.9258187237741 -100;978 131.05816569382054" keyTimes="0;1" type="translate" attributeName="transform"></animateTransform>
  <animateTransform additive="sum" repeatCount="indefinite" dur="10s" values="0 50 50;168.82285223695862 50 50" begin="-8.687270414208097s" keyTimes="0;1" type="rotate" attributeName="transform"></animateTransform>
  <path transform="scale(0.5321402466982414)" fill="#ff9f32" d="M87.422,66.495c-2.009-0.544-4.049-0.97-6.107-1.283c10.617-11.116,15.747-27.37,13.129-42.549 c-5.236,1.77-10.223,4.252-14.824,7.313c-4.13,2.747-7.948,5.961-11.374,9.55C67.425,24.863,61.344,10.451,50.991,0 c-4.015,5.451-7.281,11.444-9.753,17.744c-3.579,9.122-5.501,18.893-5.669,28.691c-4.79-7.979-11.256-14.955-18.858-20.322 c-4.514-3.187-9.431-5.806-14.616-7.72c-3.361,16.717,2.731,35.015,15.445,46.379c0.369,0.33,0.745,0.654,1.126,0.972 c-2.359,0.411-4.689,0.983-6.969,1.714C7.582,68.775,3.634,70.61,0,72.945c8.85,9.963,23.134,14.771,36.208,12.186 c3.524-0.697,7.002-1.919,9.887-4.057c0.073-0.054,0.145-0.111,0.218-0.167c-0.987,5.662-2.714,11.136-5.104,16.221l7.509,2.806 c1.698-5.797,2.631-11.748,2.814-17.669c0.107,0.076,0.215,0.152,0.324,0.225c3.142,2.114,6.863,3.232,10.607,3.796 C76.352,88.379,91.161,82.628,100,71.71C96.061,69.427,91.816,67.684,87.422,66.495z"></path>
</g><g transform="translate(153.02734739445026 -100) rotate(0)">
  <animateTransform begin="-6.543352460120052s" repeatCount="indefinite" dur="10s" values="153.02734739445026 -100;1002.0892669822476 561" keyTimes="0;1" type="translate" attributeName="transform"></animateTransform>
  <animateTransform additive="sum" repeatCount="indefinite" dur="10s" values="0 50 50;1023.6828731118326 50 50" begin="-6.543352460120052s" keyTimes="0;1" type="rotate" attributeName="transform"></animateTransform>
  <path transform="scale(0.6754933918275983)" fill="#f86161" d="M87.422,66.495c-2.009-0.544-4.049-0.97-6.107-1.283c10.617-11.116,15.747-27.37,13.129-42.549 c-5.236,1.77-10.223,4.252-14.824,7.313c-4.13,2.747-7.948,5.961-11.374,9.55C67.425,24.863,61.344,10.451,50.991,0 c-4.015,5.451-7.281,11.444-9.753,17.744c-3.579,9.122-5.501,18.893-5.669,28.691c-4.79-7.979-11.256-14.955-18.858-20.322 c-4.514-3.187-9.431-5.806-14.616-7.72c-3.361,16.717,2.731,35.015,15.445,46.379c0.369,0.33,0.745,0.654,1.126,0.972 c-2.359,0.411-4.689,0.983-6.969,1.714C7.582,68.775,3.634,70.61,0,72.945c8.85,9.963,23.134,14.771,36.208,12.186 c3.524-0.697,7.002-1.919,9.887-4.057c0.073-0.054,0.145-0.111,0.218-0.167c-0.987,5.662-2.714,11.136-5.104,16.221l7.509,2.806 c1.698-5.797,2.631-11.748,2.814-17.669c0.107,0.076,0.215,0.152,0.324,0.225c3.142,2.114,6.863,3.232,10.607,3.796 C76.352,88.379,91.161,82.628,100,71.71C96.061,69.427,91.816,67.684,87.422,66.495z"></path>
</g><g transform="translate(505.9635156852799 -100) rotate(0)">
  <animateTransform begin="-3.373124984495728s" repeatCount="indefinite" dur="10s" values="505.9635156852799 -100;978 421.6742688647678" keyTimes="0;1" type="translate" attributeName="transform"></animateTransform>
  <animateTransform additive="sum" repeatCount="indefinite" dur="10s" values="0 50 50;167.10478218995854 50 50" begin="-3.373124984495728s" keyTimes="0;1" type="rotate" attributeName="transform"></animateTransform>
  <path transform="scale(0.6516176729279692)" fill="#f86161" d="M87.422,66.495c-2.009-0.544-4.049-0.97-6.107-1.283c10.617-11.116,15.747-27.37,13.129-42.549 c-5.236,1.77-10.223,4.252-14.824,7.313c-4.13,2.747-7.948,5.961-11.374,9.55C67.425,24.863,61.344,10.451,50.991,0 c-4.015,5.451-7.281,11.444-9.753,17.744c-3.579,9.122-5.501,18.893-5.669,28.691c-4.79-7.979-11.256-14.955-18.858-20.322 c-4.514-3.187-9.431-5.806-14.616-7.72c-3.361,16.717,2.731,35.015,15.445,46.379c0.369,0.33,0.745,0.654,1.126,0.972 c-2.359,0.411-4.689,0.983-6.969,1.714C7.582,68.775,3.634,70.61,0,72.945c8.85,9.963,23.134,14.771,36.208,12.186 c3.524-0.697,7.002-1.919,9.887-4.057c0.073-0.054,0.145-0.111,0.218-0.167c-0.987,5.662-2.714,11.136-5.104,16.221l7.509,2.806 c1.698-5.797,2.631-11.748,2.814-17.669c0.107,0.076,0.215,0.152,0.324,0.225c3.142,2.114,6.863,3.232,10.607,3.796 C76.352,88.379,91.161,82.628,100,71.71C96.061,69.427,91.816,67.684,87.422,66.495z"></path>
</g><g transform="translate(-100 28.50555563178057) rotate(0)">
  <animateTransform begin="-2.705387418151978s" repeatCount="indefinite" dur="10s" values="-100 28.50555563178057;978 642.504401707611" keyTimes="0;1" type="translate" attributeName="transform"></animateTransform>
  <animateTransform additive="sum" repeatCount="indefinite" dur="10s" values="0 50 50;520.5978594898626 50 50" begin="-2.705387418151978s" keyTimes="0;1" type="rotate" attributeName="transform"></animateTransform>
  <path transform="scale(0.7733985813201874)" fill="#ff956e" d="M87.422,66.495c-2.009-0.544-4.049-0.97-6.107-1.283c10.617-11.116,15.747-27.37,13.129-42.549 c-5.236,1.77-10.223,4.252-14.824,7.313c-4.13,2.747-7.948,5.961-11.374,9.55C67.425,24.863,61.344,10.451,50.991,0 c-4.015,5.451-7.281,11.444-9.753,17.744c-3.579,9.122-5.501,18.893-5.669,28.691c-4.79-7.979-11.256-14.955-18.858-20.322 c-4.514-3.187-9.431-5.806-14.616-7.72c-3.361,16.717,2.731,35.015,15.445,46.379c0.369,0.33,0.745,0.654,1.126,0.972 c-2.359,0.411-4.689,0.983-6.969,1.714C7.582,68.775,3.634,70.61,0,72.945c8.85,9.963,23.134,14.771,36.208,12.186 c3.524-0.697,7.002-1.919,9.887-4.057c0.073-0.054,0.145-0.111,0.218-0.167c-0.987,5.662-2.714,11.136-5.104,16.221l7.509,2.806 c1.698-5.797,2.631-11.748,2.814-17.669c0.107,0.076,0.215,0.152,0.324,0.225c3.142,2.114,6.863,3.232,10.607,3.796 C76.352,88.379,91.161,82.628,100,71.71C96.061,69.427,91.816,67.684,87.422,66.495z"></path>
</g><g transform="translate(728.4137892592472 -100) rotate(0)">
  <animateTransform begin="-0.9492898621890493s" repeatCount="indefinite" dur="10s" values="728.4137892592472 -100;978 581.3270051322969" keyTimes="0;1" type="translate" attributeName="transform"></animateTransform>
  <animateTransform additive="sum" repeatCount="indefinite" dur="10s" values="0 50 50;241.17487002061424 50 50" begin="-0.9492898621890493s" keyTimes="0;1" type="rotate" attributeName="transform"></animateTransform>
  <path transform="scale(0.7887612366118654)" fill="#f86161" d="M87.422,66.495c-2.009-0.544-4.049-0.97-6.107-1.283c10.617-11.116,15.747-27.37,13.129-42.549 c-5.236,1.77-10.223,4.252-14.824,7.313c-4.13,2.747-7.948,5.961-11.374,9.55C67.425,24.863,61.344,10.451,50.991,0 c-4.015,5.451-7.281,11.444-9.753,17.744c-3.579,9.122-5.501,18.893-5.669,28.691c-4.79-7.979-11.256-14.955-18.858-20.322 c-4.514-3.187-9.431-5.806-14.616-7.72c-3.361,16.717,2.731,35.015,15.445,46.379c0.369,0.33,0.745,0.654,1.126,0.972 c-2.359,0.411-4.689,0.983-6.969,1.714C7.582,68.775,3.634,70.61,0,72.945c8.85,9.963,23.134,14.771,36.208,12.186 c3.524-0.697,7.002-1.919,9.887-4.057c0.073-0.054,0.145-0.111,0.218-0.167c-0.987,5.662-2.714,11.136-5.104,16.221l7.509,2.806 c1.698-5.797,2.631-11.748,2.814-17.669c0.107,0.076,0.215,0.152,0.324,0.225c3.142,2.114,6.863,3.232,10.607,3.796 C76.352,88.379,91.161,82.628,100,71.71C96.061,69.427,91.816,67.684,87.422,66.495z"></path>
</g><g transform="translate(78.7505858968381 -100) rotate(0)">
  <animateTransform begin="-6.788263598373473s" repeatCount="indefinite" dur="10s" values="78.7505858968381 -100;1163.3632954478005 561" keyTimes="0;1" type="translate" attributeName="transform"></animateTransform>
  <animateTransform additive="sum" repeatCount="indefinite" dur="10s" values="0 50 50;275.5676436321018 50 50" begin="-6.788263598373473s" keyTimes="0;1" type="rotate" attributeName="transform"></animateTransform>
  <path transform="scale(0.5612085091933107)" fill="#ffc46c" d="M87.422,66.495c-2.009-0.544-4.049-0.97-6.107-1.283c10.617-11.116,15.747-27.37,13.129-42.549 c-5.236,1.77-10.223,4.252-14.824,7.313c-4.13,2.747-7.948,5.961-11.374,9.55C67.425,24.863,61.344,10.451,50.991,0 c-4.015,5.451-7.281,11.444-9.753,17.744c-3.579,9.122-5.501,18.893-5.669,28.691c-4.79-7.979-11.256-14.955-18.858-20.322 c-4.514-3.187-9.431-5.806-14.616-7.72c-3.361,16.717,2.731,35.015,15.445,46.379c0.369,0.33,0.745,0.654,1.126,0.972 c-2.359,0.411-4.689,0.983-6.969,1.714C7.582,68.775,3.634,70.61,0,72.945c8.85,9.963,23.134,14.771,36.208,12.186 c3.524-0.697,7.002-1.919,9.887-4.057c0.073-0.054,0.145-0.111,0.218-0.167c-0.987,5.662-2.714,11.136-5.104,16.221l7.509,2.806 c1.698-5.797,2.631-11.748,2.814-17.669c0.107,0.076,0.215,0.152,0.324,0.225c3.142,2.114,6.863,3.232,10.607,3.796 C76.352,88.379,91.161,82.628,100,71.71C96.061,69.427,91.816,67.684,87.422,66.495z"></path>
</g><g transform="translate(797.5418658351898 -100) rotate(0)">
  <animateTransform begin="-5.102628635440763s" repeatCount="indefinite" dur="10s" values="797.5418658351898 -100;978 247.00874435427852" keyTimes="0;1" type="translate" attributeName="transform"></animateTransform>
  <animateTransform additive="sum" repeatCount="indefinite" dur="10s" values="0 50 50;418.91267201821455 50 50" begin="-5.102628635440763s" keyTimes="0;1" type="rotate" attributeName="transform"></animateTransform>
  <path transform="scale(0.9006219591231217)" fill="#f86161" d="M87.422,66.495c-2.009-0.544-4.049-0.97-6.107-1.283c10.617-11.116,15.747-27.37,13.129-42.549 c-5.236,1.77-10.223,4.252-14.824,7.313c-4.13,2.747-7.948,5.961-11.374,9.55C67.425,24.863,61.344,10.451,50.991,0 c-4.015,5.451-7.281,11.444-9.753,17.744c-3.579,9.122-5.501,18.893-5.669,28.691c-4.79-7.979-11.256-14.955-18.858-20.322 c-4.514-3.187-9.431-5.806-14.616-7.72c-3.361,16.717,2.731,35.015,15.445,46.379c0.369,0.33,0.745,0.654,1.126,0.972 c-2.359,0.411-4.689,0.983-6.969,1.714C7.582,68.775,3.634,70.61,0,72.945c8.85,9.963,23.134,14.771,36.208,12.186 c3.524-0.697,7.002-1.919,9.887-4.057c0.073-0.054,0.145-0.111,0.218-0.167c-0.987,5.662-2.714,11.136-5.104,16.221l7.509,2.806 c1.698-5.797,2.631-11.748,2.814-17.669c0.107,0.076,0.215,0.152,0.324,0.225c3.142,2.114,6.863,3.232,10.607,3.796 C76.352,88.379,91.161,82.628,100,71.71C96.061,69.427,91.816,67.684,87.422,66.495z"></path>
</g><g transform="translate(-100 118.36947833873758) rotate(0)">
  <animateTransform begin="-9.57727878175001s" repeatCount="indefinite" dur="10s" values="-100 118.36947833873758;978 477.08437576528524" keyTimes="0;1" type="translate" attributeName="transform"></animateTransform>
  <animateTransform additive="sum" repeatCount="indefinite" dur="10s" values="0 50 50;472.1855804290868 50 50" begin="-9.57727878175001s" keyTimes="0;1" type="rotate" attributeName="transform"></animateTransform>
  <path transform="scale(1.001954317341307)" fill="#ff9f32" d="M87.422,66.495c-2.009-0.544-4.049-0.97-6.107-1.283c10.617-11.116,15.747-27.37,13.129-42.549 c-5.236,1.77-10.223,4.252-14.824,7.313c-4.13,2.747-7.948,5.961-11.374,9.55C67.425,24.863,61.344,10.451,50.991,0 c-4.015,5.451-7.281,11.444-9.753,17.744c-3.579,9.122-5.501,18.893-5.669,28.691c-4.79-7.979-11.256-14.955-18.858-20.322 c-4.514-3.187-9.431-5.806-14.616-7.72c-3.361,16.717,2.731,35.015,15.445,46.379c0.369,0.33,0.745,0.654,1.126,0.972 c-2.359,0.411-4.689,0.983-6.969,1.714C7.582,68.775,3.634,70.61,0,72.945c8.85,9.963,23.134,14.771,36.208,12.186 c3.524-0.697,7.002-1.919,9.887-4.057c0.073-0.054,0.145-0.111,0.218-0.167c-0.987,5.662-2.714,11.136-5.104,16.221l7.509,2.806 c1.698-5.797,2.631-11.748,2.814-17.669c0.107,0.076,0.215,0.152,0.324,0.225c3.142,2.114,6.863,3.232,10.607,3.796 C76.352,88.379,91.161,82.628,100,71.71C96.061,69.427,91.816,67.684,87.422,66.495z"></path>
</g><g transform="translate(137.70385294940675 -100) rotate(0)">
  <animateTransform begin="-9.873308263402738s" repeatCount="indefinite" dur="10s" values="137.70385294940675 -100;1344.8974882209332 561" keyTimes="0;1" type="translate" attributeName="transform"></animateTransform>
  <animateTransform additive="sum" repeatCount="indefinite" dur="10s" values="0 50 50;947.1252090328828 50 50" begin="-9.873308263402738s" keyTimes="0;1" type="rotate" attributeName="transform"></animateTransform>
  <path transform="scale(0.5998161113655901)" fill="#ff9f32" d="M87.422,66.495c-2.009-0.544-4.049-0.97-6.107-1.283c10.617-11.116,15.747-27.37,13.129-42.549 c-5.236,1.77-10.223,4.252-14.824,7.313c-4.13,2.747-7.948,5.961-11.374,9.55C67.425,24.863,61.344,10.451,50.991,0 c-4.015,5.451-7.281,11.444-9.753,17.744c-3.579,9.122-5.501,18.893-5.669,28.691c-4.79-7.979-11.256-14.955-18.858-20.322 c-4.514-3.187-9.431-5.806-14.616-7.72c-3.361,16.717,2.731,35.015,15.445,46.379c0.369,0.33,0.745,0.654,1.126,0.972 c-2.359,0.411-4.689,0.983-6.969,1.714C7.582,68.775,3.634,70.61,0,72.945c8.85,9.963,23.134,14.771,36.208,12.186 c3.524-0.697,7.002-1.919,9.887-4.057c0.073-0.054,0.145-0.111,0.218-0.167c-0.987,5.662-2.714,11.136-5.104,16.221l7.509,2.806 c1.698-5.797,2.631-11.748,2.814-17.669c0.107,0.076,0.215,0.152,0.324,0.225c3.142,2.114,6.863,3.232,10.607,3.796 C76.352,88.379,91.161,82.628,100,71.71C96.061,69.427,91.816,67.684,87.422,66.495z"></path>
</g><g transform="translate(-100 173.65900521228747) rotate(0)">
  <animateTransform begin="-4.464691383763915s" repeatCount="indefinite" dur="10s" values="-100 173.65900521228747;978 443.10388326896106" keyTimes="0;1" type="translate" attributeName="transform"></animateTransform>
  <animateTransform additive="sum" repeatCount="indefinite" dur="10s" values="0 50 50;435.1761757310476 50 50" begin="-4.464691383763915s" keyTimes="0;1" type="rotate" attributeName="transform"></animateTransform>
  <path transform="scale(0.5771157935665497)" fill="#ffc46c" d="M87.422,66.495c-2.009-0.544-4.049-0.97-6.107-1.283c10.617-11.116,15.747-27.37,13.129-42.549 c-5.236,1.77-10.223,4.252-14.824,7.313c-4.13,2.747-7.948,5.961-11.374,9.55C67.425,24.863,61.344,10.451,50.991,0 c-4.015,5.451-7.281,11.444-9.753,17.744c-3.579,9.122-5.501,18.893-5.669,28.691c-4.79-7.979-11.256-14.955-18.858-20.322 c-4.514-3.187-9.431-5.806-14.616-7.72c-3.361,16.717,2.731,35.015,15.445,46.379c0.369,0.33,0.745,0.654,1.126,0.972 c-2.359,0.411-4.689,0.983-6.969,1.714C7.582,68.775,3.634,70.61,0,72.945c8.85,9.963,23.134,14.771,36.208,12.186 c3.524-0.697,7.002-1.919,9.887-4.057c0.073-0.054,0.145-0.111,0.218-0.167c-0.987,5.662-2.714,11.136-5.104,16.221l7.509,2.806 c1.698-5.797,2.631-11.748,2.814-17.669c0.107,0.076,0.215,0.152,0.324,0.225c3.142,2.114,6.863,3.232,10.607,3.796 C76.352,88.379,91.161,82.628,100,71.71C96.061,69.427,91.816,67.684,87.422,66.495z"></path>
</g><g transform="translate(583.4147446771404 -100) rotate(0)">
  <animateTransform begin="-5.1166727528194444s" repeatCount="indefinite" dur="10s" values="583.4147446771404 -100;978 576.1706995094313" keyTimes="0;1" type="translate" attributeName="transform"></animateTransform>
  <animateTransform additive="sum" repeatCount="indefinite" dur="10s" values="0 50 50;726.132265437579 50 50" begin="-5.1166727528194444s" keyTimes="0;1" type="rotate" attributeName="transform"></animateTransform>
  <path transform="scale(0.9959592607246844)" fill="#ff9f32" d="M87.422,66.495c-2.009-0.544-4.049-0.97-6.107-1.283c10.617-11.116,15.747-27.37,13.129-42.549 c-5.236,1.77-10.223,4.252-14.824,7.313c-4.13,2.747-7.948,5.961-11.374,9.55C67.425,24.863,61.344,10.451,50.991,0 c-4.015,5.451-7.281,11.444-9.753,17.744c-3.579,9.122-5.501,18.893-5.669,28.691c-4.79-7.979-11.256-14.955-18.858-20.322 c-4.514-3.187-9.431-5.806-14.616-7.72c-3.361,16.717,2.731,35.015,15.445,46.379c0.369,0.33,0.745,0.654,1.126,0.972 c-2.359,0.411-4.689,0.983-6.969,1.714C7.582,68.775,3.634,70.61,0,72.945c8.85,9.963,23.134,14.771,36.208,12.186 c3.524-0.697,7.002-1.919,9.887-4.057c0.073-0.054,0.145-0.111,0.218-0.167c-0.987,5.662-2.714,11.136-5.104,16.221l7.509,2.806 c1.698-5.797,2.631-11.748,2.814-17.669c0.107,0.076,0.215,0.152,0.324,0.225c3.142,2.114,6.863,3.232,10.607,3.796 C76.352,88.379,91.161,82.628,100,71.71C96.061,69.427,91.816,67.684,87.422,66.495z"></path>
</g><g transform="translate(-100 62.09463910202375) rotate(0)">
  <animateTransform begin="-4.274184808671847s" repeatCount="indefinite" dur="10s" values="-100 62.09463910202375;978 435.6628483756282" keyTimes="0;1" type="translate" attributeName="transform"></animateTransform>
  <animateTransform additive="sum" repeatCount="indefinite" dur="10s" values="0 50 50;498.5861588206907 50 50" begin="-4.274184808671847s" keyTimes="0;1" type="rotate" attributeName="transform"></animateTransform>
  <path transform="scale(0.72032189382683)" fill="#f86161" d="M87.422,66.495c-2.009-0.544-4.049-0.97-6.107-1.283c10.617-11.116,15.747-27.37,13.129-42.549 c-5.236,1.77-10.223,4.252-14.824,7.313c-4.13,2.747-7.948,5.961-11.374,9.55C67.425,24.863,61.344,10.451,50.991,0 c-4.015,5.451-7.281,11.444-9.753,17.744c-3.579,9.122-5.501,18.893-5.669,28.691c-4.79-7.979-11.256-14.955-18.858-20.322 c-4.514-3.187-9.431-5.806-14.616-7.72c-3.361,16.717,2.731,35.015,15.445,46.379c0.369,0.33,0.745,0.654,1.126,0.972 c-2.359,0.411-4.689,0.983-6.969,1.714C7.582,68.775,3.634,70.61,0,72.945c8.85,9.963,23.134,14.771,36.208,12.186 c3.524-0.697,7.002-1.919,9.887-4.057c0.073-0.054,0.145-0.111,0.218-0.167c-0.987,5.662-2.714,11.136-5.104,16.221l7.509,2.806 c1.698-5.797,2.631-11.748,2.814-17.669c0.107,0.076,0.215,0.152,0.324,0.225c3.142,2.114,6.863,3.232,10.607,3.796 C76.352,88.379,91.161,82.628,100,71.71C96.061,69.427,91.816,67.684,87.422,66.495z"></path>
</g><g transform="translate(-100 153.44925922921635) rotate(0)">
  <animateTransform begin="-4.8181375809277105s" repeatCount="indefinite" dur="10s" values="-100 153.44925922921635;1029.0055938697567 561" keyTimes="0;1" type="translate" attributeName="transform"></animateTransform>
  <animateTransform additive="sum" repeatCount="indefinite" dur="10s" values="0 50 50;738.3060360889405 50 50" begin="-4.8181375809277105s" keyTimes="0;1" type="rotate" attributeName="transform"></animateTransform>
  <path transform="scale(1.0859870056799827)" fill="#ff956e" d="M87.422,66.495c-2.009-0.544-4.049-0.97-6.107-1.283c10.617-11.116,15.747-27.37,13.129-42.549 c-5.236,1.77-10.223,4.252-14.824,7.313c-4.13,2.747-7.948,5.961-11.374,9.55C67.425,24.863,61.344,10.451,50.991,0 c-4.015,5.451-7.281,11.444-9.753,17.744c-3.579,9.122-5.501,18.893-5.669,28.691c-4.79-7.979-11.256-14.955-18.858-20.322 c-4.514-3.187-9.431-5.806-14.616-7.72c-3.361,16.717,2.731,35.015,15.445,46.379c0.369,0.33,0.745,0.654,1.126,0.972 c-2.359,0.411-4.689,0.983-6.969,1.714C7.582,68.775,3.634,70.61,0,72.945c8.85,9.963,23.134,14.771,36.208,12.186 c3.524-0.697,7.002-1.919,9.887-4.057c0.073-0.054,0.145-0.111,0.218-0.167c-0.987,5.662-2.714,11.136-5.104,16.221l7.509,2.806 c1.698-5.797,2.631-11.748,2.814-17.669c0.107,0.076,0.215,0.152,0.324,0.225c3.142,2.114,6.863,3.232,10.607,3.796 C76.352,88.379,91.161,82.628,100,71.71C96.061,69.427,91.816,67.684,87.422,66.495z"></path>
</g><g transform="translate(-100 76.67579310649022) rotate(0)">
  <animateTransform begin="-3.2227872118405982s" repeatCount="indefinite" dur="10s" values="-100 76.67579310649022;978 427.1229474983579" keyTimes="0;1" type="translate" attributeName="transform"></animateTransform>
  <animateTransform additive="sum" repeatCount="indefinite" dur="10s" values="0 50 50;823.127494925 50 50" begin="-3.2227872118405982s" keyTimes="0;1" type="rotate" attributeName="transform"></animateTransform>
  <path transform="scale(0.8744894918338947)" fill="#ff9f32" d="M87.422,66.495c-2.009-0.544-4.049-0.97-6.107-1.283c10.617-11.116,15.747-27.37,13.129-42.549 c-5.236,1.77-10.223,4.252-14.824,7.313c-4.13,2.747-7.948,5.961-11.374,9.55C67.425,24.863,61.344,10.451,50.991,0 c-4.015,5.451-7.281,11.444-9.753,17.744c-3.579,9.122-5.501,18.893-5.669,28.691c-4.79-7.979-11.256-14.955-18.858-20.322 c-4.514-3.187-9.431-5.806-14.616-7.72c-3.361,16.717,2.731,35.015,15.445,46.379c0.369,0.33,0.745,0.654,1.126,0.972 c-2.359,0.411-4.689,0.983-6.969,1.714C7.582,68.775,3.634,70.61,0,72.945c8.85,9.963,23.134,14.771,36.208,12.186 c3.524-0.697,7.002-1.919,9.887-4.057c0.073-0.054,0.145-0.111,0.218-0.167c-0.987,5.662-2.714,11.136-5.104,16.221l7.509,2.806 c1.698-5.797,2.631-11.748,2.814-17.669c0.107,0.076,0.215,0.152,0.324,0.225c3.142,2.114,6.863,3.232,10.607,3.796 C76.352,88.379,91.161,82.628,100,71.71C96.061,69.427,91.816,67.684,87.422,66.495z"></path>
</g><g transform="translate(-100 146.97044466856931) rotate(0)">
  <animateTransform begin="-5.9799952012917545s" repeatCount="indefinite" dur="10s" values="-100 146.97044466856931;804.0306904514622 561" keyTimes="0;1" type="translate" attributeName="transform"></animateTransform>
  <animateTransform additive="sum" repeatCount="indefinite" dur="10s" values="0 50 50;949.3011716201419 50 50" begin="-5.9799952012917545s" keyTimes="0;1" type="rotate" attributeName="transform"></animateTransform>
  <path transform="scale(1.0870189143273057)" fill="#ffc46c" d="M87.422,66.495c-2.009-0.544-4.049-0.97-6.107-1.283c10.617-11.116,15.747-27.37,13.129-42.549 c-5.236,1.77-10.223,4.252-14.824,7.313c-4.13,2.747-7.948,5.961-11.374,9.55C67.425,24.863,61.344,10.451,50.991,0 c-4.015,5.451-7.281,11.444-9.753,17.744c-3.579,9.122-5.501,18.893-5.669,28.691c-4.79-7.979-11.256-14.955-18.858-20.322 c-4.514-3.187-9.431-5.806-14.616-7.72c-3.361,16.717,2.731,35.015,15.445,46.379c0.369,0.33,0.745,0.654,1.126,0.972 c-2.359,0.411-4.689,0.983-6.969,1.714C7.582,68.775,3.634,70.61,0,72.945c8.85,9.963,23.134,14.771,36.208,12.186 c3.524-0.697,7.002-1.919,9.887-4.057c0.073-0.054,0.145-0.111,0.218-0.167c-0.987,5.662-2.714,11.136-5.104,16.221l7.509,2.806 c1.698-5.797,2.631-11.748,2.814-17.669c0.107,0.076,0.215,0.152,0.324,0.225c3.142,2.114,6.863,3.232,10.607,3.796 C76.352,88.379,91.161,82.628,100,71.71C96.061,69.427,91.816,67.684,87.422,66.495z"></path>
</g><g></g></g><!-- [ldio] generated by https://loading.io --></svg>